<?xml version="1.0" encoding="UTF-8" standalone="no"?>
<svg width="100%" height="100%" viewBox="0 0 544 165" version="1.1" xmlns="http://www.w3.org/2000/svg" xmlns:xlink="http://www.w3.org/1999/xlink" xml:space="preserve" xmlns:serif="http://www.serif.com/" style="fill-rule:evenodd;clip-rule:evenodd;stroke-linejoin:round;stroke-miterlimit:2;">
  <path d="M97.96,139.88l-13.2,-42.03l12.47,-59.68l14.17,43.97l-13.44,57.74Z" style="fill:url(#_Linear1);fill-rule:nonzero;" />
  <path d="M501.03,84.29l-55.17,48.33l7.06,-33.53l63.86,-56.66l-15.75,41.86Z" style="fill:url(#_Linear2);fill-rule:nonzero;" />
  <path d="M331.54,64.43c-3.17,-11.76 -23.58,-9.9 -49.9,-4.55c1.9,-8.4 4.66,-23.72 4.66,-23.72c26.94,0.69 40.43,4.18 47.34,9.66c-0,-0 0.01,-0 0.01,0.01c5.98,5.67 2.3,13.18 -2.11,18.6Z" style="fill:url(#_Linear3);fill-rule:nonzero;" />
  <path d="M380.8,143c-67.16,2.16 -103.96,-18.24 -112.13,-29.33c-0.97,-1.5 -1.89,-3.13 -0.53,-4.23c2.26,-2.04 23.01,-0.42 30.48,-1.95c7.42,5.46 12.04,8.79 34.44,12.04c8.06,9.37 32.66,21.49 47.74,23.47Z" style="fill:url(#_Linear4);fill-rule:nonzero;" />
  <path d="M146.78,78.57c0.2,-0.63 12.48,-34.69 12.48,-34.69c0.81,2.97 2.03,4.77 2.86,6.45c-7.47,7.58 -13.75,24.81 -15.34,28.24Z" style="fill:url(#_Linear5);fill-rule:nonzero;" />
  <path d="M244.61,72.15c0.22,22.15 -27.28,52.41 -68.94,28.53c-0.93,-6.84 2.24,-15.81 5.5,-21.53c26.6,26.61 56.78,5.97 54.41,-17.91c3.95,2.58 7.73,5.71 9.03,10.91Z" style="fill:url(#_Linear6);fill-rule:nonzero;" />
  <path d="M36.96,140.88l-14.58,0l12.15,-27.64l6.8,0l-4.37,27.64Z" style="fill:url(#_Linear7);fill-rule:nonzero;" />
  <path d="M62.56,0l-9.93,36.17l-14.14,10.44c-0,0 -4.3,-7.6 -6.37,-11.71c0.88,4.75 2.15,9.41 3.69,13.98l-1.63,1.11l-0.54,-1.79l-1.63,-4.85l-3.48,-10.38l6.25,-19.14l27.78,-13.83Z" style="fill:url(#_Linear8);fill-rule:nonzero;" />
  <path d="M463.67,53.34l-4.17,13.71l-14.95,9.59c-1.28,-4.1 -2.8,-8.14 -4.51,-12.09c0.68,4.45 1.6,8.86 2.76,13.2l0,0.01l-1.57,1.01l-5.35,-19.92l0.49,-2.14c4.69,-3.37 27.3,-3.37 27.3,-3.37Z" style="fill:#c92157;fill-rule:nonzero;" />
  <path d="M96.23,36.17c-0,0 -24.12,79.11 -26.76,87.64l0.09,0.02l-30.6,17.05l25.94,-87.71l31.33,-17Z" style="fill:url(#_Linear9);fill-rule:nonzero;" />
  <path d="M157.23,36.17l-26.67,87.66l-30.6,17.05l2.94,-9.94l0,-0.01c4.97,-14.12 20.17,-66.01 23,-77.76l31.33,-17Z" style="fill:url(#_Linear10);fill-rule:nonzero;" />
  <path d="M284.56,36.17l-26.63,87.56l-0.03,0.1l-28.27,15.75l-2.34,1.3l1.59,-5.38l0,-0.01c1.43,-3.35 24.35,-82.32 24.35,-82.32l31.33,-17Z" style="fill:url(#_Linear11);fill-rule:nonzero;" />
  <path d="M338.23,56.25c0,3.6 -0.72,26.86 -0.75,27.75c-0.12,3.32 -1.63,6.1 -4.14,8.44c-4.44,4.19 -12.04,7.01 -20.69,9.04c-0.01,0.01 -0.03,0.01 -0.04,0.01c-21.83,4.5 -43.36,1.02 -44.73,4.97c1.07,-3.09 3.21,-11.76 5.34,-17.25c2.13,-5.38 58.32,1.12 65.01,-32.96Z" style="fill:url(#_Linear12);fill-rule:nonzero;" />
  <path d="M463.06,52.04c-72.13,-6.97 -165.81,67.59 -53.83,69.96c-11,10.36 -16.19,14.88 -23.5,21c-115.64,-33.8 -2.91,-110.46 56.22,-108.39c2.79,2.24 18.11,15.03 21.11,17.43Z" style="fill:url(#_Linear13);fill-rule:nonzero;" />
  <path d="M543.14,52.91l-34.33,112.02l-20.49,-16.3l33,-110.43l21.82,14.71Z" style="fill:url(#_Linear14);fill-rule:nonzero;" />
  <path d="M41.58,71.16l-21.2,69.72l-20.38,-17.05l18.7,-63.24l12.74,-8.4c0,-0 4.11,7.83 5.97,12.12c-0.78,-4.83 -1.85,-9.62 -3.23,-14.32l1.63,-1.11l5.77,22.28Z" style="fill:url(#_Linear15);fill-rule:nonzero;" />
  <path d="M449.48,100l-5.23,17.21c-0.01,0.02 -7.49,23.44 -7.49,23.44l-20.1,-16.82l10.67,-36.05l12.12,-7.86c1.34,3.92 2.85,7.79 4.53,11.57c-0.76,-4.26 -1.61,-8.55 -2.75,-12.72l1.57,-1.01c0.79,2.96 1.69,5.89 2.71,8.78c0,0.03 0.01,0.06 0.02,0.08l3.95,13.38Z" style="fill:url(#_Linear16);fill-rule:nonzero;" />
  <path d="M226.43,141.2c-30.39,11.62 -88.2,-5.7 -80.45,-50.45c0.75,-3.79 1.66,-7.31 2.72,-10.59c3.67,-11.45 9.38,-19.64 15.42,-26.09c25.24,-26.94 56.7,-15.36 60.11,-14.44c4.32,1.17 20.66,10.96 20.63,26.63c-0.18,-0.37 -4.6,-7.51 -13.52,-11.16l0,0.01c-14.82,-5.48 -57.45,2.05 -58.78,44.33c-0.89,28.24 40.69,27.37 55.86,23.03c-0.3,3.69 -1.99,18.73 -1.99,18.73Z" style="fill:url(#_Linear17);fill-rule:nonzero;" />
  <defs>
    <linearGradient id="_Linear1" x1="0" y1="0" x2="1" y2="0" gradientUnits="userSpaceOnUse" gradientTransform="matrix(36.2092,48.8695,-48.8695,36.2092,85.1199,72.1836)">
      <stop offset="0" style="stop-color:#2f7178;stop-opacity:1" />
      <stop offset="0.44" style="stop-color:#379d7f;stop-opacity:1" />
      <stop offset="0.55" style="stop-color:#348e7e;stop-opacity:1" />
      <stop offset="0.72" style="stop-color:#317e7b;stop-opacity:1" />
      <stop offset="0.87" style="stop-color:#307479;stop-opacity:1" />
      <stop offset="1" style="stop-color:#2f7178;stop-opacity:1" />
    </linearGradient>
    <linearGradient id="_Linear2" x1="0" y1="0" x2="1" y2="0" gradientUnits="userSpaceOnUse" gradientTransform="matrix(82.9176,-77.322,77.322,82.9176,439.918,126.243)">
      <stop offset="0" style="stop-color:#952457;stop-opacity:1" />
      <stop offset="0.21" style="stop-color:#952457;stop-opacity:1" />
      <stop offset="0.51" style="stop-color:#ef4161;stop-opacity:1" />
      <stop offset="0.89" style="stop-color:#952457;stop-opacity:1" />
      <stop offset="1" style="stop-color:#952457;stop-opacity:1" />
    </linearGradient>
    <linearGradient id="_Linear3" x1="0" y1="0" x2="1" y2="0" gradientUnits="userSpaceOnUse" gradientTransform="matrix(51.0633,16.5915,-16.5915,51.0633,283.686,44.1958)">
      <stop offset="0" style="stop-color:#952457;stop-opacity:1" />
      <stop offset="0.53" style="stop-color:#ef4161;stop-opacity:1" />
      <stop offset="1" style="stop-color:#952457;stop-opacity:1" />
    </linearGradient>
    <linearGradient id="_Linear4" x1="0" y1="0" x2="1" y2="0" gradientUnits="userSpaceOnUse" gradientTransform="matrix(112.728,34.4645,-34.4645,112.728,267.526,110.301)">
      <stop offset="0" style="stop-color:#952457;stop-opacity:1" />
      <stop offset="0.24" style="stop-color:#952457;stop-opacity:1" />
      <stop offset="0.44" style="stop-color:#ef4161;stop-opacity:1" />
      <stop offset="0.67" style="stop-color:#952457;stop-opacity:1" />
      <stop offset="1" style="stop-color:#952457;stop-opacity:1" />
    </linearGradient>
    <linearGradient id="_Linear5" x1="0" y1="0" x2="1" y2="0" gradientUnits="userSpaceOnUse" gradientTransform="matrix(2.12413e-15,-34.6897,34.6897,2.12413e-15,154.451,78.5707)">
      <stop offset="0" style="stop-color:#2f7178;stop-opacity:1" />
      <stop offset="0.57" style="stop-color:#2f7178;stop-opacity:1" />
      <stop offset="1" style="stop-color:#379d7f;stop-opacity:1" />
    </linearGradient>
    <linearGradient id="_Linear6" x1="0" y1="0" x2="1" y2="0" gradientUnits="userSpaceOnUse" gradientTransform="matrix(64.5377,-37.2609,37.2609,64.5377,178.619,105.784)">
      <stop offset="0" style="stop-color:#2f7178;stop-opacity:1" />
      <stop offset="0.15" style="stop-color:#2f7178;stop-opacity:1" />
      <stop offset="0.46" style="stop-color:#379d7f;stop-opacity:1" />
      <stop offset="0.55" style="stop-color:#348e7e;stop-opacity:1" />
      <stop offset="0.68" style="stop-color:#317e7b;stop-opacity:1" />
      <stop offset="0.8" style="stop-color:#307479;stop-opacity:1" />
      <stop offset="0.9" style="stop-color:#2f7178;stop-opacity:1" />
      <stop offset="1" style="stop-color:#2f7178;stop-opacity:1" />
    </linearGradient>
    <linearGradient id="_Linear7" x1="0" y1="0" x2="1" y2="0" gradientUnits="userSpaceOnUse" gradientTransform="matrix(1.69246e-15,-27.64,27.64,1.69246e-15,31.855,140.875)">
      <stop offset="0" style="stop-color:#2f7178;stop-opacity:1" />
      <stop offset="0.54" style="stop-color:#379d7f;stop-opacity:1" />
      <stop offset="1" style="stop-color:#379d7f;stop-opacity:1" />
    </linearGradient>
    <linearGradient id="_Linear8" x1="0" y1="0" x2="1" y2="0" gradientUnits="userSpaceOnUse" gradientTransform="matrix(40.5313,-36.4945,36.4945,40.5313,26.0181,40.9208)">
      <stop offset="0" style="stop-color:#2f7178;stop-opacity:1" />
      <stop offset="0.31" style="stop-color:#2f7178;stop-opacity:1" />
      <stop offset="0.55" style="stop-color:#379d7f;stop-opacity:1" />
      <stop offset="1" style="stop-color:#379d7f;stop-opacity:1" />
    </linearGradient>
    <linearGradient id="_Linear9" x1="0" y1="0" x2="1" y2="0" gradientUnits="userSpaceOnUse" gradientTransform="matrix(6.41164e-15,-104.71,104.71,6.41164e-15,67.595,140.875)">
      <stop offset="0" style="stop-color:#379d7f;stop-opacity:1" />
      <stop offset="0.12" style="stop-color:#379d7f;stop-opacity:1" />
      <stop offset="0.22" style="stop-color:#60a97d;stop-opacity:1" />
      <stop offset="0.37" style="stop-color:#84b979;stop-opacity:1" />
      <stop offset="0.51" style="stop-color:#9dc676;stop-opacity:1" />
      <stop offset="0.63" style="stop-color:#accf73;stop-opacity:1" />
      <stop offset="0.74" style="stop-color:#b1d372;stop-opacity:1" />
      <stop offset="0.78" style="stop-color:#a9ce73;stop-opacity:1" />
      <stop offset="0.84" style="stop-color:#95c277;stop-opacity:1" />
      <stop offset="0.92" style="stop-color:#72b17b;stop-opacity:1" />
      <stop offset="1" style="stop-color:#379d7f;stop-opacity:1" />
    </linearGradient>
    <linearGradient id="_Linear10" x1="0" y1="0" x2="1" y2="0" gradientUnits="userSpaceOnUse" gradientTransform="matrix(6.41164e-15,-104.71,104.71,6.41164e-15,128.595,140.875)">
      <stop offset="0" style="stop-color:#379d7f;stop-opacity:1" />
      <stop offset="0.09" style="stop-color:#379d7f;stop-opacity:1" />
      <stop offset="0.14" style="stop-color:#60a97d;stop-opacity:1" />
      <stop offset="0.22" style="stop-color:#84b979;stop-opacity:1" />
      <stop offset="0.29" style="stop-color:#9dc676;stop-opacity:1" />
      <stop offset="0.36" style="stop-color:#accf73;stop-opacity:1" />
      <stop offset="0.42" style="stop-color:#b1d372;stop-opacity:1" />
      <stop offset="0.5" style="stop-color:#a9ce73;stop-opacity:1" />
      <stop offset="0.62" style="stop-color:#95c277;stop-opacity:1" />
      <stop offset="0.77" style="stop-color:#72b17b;stop-opacity:1" />
      <stop offset="0.93" style="stop-color:#379d7f;stop-opacity:1" />
      <stop offset="1" style="stop-color:#379d7f;stop-opacity:1" />
    </linearGradient>
    <linearGradient id="_Linear11" x1="0" y1="0" x2="1" y2="0" gradientUnits="userSpaceOnUse" gradientTransform="matrix(6.41164e-15,-104.71,104.71,6.41164e-15,255.925,140.875)">
      <stop offset="0" style="stop-color:#ef4161;stop-opacity:1" />
      <stop offset="0.42" style="stop-color:#f38085;stop-opacity:1" />
      <stop offset="0.54" style="stop-color:#f37a81;stop-opacity:1" />
      <stop offset="0.73" style="stop-color:#f26a75;stop-opacity:1" />
      <stop offset="0.96" style="stop-color:#ef4964;stop-opacity:1" />
      <stop offset="1" style="stop-color:#ef4161;stop-opacity:1" />
    </linearGradient>
    <linearGradient id="_Linear12" x1="0" y1="0" x2="1" y2="0" gradientUnits="userSpaceOnUse" gradientTransform="matrix(56.3444,19.4009,-19.4009,56.3444,278.76,72.9859)">
      <stop offset="0" style="stop-color:#ef4161;stop-opacity:1" />
      <stop offset="0.14" style="stop-color:#ef4161;stop-opacity:1" />
      <stop offset="0.6" style="stop-color:#f38085;stop-opacity:1" />
      <stop offset="0.65" style="stop-color:#f37a81;stop-opacity:1" />
      <stop offset="0.74" style="stop-color:#f26a75;stop-opacity:1" />
      <stop offset="0.85" style="stop-color:#ef4964;stop-opacity:1" />
      <stop offset="0.87" style="stop-color:#ef4161;stop-opacity:1" />
      <stop offset="1" style="stop-color:#ef4161;stop-opacity:1" />
    </linearGradient>
    <linearGradient id="_Linear13" x1="0" y1="0" x2="1" y2="0" gradientUnits="userSpaceOnUse" gradientTransform="matrix(39.3951,-114.411,114.411,39.3951,376.841,140.162)">
      <stop offset="0" style="stop-color:#ef4161;stop-opacity:1" />
      <stop offset="0.21" style="stop-color:#ef4161;stop-opacity:1" />
      <stop offset="0.46" style="stop-color:#f38085;stop-opacity:1" />
      <stop offset="0.52" style="stop-color:#f37a81;stop-opacity:1" />
      <stop offset="0.61" style="stop-color:#f26a75;stop-opacity:1" />
      <stop offset="0.72" style="stop-color:#ef4964;stop-opacity:1" />
      <stop offset="0.74" style="stop-color:#ef4161;stop-opacity:1" />
      <stop offset="1" style="stop-color:#ef4161;stop-opacity:1" />
    </linearGradient>
    <linearGradient id="_Linear14" x1="0" y1="0" x2="1" y2="0" gradientUnits="userSpaceOnUse" gradientTransform="matrix(58.0033,-100.464,100.464,58.0033,486.063,151.793)">
      <stop offset="0" style="stop-color:#ef4161;stop-opacity:1" />
      <stop offset="0.11" style="stop-color:#ef4161;stop-opacity:1" />
      <stop offset="0.41" style="stop-color:#f38085;stop-opacity:1" />
      <stop offset="0.47" style="stop-color:#f37a81;stop-opacity:1" />
      <stop offset="0.56" style="stop-color:#f26a75;stop-opacity:1" />
      <stop offset="0.67" style="stop-color:#ef4964;stop-opacity:1" />
      <stop offset="1" style="stop-color:#ef4161;stop-opacity:1" />
    </linearGradient>
    <linearGradient id="_Linear15" x1="0" y1="0" x2="1" y2="0" gradientUnits="userSpaceOnUse" gradientTransform="matrix(27.0418,-88.4499,88.4499,27.0418,8.3874,137.209)">
      <stop offset="0" style="stop-color:#379d7f;stop-opacity:1" />
      <stop offset="0.12" style="stop-color:#379d7f;stop-opacity:1" />
      <stop offset="0.22" style="stop-color:#60a97d;stop-opacity:1" />
      <stop offset="0.37" style="stop-color:#84b979;stop-opacity:1" />
      <stop offset="0.51" style="stop-color:#9dc676;stop-opacity:1" />
      <stop offset="0.63" style="stop-color:#accf73;stop-opacity:1" />
      <stop offset="0.74" style="stop-color:#b1d372;stop-opacity:1" />
      <stop offset="0.78" style="stop-color:#a9ce73;stop-opacity:1" />
      <stop offset="0.84" style="stop-color:#95c277;stop-opacity:1" />
      <stop offset="0.92" style="stop-color:#72b17b;stop-opacity:1" />
      <stop offset="1" style="stop-color:#379d7f;stop-opacity:1" />
    </linearGradient>
    <linearGradient id="_Linear16" x1="0" y1="0" x2="1" y2="0" gradientUnits="userSpaceOnUse" gradientTransform="matrix(28.7422,-49.7829,49.7829,28.7422,421.777,131.995)">
      <stop offset="0" style="stop-color:#ef4161;stop-opacity:1" />
      <stop offset="0.42" style="stop-color:#f38085;stop-opacity:1" />
      <stop offset="0.54" style="stop-color:#f37a81;stop-opacity:1" />
      <stop offset="0.73" style="stop-color:#f26a75;stop-opacity:1" />
      <stop offset="0.96" style="stop-color:#ef4964;stop-opacity:1" />
      <stop offset="1" style="stop-color:#ef4161;stop-opacity:1" />
    </linearGradient>
    <linearGradient id="_Linear17" x1="0" y1="0" x2="1" y2="0" gradientUnits="userSpaceOnUse" gradientTransform="matrix(6.63383e-15,-108.339,108.339,6.63383e-15,195.066,144.707)">
      <stop offset="0" style="stop-color:#379d7f;stop-opacity:1" />
      <stop offset="0.07" style="stop-color:#60a97d;stop-opacity:1" />
      <stop offset="0.17" style="stop-color:#84b979;stop-opacity:1" />
      <stop offset="0.26" style="stop-color:#9dc676;stop-opacity:1" />
      <stop offset="0.35" style="stop-color:#accf73;stop-opacity:1" />
      <stop offset="0.42" style="stop-color:#b1d372;stop-opacity:1" />
      <stop offset="0.51" style="stop-color:#a9ce73;stop-opacity:1" />
      <stop offset="0.65" style="stop-color:#95c277;stop-opacity:1" />
      <stop offset="0.81" style="stop-color:#72b17b;stop-opacity:1" />
      <stop offset="1" style="stop-color:#379d7f;stop-opacity:1" />
    </linearGradient>
  </defs>
</svg>