<svg width="57" height="50" viewBox="0 0 57 50">
<g fill="#ac0919">
    <path d="M 34.442287,49.64583 29.801445,34.728603 34.185678,13.547707 39.16767,29.153205 Z" />
    <path
        d="m 51.607235,27.886023 c 0.06962,-0.223738 4.387216,-12.311628 4.387216,-12.311628 0.285453,1.053477 0.714129,1.692586 1.005549,2.288552 -2.625765,2.69088 -4.833796,8.805057 -5.392765,10.023076 z" />
</g>
<g fill="#d60510">
    <path
        d="m 33.833586,12.837363 c 0,0 -8.480029,28.077655 -9.407998,31.104644 l 0.03083,0.007 -10.758677,6.050968 9.120557,-31.128724 z" />
    <path
        d="m 55.281317,12.837363 -9.377166,31.111668 -10.758676,6.050968 1.033398,-3.527641 v -0.003 c 1.747526,-5.011538 7.091556,-23.428313 8.087159,-27.598073 z" />
</g>
<g fill="#087c00">
    <path d="M 12.994556,49.999999 H 7.8683453 l 4.2718417,-9.809371 h 2.391039 z" />
    <path
        d="M 21.99576,-3.23e-8 18.504685,12.837363 13.532639,16.54259 c 0,0 -1.511805,-2.6969 -2.238863,-4.155714 0.308328,1.685563 0.754907,3.340022 1.296969,4.961373 L 12.017851,17.74255 11.82788,17.106451 11.254986,15.385773 10.030623,11.701615 12.228708,4.9092002 Z" />
</g>
<path fill="#04a400"
    d="M 14.618751,25.255342 7.1651573,49.999999 0,43.949031 6.5743601,21.504966 11.054075,18.523126 c 0,0 1.445166,2.779171 2.098624,4.301194 -0.273518,-1.713655 -0.64948,-3.414267 -1.134848,-5.08177 l 0.572894,-0.394301 z" />
</svg>