<?xml version="1.0" encoding="UTF-8" standalone="no"?>
<!-- Created with Inkscape (http://www.inkscape.org/) -->

<svg
   width="42.224064mm"
   height="14.552358mm"
   viewBox="0 0 42.224064 14.552358"
   version="1.1"
   id="svg1"
   xml:space="preserve"
   xmlns:inkscape="http://www.inkscape.org/namespaces/inkscape"
   xmlns:sodipodi="http://sodipodi.sourceforge.net/DTD/sodipodi-0.dtd"
   xmlns="http://www.w3.org/2000/svg"
   xmlns:svg="http://www.w3.org/2000/svg"><sodipodi:namedview
     id="namedview1"
     pagecolor="#ffffff"
     bordercolor="#000000"
     borderopacity="0.25"
     inkscape:showpageshadow="2"
     inkscape:pageopacity="0.0"
     inkscape:pagecheckerboard="0"
     inkscape:deskcolor="#d1d1d1"
     inkscape:document-units="mm"><inkscape:page
       x="5.3125297e-15"
       y="0"
       width="42.224068"
       height="14.552358"
       id="page2"
       margin="0"
       bleed="0" /></sodipodi:namedview><defs
     id="defs1" /><g
     inkscape:label="Layer 1"
     inkscape:groupmode="layer"
     id="layer1"
     transform="translate(-83.92754,-141.15507)"><g
       style="fill:#ffffff"
       id="g1"
       transform="matrix(0.13546903,0,0,0.13546903,83.927274,141.15524)"><g
         id="g12"><path
           d="m 78.62,101.53 c 0.39,-0.95 0.63,-1.55 0.92,-2.24 -0.27,-0.28 -0.55,-0.73 -0.95,-0.97 -3.58,-2.1 -7.16,-4.19 -10.78,-6.22 -4.9,-2.74 -9.87,-2.56 -14.75,0.01 -3.08,1.63 -6.04,3.47 -9.05,5.23 -0.57,0.33 -1.47,0.62 -1.61,1.1 -1.35,4.73 -6.23,4.9 -9.16,7.6 -1.08,-0.49 -1.94,-0.88 -2.9,-1.31 -3.59,1.94 -7.33,2.91 -11.41,1.4 -3.29,-1.22 -5.6,-3.44 -7.31,-6.44 C 8.9,94.93 6.34,90.07 3.34,85.49 -1.81,77.65 -1.47,70.84 7.68,64.44 7.47,63.79 7.24,63.05 6.93,62.09 c 2.94,-1.73 5.93,-3.49 9.08,-5.35 0.92,0.74 1.78,1.42 2.88,2.3 4.09,-2.38 8.34,-4.63 12.35,-7.25 4.33,-2.83 6.34,-7.18 6.52,-12.28 0.15,-4.32 0.03,-8.64 0.03,-13.01 -0.96,-0.5 -1.78,-0.93 -2.68,-1.4 v -9.73 c 0.73,-0.45 1.53,-0.95 2.5,-1.55 0.03,-6.34 2.56,-12.17 9.07,-12.97 9.14,-1.13 18.57,-1.06 27.76,-0.23 5.77,0.52 8.34,5.3 9.52,13.13 0.74,0.5 1.54,1.02 2.41,1.6 v 9.7 c -0.89,0.48 -1.85,1 -2.84,1.54 0,4.64 -0.05,9.13 0.01,13.63 0.08,5.43 2.5,9.54 7.2,12.28 3.72,2.17 7.46,4.32 11.16,6.47 0.97,-0.47 1.83,-0.88 2.72,-1.31 2.95,1.7 5.82,3.35 8.84,5.09 -0.17,0.86 -0.32,1.6 -0.47,2.38 1.14,0.9 2.35,1.74 3.42,2.73 4.3,4.02 5.57,9.33 2.85,14.5 -3.47,6.61 -7.19,13.11 -11.2,19.41 -3.94,6.19 -9.88,7.17 -17.97,3.55 -0.78,0.51 -1.58,1.03 -2.45,1.6 -3.06,-1.83 -6.02,-3.59 -9.02,-5.39 z M 77.65,89.69 77.51,89.53 c 0.84,3.86 5.4,3.43 7.33,6.46 -0.65,1.31 -1.36,2.76 -2.17,4.42 1.55,0.91 2.94,1.73 4.2,2.47 0.91,-0.78 1.59,-1.36 2.16,-1.85 1.64,0.92 2.9,1.75 4.25,2.36 4.6,2.07 9.55,1.12 12,-2.82 3.95,-6.33 7.74,-12.79 11.18,-19.4 2.47,-4.75 0.72,-9.52 -3.87,-12.45 -1.24,-0.79 -2.51,-1.55 -3.74,-2.31 0.22,-0.91 0.39,-1.65 0.59,-2.46 -1.36,-0.79 -2.63,-1.52 -3.81,-2.21 -1,0.59 -1.8,1.07 -2.51,1.49 C 98.44,60.49 93.98,57.94 89.57,55.29 84.27,52.11 80.8,47.56 80.49,41.27 80.2,35.32 80.43,29.34 80.43,23.4 c 0.9,-0.37 1.66,-0.67 2.4,-1 0.13,-0.06 0.2,-0.25 0.76,-1.01 -0.71,-1.56 -1.58,-3.47 -2.92,-6.39 0,0.37 0.04,-0.47 0,-1.3 C 80.24,6.37 76.61,2.87 69.28,2.82 63.12,2.78 56.96,2.68 50.8,2.85 44.7,3.02 40.97,6.9 40.76,12.95 c -0.04,1.32 0,2.64 0,4.08 -2.92,0.81 -3.05,2.79 -2.37,5.16 0.74,0.46 1.53,0.95 2.34,1.45 0,5.65 0.16,11.14 -0.04,16.63 -0.21,5.59 -2.44,10.45 -7.15,13.59 -5.09,3.39 -10.5,6.3 -15.75,9.4 -1.06,-0.95 -1.88,-1.68 -2.73,-2.44 -1.44,0.84 -2.73,1.59 -3.97,2.31 0.21,0.97 0.39,1.86 0.58,2.74 -0.97,0.6 -1.67,1.04 -2.37,1.47 -6.76,4.16 -7.92,8.55 -4,15.39 2.39,4.18 4.83,8.32 7.24,12.49 5.68,9.81 8.94,10.76 18.93,5.38 0.73,0.38 1.56,0.81 2.57,1.33 1.19,-0.75 2.43,-1.52 3.9,-2.44 C 31.42,88.13 25.02,76.99 18.34,65.36 h 7.25 c -1.62,1.3 -2.7,2.16 -3.85,3.09 1.28,2.11 2.38,3.93 3.62,5.98 2.37,-1.28 4.54,-2.44 6.97,-3.75 1.89,3.25 3.69,6.33 5.54,9.49 -2.46,1.53 -4.54,2.82 -6.82,4.23 0.8,1.24 1.5,2.32 2.21,3.42 2.4,-1.28 4.56,-2.43 6.9,-3.68 1.01,1.85 1.85,3.37 2.57,4.69 -1.87,2.41 -5.52,2.17 -6.29,6.19 2.77,-1.46 4.91,-2.59 7.18,-3.79 0.68,0.49 1.42,1.02 2.16,1.55 4.75,-2.62 9.16,-5.76 14.75,-5.83 5.73,-0.07 10.15,3.49 15.04,5.96 0.84,-1.31 1.46,-2.27 2.07,-3.23 z"
           id="path1" /><path
           d="M 39.7,60.93 C 39.79,49.42 49.31,39.74 60.71,40.2 73.55,40.72 81.51,50.32 81.56,61.29 81.61,72.62 72.25,82.15 60.59,82.17 48.15,82.19 38.98,71.64 39.7,60.93 Z m 38.39,0.22 C 78.3,50.56 69.16,43.57 60.39,43.57 c -9.57,0 -17.76,8.57 -17.67,17.81 0.1,9.95 8.96,17.85 17.91,17.56 10.03,-0.32 17.5,-7.69 17.46,-17.79 z"
           id="path2" /><path
           d="M 77.65,89.69 C 81.04,84.1 84.42,78.52 87.81,72.93 l -0.15,-0.14 c 0.47,0.78 0.77,1.8 1.45,2.29 1.74,1.25 3.64,2.27 5.83,3.59 -2.83,4.94 -5.6,9.8 -8.44,14.77 -3.09,-1.35 -6.04,-2.63 -8.99,-3.92 l 0.14,0.16 z"
           id="path3" /><path
           d="m 48.83,4.13 h 5.24 c -0.2,4.23 -0.38,8.27 -0.59,12.64 H 46.29 C 45.33,12.36 45.5,8.12 48.83,4.13 Z"
           id="path4" /><path
           d="m 19.46,77.98 c -3.19,2.08 -5.79,3.76 -8.78,5.71 -1.17,-1.87 -2.33,-3.74 -3.85,-6.18 2.76,-2.05 5.33,-3.95 8.43,-6.25 1.47,2.35 2.71,4.33 4.21,6.72 z"
           id="path5" /><path
           d="m 51.05,32.32 v -7.46 h 7.37 v 7.46 z"
           id="path6" /><path
           d="m 90.85,67.84 c 0.58,-0.87 1.09,-2.43 1.75,-2.5 3.01,-0.32 6.19,-1.03 9.15,1.5 -0.86,1.54 -1.72,3.06 -2.66,4.73 -2.88,-1.32 -5.63,-2.59 -8.38,-3.85 l 0.14,0.13 z"
           id="path7" /><path
           d="m 103.48,83.42 c -1.39,-0.78 -2.37,-1.32 -3.55,-1.98 1.33,-2.3 2.53,-4.4 3.92,-6.81 1.23,0.75 2.13,1.3 3.37,2.05 -1.23,2.22 -2.34,4.21 -3.74,6.73 z"
           id="path8" /><path
           d="m 78.02,33.21 c -2.63,-3.25 -2.65,-5.66 -0.39,-8.72 1.67,2.87 1.12,5.46 0.39,8.72 z"
           id="path9" /><path
           d="m 43.32,24.93 c 2.12,3.26 2.12,4.33 0,8.62 z"
           id="path10" /><path
           d="m 52.62,73.01 c 7.9,-2.66 15.6,-5.31 21.36,-11.74 0.7,4.78 -1.55,9.49 -5.67,12.19 -4.71,3.09 -10.8,3.42 -15.68,-0.45 z"
           id="path11" /><path
           d="m 57.53,47.09 c 0.19,2.37 0.27,3.49 0.38,4.79 -1.2,0.63 -2.33,1.22 -3.59,1.89 -0.94,-1.08 -1.78,-2.06 -3.08,-3.56 2.14,-1.06 3.91,-1.93 6.3,-3.11 z"
           id="path12" /></g><g
         id="g19"><path
           d="m 203.46,46.84 h -3.68 c -0.79,-4.9 -1.58,-9.78 -2.37,-14.65 -0.06,-0.02 -0.12,-0.03 -0.19,-0.05 -2.62,5.07 -5.25,10.14 -7.94,15.33 -2.68,-5.18 -5.31,-10.26 -7.95,-15.34 -0.06,0.02 -0.12,0.04 -0.18,0.05 -0.78,4.84 -1.56,9.67 -2.33,14.5 -0.69,0.25 -2.42,0.29 -3.7,0.09 1.41,-8.51 2.82,-17.02 4.23,-25.52 3.44,6.18 6.62,12.47 9.94,18.84 3.29,-6.38 6.52,-12.64 9.75,-18.9 0.06,0 0.12,0 0.17,0.01 1.41,8.51 2.82,17.02 4.24,25.65 z"
           id="path13" /><path
           d="m 209.42,21.53 c 0.3,0 0.53,0 0.75,0 2.62,0 5.23,-0.02 7.85,0.02 1.52,0.02 3.01,0.31 4.41,0.94 2.54,1.14 3.93,3.09 4.3,5.85 0.25,1.89 0.01,3.7 -0.83,5.4 -1.34,2.69 -3.61,4.07 -6.55,4.3 -1.71,0.13 -3.44,0.05 -5.16,0.06 -0.36,0 -0.72,0 -1.2,0 -0.11,2.92 0.01,5.78 -0.07,8.73 -1.18,0.1 -2.31,0.06 -3.5,0.03 z m 3.56,12.94 c 1.99,0 3.87,0.04 5.75,-0.01 1.72,-0.04 3.2,-0.66 3.97,-2.31 0.8,-1.72 0.78,-3.48 -0.31,-5.1 -0.9,-1.34 -2.3,-1.84 -3.85,-1.91 -1.59,-0.07 -3.18,-0.03 -4.76,-0.02 -0.25,0 -0.51,0.04 -0.79,0.06 v 9.28 z"
           id="path14" /><path
           d="m 157.78,20.92 c 4.06,8.73 8.02,17.25 12.04,25.9 -1.35,0.1 -2.56,0.04 -3.88,0.05 -0.81,-1.78 -1.63,-3.57 -2.47,-5.4 h -11.39 c -0.8,1.76 -1.62,3.55 -2.43,5.34 h -3.91 c 4.01,-8.62 7.97,-17.13 12.04,-25.89 z m -4.03,16.88 h 8.05 c -1.34,-2.95 -2.63,-5.81 -4.02,-8.88 -1.39,3.05 -2.69,5.92 -4.03,8.88 z"
           id="path15" /><path
           d="m 268.01,21.57 h 14.34 v 3.54 h -10.68 v 7.3 h 8.87 v 3.56 h -8.93 c -0.01,3.66 0,7.22 0,10.84 h -3.58 V 21.57 Z"
           id="path16" /><path
           d="m 302.72,46.84 h -3.6 v -1.1 c 0,-2.75 -0.01,-5.5 0.01,-8.25 0,-0.59 -0.15,-1.08 -0.45,-1.58 -2.73,-4.53 -5.45,-9.07 -8.17,-13.61 -0.12,-0.19 -0.22,-0.39 -0.42,-0.74 0.75,-0.01 1.39,-0.03 2.02,-0.04 0.66,0 1.32,0 2,0 2.25,3.85 4.47,7.66 6.78,11.6 2.31,-3.95 4.54,-7.76 6.77,-11.57 h 4.03 c -0.23,0.41 -0.42,0.74 -0.62,1.07 -2.63,4.4 -5.26,8.79 -7.91,13.18 -0.34,0.56 -0.48,1.12 -0.48,1.77 0.03,2.72 0.01,5.43 0.01,8.15 v 1.1 z"
           id="path17" /><path
           d="m 246.14,43.22 v 3.6 H 232.36 V 21.58 h 3.47 v 21.64 z"
           id="path18" /><path
           d="M 255.64,46.86 V 21.59 h 3.51 v 25.27 c -1.14,0.04 -2.28,0.03 -3.51,0 z"
           id="path19" /></g><g
         opacity="0.6"
         id="g28"><path
           d="m 259.74,76.37 c -4.86,-0.12 -8.64,-3.78 -8.62,-8.69 0.02,-4.79 3.65,-8.59 8.62,-8.6 4.98,-0.01 8.66,3.83 8.66,8.64 0,4.9 -3.81,8.56 -8.66,8.65 z m 0.02,-2.43 c 3.31,0.02 6.23,-2.58 6.23,-6.21 0,-3.41 -2.54,-6.23 -6.19,-6.25 -3.6,-0.02 -6.27,2.71 -6.27,6.25 0,3.73 3,6.23 6.23,6.21 z"
           id="path20" /><path
           d="m 175.02,70.15 c 1.46,2.04 2.87,4.01 4.33,6.05 h -2.8 c -1.37,-1.9 -2.76,-3.83 -4.16,-5.78 h -2.64 v 5.76 h -2.41 v -16.8 c 0.15,-0.02 0.31,-0.06 0.48,-0.06 1.78,0 3.56,-0.03 5.33,0.01 1.12,0.03 2.21,0.26 3.21,0.79 1.59,0.84 2.41,2.19 2.53,3.97 0.07,0.99 0.02,1.98 -0.36,2.91 -0.56,1.35 -1.48,2.34 -2.85,2.89 -0.18,0.07 -0.37,0.15 -0.65,0.27 z m -5.25,-8.4 c -0.14,1.79 -0.08,5.66 0.09,6.23 1.18,0 2.38,0.09 3.56,-0.02 1.78,-0.16 2.94,-0.77 3.11,-2.85 0.13,-1.64 -0.57,-3.12 -2.54,-3.33 -1.37,-0.15 -2.77,-0.03 -4.21,-0.03 z"
           id="path21" /><path
           d="m 277.08,64.86 v 11.3 c -0.8,0.11 -1.55,0.04 -2.29,0.04 -0.14,-0.57 -0.2,-15.87 -0.06,-17.22 3.84,3.94 7.64,7.84 11.54,11.84 V 59.33 c 0.81,-0.05 1.58,-0.04 2.4,0 v 17.19 c -1.35,-1.31 -2.56,-2.64 -3.83,-3.92 -1.27,-1.28 -2.52,-2.58 -3.78,-3.87 -1.27,-1.3 -2.55,-2.61 -3.83,-3.91 l -0.16,0.04 z"
           id="path22" /><path
           d="m 295.78,73.59 c 0.39,-0.71 0.77,-1.39 1.12,-2.02 0.74,0.53 1.42,1.11 2.18,1.53 1.7,0.93 3.51,1.11 5.36,0.5 0.83,-0.27 1.45,-0.8 1.69,-1.7 0.19,-0.73 0.03,-1.35 -0.51,-1.87 -0.69,-0.65 -1.55,-0.93 -2.44,-1.14 -1.05,-0.25 -2.12,-0.47 -3.16,-0.75 -0.78,-0.21 -1.51,-0.57 -2.17,-1.06 -1.26,-0.95 -1.67,-2.23 -1.46,-3.75 0.31,-2.25 1.77,-3.47 3.83,-4 2.13,-0.55 4.22,-0.32 6.18,0.73 0.51,0.27 0.96,0.64 1.47,0.98 -0.4,0.75 -0.76,1.44 -1.15,2.17 -0.19,-0.14 -0.31,-0.21 -0.43,-0.31 -1.02,-0.87 -2.22,-1.31 -3.53,-1.43 -1.02,-0.09 -2.01,0.08 -2.94,0.57 -0.97,0.51 -1.3,1.74 -0.98,2.46 0.2,0.45 0.5,0.78 0.93,0.95 0.72,0.28 1.47,0.52 2.22,0.73 1.14,0.32 2.3,0.56 3.42,0.93 0.92,0.3 1.76,0.79 2.38,1.57 1.2,1.53 1.04,3.88 -0.17,5.44 -0.92,1.18 -2.19,1.8 -3.6,2.08 -2.02,0.39 -3.98,0.14 -5.84,-0.76 -0.93,-0.45 -1.73,-1.05 -2.41,-1.85 z"
           id="path23" /><path
           d="m 197.14,59.39 v 2.32 h -7.13 v 4.78 c 0.65,0 1.3,0 1.94,0 0.66,0 1.32,0 1.98,0 0.66,0 1.31,0 2.05,0 0.09,0.8 0.03,1.55 0.04,2.34 -0.68,0.15 -1.33,0.06 -1.98,0.07 -0.69,0.02 -1.37,0 -2.06,0 h -1.99 v 4.87 c 2.37,0.02 4.74,0 7.15,0.01 v 2.38 h -9.56 V 59.41 c 0.49,-0.15 8.6,-0.2 9.55,-0.04 z"
           id="path24" /><path
           d="m 215.82,72.59 h -7.58 c -0.54,1.18 -1.09,2.37 -1.64,3.59 h -2.59 c 2.65,-5.74 5.31,-11.43 8.03,-17.27 2.71,5.84 5.36,11.53 8.04,17.28 h -2.6 c -0.54,-1.18 -1.08,-2.37 -1.65,-3.6 z m -3.79,-8.36 c -0.93,2.05 -1.78,3.93 -2.66,5.88 h 5.32 c -0.88,-1.95 -1.73,-3.83 -2.66,-5.88 z"
           id="path25" /><path
           d="m 157.88,72.18 c 0.35,0.76 0.66,1.45 0.98,2.13 -2.56,2.63 -7.66,2.82 -11.01,-0.08 -3.8,-3.29 -3.99,-8.83 -0.72,-12.34 3.29,-3.53 8.73,-3.64 11.73,-0.83 -0.28,0.63 -0.56,1.27 -0.86,1.91 -0.04,0.09 -0.11,0.16 -0.17,0.23 -3.01,-2.76 -6.95,-1.91 -8.94,0.29 -2.17,2.39 -2.18,5.77 -0.22,8.2 1.86,2.31 6.04,3.42 9.22,0.49 z"
           id="path26" /><path
           d="m 227.52,61.74 h -4.29 c -0.21,-0.41 -0.09,-0.82 -0.11,-1.21 -0.02,-0.38 0,-0.75 0,-1.18 h 11.14 c 0.14,0.53 0.16,1.53 0.02,2.36 h -4.32 c -0.03,1.02 -0.01,1.97 -0.01,2.92 0,0.97 0,1.93 0,2.9 v 5.71 c 0,0.96 0,1.92 0,2.93 h -2.39 c -0.06,-0.78 -0.02,-1.59 -0.03,-2.39 0,-0.79 0,-1.57 0,-2.36 v -7.24 c 0,-0.78 0,-1.57 0,-2.44 z"
           id="path27" /><path
           d="m 241.93,59.33 h 2.25 c 0.15,0.52 0.19,15.84 0.04,16.87 -0.14,0 -0.28,0.02 -0.43,0.02 -0.61,0 -1.21,0 -1.86,0 v -16.9 z"
           id="path28" /></g></g></g></svg>
