<?xml version="1.0" encoding="UTF-8" standalone="no"?>
<svg
   width="205.72755"
   height="39.996502"
   fill="#ffffff"
   viewBox="0 0 205.72756 114.52999"
   version="1.1"
   id="svg16"
   sodipodi:docname="arteeimpacto.svg"
   inkscape:export-filename="arteeimpacto.svg"
   inkscape:export-xdpi="96"
   inkscape:export-ydpi="96"
   xmlns:inkscape="http://www.inkscape.org/namespaces/inkscape"
   xmlns:sodipodi="http://sodipodi.sourceforge.net/DTD/sodipodi-0.dtd"
   xmlns="http://www.w3.org/2000/svg"
   xmlns:svg="http://www.w3.org/2000/svg">
  <defs
     id="defs16" />
  <sodipodi:namedview
     id="namedview16"
     pagecolor="#ffffff"
     bordercolor="#000000"
     borderopacity="0.25"
     inkscape:showpageshadow="2"
     inkscape:pageopacity="0.0"
     inkscape:pagecheckerboard="0"
     inkscape:deskcolor="#d1d1d1">
    <inkscape:page
       x="0"
       y="0"
       width="205.72755"
       height="114.52999"
       id="page2"
       margin="0"
       bleed="0" />
  </sodipodi:namedview>
  <path
     d="M -191.68666,84.04 V 0.04000001 h 91.51 V 10.59 h -80.38 V 73 c 6.23,0 12.32,0.12 18.38,-0.12 1,0 2.1,-1.53 2.72,-2.59 7.17,-12.25 14.26,-24.54 21.37,-36.82 0.93,-1.59 1.87,-3.17 3.15,-5.35 l 32.42,55.9 c -4.3,0 -8.09,0.2 -11.83,-0.13 -1,-0.09 -1.94,-1.73 -2.59,-2.84 -5.92,-10.09 -11.76,-20.22 -17.94,-30.88 -0.84,1.34 -1.49,2.31 -2.07,3.32 -5.44,9.37 -10.82,18.76 -16.33,28.08 -0.61,1 -1.88,2.37 -2.86,2.38 -11.72,0.14 -23.44,0.09 -35.55,0.09 z"
     id="path1"
     inkscape:export-filename="arteeimpacto.svg"
     inkscape:export-xdpi="96"
     inkscape:export-ydpi="96" />
  <path
     d="m -89.226662,21.43 c 3.4,0 6.14,0 8.88,0 0.6,0 1.2,0.11 2,0.19 v 92.91 H -191.57666 v -10.47 h 102.349998 z"
     id="path2" />
  <path
     d="m 22.213338,66.09 8.62,3.42 v 5.5 c -10.67,3.21 -17.66,-3.65 -16.28,-16.51 1.61,0 3.3,0.06 5,0 3.73,-0.16 5.7,-1.91 6,-5.29 0.36,-3.62 -1.51,-6.72 -5,-7.2 -3,-0.42 -6.16,-0.09 -9.69,-0.09 V 75.15 H 3.9433373 V 39.7 c 6.1000007,0 12.2200007,-0.47 18.2200007,0.13 6,0.6 10,5.71 10.48,11.52 0.5,6 -2.58,10.53 -8.71,12.76 -0.45,0.16 -0.88,0.37 -1.32,0.56 z"
     id="path3" />
  <path
     d="m 378.76334,38.55 a 18.59,18.59 0 0 1 18.65,18.77 18.74,18.74 0 0 1 -37.47,-0.14 18.65,18.65 0 0 1 18.82,-18.63 z m 0,6.55 a 12.05,12.05 0 0 0 -11.81,12 c 0,6.49 5.37,12.2 11.62,12.25 6.25,0.05 11.79,-5.61 11.88,-12.07 0.09,-6.46 -5.34,-12.16 -11.66,-12.18 z"
     id="path4" />
  <path
     d="m 76.663338,54.43 h 15.76 v 6.41 h -15.4 c -1.66,6.67 -0.4,8.37 5.79,8.37 h 13.000004 v 5.86 c -6.910004,0 -14.000004,0.39 -21.000004,-0.16 -3.74,-0.29 -5.59,-3.75 -5.7,-7.37 -0.22,-6.7 -0.28,-13.43 0,-20.13 0.21,-4.52 2.88,-7.41 7.25,-7.66 6.44,-0.36 12.91,-0.09 19.550004,-0.09 v 6.32 H 83.663338 c -7.25,-0.03 -7.76,0.53 -7,8.45 z"
     id="path5" />
  <path
     d="m 154.13334,74.66 c -5.61,1.07 -9.47,0.5 -12.12,-4 -4.41,3.87 -9.28,5.74 -14.93,4.94 -6,-0.85 -9.41,-3.63 -10.48,-8.56 -1.07,-4.93 1,-9.4 6,-12.53 0.52,-0.33 1,-0.63 1.77,-1.05 -2.46,-4 -3.88,-8.16 -0.26,-12 3.26,-3.45 7.54,-3.68 11.83,-2.37 3.61,1.11 5.33,3.8 5.34,7.85 -2.67,0.28 -5.28,1.68 -6.86,-2.14 -0.33,-0.81 -3.36,-1.39 -4.42,-0.8 -1.06,0.59 -1.9,3 -1.55,4.24 0.51,1.79 2.05,3.36 3.39,4.8 2.8,3 5.76,5.87 9,9.19 2.32,-3.46 4,-8 9.76,-5.18 -1.64,2.87 -3.39,5.93 -5.52,9.63 z m -17,-7.42 -9,-9.81 c -3.35,1.45 -6.18,3.54 -5.67,7.15 a 8.31,8.31 0 0 0 4.15,5.42 c 4.05,1.85 7.69,0.05 10.55,-2.76 z"
     id="path6" />
  <path
     d="m 243.23334,64.55 v -6.42 c 1.71,0 3.27,0 4.84,0 4.08,-0.09 6.22,-2 6.41,-5.7 a 6.38,6.38 0 0 0 -6.17,-7 c -2.71,-0.16 -5.43,0 -8.55,0 v 29.5 h -6.85 v -35.5 c 6.24,0 12.48,-0.46 18.61,0.13 5.84,0.56 10.17,6.59 10.08,12.61 a 11.69,11.69 0 0 1 -10.3,11.87 c -2.54,0.39 -5.15,0.39 -8.07,0.51 z"
     id="path7" />
  <path
     d="m 294.12334,75.14 c -2.63,0 -4.51,0.14 -6.36,-0.06 -0.81,-0.09 -2.06,-0.75 -2.21,-1.36 -0.8,-3.29 -3.14,-3.3 -5.76,-3.16 -2.11,0.12 -4.24,0.09 -6.36,0 -3.37,-0.13 -6.37,0.24 -6.69,4.43 h -6.24 c -0.58,-5.45 2.46,-9.37 7.93,-10.21 a 58.22,58.22 0 0 1 6.33,-0.47 c 2.08,-0.07 4.15,0 6.85,0 l -5.07,-12.56 c -2.53,6 -3.54,12.65 -11.77,10.3 3.17,-7.21 6.34,-14.6 9.68,-21.91 1,-2.3 3.15,-2.43 4.14,-0.23 5.19,11.52 10.21,23.13 15.53,35.23 z"
     id="path8" />
  <path
     d="m -13.776663,64.7 c -0.38,-1.22 -0.6,-2.16 -0.95,-3.06 -1.09,-2.75 -2.219999,-5.48 -3.829999,-9.41 -1.51,3.56 -2,6.71 -3.82,8.41 -1.82,1.7 -5,1.86 -8.55,3 3.78,-8.56 7,-16.07 10.42,-23.47 1.09,-2.35 3,-2 4.25,0.65 2.449999,5.31 4.739999,10.68 7.0899987,16 l 8.1000002,18.5 c -2.54,0 -4.5200002,0.11 -6.4800002,-0.05 -0.73,-0.06 -1.94,-0.66 -2,-1.16 -0.6799997,-4 -3.6399997,-3.34 -6.3399997,-3.33 -1.999999,0 -3.999999,0.07 -5.999999,0 -3.32,-0.14 -6,0.64 -6.54,4.37 h -6.51 c 0.41,-6.56 3.29,-9.61 9.68,-10.28 1.86,-0.2 3.74,-0.16 5.61,-0.19 1.87,-0.03 3.699999,0.02 5.869999,0.02 z"
     id="path9" />
  <path
     d="m 325.71334,43.54 -4.16,4.48 c -8.43,-4.14 -13.27,-3.59 -17.35,1.86 a 12.12,12.12 0 0 0 0.93,15.74 c 4.36,4.59 9.43,4.85 16.22,0.57 l 4.34,4.69 a 18.22,18.22 0 0 1 -25.52,-0.53 18.52,18.52 0 0 1 25.54,-26.81 z"
     id="path10" />
  <path
     d="m 205.16334,53.34 9.08,21.8 c -2.06,0 -3.83,0.32 -5.4,-0.09 a 5.54,5.54 0 0 1 -3.42,-2.38 c -2.45,-5.45 -4.56,-11 -6.8,-16.57 -0.46,-1.12 -1,-2.2 -1.9,-4.24 -2.59,6.4 -4.83,11.89 -7,17.39 -2.54,6.32 -2.53,6.32 -10,5.65 0.33,-1 0.57,-1.9 1,-2.77 4.49,-10.26 9,-20.53 13.56,-30.74 0.5,-1.13 1.65,-2 2.49,-2.94 1,1 2.24,1.81 2.85,3 2,3.94 3.85,8 5.74,12 z"
     id="path11" />
  <path
     d="m 37.583338,45.69 v -6 h 27.22 v 5.74 l -10.09,0.46 v 29.34 h -7 V 45.69 Z"
     id="path12" />
  <path
     d="m 347.35334,74.97 h -7 V 45.43 h -10.09 v -5.91 h 27 v 5.69 h -9.87 z"
     id="path13" />
  <path
     d="m 205.27334,53.43 c -1.3,-5.51 2.32,-9.61 4.42,-14 1,-2.16 3,-1 3.86,1 5,11.37 10,22.74 15.26,34.77 -2.49,0 -4.58,0.28 -6.54,-0.12 a 4.51,4.51 0 0 1 -2.57,-2.51 c -2.76,-6.48 -5.34,-13 -8.37,-20.53 l -3,6.17 c -1.17,-1.75 -2.18,-3.28 -3.21,-4.81 z"
     id="path14" />
  <path
     d="m 169.11334,39.43 h 6.55 v 35.49 h -6.58 z"
     id="path15" />
  <path
     d="m -78.396662,10.43 h -10.64 V 0 h 10.64 z"
     id="path16" />
</svg>
