<?xml version="1.0" encoding="UTF-8" standalone="no"?>
<svg
   width="100%"
   height="55"
   viewBox="0 0 361.79 84.62"
   fill="#ffffff"
   version="1.1"
   id="svg2"
   sodipodi:docname="cmalmada.svg"
   inkscape:version="1.4.2 (ebf0e940d0, 2025-05-08)"
   xmlns:inkscape="http://www.inkscape.org/namespaces/inkscape"
   xmlns:sodipodi="http://sodipodi.sourceforge.net/DTD/sodipodi-0.dtd"
   xmlns="http://www.w3.org/2000/svg"
   xmlns:svg="http://www.w3.org/2000/svg">
  <defs
     id="defs2" />
  <sodipodi:namedview
     id="namedview2"
     pagecolor="#ffffff"
     bordercolor="#000000"
     borderopacity="0.25"
     inkscape:showpageshadow="2"
     inkscape:pageopacity="0.0"
     inkscape:pagecheckerboard="0"
     inkscape:deskcolor="#d1d1d1"
     inkscape:zoom="6.669615"
     inkscape:cx="180.82003"
     inkscape:cy="27.437866"
     inkscape:window-width="2560"
     inkscape:window-height="1371"
     inkscape:window-x="0"
     inkscape:window-y="0"
     inkscape:window-maximized="1"
     inkscape:current-layer="svg2" />
  <path
     d="M 126.52,61.97 118.83,1.54 H 106.35 L 74.56,84.62 h 13.1 l 21.62,-56.51 7.18,56.51 12.27,-0.02 26.65,-54.86 V 84.62 H 168.3 V 1.54 H 155.88 L 126.53,61.97 Z M 255.54,44.23 233.83,48 216.5,2.37 216.15,1.54 h -11.98 l -20.99,55.27 -10.63,1.85 2.23,12.44 3.19,-0.55 -5.34,14.07 h 12.99 l 6.26,-16.49 34.33,-5.97 8.53,22.46 h 13 l -9.33,-24.58 19.36,-3.37 -2.22,-12.44 z M 197.1,54.39 210.18,19.94 221.64,50.12 Z M 69.21,52.59 C 64.84,63.71 54.04,71.12 42.05,71.12 25.94,71.12 12.83,58.03 12.83,41.95 c 0,-16.08 13.11,-29.17 29.22,-29.17 12.08,0 22.92,7.5 27.24,18.73 H 82.78 V 31.46 C 77.97,12.93 61.23,0 42.05,0 18.86,0 0,18.83 0,41.97 0,65.11 18.86,83.94 42.05,83.94 61.2,83.94 77.92,71.05 82.74,52.58 H 69.21 Z m 204.42,-38.08 -0.83,3.87 30.84,6.54 0.82,-3.87 z"
     id="path1" />
  <path
     style="opacity: 0.6;"
     d="m 277.05,72.52 h -4.25 v 11.43 h 4.25 c 3.89,0 5.32,-2.44 5.32,-5.71 0,-3.27 -1.39,-5.72 -5.32,-5.72 z m -0.39,9.49 h -1.48 v -7.54 h 1.48 c 2.58,0 3.2,1.59 3.2,3.77 0,2.18 -0.59,3.77 -3.2,3.77 z m 7.73,1.94 h 6.97 v -1.94 h -4.59 v -2.9 h 4.54 v -1.94 h -4.54 v -2.7 h 4.59 v -1.94 h -6.97 v 11.43 z m 14.55,-11.43 -3.63,11.43 h 2.47 l 0.73,-2.4 h 4.46 l 0.73,2.4 h 2.45 l -3.63,-11.43 h -3.57 z m 0.11,7.2 1.66,-5.46 h 0.03 l 1.67,5.46 z m 10.87,-7.2 h -2.38 v 11.43 h 6.21 v -2.07 h -3.83 z m 11.38,7.59 -3.11,-7.59 h -2.81 v 11.43 h 2.24 v -7.67 l 3.13,7.67 h 1.07 l 3.13,-7.67 v 7.67 h 2.24 V 72.52 h -2.76 z m 10.91,-7.59 -3.63,11.43 h 2.47 l 0.73,-2.4 h 4.46 l 0.73,2.4 h 2.45 l -3.63,-11.43 h -3.57 z m 0.11,7.2 1.66,-5.46 h 0.03 l 1.67,5.46 z m 12.73,-7.2 h -4.25 v 11.43 h 4.25 c 3.89,0 5.32,-2.44 5.32,-5.71 0,-3.27 -1.39,-5.72 -5.32,-5.72 z m -0.39,9.49 h -1.48 v -7.54 h 1.48 c 2.58,0 3.19,1.59 3.19,3.77 0,2.18 -0.58,3.77 -3.19,3.77 z m 13.49,-9.49 h -3.57 l -3.63,11.43 h 2.47 l 0.73,-2.4 h 4.46 l 0.73,2.4 h 2.45 l -3.63,-11.43 z m -3.45,7.2 1.65,-5.46 h 0.03 l 1.67,5.46 h -3.36 z M 284.61,68.27 V 56.84 h -2.76 l -3.13,7.59 -3.12,-7.59 h -2.81 v 11.43 h 2.24 V 60.6 l 3.13,7.67 h 1.07 l 3.13,-7.67 v 7.67 h 2.24 z m 11.24,-11.43 h -2.38 v 7.38 c 0,1.49 -0.49,2.28 -2.08,2.28 -1.59,0 -2.06,-0.79 -2.06,-2.28 v -7.38 h -2.38 v 7.54 c 0,2.75 1.38,4.16 4.44,4.16 3.06,0 4.46,-1.41 4.46,-4.16 z m 9.47,7.74 -4.77,-7.74 h -2.37 v 11.43 h 2.3 v -7.75 l 4.75,7.75 h 2.39 V 56.84 h -2.3 z m 4.89,3.69 h 2.38 V 56.84 h -2.38 z m 9.75,0.28 c 2.77,0 4.87,-1.7 4.91,-4.4 h -2.5 c -0.08,1.49 -0.88,2.36 -2.53,2.36 -2.24,0 -2.72,-1.77 -2.72,-3.97 0,-2.2 0.49,-3.95 2.71,-3.95 1.52,0 2.45,0.89 2.5,2.44 h 2.5 c -0.08,-2.7 -2.04,-4.47 -4.88,-4.47 -3.84,0 -5.34,2.75 -5.34,5.99 0,3.24 1.51,5.99 5.35,5.99 z m 6.84,-0.28 h 2.38 V 56.84 h -2.38 z m 9.41,-11.43 h -4.43 v 11.43 h 2.38 v -4.63 h 2.04 c 2.59,0 3.7,-1.34 3.7,-3.46 0,-2.12 -1.01,-3.34 -3.7,-3.34 z m -0.68,5 h -1.36 v -3.21 h 1.36 c 1.35,0 1.93,0.49 1.93,1.59 0,1.1 -0.58,1.62 -1.93,1.62 z m 6.26,6.43 0.73,-2.39 h 4.46 l 0.73,2.39 h 2.45 l -3.63,-11.43 h -3.57 l -3.63,11.43 z m 2.93,-9.68 h 0.03 l 1.67,5.46 h -3.36 l 1.65,-5.46 z m 13.04,7.61 h -3.83 v -9.36 h -2.39 v 11.43 h 6.21 V 66.2 Z m -79.6,-13.36 c 2.77,0 4.87,-1.7 4.91,-4.4 h -2.5 c -0.08,1.49 -0.88,2.36 -2.53,2.36 -2.24,0 -2.72,-1.76 -2.72,-3.97 0,-2.21 0.49,-3.95 2.71,-3.95 1.52,0 2.45,0.89 2.5,2.44 h 2.5 c -0.08,-2.7 -2.04,-4.47 -4.88,-4.47 -3.84,0 -5.34,2.75 -5.34,5.99 0,3.24 1.51,5.99 5.35,5.99 z m 8.67,-2.67 h 4.46 l 0.73,2.4 h 2.45 l -3.63,-11.43 h -3.57 l -3.63,11.43 h 2.46 z m 2.21,-7.29 h 0.03 l 1.67,5.46 h -3.36 l 1.65,-5.46 z m 0,-4.06 0.99,1.21 h 2.04 l -1.73,-2.22 h -2.56 l -1.75,2.22 h 2.04 z m 9.06,6.07 3.13,7.67 h 1.07 l 3.13,-7.67 v 7.67 h 2.24 V 41.13 h -2.76 l -3.13,7.59 -3.12,-7.59 h -2.81 v 11.43 h 2.24 v -7.67 z m 14.16,5.28 h 4.46 l 0.73,2.4 h 2.45 l -3.63,-11.43 h -3.57 l -3.63,11.43 h 2.47 l 0.73,-2.4 z m 2.21,-7.29 h 0.03 l 1.67,5.46 h -3.36 l 1.65,-5.46 z m 9.21,5.03 h 0.88 l 3.15,4.65 h 2.64 l -3.27,-4.78 c 1.86,-0.4 2.48,-1.73 2.48,-3.37 0,-1.93 -0.99,-3.29 -3.73,-3.29 h -4.52 v 11.43 h 2.38 V 47.9 Z m 0,-4.99 h 1.46 c 1.36,0 1.96,0.44 1.96,1.55 0,1.11 -0.53,1.72 -1.96,1.72 h -1.46 z m 10.17,7.24 h 4.46 l 0.73,2.4 h 2.45 l -3.63,-11.43 h -3.57 l -3.63,11.43 h 2.46 z m 2.21,-7.29 h 0.03 l 1.67,5.46 h -3.36 l 1.65,-5.46 z"
     id="path2" />
</svg>
