<?xml version="1.0" encoding="UTF-8"?><svg id="Layer_2" xmlns="http://www.w3.org/2000/svg" viewBox="0 0 98.21 131.05"><defs><style>.cls-1{fill:#fff;}</style></defs><g id="iDs"><path class="cls-1" d="M48.49,127.01l-1.88.57-1.9.5c-1.27.35-2.55.6-3.84.89-2.58.5-5.18.9-7.79,1.17l-3.98.38c-1.85.05-3.67-1.18-4.29-2.97-.15-.44-.26-.91-.27-1.37l-.03-1.01-.05-1.94-.07-3.89v-13.66s0,0,0,0v-27.2c.05-1.88-.44-3.74-1.06-5.5-.29-.72-.62-1.43-.96-2.13-.93-1.91-2-3.76-3.1-5.59-2.23-3.65-4.58-7.23-6.94-10.81-2.33-3.6-4.69-7.2-6.85-10.95-1.08-1.87-2.11-3.78-3-5.75-.43-1-.86-1.99-1.17-3.04C1,33.66-.09,29.99,0,27.26c.11,3.2,1.3,6.32,1.71,7.29.42.98.93,1.91,1.45,2.84,1.04,1.86,2.2,3.66,3.36,5.45l6.77,10.19c.78-1.45,2.13-3.33,3.65-5.42,3.31-4.59,7.43-10.3,7.43-14.51v-7.73s0,0,0,0v-14.78l.11-3.76.02-.95v-.48s.02-.25.02-.25l.02-.34c.09-.91.46-1.8,1.05-2.49.58-.7,1.39-1.21,2.26-1.44.43-.12.89-.16,1.33-.15l.33.02.24.02.46.05,3.8.39c5.12.57,10.18,1.67,15.06,3.23,4.89,1.57,9.6,3.64,14.05,6.13,3.34,1.87,6.54,3.97,9.6,6.25-2.37-1.84-4.88-3.56-7.54-5.14-1.48-.91-2.74-1.63-3.95-2.28-4.56-2.46-9.32-4.46-14.15-5.94-4.86-1.5-9.93-2.52-15.08-3.02-.9-.09-1.82-.17-2.71-.24l-1.1-.09-.98-.09c-.09,0-.16,0-.24,0-.37,0-.72.04-1.04.13-.82.2-1.59.68-2.15,1.33-.03.03-.06.07-.08.11l-.03.03L1.55,23.56C.57,24.53,0,25.88,0,27.26v5.84c-.06,1.16.27,2.31.58,3.3.32,1.02.74,1.99,1.22,3.06.81,1.74,1.78,3.57,3.07,5.75,1.95,3.34,4.09,6.63,6.15,9.81l.56.86c-.53,1.43-2.02,3.56-3.73,6.01C4.36,66.9,0,73.12,0,78.48v25.12c0,1.39.54,2.69,1.52,3.68l22.12,22.12c.81,1.04,2.04,1.66,3.31,1.66.05,0,.11,0,.16,0l3.94-.34c5.34-.46,10.53-1.44,15.44-2.91,4.27-1.27,8.48-2.93,12.52-4.95-4.07,1.83-6.91,3.04-10.53,4.16Z"/><path class="cls-1" d="M74.95,18.4c-3.67-2.7-7.5-5.17-11.53-7.29-4.49-2.36-9.22-4.29-14.09-5.72-4.87-1.42-9.88-2.38-14.94-2.8l-3.8-.29c-.63-.05-1.27-.15-1.88.05-.6.17-1.16.53-1.55,1.02-.4.48-.64,1.1-.69,1.72-.03.63,0,1.27-.01,1.9v3.76s0,14.82,0,14.82c26.07.87,46.96,18.52,46.96,40.11s-20.89,39.24-46.96,40.11v17.6s0,1.94,0,1.94c0,.65-.05,1.31.17,1.92.4,1.23,1.64,2.12,2.94,2.1l3.88-.28c2.58-.2,5.16-.52,7.71-.95,1.27-.25,2.55-.46,3.81-.78l1.89-.44,1.87-.52c4.99-1.41,9.83-3.34,14.43-5.73,3.03-1.58,5.94-3.37,8.76-5.3,7.48-5.56,13.72-12.44,18.18-20.08,5.38-9.22,8.11-19.17,8.11-29.59,0-18.06-8.53-35.1-23.26-47.3Z"/></g></svg>