<?xml version="1.0" encoding="UTF-8" standalone="no"?>
<svg
   width="100%"
   height="55"
   viewBox="0 0 309.99999 84.999997"
   fill="#ffffff"
   version="1.1"
   id="svg40"
   sodipodi:docname="incrivel.svg"
   inkscape:version="1.4.2 (ebf0e940d0, 2025-05-08)"
   xmlns:inkscape="http://www.inkscape.org/namespaces/inkscape"
   xmlns:sodipodi="http://sodipodi.sourceforge.net/DTD/sodipodi-0.dtd"
   xmlns="http://www.w3.org/2000/svg"
   xmlns:svg="http://www.w3.org/2000/svg">
  <defs
     id="defs40" />
  <sodipodi:namedview
     id="namedview40"
     pagecolor="#ffffff"
     bordercolor="#000000"
     borderopacity="0.25"
     inkscape:showpageshadow="2"
     inkscape:pageopacity="0.0"
     inkscape:pagecheckerboard="0"
     inkscape:deskcolor="#d1d1d1"
     inkscape:zoom="6.3741938"
     inkscape:cx="155"
     inkscape:cy="27.454453"
     inkscape:window-width="2560"
     inkscape:window-height="1371"
     inkscape:window-x="0"
     inkscape:window-y="0"
     inkscape:window-maximized="1"
     inkscape:current-layer="svg40" />
  <g
     id="g4">
    <path
       d="M 47.603516 2.2128906 L 37.039062 17.794922 L 40.884766 18.611328 L 43.037109 15.326172 L 49.925781 16.789062 L 50.529297 20.660156 L 54.541016 21.511719 L 51.236328 2.984375 L 47.603516 2.2128906 z M 48.435547 6.8710938 L 48.482422 6.8808594 C 48.646273 8.1958651 48.858244 9.7521127 49.117188 11.546875 L 49.419922 13.605469 L 44.818359 12.626953 L 45.890625 10.958984 C 46.780858 9.5558972 47.628259 8.1933099 48.435547 6.8710938 z "
       id="path1" />
    <path
       d="M 31.955687,17.435194 V 0 h 3.833867 v 17.435194 z"
       id="path2" />
    <path
       d="M 18.308096,17.435194 V 0 H 29.375663 V 3.3473649 H 22.141955 V 7.104119 h 6.220994 v 3.178792 h -6.220994 v 7.152283 z"
       id="path3" />
    <path
       d="M 6.036143,21.306907 5.2340381,17.538023 q 1.4726587,0.549065 3.0302064,0.686193 1.5761259,0.108565 2.6846285,-0.126756 1.084937,-0.230319 1.626492,-0.813059 0.565143,-0.587747 0.369627,-1.506412 -0.08021,-0.376888 -0.287122,-0.652966 -0.206685,-0.27618 -0.435484,-0.424568 -0.228784,-0.148391 -0.693437,-0.24671 -0.464639,-0.09832 -0.791301,-0.127454 -0.326663,-0.02913 -1.0271638,-0.07738 Q 9.0335793,14.195646 8.6311367,14.157982 6.3866573,13.920483 4.9531793,13.092282 3.5382942,12.235515 3.1071521,10.20974 2.6008171,7.830634 3.9324339,6.0953833 5.2876238,4.3551286 7.9999542,3.7793373 10.94814,3.1534758 13.47303,3.8977022 l 0.787077,3.698215 Q 12.816046,7.0654014 11.287087,6.946824 9.7581369,6.8282424 8.6732075,7.0585586 6.479761,7.5241986 6.8206671,9.1259741 6.9159126,9.573528 7.1225905,9.8497166 7.3528562,10.120889 7.803941,10.271328 q 0.469655,0.121876 0.8013272,0.174566 0.3316869,0.05269 1.1365492,0.128022 0.7998456,0.05178 1.2022876,0.08945 2.396025,0.254567 3.839522,1.129881 1.443489,0.875315 1.884658,2.948199 0.526387,2.473329 -0.889547,4.275721 -1.397348,1.773825 -4.180442,2.364638 -2.901002,0.615843 -5.5624024,-0.07478 z"
       id="path4" />
  </g>
  <g
     style="opacity: 0.7;"
     id="g16">
    <path
       d="M 8.796875 20.529297 C 6.7093594 20.643137 4.760092 21.591031 3.2128906 22.957031 C 2.2094909 23.842922 1.8983359 25.089774 2.1425781 26.203125 C 2.386835 27.316476 3.0911462 28.329092 4.0039062 29.150391 C 4.9166662 29.97169 6.0503609 30.605378 7.2519531 30.873047 C 8.0827289 31.058117 8.9391936 30.956753 9.7597656 30.691406 C 9.8242026 31.516585 9.8677074 32.85854 9.515625 35.117188 C 9.0100599 38.360381 7.6660564 42.786055 4.3496094 47.5625 L 6.40625 47.115234 C 9.2457093 42.629243 10.4764 38.47716 10.964844 35.34375 C 11.51026 31.844901 11.140625 29.552734 11.140625 29.552734 L 10.953125 28.402344 L 9.9960938 29.070312 C 9.3075443 29.550407 8.4774612 29.643048 7.5722656 29.441406 C 6.6670626 29.239756 5.7237437 28.724078 4.9863281 28.060547 C 4.2488979 27.397016 3.7279171 26.589278 3.5742188 25.888672 C 3.4205205 25.188074 3.5370981 24.625495 4.1835938 24.054688 C 5.5237407 22.871482 7.1841419 22.086348 8.875 21.994141 C 11.048798 21.875592 13.334022 22.828795 15.347656 25.820312 C 17.002367 28.278599 16.959141 33.041848 15.84375 38.027344 C 15.272708 40.579751 14.439074 43.184157 13.494141 45.576172 L 15.207031 45.205078 C 16.032315 43.002884 16.756399 40.665456 17.275391 38.345703 C 18.428757 33.190428 18.680981 28.148282 16.564453 25.003906 C 14.335441 21.692435 11.480996 20.382919 8.796875 20.529297 z M 48.708984 20.53125 C 48.411323 20.515288 48.11074 20.515721 47.808594 20.535156 C 45.391423 20.690647 42.924663 22.060425 40.943359 25.003906 C 38.826824 28.148282 39.079047 33.190428 40.232422 38.345703 C 40.751391 40.665367 41.473586 43.002959 42.298828 45.205078 L 44.013672 45.576172 C 43.068737 43.184156 42.235104 40.579747 41.664062 38.027344 C 40.548672 33.041847 40.505447 28.278592 42.160156 25.820312 C 43.950088 23.161138 45.960498 22.121133 47.904297 21.996094 C 49.84809 21.871063 51.792706 22.702538 53.324219 24.054688 C 53.970736 24.625488 54.085331 25.188066 53.931641 25.888672 C 53.777935 26.589278 53.260868 27.397015 52.523438 28.060547 C 51.786014 28.724078 50.84271 29.239764 49.9375 29.441406 C 49.032304 29.643056 48.198315 29.550414 47.509766 29.070312 L 46.554688 28.402344 L 46.367188 29.550781 C 46.367188 29.550781 45.997545 31.844902 46.542969 35.34375 C 47.031472 38.477501 48.263382 42.630618 51.103516 47.117188 L 53.15625 47.5625 C 49.83993 42.786109 48.497748 38.360348 47.992188 35.117188 C 47.640106 32.85854 47.683646 31.516585 47.748047 30.691406 C 48.568759 30.956916 49.422968 31.058154 50.253906 30.873047 C 51.455499 30.605378 52.591139 29.97169 53.503906 29.150391 C 54.416666 28.329092 55.120978 27.316476 55.365234 26.203125 C 55.609476 25.089774 55.298365 23.842922 54.294922 22.957031 C 52.747633 21.590951 50.792611 20.642982 48.708984 20.53125 z M 2.8652344 49.892578 C 0.21153292 54.590385 -0.65447981 59.889272 0.5 64.189453 C 1.1627818 66.658169 2.5162686 68.805342 4.59375 70.226562 C 6.6712314 71.647776 9.445245 72.320637 12.849609 71.970703 C 12.955259 71.959843 13.034375 71.948427 13.138672 71.9375 L 13.283203 70.443359 C 13.074445 70.465726 12.913474 70.489696 12.699219 70.511719 C 9.5628434 70.834105 7.1802441 70.21916 5.4238281 69.017578 C 3.6674049 67.81599 2.5074294 66.006118 1.9179688 63.810547 C 0.93014195 60.131103 1.6175099 55.392974 3.8769531 51.115234 L 2.8652344 49.892578 z M 54.642578 49.894531 L 53.630859 51.115234 C 55.889993 55.392971 56.577676 60.131103 55.589844 63.810547 C 55.000397 66.006117 53.842354 67.815996 52.085938 69.017578 C 50.329514 70.219174 47.944977 70.834105 44.808594 70.511719 C 44.594402 70.489703 44.433306 70.465718 44.224609 70.443359 L 44.369141 71.9375 C 44.474096 71.948498 44.553831 71.959774 44.660156 71.970703 C 48.064528 72.320637 50.836582 71.647783 52.914062 70.226562 C 54.991544 68.805342 56.34307 66.658169 57.005859 64.189453 C 58.160149 59.889978 57.295263 54.591765 54.642578 49.894531 z M 8.5019531 56.697266 C 8.1507357 58.322509 8.1720109 59.823724 8.5820312 61.136719 C 9.2675995 63.332092 11.116369 64.861551 13.779297 65.326172 L 13.919922 63.865234 C 11.758422 63.492677 10.503256 62.369018 9.9824219 60.701172 C 9.7603983 59.99019 9.6907659 59.153817 9.7695312 58.228516 L 8.5019531 56.697266 z M 49.005859 56.697266 L 47.736328 58.230469 C 47.814814 59.154977 47.747256 59.990697 47.525391 60.701172 C 47.004278 62.369912 45.750649 63.496625 43.587891 63.869141 L 43.728516 65.326172 C 46.391542 64.861692 48.24015 63.332295 48.925781 61.136719 C 49.335805 59.823723 49.356716 58.322509 49.005859 56.697266 z "
       id="path5" />
    <path
       d="M 21.25 75.294922 L 19.376953 76.042969 C 19.097395 76.689871 18.784938 77.262579 18.441406 77.712891 L 19.609375 78.601562 C 20.308901 77.684602 20.837861 76.525898 21.25 75.294922 z "
       id="path6" />
    <path
       d="M 35.646484 74.734375 C 36.081159 76.171648 36.663739 77.54634 37.46875 78.601562 L 38.634766 77.712891 C 38.191504 77.131848 37.801312 76.345186 37.464844 75.460938 L 35.646484 74.734375 z "
       id="path7" />
    <path
       d="M 20.589844 25.388672 L 20.589844 41.943359 L 22.056641 39.373047 L 22.056641 25.388672 L 20.589844 25.388672 z "
       id="path8" />
    <path
       d="m 23.94055,22.499867 a 2.6816652,2.6782624 0 0 0 -2.681665,-2.678263 2.6816652,2.6782624 0 0 0 -2.681666,2.678263 2.6816652,2.6782624 0 0 0 2.681666,2.678262 2.6816652,2.6782624 0 0 0 2.681665,-2.678262 z"
       id="path9" />
    <path
       d="M 28.083984 24.792969 L 28.083984 28.8125 L 28.658203 27.806641 L 29.550781 29.339844 L 29.550781 24.792969 L 28.083984 24.792969 z "
       id="path10" />
    <path
       d="m 31.43546,21.904697 a 2.6816652,2.6782624 0 0 0 -2.681665,-2.678262 2.6816652,2.6782624 0 0 0 -2.681665,2.678262 2.6816652,2.6782624 0 0 0 2.681665,2.678263 2.6816652,2.6782624 0 0 0 2.681665,-2.678263 z"
       id="path11" />
    <path
       d="M 35.580078 25.388672 L 35.580078 39.693359 L 37.046875 42.212891 L 37.046875 25.388672 L 35.580078 25.388672 z "
       id="path12" />
    <path
       d="m 38.930371,22.499867 a 2.6816652,2.6782624 0 0 0 -2.681666,-2.678263 2.6816652,2.6782624 0 0 0 -2.681664,2.678263 2.6816652,2.6782624 0 0 0 2.681664,2.678262 2.6816652,2.6782624 0 0 0 2.681666,-2.678262 z"
       id="path13" />
    <path
       d="M 18.316406 30.408203 L 18.316406 31.378906 L 26.619141 31.378906 L 27.173828 30.408203 L 18.316406 30.408203 z M 30.173828 30.408203 L 30.738281 31.378906 L 39.191406 31.378906 L 39.191406 30.408203 L 30.173828 30.408203 z "
       id="path14" />
    <path
       d="m 14.634939,79.035131 h 28.237706 v 2.746934 H 14.634939 Z"
       id="path15" />
    <path
       d="m 10.566978,82.253069 h 36.373636 v 2.746934 H 10.566978 Z"
       id="path16" />
  </g>
  <path
     style="stroke:#ffffff; fill:none; stroke-width:0.2"
     d="M 28.657822,27.806029 19.226148,44.332003 1.4543865,48.192015 13.97456,63.304454 12.507661,78.466962 28.753799,71.984484 44.999931,78.466962 43.533039,63.304454 56.053205,48.192015 38.281443,44.332003 Z"
     id="path17" />
  <g
     id="g22">
    <path
       d="M 28.694494,31.051077 37.063121,45.474321 28.64315,56.315562 Z"
       id="path18" />
    <path
       d="M 4.4894495,48.865518 20.757994,45.138305 28.643275,56.37345 Z"
       id="path19" />
    <path
       d="M 13.666301,76.697594 15.495944,60.12813 28.713699,56.38881 Z"
       id="path20" />
    <path
       d="M 44.119809,76.436666 28.67441,70.117589 28.714592,56.39728 Z"
       id="path21" />
    <path
       d="M 52.906947,48.856508 41.660427,61.174103 28.771958,56.424657 Z"
       id="path22" />
  </g>
  <g
     id="g31">
    <path
       d="M 138.34375 13.15625 L 138.34375 42.248047 L 144.7168 42.248047 L 144.7168 30.755859 L 147.5625 30.755859 L 154.89648 42.248047 L 162.23047 42.248047 L 154.05469 29.953125 C 155.95173 29.337038 157.40851 28.318116 158.42383 26.898438 C 159.43915 25.478758 159.94727 23.817849 159.94727 21.916016 C 159.94727 16.076582 155.77771 13.15625 147.44141 13.15625 L 138.34375 13.15625 z M 144.7168 18.742188 L 147.16211 18.742188 C 149.48665 18.742188 151.12992 19.023423 152.0918 19.585938 C 153.0804 20.148452 153.57422 21.071674 153.57422 22.357422 C 153.57422 23.643169 153.09274 24.568345 152.13086 25.130859 C 151.1957 25.693373 149.79415 25.974609 147.92383 25.974609 L 144.7168 25.974609 L 144.7168 18.742188 z "
       id="path23" />
    <path
       d="M 226.9977,42.24725 V 13.1572 h 6.37247 v 23.505082 h 12.70487 v 5.584968 z"
       id="path24" />
    <path
       d="M 204.51375,42.24725 V 13.1572 h 17.91505 v 5.584968 h -11.54258 v 5.705507 h 9.93945 v 5.303711 h -9.93945 v 6.910896 h 11.98345 v 5.584968 z"
       id="path25" />
    <path
       d="M 184.51466,42.24725 173.41294,13.1572 h 6.85341 l 4.64909,12.777122 q 1.60314,4.339399 2.80549,7.915386 h 0.0802 q 1.08212,-3.053652 2.88565,-7.955566 L 195.45607,13.1572 h 6.53278 l -11.06164,29.09005 z"
       id="path26" />
    <path
       d="m 173.2126,3.7149867 -4.64909,6.5894583 h -4.16816 l 3.36659,-6.5894583 z"
       id="path27" />
    <path
       d="M 164.51558,42.24725 V 13.1572 h 6.37247 v 29.09005 z"
       id="path28" />
    <path
       d="m 109.80855,27.742405 q 0,-6.388561 4.40863,-10.687781 4.4487,-4.3394 11.38227,-4.3394 4.36855,0 8.05577,1.808083 v 6.46892 q -3.7273,-2.531316 -8.01569,-2.531316 -4.16816,0 -6.81333,2.611676 -2.64518,2.611675 -2.64518,6.589459 0,3.977783 2.64518,6.629638 2.68525,2.651856 7.0538,2.651856 4.28839,0 8.21608,-2.692035 v 6.509099 q -3.60706,1.928622 -8.49663,1.928622 -6.93357,0 -11.38227,-4.25904 -4.40863,-4.259041 -4.40863,-10.687781 z"
       id="path29" />
    <path
       d="m 99.748939,42.24725 -8.69702,-11.732451 q -2.284471,-3.093831 -5.450667,-7.51359 l -0.08016,0.04018 q 0.08016,5.544789 0.08016,8.397543 V 42.24725 H 79.469253 V 13.1572 h 6.011764 l 8.697019,11.732451 q 2.28447,3.093832 5.450668,7.513591 l 0.08016,-0.04018 q -0.08016,-5.544789 -0.08016,-8.397542 V 13.1572 h 6.131996 v 29.09005 z"
       id="path30" />
    <path
       d="M 67.806491,42.24725 V 13.1572 h 6.37247 v 29.09005 z"
       id="path31" />
  </g>
  <g
     id="g40">
    <path
       d="M 184.71484 51.753906 L 184.71484 80.84375 L 192.57031 80.84375 C 198.60879 80.84375 203.12467 79.570098 206.11719 77.025391 C 209.10971 74.453897 210.60547 70.865072 210.60547 66.257812 C 210.60547 61.59698 209.08307 58.020432 206.03711 55.529297 C 202.99115 53.011376 198.59614 51.753906 192.85156 51.753906 L 184.71484 51.753906 z M 191.08789 57.337891 L 192.81055 57.337891 C 196.52448 57.337891 199.21062 57.926867 200.86719 59.105469 C 203.11158 60.685866 204.23242 63.070232 204.23242 66.257812 C 204.23242 72.257964 200.43974 75.257812 192.85156 75.257812 L 191.08789 75.257812 L 191.08789 57.337891 z "
       id="path32" />
    <path
       d="M 163.99414 51.753906 L 152.21094 80.84375 L 158.74414 80.84375 L 161.10938 74.736328 L 172.8125 74.736328 L 175.13672 80.84375 L 181.94922 80.84375 L 170.16602 51.753906 L 163.99414 51.753906 z M 166.96094 59.066406 L 167.04102 59.066406 C 167.76242 61.155745 168.64351 63.619627 169.68555 66.458984 L 170.88867 69.712891 L 163.07227 69.712891 L 164.23438 66.619141 C 165.19625 64.020861 166.10593 61.503968 166.96094 59.066406 z "
       id="path33" />
    <path
       d="M 77.064453 51.753906 L 65.28125 80.84375 L 71.814453 80.84375 L 74.179688 74.736328 L 85.882812 74.736328 L 88.207031 80.84375 L 95.019531 80.84375 L 83.236328 51.753906 L 77.064453 51.753906 z M 80.03125 59.066406 L 80.111328 59.066406 C 80.832739 61.155745 81.713821 63.619627 82.755859 66.458984 L 83.958984 69.712891 L 76.142578 69.712891 L 77.304688 66.619141 C 78.266569 64.020861 79.176244 61.503968 80.03125 59.066406 z "
       id="path34" />
    <path
       d="M 291.64409,80.843044 V 51.752993 h 17.91506 v 5.584968 h -11.54259 v 5.705508 h 9.93945 v 5.30371 h -9.93945 v 6.910896 h 11.98345 v 5.584969 z"
       id="path35" />
    <path
       d="m 268.35859,79.235859 v -6.428741 q 2.20431,1.406287 4.68918,2.1697 2.52494,0.723233 4.40862,0.723233 1.84361,0 2.92573,-0.763413 1.1222,-0.763413 1.1222,-2.330418 0,-0.642874 -0.24047,-1.165209 -0.24048,-0.522335 -0.5611,-0.843772 -0.32063,-0.321437 -1.04204,-0.642874 -0.72141,-0.321437 -1.24243,-0.482156 -0.52102,-0.160718 -1.64322,-0.482156 -1.08212,-0.321437 -1.72337,-0.522335 -3.56698,-1.165209 -5.61098,-3.013472 -2.00392,-1.888442 -2.00392,-5.34389 0,-4.058143 2.76541,-6.428741 2.80549,-2.370598 7.41451,-2.370598 5.0098,0 8.85733,2.089341 v 6.308201 q -2.16423,-1.366107 -4.60902,-2.08934 -2.44478,-0.723234 -4.28839,-0.723234 -3.72729,0 -3.72729,2.732215 0,0.763413 0.24047,1.285748 0.28055,0.522335 0.96188,0.924132 0.72141,0.361616 1.24243,0.562514 0.52102,0.200899 1.80353,0.602695 1.28251,0.361617 1.92376,0.562515 3.80745,1.245568 5.85145,3.17419 2.044,1.928622 2.044,5.46443 0,4.218861 -2.92572,6.669818 -2.88565,2.410778 -7.6149,2.410778 -4.92965,0 -9.01765,-2.049161 z"
       id="path36" />
    <path
       d="m 257.25694,80.843044 -8.69702,-11.732452 q -2.28447,-3.093831 -5.45067,-7.51359 l -0.0802,0.04018 q 0.0802,5.544788 0.0802,8.397542 v 10.80832 h -6.132 V 51.752993 h 6.01177 l 8.69702,11.732451 q 2.28447,3.093832 5.45066,7.513591 l 0.0802,-0.04018 q -0.0802,-5.544788 -0.0802,-8.397542 v -10.80832 h 6.132 v 29.090051 z"
       id="path37" />
    <path
       d="M 214.49329,80.843044 V 51.752993 h 17.91506 v 5.584968 h -11.54259 v 5.705508 h 9.93945 v 5.30371 h -9.93945 v 6.910896 h 11.98345 v 5.584969 z"
       id="path38" />
    <path
       d="m 134.61713,74.133046 -4.20824,-5.986765 q -1.92376,-2.732214 -4.24831,-6.227842 l -0.0802,0.04018 q 0.0802,4.178681 0.0802,7.232333 v 11.652092 h -6.132 V 51.752993 h 6.132 l 8.61686,12.294966 8.61686,-12.294966 h 6.05185 v 29.090051 h -6.37247 V 69.190952 q 0,-3.053652 0.0802,-7.232333 l -0.0802,-0.04018 q -2.32455,3.495628 -4.24832,6.227842 z"
       id="path39" />
    <path
       d="M 97.785123,80.843044 V 51.752993 h 6.372467 v 23.505082 h 12.70486 v 5.584969 z"
       id="path40" />
  </g>
</svg>
