<?xml version="1.0" encoding="UTF-8" standalone="no"?>
<!-- Created with Inkscape (http://www.inkscape.org/) -->

<svg
   width="110.56939mm"
   height="16.271875mm"
   viewBox="0 0 110.56939 16.271875"
   version="1.1"
   id="svg1"
   xmlns="http://www.w3.org/2000/svg"
   xmlns:svg="http://www.w3.org/2000/svg">
  <defs
     id="defs1" />
  <g
     id="layer1"
     transform="translate(-48.154156,-146.57917)">
    <g
       id="g237"
       transform="matrix(0.26458333,0,0,0.26458333,-305.64666,112.58021)">
		<polygon
   class="st18"
   points="1549.6,185.5 1556.3,190 1337.2,190 1337.2,185.5 "
   id="polygon223"
   style="opacity:0.4;fill:#ffffff;enable-background:new" />

		<polygon
   class="st18"
   points="1747.2,185.5 1747.2,190 1602.7,190 1596,185.5 "
   id="polygon224"
   style="opacity:0.4;fill:#ffffff;enable-background:new" />

		<path
   class="st12"
   d="m 1599.6,149 v 20.5 H 1647 V 181 h -57.6 l -10.2,-6.9 V 149 c 0,-6.3 5.1,-11.5 11.5,-11.5 v 0 h 56.4 V 149 Z"
   id="path224"
   style="fill:#ffffff" />

		<rect
   x="1337.2"
   y="137.5"
   class="st12"
   width="20.5"
   height="11.5"
   id="rect224"
   style="fill:#ffffff" />

		<path
   class="st12"
   d="m 1455,165 v 4.5 h 47.4 V 181 H 1446 c -6.3,0 -11.5,-5.1 -11.5,-11.5 v 0 -16 h 67.8 V 165 Z"
   id="path225"
   style="fill:#ffffff" />

		<polygon
   class="st12"
   points="1409.5,160.5 1409.5,137.5 1430,137.5 1430,181 1409.5,181 1382.6,162.9 1382.6,181 1362.2,181 1362.2,128.5 "
   id="polygon225"
   style="fill:#ffffff" />

		<path
   class="st12"
   d="M 1357.7,153.5 V 181 h -9 c -6.3,0 -11.5,-5.1 -11.5,-11.5 v 0 -16 z"
   id="path226"
   style="fill:#ffffff" />

		<rect
   x="1651.4"
   y="137.5"
   class="st12"
   width="20.5"
   height="11.5"
   id="rect226"
   style="fill:#ffffff" />

		<path
   class="st12"
   d="m 1671.9,153.5 v 16 c 0,6.3 -5.1,11.5 -11.4,11.5 v 0 h -9 v -27.5 z"
   id="path227"
   style="fill:#ffffff" />

		<rect
   x="1434.5"
   y="137.5"
   class="st12"
   width="20.5"
   height="11.5"
   id="rect227"
   style="fill:#ffffff" />

		<path
   class="st12"
   d="m 1594.6,190 h -30.3 l -37,-25 v 16 h -20.5 v -16 c 0,-6.3 5.1,-11.5 11.5,-11.5 v 0 h 35.9 V 149 H 1455 l 17,-11.5 h 91.1 c 6.3,0 11.5,5.1 11.5,11.4 0,0 0,0 0,0.1 v 4.6 c 0,6.3 -5.2,11.4 -11.5,11.4 h -5.5 z"
   id="path228"
   style="fill:#ffffff" />

		<polygon
   class="st12"
   points="1676.4,181 1676.4,133.3 1747.2,181 1716.7,181 1696.9,167.6 1696.9,181 "
   id="polygon228"
   style="fill:#ffffff" />

		<rect
   x="1747.2"
   y="185.5"
   class="st28"
   width="7.9000001"
   height="4.5"
   id="rect228"
   style="opacity:0.3;fill:#ffffff;enable-background:new" />

		<polygon
   class="st12"
   points="1459.4,128.5 1477.9,128.5 1459.4,140.8 "
   id="polygon229"
   style="fill:#ffffff" />

		<g
   id="g236">
			<polygon
   class="st25"
   points="1740.9,137.5 1740.9,142 1697.2,142 1690.6,137.5 "
   id="polygon230"
   style="opacity:0.7;fill:#f2405e;enable-background:new" />

			<polygon
   class="st25"
   points="1740.9,147.1 1740.9,151.6 1711.5,151.6 1704.8,147.1 "
   id="polygon231"
   style="opacity:0.7;fill:#f2405e;enable-background:new" />

			<polygon
   class="st26"
   points="1740.9,157.3 1740.9,161.8 1726.7,161.8 1720,157.3 "
   id="polygon232"
   style="opacity:0.7;fill:#b4d26e;enable-background:new" />

			<polygon
   class="st27"
   points="1740.9,171.4 1734.3,166.9 1740.9,166.9 "
   id="polygon233"
   style="opacity:0.7;fill:#309e80;enable-background:new" />

			<rect
   x="1740.9"
   y="137.5"
   class="st8"
   width="14.2"
   height="4.5"
   id="rect233"
   style="fill:#f2405e" />

			<rect
   x="1740.9"
   y="147.10001"
   class="st8"
   width="14.2"
   height="4.5"
   id="rect234"
   style="fill:#f2405e" />

			<rect
   x="1740.9"
   y="157.3"
   class="st6"
   width="14.2"
   height="4.5"
   id="rect235"
   style="fill:#b4d26e" />

			<rect
   x="1740.9"
   y="166.89999"
   class="st7"
   width="14.2"
   height="4.5"
   id="rect236"
   style="fill:#309e80" />

			<polygon
   class="st7"
   points="1755.1,176.5 1755.1,181 1748.5,176.5 "
   id="polygon236"
   style="fill:#309e80" />

		</g>

	</g>
  </g>
</svg>
