<?xml version="1.0" encoding="UTF-8" standalone="no"?>
<!-- Created with Inkscape (http://www.inkscape.org/) -->

<svg
   width="13.525499mm"
   height="12.385323mm"
   viewBox="0 0 13.525499 12.385323"
   version="1.1"
   id="svg1"
   sodipodi:docname="junta_v2.svg"
   inkscape:version="1.4.2 (ebf0e940, 2025-05-08)"
   xmlns:inkscape="http://www.inkscape.org/namespaces/inkscape"
   xmlns:sodipodi="http://sodipodi.sourceforge.net/DTD/sodipodi-0.dtd"
   xmlns="http://www.w3.org/2000/svg"
   xmlns:svg="http://www.w3.org/2000/svg">
  <sodipodi:namedview
     id="namedview1"
     pagecolor="#ffffff"
     bordercolor="#000000"
     borderopacity="0.25"
     inkscape:showpageshadow="2"
     inkscape:pageopacity="0.0"
     inkscape:pagecheckerboard="0"
     inkscape:deskcolor="#d1d1d1"
     inkscape:document-units="mm"
     inkscape:zoom="5.2620402"
     inkscape:cx="29.266215"
     inkscape:cy="31.83176"
     inkscape:window-width="1472"
     inkscape:window-height="866"
     inkscape:window-x="0"
     inkscape:window-y="34"
     inkscape:window-maximized="0"
     inkscape:current-layer="layer1" />
  <defs
     id="defs1" />
  <g
     id="layer1"
     transform="translate(-109.5375,-139.69717)">
    <rect
       x="109.5375"
       y="139.7"
       width="13.525499"
       height="12.3825"
       style="fill:none;stroke-width:0.264583"
       id="rect1" />
    <path
       d="m 120.43754,141.94129 -0.009,-0.009 v 0.009 h 0.009"
       fill="#00ff00"
       id="path1"
       style="stroke-width:0.264583" />
    <path
       d="m 110.5453,148.38706 c 0.42518,0.10187 0.84111,0.21326 1.26656,0.24104 0.67469,0.0463 1.41446,0.10186 2.15397,0 0.35137,-0.0463 0.69347,-0.11113 1.04458,-0.19473 1.04484,-0.26856 2.11719,-0.15743 3.18055,0.0466 0.37889,0.0741 0.76729,0.14817 1.15544,0.16669 0.63791,0.0278 1.26656,0.0278 1.85843,0.009 0.61013,-0.0278 1.211,-0.17595 1.81187,-0.28734 v -0.69453 c -0.0556,0.009 -0.1016,0.0185 -0.15716,0.0278 -0.69348,0.12965 -1.38669,0.26856 -2.08942,0.31486 -0.87842,0.0556 -1.76556,-0.0278 -2.63472,-0.19447 -1.04484,-0.20373 -2.08015,-0.31486 -3.10647,-0.0463 -1.46077,0.37967 -2.90301,0.33337 -4.35452,-0.0463 -0.28627,-0.0741 -0.62865,-0.1389 -0.97049,-0.17594 v 0.68527 c 0.28655,0.0278 0.58235,0.0833 0.84138,0.14816"
       id="path2"
       style="stroke-width:0.264583;fill:#ffffff" />
    <path
       d="m 113.03186,139.7 c -0.0185,0.15741 0.0279,0.324 0.0279,0.43512 0,0.0185 -0.0275,0.0187 -0.046,0.0372 0.009,0.0278 0.0181,0.0368 0.0274,0.0646 -0.0926,0.10185 -0.18481,0.20398 -0.2589,0.28732 0.0185,0.14815 0.0373,0.27784 0.0465,0.40721 -0.0648,0.0188 -0.12974,0.0466 -0.1943,0.0651 h 0.1018 v 0.009 c -0.037,0.009 -0.0735,0.01 -0.11059,0.0186 v -0.0279 c -0.009,0 -0.0186,0.009 -0.0279,0.009 0.006,0.052 0.012,0.0968 0.0181,0.14676 0.0444,-0.008 0.0953,-0.008 0.13849,-0.0171 v 0.0186 c -0.0357,0.009 -0.0884,0.0182 -0.13384,0.0357 0.003,0.028 0.007,0.0549 0.0103,0.0832 0.0446,-0.009 0.0885,-0.0174 0.13281,-0.0264 v 0.0274 c -0.0423,0.017 -0.0846,0.0344 -0.12712,0.0445 0.005,0.0445 0.011,0.0906 0.0165,0.13177 0.009,0.009 0.18496,0.009 0.1757,0.009 0,0 0.0463,0.0835 0.0553,0.14831 0.0926,0.83337 0.17588,1.51871 0.2682,2.35231 0.009,0.0463 -0.0465,0.0281 -0.0372,0.0744 0.009,0.0463 0.0833,0.74994 0.1111,1.11104 -0.0926,0.0278 -0.18485,0.0647 -0.2682,0.0925 -0.037,-0.10186 -0.0739,-0.19459 -0.0739,-0.25941 0,-0.0185 -0.0274,-0.10189 -0.0274,-0.12041 -0.13864,0.037 -0.28677,0.0653 -0.4439,0.10232 0,-0.19444 4e-5,-0.36149 0.009,-0.53743 0.0278,-0.5278 -0.23143,-0.98168 -0.37931,-1.50947 -0.23095,0.60187 -0.44362,1.18561 -0.66559,1.78749 -0.32355,-0.71301 -0.49935,-1.45435 -0.75809,-2.17662 -0.32356,1.06485 -0.53618,2.14908 -0.601,3.25097 -0.0831,0.009 -0.14792,0.0181 -0.23099,0.0181 0,0.0185 3.5e-4,0.028 0.0186,0.0558 0.0556,0.0555 0.20283,0.22224 0.25838,0.2868 0.12038,0.12988 0.28684,0.22285 0.46251,0.25063 -0.009,0 -0.009,0.009 -0.0181,0.009 -0.29604,0.17593 -0.55495,0.33345 -0.76739,0.47233 v 0.1757 c 0.16614,0 0.34157,8e-5 0.50798,0.0186 0.65636,0.0556 1.31303,0.21287 1.96938,0.31471 0.32356,0.0463 0.65675,0.0928 0.98031,0.0558 0.43439,-0.0463 0.7208,-0.12045 0.81338,-0.12971 0.63786,-0.0833 0.90615,-0.19447 1.69189,-0.23151 0.62857,-0.037 1.11854,-0.0466 1.73788,0.046 0.55478,0.0741 1.36853,0.2595 1.96008,0.27802 0.33282,0.009 1.05393,-0.0554 1.38648,-0.0832 0.87832,-0.0833 1.39594,-0.15778 2.27428,-0.30592 v -0.1018 c -0.13864,-0.0648 -0.41576,-0.25928 -0.53588,-0.34262 0,0 -0.037,-0.0276 -0.1018,-0.0646 0.037,-0.26853 0.24037,-1.88926 0.25889,-1.9911 0.0185,0 0.2217,0.0646 0.2217,0.0553 l 0.046,-0.70384 c -1.33099,-0.51879 -1.94118,-1.63026 -2.15388,-3.07475 -0.2127,-0.0466 -0.41572,-0.0927 -0.63768,-0.139 -0.26826,0.96325 -0.56376,1.81515 -1.11828,2.55591 -0.10187,-0.0926 -0.2595,-0.79638 -0.27802,-1.25935 -0.10186,-0.0185 -0.22172,-0.0368 -0.34158,-0.0553 -0.19444,0.50001 -0.29608,1.03708 -0.6289,1.47226 0.009,0.037 0.0181,0.10206 0.0274,0.15762 0.11109,0.0185 0.20358,0.0368 0.3147,0.0553 -0.037,0.25027 -0.12939,0.75992 -0.1757,1.04697 -0.11109,-0.0185 -0.22189,-0.028 -0.32349,-0.0372 -0.046,-0.55558 -0.11092,-1.13966 -0.185,-1.7508 h 0.0372 l -0.009,-0.15709 -0.0279,-0.009 -0.0372,-0.31471 h -0.046 l -0.13901,-1.12086 0.0465,-0.009 0.009,-0.24081 -0.1943,0.0186 v 0.12041 h -0.0372 l -0.046,-0.12041 -0.12919,0.009 -0.0186,0.13901 h -0.0372 l -0.0181,-0.1297 -0.12971,0.009 0.009,0.13901 -0.046,-0.009 -0.0372,-0.1297 -0.1757,0.0181 0.046,0.21343 0.0465,0.009 0.0186,0.91726 -0.185,-0.0186 -0.11989,-1.16686 h 0.0367 l 0.046,-0.1943 -0.20309,0.009 -0.0186,0.1664 h -0.0367 l -0.0372,-0.15762 -0.15709,0.009 -0.0279,0.16691 h -0.0372 l -0.0181,-0.15761 -0.15762,0.009 -0.009,0.16691 h -0.046 l -0.0367,-0.15761 -0.1943,0.0186 0.0553,0.185 h 0.0372 l 0.0465,1.16737 -0.1757,0.0367 -0.0925,-0.91674 0.0274,-0.0186 0.0186,-0.24081 -0.19431,0.0186 0.009,0.1297 -0.0739,0.009 -0.009,-0.12971 -0.1292,0.009 0.009,0.12971 -0.0739,0.009 -0.009,-0.12919 -0.12971,0.009 0.009,0.12919 -0.0739,0.009 -0.009,-0.1292 -0.1943,0.0186 0.0558,0.22221 0.0367,0.0372 0.009,1.12035 h -0.046 l 0.009,0.2775 -0.0372,0.009 -0.009,0.15762 0.0372,0.0186 0.0367,1.13016 c 0,0.15743 0.0279,0.41643 0.0186,0.62942 -0.0741,0.0185 -0.1572,0.0373 -0.23099,0.0558 -0.0741,-0.33335 -0.20321,-0.86151 -0.23099,-0.99115 -0.009,-0.037 -0.0558,-0.009 -0.0558,-0.0186 -0.10158,-0.75955 -0.2126,-1.52792 -0.3142,-2.2872 -0.009,-0.10186 0.009,-0.19482 0.009,-0.19482 0,0 0.11087,-0.0373 0.17569,-0.0465 -0.0278,-0.13863 -0.0833,-0.3053 -0.1111,-0.45372 -0.0553,-0.009 -0.10153,-0.009 -0.1571,-0.009 v 0.009 c -0.009,-0.009 -0.009,-0.009 -0.0186,-0.009 h -0.13849 c 0.009,0.0278 -0.0371,-0.27768 -0.0279,-0.2589 0,-0.0188 0.0739,-0.0372 0.0739,-0.0279 0,0.0188 0.0646,0.28697 0.0646,0.26872 0.009,0.009 0.0186,0.0181 0.0279,0.0181 h 0.0186 c 0,-0.0645 -0.0834,-0.33348 -0.0651,-0.37052 -0.11985,-0.0831 -0.2398,-0.16622 -0.36018,-0.2403 0,-0.0275 0.009,-0.0559 0.009,-0.0837 -0.009,0 -0.0186,4e-5 -0.0279,0.009 -0.0278,-0.10186 -0.0464,-0.1943 -0.0739,-0.30541 0.0368,-0.009 0.0647,-0.0187 0.0832,-0.0279 -0.0278,-0.009 -0.0556,-0.0186 -0.0739,-0.0186 -0.009,-0.0275 -0.0187,-0.0555 -0.0372,-0.0925 z m 0.1111,0.57413 c 0.0185,0.0185 0.10189,0.0835 0.12041,0.10231 -0.009,0.009 -2.1e-4,0.0186 -0.0465,0.0186 -0.0278,-0.0185 -0.0832,-0.11166 -0.0739,-0.12092 z m 0.16124,0.28628 c 0.0105,-10e-4 0.0216,-10e-4 0.0331,0.001 0.009,0.0553 0.0186,0.21291 0.0279,0.2682 -0.037,0 -0.0741,-4e-5 -0.1204,-0.009 -0.009,-0.0926 -0.0187,-0.16653 -0.0279,-0.2496 0.0278,0.007 0.0558,-0.007 0.0873,-0.0103 z m -0.28784,0.0103 c 0.002,-7e-5 0.004,0 0.007,0 0.009,0.0831 0.0181,0.15716 0.0274,0.23151 -0.0463,0 -0.0647,4e-5 -0.0925,0.009 -0.009,-0.0743 -0.0186,-0.14843 -0.0279,-0.23151 0.0347,0 0.0536,-0.008 0.0863,-0.009 z m 7.22695,0.24081 c 0.0185,0.0368 0.13857,0.31488 0.15709,0.35192 -0.009,0.009 -0.21243,0.21294 -0.22169,0.22221 0.0185,-0.20372 0.0368,-0.41672 0.0646,-0.57413 z m 0.0925,0.009 c 0.10186,0.0278 0.19419,0.0555 0.3421,0.1018 -0.0926,0.0836 -0.14788,0.13908 -0.2217,0.21342 -0.0463,-0.10212 -0.0741,-0.20411 -0.1204,-0.31522 z m 0.36948,0.14882 c 0.009,0 -0.046,0.4905 -0.0553,0.50902 -0.009,-0.009 -0.14784,-0.29611 -0.1571,-0.29611 0.009,-0.0185 0.21239,-0.18513 0.21239,-0.21291 z m -0.60099,0.092 c -0.1016,0.83362 -0.28596,1.8247 -0.66508,2.16731 -0.0463,0.0463 -0.056,0.028 -0.10232,0.0372 -0.0741,0 -0.19368,5e-5 -0.28629,0.009 0.49922,-0.67596 0.80447,-1.39872 1.05369,-2.21382 z m 0.7028,0.14831 c 0.23122,1.09264 0.73025,1.93556 1.59008,2.50992 -0.75799,-0.0741 -1.24817,-0.56522 -1.62729,-1.22266 -0.0923,-0.1574 -0.12903,-0.30522 -0.092,-0.49041 0.0553,-0.25001 0.0921,-0.50054 0.12919,-0.79685 z m -0.36949,0.009 c 0.037,0.0645 0.16601,0.28718 0.19379,0.37052 -0.037,0.0278 -0.20286,0.19452 -0.26769,0.24081 -0.0463,-0.0833 -0.1666,-0.23137 -0.2129,-0.31471 0.0648,-0.0651 0.22198,-0.24133 0.2868,-0.29662 z m -4.59507,0.1571 c 0.0975,-0.003 0.17603,0.0778 0.185,0.17673 v 0.0274 l 0.0186,0.21291 -0.37001,0.009 -0.009,-0.20361 c 0,-0.009 -0.009,-0.0186 -0.009,-0.0279 0.009,-0.10213 0.0834,-0.19431 0.1757,-0.19431 0.003,-2.9e-4 0.006,-4e-4 0.009,-5.1e-4 z m 1.05368,0.16639 c 0.0891,-0.004 0.16674,0.0688 0.1757,0.16744 v 0.0279 l 0.0186,0.19431 -0.3328,0.0279 -0.0181,-0.2036 c 0,-0.009 -4e-5,-0.0187 -0.009,-0.0279 0,-0.10186 0.0645,-0.185 0.1571,-0.185 0.003,-2.9e-4 0.006,-9.1e-4 0.009,-0.001 z m 3.25459,0.11163 c 0.0741,0.0929 0.12935,0.17647 0.16639,0.23202 -0.0738,0.10186 -0.15746,0.18491 -0.24081,0.27751 0.0185,-0.14816 0.0652,-0.50027 0.0744,-0.50953 z m -5.30666,0.0465 c 0.0831,0 0.15714,0.0743 0.1664,0.16692 v 0.0279 l 0.009,0.19431 -0.30489,0.0186 -0.0186,-0.19482 c 0,-0.009 -4e-5,-0.0181 -0.009,-0.0274 0.009,-0.0926 0.0738,-0.17626 0.15709,-0.18552 z m 5.77794,0.0186 c 0,0.0556 -0.0371,0.32429 -0.0646,0.50023 -0.0278,-0.0556 -0.12927,-0.25037 -0.1478,-0.30593 0.0463,-0.037 0.19387,-0.1943 0.21239,-0.1943 z m -2.15387,0.24081 c 0.009,0 0.21243,0.028 0.22169,0.0372 0,0.009 -0.0736,0.074 -0.11989,0.0925 -0.0185,0 -0.11106,-0.12971 -0.1018,-0.12971 z m 1.90428,0 c 0.037,0.11112 0.0837,0.20376 0.14831,0.35192 -0.0646,0.0556 -0.14804,0.13901 -0.2589,0.25011 -0.0556,-0.0833 -0.14846,-0.23176 -0.17622,-0.28732 0.12037,-0.14816 0.25903,-0.27767 0.28681,-0.31471 z m -1.92185,0.0734 c 0.0102,0.004 0.0915,0.0935 0.0915,0.0935 0,0.009 -0.13849,0.11114 -0.13849,0.1204 -0.009,-0.009 0.046,-0.21342 0.046,-0.21342 0,-5.8e-4 3.4e-4,-7.6e-4 0.001,-5.2e-4 z m 0.25787,5.2e-4 c 0.009,0.009 0,0.22225 0,0.23151 0,0 -0.11993,-0.12971 -0.12919,-0.12971 0,-0.009 0.12919,-0.1018 0.12919,-0.1018 z m -0.1385,0.1297 c 0.037,0.0463 0.13854,0.18552 0.1478,0.18552 0.009,0 -0.1295,0.15726 -0.19431,0.19431 -0.0463,-0.0741 -0.11067,-0.16665 -0.12919,-0.22221 0.009,0 0.15718,-0.15762 0.1757,-0.15762 z m -0.2682,0.20361 c 0.009,0 -0.11989,0.90796 -0.11989,0.90796 0,0 -0.24089,-9e-5 -0.25941,-0.0186 0.13864,-0.25001 0.25918,-0.53747 0.3793,-0.88935 z m 1.75648,0.009 c 0.0275,0.0463 0.11076,0.16713 0.1478,0.21343 -0.0741,0.0741 -0.12935,0.1296 -0.22169,0.22221 0.0278,-0.15743 0.0554,-0.34303 0.0739,-0.43564 z m -1.69188,0.0186 c 0.009,0 0.1018,0.17625 0.1018,0.18551 -0.0368,0.037 -0.12919,0.12967 -0.12919,0.12041 0,-0.0741 0.0274,-0.2874 0.0274,-0.30592 z m 0.3421,0.0372 c 0.009,0.009 -0.009,0.22205 -0.0372,0.29611 -0.009,0 -0.0922,-0.10149 -0.12919,-0.1478 0.009,0 0.15714,-0.14831 0.1664,-0.14831 z m 1.81229,0 c -0.0185,0.12963 -0.0461,0.32395 -0.0646,0.42582 -0.0463,-0.0463 -0.11127,-0.14813 -0.14831,-0.22221 0.0556,-0.0556 0.13909,-0.12952 0.21291,-0.20361 z m 0.12919,0.0186 c 0.17566,0.35187 0.41617,0.73151 1.01699,1.13895 -0.29604,-0.0463 -0.79486,-0.12066 -1.14618,-0.17622 0.0463,-0.32409 0.0922,-0.70346 0.12919,-0.96273 z m -1.86759,0.0186 c 0.0553,0.26853 0.10179,0.4908 0.21291,0.80563 -0.12038,0 -0.20356,0.009 -0.30541,-0.009 0.0185,-0.25927 0.0555,-0.55558 0.0925,-0.79633 z m -0.2682,0.14779 c 0.009,0.037 0.11143,0.1485 0.12041,0.18552 -0.009,0 -0.16644,0.1571 -0.1757,0.1571 -0.009,-0.037 -0.10137,-0.15728 -0.11989,-0.1943 0.009,0 0.16592,-0.13906 0.17518,-0.14832 z m 1.7384,0.0651 c 0.0738,0.10186 0.13874,0.20358 0.1943,0.31471 -0.0185,0.13888 -0.0373,0.24099 -0.0651,0.39842 -0.0556,0 -0.44398,-0.0373 -0.4625,-0.0465 0.0185,-0.14816 0.0373,-0.25915 0.0651,-0.42581 0.0741,-0.0648 0.16633,-0.15747 0.2682,-0.24081 z m -0.4253,0.009 c -0.009,0.10184 -0.0461,0.53681 -0.0646,0.62942 h -0.0372 c 0.0185,-0.10187 0.0373,-0.35186 0.0558,-0.45372 0.009,0 -3.2e-4,-0.009 0.046,-0.1757 z m -1.50688,0.1571 c 0.009,-0.009 0.1018,0.15761 0.1018,0.15761 -0.009,0.009 -0.14835,0.15718 -0.15761,0.1757 0,-0.009 0.0558,-0.32405 0.0558,-0.33331 z m 0.34158,0 c -0.009,0.0185 -0.0277,0.3613 -0.0367,0.37982 -0.0185,-0.037 -0.14831,-0.23147 -0.14831,-0.22221 0,0 0.10192,-0.0836 0.185,-0.15761 z m -1.79266,0.0553 c 0.0986,-0.002 0.19361,0.0971 0.20257,0.22272 0,0.009 0.0279,0.29611 0.0279,0.29611 l -0.38809,0.0186 c 0,0 -0.0279,-0.28684 -0.0279,-0.2961 -0.009,-0.12965 0.0741,-0.24082 0.1757,-0.24082 0.003,-2.9e-4 0.007,-4.5e-4 0.01,-5.2e-4 z m 2.87476,0.01 c -0.009,0.0833 -0.0373,0.34243 -0.0465,0.41651 -0.009,0.009 -0.0274,0 -0.0367,0 0.009,-0.0833 0.0274,-0.22206 0.0367,-0.30541 0.009,0 0.0373,-0.1111 0.0465,-0.1111 z m -4.77955,0.13642 c 0.0941,-0.005 0.17642,0.0846 0.19379,0.20619 0,0.009 0.0279,0.28681 0.0279,0.28681 l -0.38809,0.0279 c 0,0 -0.0186,-0.26828 -0.0279,-0.2868 -0.009,-0.12039 0.0646,-0.23151 0.17518,-0.23151 0.006,-0.001 0.0128,-0.002 0.0191,-0.003 z m 3.48506,0.0114 c 0.0648,0.11113 0.0927,0.13934 0.12971,0.21343 -0.11111,0 -0.17574,-5e-5 -0.29611,-0.009 0.037,-0.0463 0.0836,-0.10225 0.1664,-0.20412 z m 1.16117,0.13539 c 0.001,2.6e-4 0.003,0.001 0.004,0.004 0,0.0278 -0.009,0.0833 -0.009,0.11111 -0.009,0.009 -0.028,0.009 -0.0372,0.009 0,-0.0278 0.009,-0.0554 0.009,-0.0832 0.008,0 0.0232,-0.0426 0.0331,-0.0408 z m -3.67265,0.12248 c 0.15341,7.1e-4 0.28433,0.13422 0.29301,0.31677 0,0.0185 0.0273,0.57417 0.0181,0.81494 -0.19421,0.0278 -0.22188,-0.009 -0.4346,0 -0.009,0 -0.15714,0.0279 -0.1664,0.0279 -0.009,-0.16669 -0.0186,-0.75043 -0.0186,-0.76895 -0.009,-0.20399 0.11107,-0.3706 0.2775,-0.38912 0.0104,-10e-4 0.0208,-0.002 0.031,-0.002 z m 3.01997,0.11265 h 0.0372 c 0,0.0185 -0.009,0.0373 -0.009,0.0465 h -0.0279 z m 0.38809,0.0279 h 0.0279 v 0.0558 c -0.0185,0 -0.0275,-0.009 -0.046,-0.009 0.009,-0.0185 0.009,-0.028 0.0181,-0.0465 z m 0.21291,0.0372 c 0.009,0 0.028,5e-5 0.0465,0.009 0,0.009 -0.009,0.0182 -0.009,0.0367 -0.0185,-0.009 -0.0373,-0.009 -0.0465,-0.0186 0,-0.009 0.009,-0.0181 0.009,-0.0274 z m 0.4439,0.009 c 0.009,0.009 0.0734,4e-5 0.0827,0.009 -0.009,0.0278 -0.0735,0.18508 -0.092,0.20361 -0.009,-0.009 -0.0187,-0.11142 -0.0372,-0.12041 0.0185,-0.028 0.028,-0.0647 0.0465,-0.0925 z m -1.1374,0.009 h 0.009 c 0.009,0.009 0.009,0.0181 0.009,0.0274 h -0.0279 c 0,-0.009 4e-5,-0.0181 0.009,-0.0274 z m 0.3514,0.0181 c 0.009,0.009 0.0277,0.009 0.0367,0.009 0,0.0188 -0.009,0.0375 -0.009,0.0465 h -0.0186 c 0,-0.0185 -5e-5,-0.0373 -0.009,-0.0558 z m 0.97979,0 c 0.0556,0 0.10201,0.009 0.14831,0.009 -0.0185,0.0278 -0.074,0.11135 -0.1018,0.16691 -0.0185,-0.0556 -0.028,-0.12065 -0.0465,-0.17621 z m -1.16427,0.009 c 0.009,0.009 0.0181,0.01 0.0274,0.0191 0,0 -5e-5,0.009 -0.009,0.009 -0.009,-0.009 -0.0181,-0.009 -0.0274,-0.0186 0.009,0 0.009,-4e-5 0.009,-0.009 z m 0.41548,0 c 0,0.0188 0.009,0.0376 0.009,0.0651 -0.009,0 -0.0181,-2.2e-4 -0.0274,0.009 0,-0.0185 -4e-5,-0.0466 -0.009,-0.0651 0.009,0 0.0181,-4e-5 0.0274,-0.009 z m 0.7028,0.009 c 0.0185,0.0466 0.0279,0.13938 0.0372,0.22273 -0.0463,0 -0.0744,-0.009 -0.12971,-0.0186 0.0275,-0.0463 0.0555,-0.13904 0.0925,-0.20413 z m 0.2868,0 c 0.046,0.01 0.14753,0.0186 0.20309,0.0186 -0.037,0.0556 -0.0922,0.12995 -0.13849,0.18551 -0.0185,-0.0648 -0.0461,-0.14856 -0.0646,-0.20412 z m -0.786,0.0284 h 0.0367 c 0,0.0275 -0.009,0.0554 -0.009,0.0832 h -0.0274 z m -1.41438,0.009 c 0.11112,0.01 0.16635,0.01 0.26768,0.0186 -0.0648,0.0651 -0.10106,0.10205 -0.16588,0.15761 -0.0278,-0.0556 -0.0555,-0.0926 -0.1018,-0.17621 z m 2.15387,0 c 0.009,0.0558 0.028,0.13009 0.0465,0.21342 -0.0648,0 -0.10184,-8e-5 -0.1664,-0.0186 0.046,-0.0741 0.0829,-0.12973 0.11989,-0.19482 z m 0.3514,0 c 0.0463,0.01 0.12923,0.0184 0.19379,0.0279 -0.037,0.0648 -0.10158,0.13888 -0.1664,0.22221 -0.009,-0.11111 -0.0181,-0.18502 -0.0274,-0.25011 z m -2.08049,0.0186 c 0.3331,0.0558 0.67494,0.1114 1.02629,0.17622 -0.046,0.28706 -0.11079,0.78723 -0.15709,1.17615 -0.11086,-0.037 -0.21256,-0.0745 -0.3049,-0.10232 -0.22172,-0.0648 -0.46234,-0.12939 -0.7121,-0.1757 0.0463,-0.3241 0.11102,-0.8148 0.1478,-1.07435 z m 1.22059,0 c 0.009,0 9e-5,0.0186 0.0186,0.0186 0.009,0.0188 0.0181,0.0648 0.0274,0.10181 -0.0185,0 -0.0554,-0.009 -0.0734,0 0.009,-0.0556 0.009,-0.0738 0.0274,-0.12041 z m 0.786,0.0186 c 0.0183,0.10212 0.0181,0.18525 0.0274,0.24082 -0.046,0 -0.12888,-0.028 -0.17518,-0.0465 0.0553,-0.0556 0.083,-0.1107 0.14779,-0.19431 z m 0.37001,0.009 c 0.0645,0 0.11974,0.009 0.20308,0.0186 -0.0556,0.0926 -0.0925,0.13891 -0.15709,0.23151 -0.0185,-0.10186 -0.0367,-0.17603 -0.046,-0.25011 z m -2.82929,0.0372 c 0,0.0371 0.0739,0.13858 0.0832,0.1571 -0.009,0 -0.11063,0.0837 -0.11989,0.0837 0.009,-0.0185 0.0182,-0.20377 0.0367,-0.24082 z m 0.3328,0 c 0.009,0.0185 -0.0279,0.22203 -0.0279,0.29611 -0.037,-0.0185 -0.11989,-0.13905 -0.11989,-0.14831 z m 2.81946,0 c 0.0741,0.009 0.13923,0.0274 0.24082,0.0367 -0.0648,0.0926 -0.10162,0.1576 -0.1757,0.26872 -0.0278,-0.12038 -0.0373,-0.20354 -0.0651,-0.30541 z m -0.39739,0.0367 c 0.0185,0.0833 0.028,0.13887 0.0465,0.22221 -0.0648,-0.009 -0.11122,-0.0182 -0.1943,-0.0367 0.0648,-0.0741 0.0922,-0.1207 0.14779,-0.18552 z m 0.31471,0.0279 c 0.0183,0.11111 0.0367,0.18541 0.046,0.27802 -0.0735,-0.009 -0.12952,-0.0187 -0.2036,-0.0372 0.0556,-0.0833 0.0928,-0.14822 0.15761,-0.24081 z m 0.4253,0 c 0.046,0.0185 0.1757,0.0465 0.1757,0.0465 0,0 -0.0835,0.14791 -0.14831,0.2868 -0.0183,-0.11111 -0.0181,-0.24072 -0.0274,-0.33331 z m -0.0651,0.0558 c 0.009,0.12964 0.0186,0.21292 0.0279,0.33331 -0.0833,-0.0278 -0.1298,-0.0373 -0.2036,-0.0651 0.0553,-0.0926 0.10163,-0.15708 0.1757,-0.2682 z m -1.73788,0.0186 c 0.12038,0.0278 0.21254,0.0461 0.3607,0.0646 -0.0833,0.0741 -0.12975,0.12013 -0.1943,0.1757 -0.0556,-0.0741 -0.10158,-0.13844 -0.1664,-0.2403 z m 2.13527,0 c 0.1016,0.009 0.16639,0.0181 0.2775,0.0274 -0.0648,0.0926 -0.11083,0.13882 -0.1664,0.21291 -0.0368,-0.0833 -0.0648,-0.13845 -0.1111,-0.2403 z m -0.11059,0.0274 c 0.0185,0 0.0649,0.15761 0.0832,0.15761 -0.0183,0.0648 -0.0275,0.11093 -0.0553,0.185 -0.0185,0 -0.16648,-0.0367 -0.18501,-0.0274 0.0278,-0.0741 0.12032,-0.23188 0.1571,-0.31522 z m -3.57756,0.0279 c 0.037,0.0556 0.0831,0.11131 0.11059,0.15762 -0.055,0.0463 -0.1108,0.0927 -0.1571,0.1297 -0.037,-0.0463 -0.0743,-0.102 -0.1111,-0.14831 0.046,-0.0463 0.0835,-0.0742 0.15761,-0.13901 z m 1.49758,0.0186 c 0.055,0.0926 0.1015,0.14813 0.1478,0.2222 -0.0648,0.0556 -0.14757,0.13875 -0.21239,0.19431 0.0185,-0.12964 0.0368,-0.24057 0.0646,-0.41651 z m 2.55127,0.009 c 0.11111,0.0185 0.18499,0.0275 0.29611,0.046 -0.0833,0.0926 -0.14796,0.17624 -0.2403,0.29662 -0.0185,-0.1389 -0.0373,-0.2315 -0.0558,-0.34261 z m -2.06137,0.0279 c -0.0185,0.14816 -0.0556,0.34221 -0.0739,0.48111 -0.0463,-0.0833 -0.11131,-0.20342 -0.15761,-0.2775 0.0556,-0.0556 0.13917,-0.12953 0.23151,-0.20361 z m 0.15709,0.009 c 0.42517,0.11112 0.84124,0.23201 1.2852,0.34313 -0.0738,0.463 -0.18538,1.13878 -0.26872,1.67587 -0.38814,-0.21298 -0.82252,-0.45361 -1.23817,-0.65733 0.0738,-0.44448 0.1664,-1.00053 0.22169,-1.36167 z m 1.82935,0 c 4.8e-4,-6e-5 7.4e-4,-2.9e-4 0.001,0 0.009,0.0833 0.0187,0.25931 0.0279,0.35192 -0.0185,0.009 -0.0833,-0.0181 -0.10181,-0.009 -0.0278,-0.0648 -0.0465,-0.17622 -0.0465,-0.17622 0,0 0.10445,-0.16501 0.11938,-0.16691 z m 0.4625,0.0264 c 0.0232,-8.7e-4 0.0668,0.0202 0.0749,0.0202 0.0185,0.0648 -1.2e-4,0.46306 -0.0279,0.47232 -0.009,-0.0648 -0.0558,-0.4261 -0.0558,-0.49093 0.002,-10e-4 0.005,-10e-4 0.009,-0.002 z m -0.0641,0.0667 c 0.009,0.15742 0.019,0.21302 0.0372,0.35191 -0.11059,-0.0278 -0.17582,-0.0374 -0.2589,-0.0744 0.0738,-0.10185 0.12935,-0.14786 0.22169,-0.2775 z m -4.57388,0.0605 c 0.0129,-0.003 0.0821,0.0891 0.0904,0.10593 -0.0172,0 -0.12281,0.11213 -0.13488,0.12506 0.0114,-0.0213 0.0319,-0.10645 0.0238,-0.10645 0,-0.009 0.0186,-0.11115 0.0186,-0.12041 0,-0.003 7.5e-4,-0.004 0.002,-0.004 z m 0.33022,0.004 c -0.009,0.0463 -0.037,0.25911 -0.046,0.30541 -0.009,0 -0.0642,-0.12944 -0.092,-0.185 0.037,-0.0185 0.10094,-0.10189 0.13798,-0.12041 z m 1.56269,0.0739 c 0.0278,0.0556 0.15739,0.24084 0.22221,0.36122 -0.0926,0.0833 -0.20354,0.15751 -0.30541,0.25011 -0.0741,-0.10186 -0.13839,-0.19436 -0.23099,-0.32401 0.12038,-0.0926 0.21233,-0.19472 0.31419,-0.28732 z m -1.74718,0.0837 c 0.037,0.0926 0.0742,0.14825 0.12971,0.25011 -0.10186,-0.037 -0.19447,-0.0653 -0.28681,-0.10232 0.0556,-0.0556 0.0923,-0.0922 0.1571,-0.14779 z m 3.58738,0.0832 c 0.12911,0.0278 0.31419,0.0739 0.31419,0.0739 0,0 0.11106,0.17624 0.1571,0.29663 -0.0553,0.0463 -0.0831,0.0742 -0.1664,0.139 -0.10159,-0.16667 -0.2033,-0.34285 -0.30489,-0.50952 z m 0.39739,0.0832 c 0.0923,0.0278 0.22185,0.0466 0.31419,0.0651 -0.0463,0.0648 -0.11087,0.10153 -0.1757,0.15709 -0.0463,-0.0741 -0.0922,-0.13886 -0.13849,-0.22221 z m -0.40669,0.093 c 0.0923,0.15742 0.15696,0.25896 0.24029,0.38861 -0.11111,0.10185 -0.21249,0.20363 -0.3514,0.32401 0.037,-0.25002 0.0648,-0.45334 0.11111,-0.71262 z m -2.16369,0.0739 c 0.0648,0.0926 0.12067,0.15747 0.17569,0.24081 -0.0365,0.037 -0.14804,0.14804 -0.2036,0.20361 -0.009,-0.009 -0.0274,-0.009 -0.0367,-0.0186 0.0275,-0.12038 0.0461,-0.27765 0.0646,-0.42581 z m 0.52709,0.0553 c -0.0185,0.11113 -0.0554,0.32429 -0.0739,0.50023 -0.0556,-0.10186 -0.1108,-0.2035 -0.1571,-0.29611 0.037,-0.0278 0.16618,-0.14855 0.23099,-0.20412 z m 2.31097,0 c -0.0183,0.15742 -0.0456,0.39848 -0.0827,0.63924 -0.0648,-0.0926 -0.15742,-0.2408 -0.23151,-0.35192 0.0741,-0.0648 0.23113,-0.22249 0.31419,-0.28732 z m -2.61637,0.25942 c 0.0741,0.12038 0.12975,0.22215 0.1943,0.32401 -0.12011,-0.0556 -0.24959,-0.11084 -0.36018,-0.1664 0.0463,-0.0463 0.10132,-0.10205 0.16588,-0.15761 z m -7.98711,0.0186 c 0.0923,0.0185 0.18438,0.028 0.27698,0.0465 v 0.0553 c -0.0556,0.0278 -0.11118,0.0462 -0.185,0.0832 -0.046,-0.0556 -0.0735,-0.0922 -0.11059,-0.12919 0,-0.0278 0.009,-0.0373 0.0186,-0.0558 z m -0.12971,0.0279 c 0.0553,0.0648 0.10153,0.12022 0.1571,0.1943 -0.0926,0.037 -0.15696,0.0555 -0.2403,0.0925 -0.0278,-0.0741 -0.0461,-0.13882 -0.0739,-0.21291 0.0463,-0.0278 0.0923,-0.0461 0.1571,-0.0739 z m 10.35441,0.0279 c 0.10185,0.16668 0.19425,0.31447 0.2961,0.49041 -0.13863,0.12965 -0.27748,0.25952 -0.4439,0.39843 -0.10133,-0.16669 -0.19424,-0.32429 -0.2961,-0.50023 0.15742,-0.13891 0.29599,-0.24971 0.4439,-0.38861 z m -10.5854,0.0925 c 0.0278,0.0556 0.0552,0.11084 0.0827,0.1664 -0.0183,0.009 -0.0368,0.0187 -0.0553,0.0279 -0.0278,-0.0556 -0.0461,-0.11136 -0.0739,-0.16692 0.009,-0.009 0.028,-0.0181 0.0465,-0.0274 z m -0.5731,0.0553 0.009,0.009 c 0.046,0.009 0.0922,0.009 0.13849,0.0186 -0.009,0.0185 -0.0186,0.0461 -0.0186,0.0646 -0.037,-0.0278 -0.0831,-0.0554 -0.11989,-0.0832 -0.009,0 -0.009,-4e-5 -0.009,-0.009 z m -0.26665,0.0429 c 0.0217,-6.9e-4 0.048,0.0101 0.0724,0.0222 0.1016,0.0556 0.19403,0.11088 0.30489,0.1757 -0.0185,0.037 -0.0274,0.0834 -0.0367,0.1204 -0.0553,-0.0185 -0.10201,-0.0367 -0.14831,-0.046 0.009,0.0278 0.0187,0.0462 0.0372,0.1018 -0.25903,0.0648 -0.50864,0.12018 -0.7674,0.18501 0.046,-0.27782 0.27743,-0.50015 0.4899,-0.48163 0,-0.0573 0.0202,-0.0766 0.0481,-0.0775 z m 0.63614,0.0222 c 0.0463,0.0278 0.083,0.0648 0.1478,0.1111 -0.0556,0.0278 -0.0922,0.0368 -0.1292,0.0553 -0.0185,-0.0556 -0.0372,-0.0927 -0.0465,-0.13901 0,0 0.0186,-0.009 0.0279,-0.0274 z m 10.33632,0.34261 c 0.0923,0.15743 0.15718,0.26827 0.23099,0.39791 -0.0645,0.0556 -0.12948,0.11109 -0.1943,0.16692 -0.0368,-0.0185 -0.0741,-0.0461 -0.1111,-0.0646 0.0185,-0.16694 0.0374,-0.31503 0.0744,-0.50023 z m 0.70228,0.11111 c -0.037,0.25928 -0.0738,0.4628 -0.11058,0.70383 -0.0833,-0.1389 -0.14844,-0.25948 -0.23151,-0.38912 0.11086,-0.10186 0.20346,-0.18507 0.34209,-0.31471 z m -0.45268,0.34261 c 0.0923,0.14842 0.17504,0.26874 0.25838,0.38913 -0.12011,-0.0648 -0.25884,-0.14822 -0.41599,-0.24082 0.0555,-0.0466 0.10231,-0.0927 0.15761,-0.14831 z"
       id="path3"
       style="stroke-width:0.264583;fill:#ffffff" />
    <path
       d="m 119.15219,143.45999 c 0,0.009 -0.009,0.0185 0,0 0.009,0.0278 0.009,0.0185 0,0"
       id="path4"
       style="stroke-width:0.264583" />
    <path
       d="m 118.70849,143.52482 c -0.009,-0.0185 -0.009,-0.009 0,0 0,-0.0185 0,-0.009 0,0"
       id="path5"
       style="stroke-width:0.264583" />
    <path
       d="m 118.40369,143.47851 v 0.009 z"
       id="path6"
       style="stroke-width:0.264583" />
    <path
       d="m 118.45872,142.51543 c -0.009,0.009 -0.009,0.0185 0,0 -0.0185,-0.009 -0.0275,-0.009 0,0"
       id="path7"
       style="stroke-width:0.264583" />
    <path
       d="m 115.48216,146.78501 -0.0185,-0.009 0.0185,-0.009 z"
       id="path8"
       style="stroke-width:0.264583" />
    <g
       id="g62"
       transform="matrix(0.26458333,0,0,0.26458333,109.5375,139.7)"
       style="fill:#ffffff">
      <g
         id="g26"
         style="fill:#ffffff">
        <path
           d="M 2.935,35.844 H 3.18 l -0.035,1.19 c 0,0.28 0.174,0.455 0.454,0.455 0.28,0 0.489,-0.14 0.489,-0.455 l 0.034,-1.19 h 0.245 l -0.035,1.19 c 0,0.42 -0.313,0.665 -0.733,0.665 -0.419,0 -0.734,-0.28 -0.699,-0.7 z"
           id="path9"
           style="fill:#ffffff" />
        <path
           d="m 5.031,35.984 0.245,0.035 0.664,1.295 c 0.07,0.105 0.105,0.28 0.105,0.28 v -0.28 L 6.22,36.124 6.464,36.159 6.22,38.014 5.975,37.979 5.311,36.684 c -0.07,-0.105 -0.105,-0.28 -0.105,-0.28 0,0 0,0.175 -0.035,0.28 l -0.175,1.19 -0.244,-0.035 z"
           id="path10"
           style="fill:#ffffff" />
        <path
           d="M 6.775,38.072 6.957,36.226 7.201,36.25 7.019,38.096 Z"
           id="path11"
           style="fill:#ffffff" />
        <path
           d="m 8.246,36.579 c 0,0 -0.07,0.175 -0.105,0.245 l -0.244,0.56 0.559,0.035 -0.175,-0.595 c 0,-0.07 -0.035,-0.245 -0.035,-0.245 z m -0.14,-0.7 c 0.175,0 0.21,0.175 0.315,0.21 0.07,0 0.105,-0.105 0.105,-0.175 h 0.175 c 0,0.21 -0.105,0.315 -0.28,0.315 -0.175,0 -0.21,-0.175 -0.315,-0.21 -0.07,0 -0.105,0.07 -0.105,0.175 H 7.827 c 0.035,-0.245 0.105,-0.35 0.279,-0.315 m 0.42,1.82 -0.699,-0.035 -0.21,0.525 h -0.28 l 0.769,-1.82 h 0.28 l 0.559,1.89 H 8.666 Z"
           id="path12"
           style="fill:#ffffff" />
        <path
           d="m 10.098,38.049 c 0.384,0 0.699,-0.315 0.699,-0.735 0,-0.42 -0.315,-0.7 -0.699,-0.7 -0.385,0 -0.698,0.315 -0.698,0.7 0.034,0.42 0.348,0.735 0.698,0.735 m 0,-1.68 c 0.524,0 0.944,0.42 0.944,0.945 0,0.56 -0.42,0.98 -0.944,0.98 -0.525,0 -0.943,-0.42 -0.943,-0.98 0,-0.525 0.418,-0.945 0.943,-0.945"
           id="path13"
           style="fill:#ffffff" />
        <path
           d="m 12.788,37.909 c 0.42,-0.035 0.664,-0.315 0.629,-0.77 -0.034,-0.455 -0.349,-0.665 -0.734,-0.63 l -0.349,0.035 0.14,1.4 z m -0.733,-1.575 0.628,-0.07 c 0.56,-0.035 0.979,0.245 1.014,0.84 0.07,0.595 -0.28,0.945 -0.839,1.015 l -0.629,0.07 z"
           id="path14"
           style="fill:#ffffff" />
        <path
           d="m 14.536,36.334 c 0,0 -0.035,0.175 -0.035,0.28 l -0.14,0.595 0.559,-0.07 -0.279,-0.56 c -0.035,-0.07 -0.105,-0.245 -0.105,-0.245 z m 0.488,1.015 -0.698,0.105 -0.105,0.56 -0.279,0.035 0.419,-1.925 0.28,-0.035 0.908,1.75 -0.28,0.035 z"
           id="path15"
           style="fill:#ffffff" />
        <path
           d="m 15.758,37.349 c 0,0 0.21,0.175 0.49,0.14 0.175,-0.035 0.314,-0.14 0.279,-0.315 -0.069,-0.385 -0.943,-0.175 -1.013,-0.735 -0.035,-0.28 0.175,-0.56 0.524,-0.595 0.35,-0.07 0.559,0.105 0.559,0.105 l -0.07,0.245 c 0,0 -0.209,-0.14 -0.419,-0.105 -0.21,0.035 -0.315,0.175 -0.28,0.315 0.07,0.385 0.944,0.14 1.014,0.735 0.035,0.28 -0.14,0.56 -0.489,0.595 -0.385,0.07 -0.629,-0.14 -0.629,-0.14 z"
           id="path16"
           style="fill:#ffffff" />
        <path
           d="m 17.575,35.599 1.014,-0.175 0.035,0.245 -0.734,0.105 0.105,0.595 0.629,-0.105 0.035,0.245 -0.629,0.105 0.104,0.77 -0.244,0.035 z"
           id="path17"
           style="fill:#ffffff" />
        <path
           d="m 19.707,36.159 c 0.21,-0.035 0.315,-0.175 0.28,-0.385 -0.035,-0.14 -0.07,-0.21 -0.175,-0.28 -0.07,-0.035 -0.105,-0.035 -0.244,0 l -0.28,0.035 0.105,0.665 z m -0.734,-0.77 0.56,-0.07 c 0.209,-0.035 0.279,-0.035 0.349,0 0.21,0.035 0.349,0.21 0.384,0.455 0.035,0.245 -0.07,0.455 -0.244,0.56 0,0 0.035,0.035 0.07,0.07 l 0.488,0.665 -0.279,0.035 -0.489,-0.665 -0.384,0.07 0.105,0.735 -0.245,0.035 z"
           id="path18"
           style="fill:#ffffff" />
        <path
           d="m 20.65,35.144 1.084,-0.14 0.035,0.21 -0.804,0.105 0.035,0.595 0.664,-0.105 0.035,0.245 -0.664,0.07 0.07,0.595 0.873,-0.105 v 0.245 l -1.083,0.105 z"
           id="path19"
           style="fill:#ffffff" />
        <path
           d="m 23.026,34.864 c 0.455,-0.035 0.699,0.175 0.699,0.175 l -0.105,0.21 c 0,0 -0.209,-0.175 -0.524,-0.14 -0.418,0.035 -0.663,0.385 -0.628,0.77 0.035,0.42 0.349,0.7 0.733,0.665 0.314,-0.035 0.489,-0.28 0.489,-0.28 l -0.035,-0.28 -0.314,0.035 -0.035,-0.21 0.524,-0.035 0.07,0.945 -0.245,0.035 v -0.175 c 0,0 -0.174,0.245 -0.559,0.28 -0.488,0.035 -0.943,-0.315 -0.978,-0.875 0,-0.63 0.35,-1.085 0.908,-1.12"
           id="path20"
           style="fill:#ffffff" />
        <path
           d="m 24.215,34.829 h 0.244 l 0.035,1.19 c 0,0.28 0.21,0.455 0.49,0.42 0.279,0 0.454,-0.175 0.454,-0.49 l -0.035,-1.19 h 0.244 l 0.035,1.19 c 0,0.42 -0.279,0.7 -0.698,0.7 -0.42,0 -0.734,-0.245 -0.769,-0.665 z"
           id="path21"
           style="fill:#ffffff" />
        <path
           d="m 26.276,34.759 1.049,0.035 v 0.245 l -0.804,-0.035 -0.035,0.595 h 0.664 v 0.245 l -0.664,-0.035 v 0.595 l 0.839,0.035 v 0.21 l -1.119,-0.035 z"
           id="path22"
           style="fill:#ffffff" />
        <path
           d="m 27.709,36.264 c 0,0 0.175,0.21 0.454,0.245 0.174,0 0.314,-0.07 0.349,-0.245 0.035,-0.385 -0.873,-0.385 -0.803,-0.945 0.035,-0.28 0.28,-0.49 0.628,-0.455 0.35,0.035 0.525,0.245 0.525,0.245 l -0.14,0.21 c 0,0 -0.14,-0.175 -0.385,-0.21 -0.208,0 -0.348,0.105 -0.348,0.245 -0.035,0.385 0.873,0.35 0.803,0.945 -0.035,0.28 -0.28,0.49 -0.629,0.455 -0.384,-0.035 -0.594,-0.28 -0.594,-0.28 z"
           id="path23"
           style="fill:#ffffff" />
        <path
           d="m 29.102,36.768 0.226,-1.841 0.243,0.03 -0.226,1.841 z"
           id="path24"
           style="fill:#ffffff" />
        <path
           d="m 30.644,35.424 c 0,0 -0.07,0.175 -0.105,0.245 l -0.279,0.56 0.559,0.07 -0.105,-0.63 c -0.035,-0.07 -0.07,-0.245 -0.07,-0.245 z m 0.175,1.12 -0.699,-0.105 -0.245,0.49 -0.279,-0.035 0.943,-1.75 0.28,0.035 0.384,1.925 -0.279,-0.035 z"
           id="path25"
           style="fill:#ffffff" />
        <path
           d="m 31.517,36.754 c 0,0 0.175,0.245 0.42,0.28 0.174,0.035 0.349,-0.035 0.349,-0.21 0.07,-0.385 -0.839,-0.455 -0.734,-1.015 0.035,-0.28 0.315,-0.455 0.664,-0.42 0.35,0.07 0.49,0.28 0.49,0.28 l -0.14,0.21 c 0,0 -0.14,-0.175 -0.385,-0.21 -0.209,-0.035 -0.349,0.07 -0.384,0.21 -0.07,0.385 0.839,0.42 0.734,1.015 -0.035,0.28 -0.315,0.49 -0.664,0.42 -0.385,-0.07 -0.56,-0.35 -0.56,-0.35 z"
           id="path26"
           style="fill:#ffffff" />
      </g>
      <g
         id="g46"
         style="fill:#ffffff">
        <path
           d="m 1.642,39.449 c 0,0 -0.105,0.245 -0.175,0.35 l -0.454,0.77 0.803,0.175 -0.104,-0.91 c -0.035,-0.14 -0.07,-0.385 -0.07,-0.385 z m 0.174,1.645 -1.012,-0.21 -0.42,0.7 -0.384,-0.07 1.502,-2.45 0.384,0.07 0.42,2.87 -0.385,-0.07 z"
           id="path27"
           style="fill:#ffffff" />
        <path
           d="m 3.145,39.344 0.384,0.07 -0.384,2.345 1.187,0.21 -0.07,0.316 -1.572,-0.246 z"
           id="path28"
           style="fill:#ffffff" />
        <path
           d="m 5.171,39.694 0.385,0.035 0.454,1.54 c 0.035,0.14 0.105,0.385 0.105,0.385 0,0 0.105,-0.21 0.175,-0.35 l 0.768,-1.4 0.384,0.035 -0.07,2.731 -0.384,-0.036 0.07,-1.715 c 0,-0.175 0.035,-0.385 0.035,-0.385 0,0 -0.105,0.245 -0.175,0.385 l -0.663,1.155 -0.35,-0.035 -0.384,-1.26 c -0.035,-0.14 -0.105,-0.42 -0.105,-0.42 0,0 -0.035,0.245 -0.07,0.42 l -0.315,1.68 -0.384,-0.034 z"
           id="path29"
           style="fill:#ffffff" />
        <path
           d="m 9.05,40.394 c 0,0 -0.07,0.245 -0.105,0.385 l -0.314,0.84 H 9.434 L 9.155,40.744 C 9.12,40.639 9.05,40.394 9.05,40.394 Z m 0.488,1.575 H 8.526 L 8.246,42.74 H 7.862 L 8.875,40.044 H 9.26 l 0.943,2.73 H 9.818 Z"
           id="path30"
           style="fill:#ffffff" />
        <path
           d="m 11.531,42.319 c 0.593,-0.034 0.978,-0.42 0.943,-1.085 -0.035,-0.665 -0.489,-0.98 -1.083,-0.945 l -0.489,0.035 0.14,2.031 z m -1.049,-2.31 0.909,-0.07 c 0.838,-0.07 1.397,0.385 1.467,1.26 0.07,0.875 -0.454,1.401 -1.257,1.471 l -0.909,0.07 z"
           id="path31"
           style="fill:#ffffff" />
        <path
           d="m 14.082,40.044 c 0,0 -0.035,0.245 -0.07,0.385 l -0.175,0.91 0.804,-0.105 -0.42,-0.805 c -0.034,-0.14 -0.139,-0.385 -0.139,-0.385 z m 0.699,1.505 -1.014,0.14 -0.175,0.806 -0.384,0.034 0.629,-2.8 0.384,-0.035 1.328,2.555 -0.385,0.036 z"
           id="path32"
           style="fill:#ffffff" />
        <path
           d="m 15.828,41.759 0.385,-0.07 -0.21,0.84 -0.279,0.035 z"
           id="path33"
           style="fill:#ffffff" />
        <path
           d="m 18.449,38.924 c 0.629,-0.105 1.049,0.175 1.049,0.175 l -0.14,0.315 c 0,0 -0.35,-0.245 -0.839,-0.14 -0.594,0.105 -0.909,0.63 -0.804,1.19 0.105,0.56 0.594,0.98 1.188,0.875 0.49,-0.105 0.769,-0.49 0.769,-0.49 l 0.245,0.245 c 0,0 -0.28,0.49 -0.944,0.595 -0.804,0.14 -1.468,-0.35 -1.607,-1.155 -0.174,-0.77 0.314,-1.47 1.083,-1.61"
           id="path34"
           style="fill:#ffffff" />
        <path
           d="m 21.559,40.954 c 0.559,-0.035 0.944,-0.56 0.909,-1.155 -0.07,-0.595 -0.524,-0.98 -1.084,-0.945 -0.559,0.035 -0.944,0.525 -0.909,1.12 0.035,0.63 0.525,1.015 1.084,0.98 m -0.245,-2.45 c 0.769,-0.07 1.433,0.49 1.503,1.26 0.069,0.805 -0.489,1.47 -1.258,1.54 -0.769,0.07 -1.432,-0.49 -1.502,-1.295 -0.07,-0.77 0.488,-1.435 1.257,-1.505"
           id="path35"
           style="fill:#ffffff" />
        <path
           d="m 23.061,38.434 h 0.42 l 0.664,1.925 c 0.035,0.14 0.105,0.385 0.105,0.385 0,0 0.069,-0.21 0.104,-0.385 l 0.665,-1.925 h 0.419 l -1.014,2.695 H 24.04 Z"
           id="path36"
           style="fill:#ffffff" />
        <path
           d="m 26.591,38.889 c 0,0 -0.07,0.245 -0.14,0.385 l -0.35,0.84 0.804,0.035 -0.245,-0.875 c 0,-0.14 -0.035,-0.385 -0.069,-0.385 z m 0.419,1.575 -1.014,-0.07 -0.314,0.77 -0.384,-0.035 1.118,-2.66 0.384,0.035 0.804,2.765 -0.384,-0.035 z"
           id="path37"
           style="fill:#ffffff" />
        <path
           d="m 29.805,41.164 c 0.595,0.07 1.049,-0.245 1.119,-0.91 0.069,-0.665 -0.28,-1.05 -0.909,-1.12 l -0.489,-0.07 -0.21,2.03 z m -0.594,-2.45 0.909,0.105 c 0.838,0.105 1.327,0.63 1.222,1.505 -0.104,0.84 -0.698,1.295 -1.502,1.19 l -0.908,-0.105 z"
           id="path38"
           style="fill:#ffffff" />
        <path
           d="m 32.776,39.484 c 0,0 -0.105,0.245 -0.14,0.385 l -0.385,0.805 0.804,0.105 -0.21,-0.875 c -0.034,-0.175 -0.069,-0.42 -0.069,-0.42 z m 0.314,1.61 -1.014,-0.105 -0.349,0.735 -0.385,-0.035 1.259,-2.59 0.384,0.035 0.663,2.8 -0.383,-0.035 z"
           id="path39"
           style="fill:#ffffff" />
        <path
           d="m 35.99,40.779 c 0.315,0.035 0.524,-0.175 0.559,-0.49 0.035,-0.315 -0.175,-0.525 -0.489,-0.56 l -0.524,-0.035 -0.07,1.05 z m -0.804,-1.435 0.979,0.07 c 0.489,0.035 0.838,0.385 0.803,0.91 -0.035,0.525 -0.419,0.84 -0.908,0.805 l -0.594,-0.035 -0.07,1.015 -0.384,-0.035 z"
           id="path40"
           style="fill:#ffffff" />
        <path
           d="m 37.364,42.185 0.068,-2.694 0.385,0.01 -0.068,2.694 z"
           id="path41"
           style="fill:#ffffff" />
        <path
           d="m 38.436,39.484 1.572,-0.035 v 0.315 l -1.187,0.035 0.035,0.875 0.943,-0.035 0.034,0.315 -0.977,0.035 0.035,0.875 1.257,-0.035 v 0.315 l -1.642,0.071 z"
           id="path42"
           style="fill:#ffffff" />
        <path
           d="m 41.616,41.724 c 0.593,-0.07 0.978,-0.455 0.908,-1.12 -0.07,-0.665 -0.489,-0.98 -1.083,-0.91 l -0.489,0.035 0.175,2.03 z m -1.083,-2.31 0.908,-0.07 c 0.838,-0.07 1.398,0.385 1.502,1.225 0.07,0.84 -0.419,1.4 -1.257,1.47 l -0.909,0.105 z"
           id="path43"
           style="fill:#ffffff" />
        <path
           d="m 44.097,39.379 c 0,0 -0.035,0.245 -0.035,0.385 l -0.175,0.91 0.803,-0.14 -0.418,-0.805 c -0.07,-0.105 -0.14,-0.35 -0.175,-0.35 z m 0.768,1.47 -1.013,0.175 -0.14,0.805 -0.384,0.07 0.524,-2.835 0.385,-0.07 1.397,2.52 -0.385,0.07 z"
           id="path44"
           style="fill:#ffffff" />
        <path
           d="m 46.892,40.884 c 0.594,-0.14 0.908,-0.595 0.733,-1.225 -0.139,-0.63 -0.628,-0.91 -1.222,-0.77 l -0.489,0.105 0.454,1.995 z m -1.398,-2.135 0.874,-0.21 c 0.803,-0.175 1.432,0.175 1.642,1.015 0.21,0.84 -0.21,1.435 -1.048,1.645 l -0.874,0.21 z"
           id="path45"
           style="fill:#ffffff" />
        <path
           d="m 48.15,38.119 1.538,-0.385 0.07,0.315 -1.154,0.28 0.21,0.84 0.944,-0.245 0.069,0.315 -0.943,0.245 0.244,0.84 1.223,-0.315 0.07,0.315 -1.607,0.42 z"
           id="path46"
           style="fill:#ffffff" />
      </g>
      <g
         id="g61"
         style="fill:#ffffff">
        <path
           d="m 13.662,45.365 c 0.315,-0.035 0.49,-0.245 0.455,-0.595 -0.035,-0.315 -0.245,-0.49 -0.56,-0.455 l -0.559,0.07 0.105,1.05 z m -1.048,-1.295 0.978,-0.105 c 0.49,-0.035 0.874,0.245 0.944,0.77 0.035,0.525 -0.28,0.91 -0.769,0.945 l -0.594,0.07 0.105,1.015 -0.385,0.035 z"
           id="path47"
           style="fill:#ffffff" />
        <path
           d="m 15.933,44.98 c 0.28,-0.035 0.455,-0.245 0.42,-0.56 -0.035,-0.21 -0.14,-0.315 -0.28,-0.385 -0.07,-0.035 -0.175,-0.035 -0.384,0 l -0.42,0.07 0.14,0.945 z M 14.85,43.825 15.654,43.72 c 0.279,-0.035 0.384,-0.035 0.524,0 0.28,0.07 0.489,0.315 0.559,0.665 0.035,0.35 -0.105,0.665 -0.384,0.805 0,0 0.035,0.035 0.105,0.105 l 0.734,0.945 -0.42,0.07 -0.734,-0.98 -0.559,0.07 0.175,1.085 -0.385,0.07 z"
           id="path48"
           style="fill:#ffffff" />
        <path
           d="m 17.995,43.72 c 0,0 0,0.245 -0.035,0.385 l -0.14,0.91 0.804,-0.14 -0.455,-0.805 C 18.134,43.93 18.03,43.72 17.995,43.72 Z m 0.804,1.435 -1.014,0.175 -0.14,0.805 -0.383,0.07 0.488,-2.835 0.384,-0.07 1.434,2.485 -0.385,0.07 z"
           id="path49"
           style="fill:#ffffff" />
        <path
           d="m 20.755,42.844 c 0.629,-0.07 1.014,0.211 1.014,0.211 l -0.175,0.315 c 0,0 -0.315,-0.245 -0.804,-0.175 -0.628,0.07 -0.943,0.595 -0.908,1.155 0.07,0.63 0.558,1.015 1.118,0.945 0.454,-0.07 0.734,-0.42 0.734,-0.42 l -0.035,-0.385 -0.455,0.035 -0.035,-0.315 0.769,-0.105 0.14,1.365 -0.314,0.035 -0.035,-0.175 v -0.105 c 0,0 -0.245,0.35 -0.804,0.42 -0.734,0.07 -1.397,-0.42 -1.467,-1.26 -0.035,-0.77 0.454,-1.435 1.257,-1.541"
           id="path50"
           style="fill:#ffffff" />
        <path
           d="m 23.446,43.09 c 0,0 -0.07,0.245 -0.105,0.385 l -0.28,0.875 0.804,-0.035 -0.315,-0.84 C 23.515,43.335 23.446,43.09 23.446,43.09 Z m 0.559,1.54 -1.014,0.035 -0.244,0.805 h -0.384 l 0.873,-2.73 h 0.384 l 1.049,2.695 h -0.385 z"
           id="path51"
           style="fill:#ffffff" />
        <path
           d="m 25.088,42.704 h 0.385 l -0.07,2.381 1.222,0.035 -0.034,0.315 -1.572,-0.035 z"
           id="path52"
           style="fill:#ffffff" />
        <path
           d="m 28.129,42.81 1.572,0.105 -0.035,0.35 -1.189,-0.105 -0.07,0.84 0.979,0.07 -0.035,0.35 -0.979,-0.07 -0.035,0.875 1.224,0.07 v 0.35 l -1.642,-0.14 z"
           id="path53"
           style="fill:#ffffff" />
        <path
           d="m 32.426,43.125 c 0.664,0.07 0.944,0.455 0.944,0.455 l -0.21,0.28 c 0,0 -0.28,-0.315 -0.769,-0.35 -0.594,-0.07 -1.049,0.385 -1.084,0.945 -0.035,0.595 0.315,1.12 0.909,1.155 0.525,0.035 0.874,-0.28 0.874,-0.28 l 0.175,0.28 c 0,0 -0.42,0.385 -1.084,0.35 -0.804,-0.07 -1.327,-0.735 -1.257,-1.54 0.104,-0.805 0.733,-1.365 1.502,-1.295"
           id="path54"
           style="fill:#ffffff" />
        <path
           d="m 34.697,43.72 c 0,0 -0.07,0.245 -0.14,0.385 l -0.349,0.84 0.804,0.07 -0.245,-0.875 c 0,-0.175 -0.035,-0.42 -0.07,-0.42 z m 0.42,1.61 -1.014,-0.07 -0.315,0.77 -0.383,-0.035 1.152,-2.625 0.385,0.035 0.769,2.765 -0.385,-0.035 z"
           id="path55"
           style="fill:#ffffff" />
        <path
           d="m 37.388,43.44 c 0.664,0 0.978,0.385 0.978,0.385 l -0.209,0.28 c 0,0 -0.315,-0.315 -0.769,-0.315 -0.595,0 -1.014,0.42 -1.014,1.015 0,0.595 0.384,1.085 0.979,1.085 0.524,0 0.839,-0.35 0.839,-0.35 l 0.209,0.28 c 0,0 -0.384,0.42 -1.048,0.42 -0.804,-0.035 -1.363,-0.665 -1.363,-1.435 0,-0.805 0.594,-1.4 1.398,-1.365"
           id="path56"
           style="fill:#ffffff" />
        <path
           d="m 38.859,43.491 0.384,-0.013 0.091,2.729 -0.384,0.013 z"
           id="path57"
           style="fill:#ffffff" />
        <path
           d="m 39.903,43.44 h 0.35 l 0.175,2.345 1.223,-0.07 v 0.35 l -1.573,0.105 z"
           id="path58"
           style="fill:#ffffff" />
        <path
           d="m 41.825,43.3 0.349,-0.035 0.175,1.19 1.398,-0.21 -0.174,-1.155 0.384,-0.07 0.35,2.695 -0.35,0.035 -0.175,-1.155 -1.398,0.175 0.175,1.19 -0.385,0.035 z"
           id="path59"
           style="fill:#ffffff" />
        <path
           d="m 45.459,43.09 c 0,0 0,0.245 -0.035,0.385 l -0.14,0.91 0.804,-0.175 -0.454,-0.77 c -0.07,-0.105 -0.175,-0.35 -0.175,-0.35 z m 0.804,1.435 -1.014,0.21 -0.104,0.805 -0.385,0.07 0.42,-2.87 0.384,-0.07 1.503,2.45 -0.384,0.07 z"
           id="path60"
           style="fill:#ffffff" />
        <path
           d="m 47.346,44.455 c 0,0 0.349,0.21 0.734,0.105 0.245,-0.07 0.419,-0.245 0.349,-0.49 -0.139,-0.56 -1.397,-0.14 -1.572,-0.945 -0.104,-0.421 0.175,-0.84 0.664,-0.946 0.489,-0.105 0.804,0.07 0.804,0.07 L 48.22,42.6 c 0,0 -0.315,-0.175 -0.63,-0.071 -0.279,0.071 -0.419,0.281 -0.384,0.491 0.14,0.56 1.363,0.07 1.573,0.945 0.105,0.42 -0.14,0.805 -0.664,0.945 -0.559,0.14 -0.944,-0.14 -0.944,-0.14 z"
           id="path61"
           style="fill:#ffffff" />
      </g>
    </g>
  </g>
</svg>
