<svg height="175.375" width="850.373" xml:space="preserve" xmlns="http://www.w3.org/2000/svg">
  <g fill="#fff">
    <path d="m850.373 75.585-16.964-.035 4.539-23.696.376-1.942H687.862c-14.157 0-22.22-.106-26.49 10.362-1.593 3.907-6.55 25.237-6.55 30.277v1.09c0 9.68 9.158 12.274 19.114 12.274H689.5c5.043 0 12.015-1.339 12.015 3.546 0 2.717-1.152 8.472-1.994 10.555-1.458 3.605-2.623 4.719-7.563 4.719h-96.94c-8.421 0-2.303-12.378-1.912-18.547.148-2.34 1.95-8.567 2.94-10.155 1.836-2.948 4.741-3.482 9.35-3.482h14.472c3.179 0 6.553.892 6.553 4.091v.273c0 1.51-.518 2.802-.82 4.091H601.3l-2.913 15.292 41.415-.018c1.116-4.784 2.098-9.404 3.168-14.292.974-4.45 2.566-9.877 2.566-14.892v-.273c0-9.628-10.938-9.546-20.48-9.546h-21.845c-7.14 0-9.568.914-14.917 2.556-4.253 1.305-6.5 5.425-8.627 8.84l-9.205 42.021c-.041 3.84 1.056 4.48 2.112 5.55 1.254 1.267 2.547 2.004 4.53 2.565 3.37.956 8.773 1.2 13 1.2h106.223c10.716 0 16.401-3.626 19.082-11.762 1.462-4.44 5.59-20.244 5.018-25.106-.678-5.742-.795-7.801-4.818-10.483-3.194-2.13-7.798-2.289-13-2.289h-15.292c-3.762 0-12.835.905-12.835-2.455v-3.818c0-3.993 1.635-9.028 3.19-12.634 1.396-3.236 2.465-4.276 6.914-4.276h132.711c-3.61 15.479-6.537 31.141-9.769 46.7-.926 4.468-2.792 11.233-2.792 16.031v.818c0 8.116 7.547 9.274 15.565 9.274h16.93v-1.364c0-.93 2.723-13.052 3.005-13.637-5.683 0-15.839 1.658-15.839-4.092 0-4 1.994-10.301 2.752-14.161.772-3.923 2.383-10.28 2.71-14.204h17.203l3.31-14.966m-827.16 91.88c0 1.215.364 2.454-.82 2.454h-.546c-2.19 0-3.075-2.261-3.823-3.818 1.133-2.137 2.561-2.934 5.188-3.545v.545c3.142-.26 13.584-8.271 17.11-10.185 6.014-3.264 10.775-7.252 16.833-10.461 2.359-1.25 5.658-3.872 8.22-5.429 2.96-1.8 5.565-3.386 8.406-5.24 5.546-3.62 11.09-7.004 16.657-10.637 5.583-3.643 11.153-6.94 16.661-10.633 5.313-3.563 11.748-6.807 16.677-10.618 2.463-1.903 5.76-3.5 8.392-5.255 2.445-1.633 5.737-3.9 8.375-5.272 2.514-1.307 5.418-4.03 7.952-5.694 2.803-1.838 5.19-3.783 8.248-5.4.143.612.273.628.273 1.364 0 5.064-2.782 5.746-5.845 7.799-2.676 1.794-5.901 3.708-8.62 5.3-5.825 3.412-11.23 7.255-17.046 10.794-11.612 7.063-22.561 14.145-34.19 21.219-5.756 3.502-11.013 7.126-16.874 10.692-5.705 3.47-11.66 7.096-17.095 10.746-5.292 3.555-12.014 6.842-16.977 10.59-2.08 1.57-6.14 4.173-8.508 5.412-3.04 1.591-5.665 3.695-8.649 5.272zm197.718-111c2.157.573 7.1 7.551 7.357 10.63l-9.187-5.794zM143.06 13.45l-1.11 3.168L23.759 33.002H22.12c-2.371 0-5.711.526-8.085.925-1.333.224-2.896.415-4.005.636-1.77.353-1.555 1.03-3.202 1.167l-1.271-2.645c1.383-.52 1.07-1.447 3.183-1.447h.82c1.535 0 2.316.879 2.749.947zm1.94-1.449c1.593-2.377 4.266-4.092 8.192-4.092h1.638c2.496 0 2.524.532 5.02-.167 1.796-.502 2.4-.677 4.473-.988 2.948-.44 6.307-1.026 9.895-1.026 6.5 0 11.225 1.422 16.331 2.78 2.52.668 4.436 2.102 7.044 2.533 1.41.232 4.779-1.768 7.481-1.768h.82c3.36 0 5.196 1.52 6.554 3.545 0 2.432.154 2.21-.206 4.434-.426 2.64-.972 1.77-1.433 3.749 4.91 7.324 11.469 14.843 11.469 27.002 0 4.573-.319 5.144-2.796 7.298-1.668 1.45-4.39 2.588-6.725 3.374-3.403 1.144-13.461 1.601-18.332 1.601h-6.28c-1.41 3.89-7.311 8.806-10.174 11.658-3.661 3.646-8.006 6.344-15.222 6.344-1.53 0-3.823-.86-3.823-2.183V74.46c0-2.386 6.453-7.254 8.296-8.624 3.013-2.24 7.82-4.053 10.273-6.377-4.765 0-19.877-4.457-24.846-5.731-3.86-.99-7.864-2.685-10.71-4.576-3.035-2.016-5.404-4.666-5.404-9.603-1.673 1.922-1.44 18.029-.274 20.456-2.293-.534-2.455-5.226-3.113-7.528-.66-2.318-1.544-6.052-1.533-8.833.015-3.67-1.391-5.616-.793-9.255.53-3.222 2.744-5.2 3.254-7.114l3.165 1.819c.272-2.11 2.963-7.274 4.755-7.274.732 0 .06 1.091 1.912 1.091h2.73c5.098 0 24.879-.601 26.488-3-2.49-.578-4.552-1.448-6.861-2.146-2.274-.69-4.558-1.17-6.901-1.836-2.124-.604-13.357-2.918-14.092-3.382h-.545zM0 31.638v3.818c1.469 2.111.8 3.263 3.544 5.19 1.947 1.366 4.127 1.357 7.38 1.357v-.547h1.638c.705-1.745 20.46-3.65 24-4.12 8.08-1.072 16.517-2.549 24.614-3.508 8.137-.963 16.94-1.767 25.006-3.117 4.16-.696 8.089-.925 12.287-1.637 3.102-.527 9.743-1.527 12.671-1.527-.38 1.419-2.185 2.83-2.185 5.455.027 5.828 9.001 10.272 13.509 2.67l2.526-1.54c-.737 3.643-1.087 6.76-1.016 12.234v2.455c0 7.187 2.443 14.967 4.881 19.671 1.667 3.218 2.604 4.8 4.562 7.717 1.683 2.504 4.288 4.376 5.85 6.705-10.443 6.984-21.413 13.496-32 20.405-5.374 3.506-10.66 6.702-16.01 10.194-5.353 3.492-10.776 6.86-16.272 10.204-5.465 3.324-10.629 6.702-16.044 10.158-2.68 1.71-5.296 3.324-7.987 5.114-2.7 1.795-5.48 3.295-8.055 5.047-5.146 3.501-10.502 6.903-15.974 10.228-1.327.807-2.738 1.954-4.203 2.348-1.662.448-3.328.889-4.88 1.67-2.73 1.375-5.827 3.672-5.827 7.547 0 6.079 3.758 7.226 7.1 9.546h4.096l.297-.532c3.742-.014 4.676-4.345 7.427-5.936 2.652-1.535 5.358-3.658 8.107-5.268 5.596-3.278 10.7-6.794 16.282-10.193 11.13-6.776 22.03-13.287 33.097-20.129 5.856-3.62 65.902-40.039 66.41-40.039.028 0 7.783 2.654 9.07 2.943 3.226.724 6.495 1.421 10.318 1.421h.273l11.737-.626.183.252-44.298 46.036c-4.989-.113-9.675 3.504-9.675 7.796v2.182c0 3.674 2.889 9.84 13.347 6 1.14-1.65 3.168-4.904 4.47-6.205l5.326-5.317 10.513-10.502c7.12-7.111 14.194-13.905 21.298-21.001 7.127-7.117 14.34-13.772 21.438-20.864 1.722-1.72 9.161-9.645 10.917-10.097 16.743-4.31 17.45-16.916 7.992-31.02 1.667-7.143.139-13.682-1.873-19.404-1.115-3.17-6.115-12.869-8.23-14.417.574-1.194 1.093-3.126 1.093-4.909v-1.09c0-7.108-6.355-11.183-13.655-11.183-2.225 0-4.763.727-6.723 1.216-1.006.25-4.795-1.285-5.936-1.664-1.843-.61-4.393-1.344-6.197-1.72-1.06-.22-6.03-.782-6.539-1.105h-11.469c-.71.45-5.648.935-6.987 1.204-3.795.763-2.855.705-6.94.705h-.546c-3.299 0-5.65.755-8.082 1.746-3.632 1.48-3.224 2.685-5.571 4.254L32.808 23.45c-4.077.812-8.349 1.058-12.49 1.754-1.963.33-3.54.455-5.51.775-2.43.395-2.824-.613-5.25-.613h-.82c-2.63 0-4.205.717-5.669 1.974C.64 29.427 1.458 29.543 0 31.638" style="stroke-width:.13333"/>
    <path d="M266.517 89.732v3.273c0 3.913 4.438 7.973 7.477 9.169 4.822 1.898 8.703 1.741 15.187 1.741h16.657c3.936 0 14.473-1.03 14.473 2.455l-1.365 8.183c-1.053 10.904-9.541 8.455-19.389 8.455h-27.853c-18.568 0-37.137 0-55.836-.12l-13.797 15.12h86.292c12.92 0 31.747 1.632 39.963-3.177 3.746-2.194 6.34-9.049 7.44-14.114.978-4.497 3.66-13.904 3.66-18.166v-1.908c0-12.022-10.272-12.274-22.392-12.274h-17.202c-4.979 0-13.928 1.46-13.928-3.546 0-3.76 1.833-9.46 2.679-12.598 1.333-4.95 2.1-7.04 8.243-7.04l352.265.002 3.273-15.275h-352.26c-5.202 0-12.928.028-17.093 1.2-2.656.749-4.225 1.39-5.913 3.095-2.52 2.545-1.932 2.645-3.588 5.69-1.298 2.389-6.993 26.372-6.993 29.835"/>
    <path d="m432.27 138.009 42.237-.017 2.819-15.257h-39.868c-5.068 0-5.212-2.995-4.307-7.303.715-3.403 1.635-7.39 2.333-10.76.842-4.048 1.254-6.883 2.888-10.208 1.73-3.515 4.15-3.913 9.19-3.913h14.746c9.249 0 6.089 8.455 4.914 8.455l-23.34.032-3.42 15.242h41.778c1.074-4.598 1.775-9.247 2.84-14.074.926-4.196 2.623-9.88 2.623-14.565v-1.363c0-9.196-11.318-9.001-20.48-9.001h-21.847c-9.436 0-17.077 2.04-21.14 7.523-4.89 6.601-4.38 13.214-6.817 21.829-1.026 3.63-4.802 20.542-4.546 24.101.652 9.065 9.748 9.279 19.397 9.279m357.72 0c1.556 0 1.93-7.24 2.293-8.892.688-3.117 1.3-6.242 2.019-9.167 1.485-6.048 2.561-12.002 3.993-18.104 1.379-5.873 3.11-12.57 2.355-19.487-.641-5.879-8.787-6.81-15.301-6.81h-45.603l-3.195 14.962 37.056.04c3.793 0 7.918.304 7.918 4.091 0 3.61-2.025 10.697-2.792 14.394-.675 3.248-2.875 10.926-2.943 13.972h-26.487c-2.106 0-3.822-.67-3.822-2.728v-.818c0-4.084 3.47-5.182 7.645-5.182h17.203l3.35-15.258-20.553-.016c-10.013 0-17.013 1.075-21.196 7.194-2.728 3.99-5.565 16.058-5.565 22.808 0 7.461 7.73 9 15.293 9h48.332M564.981 79.097c-.148-.21-.364-.364-.545-.546-3.259-2.18-7.7-3-13.108-3h-22.12c-6.81 0-8.612 4.726-11.8 6.806l1.425-6.806-18.041-.004-13.362 62.463h17.475c1.536 0 3.143-11.41 3.484-13.159.86-4.4 1.963-9.542 3.072-13.842.47-1.82.852-4.928 1.25-6.933.509-2.544 1.074-4.476 1.64-6.816 1.353-5.574 3.54-6.708 10.216-6.708h15.565c2.794 0 7.1.386 7.1 3 0 7.812-2.652 15.74-4.034 22.427a954.91 954.91 0 0 1-2.356 11.012c-.568 2.597-2.299 8.823-2.348 11.019h18.022c.976-4.182 1.856-9.176 2.668-13.154.916-4.473 1.943-8.625 2.814-13.01.863-4.337 1.846-8.525 2.82-13.003.732-3.377 2.075-10.157 2.075-13.746 0-2.603-.832-4.469-1.912-6m-200.159 39.002c0-2.537 1.484-7.033 1.855-9.602.545-3.792 1.104-6.114 1.858-9.6 1.854-8.57 4.416-8.345 14.308-8.345h22.938c5.964 0 4.62-.023 5.755-5.709.409-2.055 1.189-7.828 1.892-9.292H383.39c-9.879 0-20.635-.533-25.601 4.43-5.125 5.125-5.95 14.021-7.93 22.084-1.798 7.332-4.698 17.549-4.698 25.035v2.182c0 7.383 7.63 8.728 15.019 8.728h40.14l2.933-14.962-31.604-.04c-3.167 0-6.827-.477-6.827-3.545v-1.364"/>
  </g>
</svg>
