<?xml version="1.0" encoding="UTF-8" standalone="no"?>
<svg
   width="85"
   height="27"
   fill="#ffffff"
   viewBox="0 0 85 33.353"
   version="1.1"
   id="svg1"
   sodipodi:docname="baracerca.svg"
   inkscape:version="1.4.2 (ebf0e940d0, 2025-05-08)"
   xmlns:inkscape="http://www.inkscape.org/namespaces/inkscape"
   xmlns:sodipodi="http://sodipodi.sourceforge.net/DTD/sodipodi-0.dtd"
   xmlns="http://www.w3.org/2000/svg"
   xmlns:svg="http://www.w3.org/2000/svg">
  <defs
     id="defs1" />
  <sodipodi:namedview
     id="namedview1"
     pagecolor="#ffffff"
     bordercolor="#000000"
     borderopacity="0.25"
     inkscape:showpageshadow="2"
     inkscape:pageopacity="0.0"
     inkscape:pagecheckerboard="0"
     inkscape:deskcolor="#d1d1d1"
     inkscape:zoom="23.247059"
     inkscape:cx="42.5"
     inkscape:cy="13.507085"
     inkscape:window-width="2560"
     inkscape:window-height="1371"
     inkscape:window-x="0"
     inkscape:window-y="0"
     inkscape:window-maximized="1"
     inkscape:current-layer="svg1" />
  <path
     d="m-2.3875 0.080558v3.9154h9.7125v29.235h3.9375v-33.15h-13.65m35.175 21.665h-4.725c0 0.94561 0.02271 3.0324 0.0083 5.1378-0.01856 2.718-3.4174 1.8844-3.43 0.05914-0.03442-5.0054 0.01715-12.756 0.0091-15.638-0.01-3.5897-0.25366-6.672 1.8728-6.5399 1.8577 0.11543 1.5188 1.7669 1.5397 6.8009l4.652-0.02417c0.33744-8.4385-1.7301-11.499-6.194-11.541-6.2007-0.058207-6.5487 3.9211-6.5955 10.424-0.03073 4.2706-0.17714 9.7671-0.23018 14.753-0.02875 2.7048 0.66202 7.8775 6.3229 8.1585 8.1645 0.40534 6.5995-6.9419 6.7698-11.591m44.888 0h-4.4625c0 0.9205 0.50915 4.9777-0.52873 6.3683-0.59513 0.79736-3.0375 0.66925-2.9742-1.306 0.14441-4.5104 0.09044-10.857 0.09044-15.503 0-3.3611-0.63618-6.5767 1.6462-6.5635 2.3706 0.013703 1.7663 3.1384 1.7663 6.8245h4.4625c0.14592-7.0876-0.50041-11.425-6.4474-11.421-5.1266 0.0033543-6.4149 3.8781-6.4151 10.377-1.86e-4 5.5743-0.0091 11.37 0.07553 17.083 0.05935 4.0053 4.4023 5.6798 6.0112 5.675 7.7869-0.02338 6.7758-7.5067 6.7758-11.534m-31.257-21.404-10.957-0.005031-0.02935 14.332 4.9682 0.02917v-9.3969h6.0375m2.6686-4.8386c-0.12932 6.4344-0.1042 32.191-0.026897 32.376 0.04892 0.11735 3.7561 0.13088 4.9708 0.13088v-27.669c4.6325 0.98457 4.4714 7.9018 0.2625 9.3969l3.4125 18.272h4.725c-0.76821-4.7668-2.1181-12.309-3.0327-15.803-0.02748-0.10498-0.06234-0.08818 0.05329-0.11557 2.7066-0.64122 5.7438-15.645-3.9109-16.613m28.678-0.096742-4.9875 32.628h4.725l3.15-22.709h0.26251l2.8875 22.709h4.725c-0.83969-7.764-2.2596-15.517-3.4748-23.231-0.34034-2.1606-1.2866-8.0076-1.6049-9.3419m-99.92 32.834h13.388v-25.581c-2.4341 0-5.6079-0.24144-5.7175 0.12884-1.9821 6.6916-5.901 19.566-7.67 25.452m9.7125-18.272-0.2625 14.356h-3.9375c1.2268-4.3537 2.9818-10.662 4.6075-14.897m35.293 5.2388c0 6.1981 0.01048 12.849 0.12565 13.278 0.08144 0.30376 5.5559 0.03394 10.899 0.03394v-4.9595h-6.0375v-8.3528z"
     id="path1" />
</svg>
