<svg width="100%" height="34" viewBox="0 0 512 124.54" fill="#ffffff">
							<g>
								<path
									d="m296.476 13.838h-1.038c-15.285 0-27.676 12.391-27.676 27.676v55.352c0 7.643-6.194 13.838-13.837 13.838h-1.384c-1.911 0-3.46 1.549-3.46 3.459v6.919c0 1.911 1.549 3.459 3.46 3.459h1.384c15.268-.021 27.675-12.403 27.675-27.675v-27.677h10.378c1.911 0 3.46-1.549 3.46-3.46v-6.918c0-1.911-1.549-3.46-3.46-3.46h-10.378v-13.837c0-7.641 6.192-13.834 13.832-13.838h.005 1.039c1.911 0 3.459-1.549 3.459-3.459v-6.92c0-1.91-1.548-3.459-3.459-3.459z" />
								<path
									d="m334.529 27.676c-19.105 0-34.595 15.488-34.595 34.595s15.489 34.595 34.595 34.595 34.595-15.488 34.595-34.595-15.488-34.595-34.595-34.595zm0 55.351c-11.464 0-20.757-9.293-20.757-20.757s9.293-20.757 20.757-20.757 20.757 9.293 20.757 20.757-9.293 20.757-20.757 20.757z" />
								<path
									d="m252.787 37.808c-13.511-13.509-35.414-13.509-48.925 0-2.812 2.812-5.029 5.991-6.671 9.379-1.642-3.392-3.861-6.574-6.675-9.389-6.745-6.745-15.58-10.112-24.419-10.121-.015 0-.028-.002-.043-.002-3.492 0-6.654 1.416-8.943 3.705l-.001-.001-25.998 25.999c-1.018-7.16-4.278-14.062-9.785-19.569-13.511-13.509-35.414-13.509-48.925 0-2.811 2.812-5.028 5.99-6.669 9.376-5.605-11.547-17.441-19.509-31.139-19.509-7.788 0-14.975 2.575-20.757 6.918v-31.134c0-1.911-1.549-3.46-3.46-3.46h-6.918c-1.91 0-3.459 1.549-3.459 3.46v89.946c0 1.91 1.549 3.459 3.459 3.459h6.919c1.911 0 3.46-1.549 3.46-3.459v-3.459c5.782 4.343 12.969 6.918 20.757 6.918 13.697 0 25.533-7.962 31.139-19.509 1.641 3.387 3.858 6.565 6.669 9.376 12.336 12.336 31.667 13.401 45.22 3.21v3.464c0 1.91 1.548 3.459 3.459 3.459h6.918c1.911 0 3.459-1.549 3.459-3.459v-16.805l35.085-35.084c5.147.121 10.259 2.139 14.187 6.069 8.106 8.107 8.106 21.252 0 29.359-8.105 8.107-21.247 8.107-29.354 0l-.002.002c-1.351-1.35-3.541-1.35-4.891.001l-4.893 4.893c-1.352 1.352-1.352 3.542 0 4.893.013.014.027.024.04.037 13.514 13.473 35.388 13.461 48.885-.039 2.812-2.812 5.03-5.993 6.672-9.382 1.642 3.39 3.86 6.57 6.674 9.384 13.51 13.51 35.414 13.51 48.925 0 1.351-1.351 1.351-3.541 0-4.893l-4.894-4.893c-1.35-1.351-3.541-1.351-4.892 0-8.106 8.106-21.249 8.106-29.354 0-2.266-2.266-3.896-4.926-4.896-7.758h47.249c3.821 0 6.919-3.098 6.919-6.919 0-8.854-3.377-17.708-10.132-24.463zm-218.192 45.219c-11.464 0-20.757-9.293-20.757-20.757s9.293-20.757 20.757-20.757 20.757 9.293 20.757 20.757-9.293 20.757-20.757 20.757zm83.027-12.16-6.08 6.08c-8.105 8.106-21.248 8.106-29.354 0-8.106-8.105-8.106-21.248 0-29.354s21.249-8.106 29.354 0c4.053 4.053 6.08 9.365 6.08 14.677zm91.13-15.516c.999-2.833 2.63-5.492 4.896-7.757 8.105-8.106 21.248-8.106 29.354 0 2.266 2.266 3.896 4.925 4.896 7.757z" />
								<path
									d="m511.999 55.333c-.011-15.276-12.396-27.657-27.675-27.657-8.27 0-15.686 3.63-20.757 9.379-5.071-5.749-12.488-9.379-20.756-9.379-15.286 0-27.676 12.39-27.676 27.675v38.055c0 1.91 1.549 3.459 3.459 3.459h6.919c1.911 0 3.46-1.549 3.46-3.459v-38.054c0-7.643 6.195-13.837 13.837-13.837 7.644 0 13.838 6.195 13.838 13.837v38.055c0 1.91 1.549 3.459 3.46 3.459h6.918c1.911 0 3.46-1.549 3.46-3.459v-38.055c0-7.643 6.195-13.837 13.837-13.837 7.644 0 13.838 6.194 13.839 13.837v38.055c0 1.91 1.55 3.459 3.46 3.459h6.918c1.91 0 3.46-1.549 3.46-3.459v-38.055c0-.006-.001-.013-.001-.019z" />
								<path
									d="m415.136 31.384c-13.238-7.643-30.164-3.108-37.806 10.13-2.502 4.333-3.69 9.062-3.703 13.731-.001.036-.005.071-.005.107v38.055c0 1.91 1.549 3.459 3.459 3.459h6.919c1.911 0 3.46-1.549 3.46-3.459v-38.055h.002c-.002-2.352.592-4.735 1.852-6.918 3.82-6.616 12.275-8.884 18.894-5.071.003.002.006.004.009.006 1.654.956 3.771.388 4.727-1.266l3.459-5.993c.953-1.655.387-3.771-1.267-4.726z" />
							</g>
						</svg>
