<svg width="100%" height="50" viewBox="0 0 381.34 103.39" fill="#ffffff">
							<path style="opacity: 0.6;"
								d="M 0,103.14 V 54.18 c 15.33,0 30.53,0 45.89,0 0.47,-4.98 3.18,-7.21 7.82,-6.97 1.1,-3.62 -0.66,-6.12 -4.28,-6.13 -9.55,-0.03 -19.09,-0.04 -28.64,0 -2.85,0.01 -5.46,-0.67 -7.83,-2.22 C 10.07,36.97 8.1,34.35 7.98,30.88 7.79,25.38 7.76,19.87 8,14.37 8.2,9.92 12.48,5.64 17.25,4.69 18.88,4.37 20.56,4.23 22.22,4.23 128.15,4.21 234.08,4.21 340.01,4.21 h 3.14 c 0.19,-0.47 0.35,-0.69 0.37,-0.93 0.32,-3.05 0.52,-3.28 3.47,-3.28 5.86,-0.02 11.72,-0.01 17.59,0 0.75,0 1.49,0.08 2.42,0.13 0.35,0.48 0.75,1.02 1.07,1.45 0.62,0.05 1.04,0.11 1.45,0.12 2.59,0.09 5.19,0.05 7.76,0.3 2.84,0.28 3.95,1.62 4.03,4.43 0.04,1.17 0.03,2.34 0,3.51 -0.07,3.25 -1.67,4.86 -4.97,4.96 -2.09,0.06 -4.19,0.01 -6.28,0.01 -0.58,0 -1.16,0 -1.97,0 -0.32,0.52 -0.67,1.1 -0.9,1.48 -0.94,0.08 -1.52,0.17 -2.1,0.17 -6.11,0.01 -12.23,0 -18.34,0 -1.1,0 -2.21,0.07 -3,-1.21 -0.11,-0.8 -0.24,-1.78 -0.39,-2.9 -0.57,-0.12 -1.12,-0.29 -1.67,-0.35 -0.58,-0.06 -1.17,-0.02 -1.76,-0.02 -105.76,0 -211.52,0 -317.28,0 -1.08,0 -2.19,0.01 -3.24,0.23 -2.03,0.42 -3.35,1.79 -3.4,3.79 -0.1,4.43 -0.1,8.86 0,13.28 0.05,2.05 1.57,3.45 3.73,3.76 0.66,0.09 1.34,0.05 2.01,0.05 9.46,0 18.92,0 28.39,0 4.42,0 10.26,2.78 11.73,8.83 0.19,0.8 0.25,1.64 0.33,2.47 0.07,0.81 0.09,1.63 0.15,2.61 4.69,-0.05 7.72,1.78 7.99,6.97 2.81,0.16 5.55,0.06 8.29,0.07 2.85,0.02 5.69,0 8.54,0 h 25.2 v 48.79 c -0.08,0.08 -0.14,0.14 -0.21,0.19 -0.06,0.05 -0.13,0.11 -0.21,0.12 -0.33,0.05 -0.66,0.11 -0.99,0.11 -36.68,0 -73.35,0 -110.03,-0.02 -0.24,0 -0.47,-0.11 -0.94,-0.23 z m 3.54,-3.23 h 3.17 c 32.99,0 65.99,0 98.98,0 0.5,0 1.01,0.04 1.51,-0.01 0.55,-0.06 1.09,-0.2 1.58,-0.29 0.41,-3.59 0.27,-39.88 -0.19,-41.92 -0.91,-0.03 -1.89,-0.08 -2.87,-0.08 -32.99,0 -65.99,0 -98.98,0 -0.5,0 -1.01,-0.04 -1.51,0.01 -0.55,0.06 -1.09,0.21 -1.69,0.34 V 99.92 Z M 368.62,5.56 c -0.72,1.89 -0.72,3.61 -0.03,5.45 h 8.74 c 0.48,-1.92 0.74,-3.65 -0.2,-5.45 z" />
							<g>
								<path
									d="m 206.75,38.93 c 0.32,0.66 0.58,1.18 0.82,1.7 0.92,2 1.47,4.05 1.37,6.29 -0.1,2.41 -0.02,4.82 -0.02,7.13 1.8,0.77 8.22,0.94 11.28,0.38 0.5,-1.77 0.58,-7.21 0.12,-10.03 h -1.78 c -0.07,2.62 -0.13,5.08 -0.19,7.68 h -6.74 c -0.07,-0.69 -0.19,-1.33 -0.19,-1.97 -0.01,-8.6 0,-17.21 0,-25.81 0,-0.58 -0.01,-1.17 0.06,-1.75 0.42,-3.16 2.52,-5.15 5.67,-5.31 1.59,-0.08 3.18,-0.08 4.77,0 2.96,0.15 4.85,1.68 5.54,4.56 0.29,1.2 0.41,2.47 0.41,3.71 0.03,8.69 0.02,17.37 0.02,26.06 0,0.91 0,1.81 0,2.92 3.08,0.49 6,0 9.1,0.35 0.28,2.66 0.1,5.29 0.13,8.21 -2.03,0 -3.85,0 -5.66,0 -1.42,0 -2.85,0.06 -4.27,-0.02 -2.14,-0.12 -4.17,-0.53 -5.38,-2.61 -0.15,-0.25 -0.48,-0.4 -1,-0.81 -0.17,1.2 -0.3,2.13 -0.46,3.22 -0.52,0.07 -1.08,0.2 -1.63,0.21 -3.35,0.02 -6.7,0.04 -10.04,0 -4.55,-0.06 -6.74,-2.26 -6.8,-6.81 -0.04,-2.92 0,-5.85 -0.02,-8.77 -0.02,-2.06 -0.3,-2.62 -1.99,-4.17 -0.79,1.45 -0.36,2.97 -0.44,4.41 -0.07,1.4 -0.02,2.8 -0.02,4.36 h -6.67 c -0.5,-1.79 -0.7,-29.21 -0.25,-34.44 1.71,-0.5 3.78,-0.56 6.87,-0.15 0.14,5.08 -0.04,10.22 0.1,15.31 1.72,0.38 2.16,0.22 2.34,-0.9 0.11,-0.65 0.06,-1.33 0.06,-2 0,-4.09 0,-8.17 0,-12.21 1.86,-0.55 3.93,-0.61 6.9,-0.21 0.05,0.61 0.14,1.25 0.14,1.89 0.01,3.17 -0.08,6.35 0.03,9.52 0.12,3.56 -0.19,7 -2.19,10.05 z m 11.97,-13.21 c -0.57,3.63 -0.43,9.46 0.36,10.22 0.38,-0.08 0.87,-0.2 1.47,-0.33 0.07,-3.36 0.1,-6.57 0,-9.89 h -1.82 z" />
								<path
									d="m 117.1,25.61 c -0.89,0.06 -1.36,0.09 -2.02,0.14 -0.25,3 -0.09,5.91 -0.12,8.81 -0.03,2.84 0,5.68 0,8.52 v 8.89 c -2.43,0.51 -4.73,0.19 -7.17,0.25 V 17.43 c 0.64,-0.07 1.19,-0.19 1.75,-0.19 2.68,-0.02 5.36,-0.03 8.04,0 4.34,0.04 6.81,2.48 6.85,6.88 0.05,5.51 0.01,11.03 0.01,16.54 0,3.76 0,7.52 0,11.28 v 2.72 c 3.92,0.14 7.59,0 11.29,0.09 0.65,1.33 0.3,2.67 0.35,3.97 0.06,1.33 0.01,2.66 0.01,4.16 -0.78,0.08 -1.42,0.19 -2.06,0.19 -3.18,0.02 -6.36,0.03 -9.55,0 -5.05,-0.04 -7.38,-2.35 -7.39,-7.36 -0.02,-9.02 0,-18.05 0,-27.07 0,-0.9 0,-1.8 0,-3.01 z" />
								<path
									d="M 230.25,52.08 V 17.41 c 0.58,-0.06 1.13,-0.17 1.69,-0.17 2.76,-0.02 5.51,-0.04 8.27,0 4.01,0.05 6.31,2.15 6.36,6.14 0.05,3.57 0.47,7.17 -0.49,10.7 -0.13,0.46 -0.12,1.02 0,1.48 0.93,3.54 0.54,7.14 0.48,10.7 -0.06,3.81 -2.38,5.91 -6.23,5.96 -2.76,0.03 -5.51,0.01 -8.27,0 -0.57,0 -1.13,-0.09 -1.82,-0.14 z m 7.25,-26.45 c 0.02,1.8 -0.37,3.32 0.32,4.96 0.59,-0.09 1.11,-0.16 1.62,-0.24 v -4.61 c -0.63,-0.03 -1.09,-0.06 -1.94,-0.11 z m 1.95,18.18 v -4.57 h -1.82 c -0.23,1.69 -0.47,3.22 0.22,4.84 0.53,-0.09 0.99,-0.16 1.6,-0.27 z" />
								<path
									d="M 305.53,52.22 V 17.33 c 3.83,0 7.58,-0.2 11.3,0.07 2.78,0.2 4.86,2.5 4.98,5.44 0.15,3.64 0.53,7.33 -0.43,10.95 -0.18,0.68 -0.13,1.49 0.04,2.18 0.89,3.54 0.53,7.14 0.4,10.7 -0.11,3.14 -2.85,5.51 -5.96,5.55 -3.34,0.04 -6.68,0.01 -10.33,0.01 z m 7.39,-26.49 c -0.59,1.62 -0.58,3.12 0,4.75 h 1.53 v -4.75 z m 1.53,18.24 v -4.76 h -1.65 c -0.31,1.65 -0.59,3.18 0.27,4.76 h 1.39 z" />
								<path
									d="m 88.99,34.69 c 0,-3.34 -0.05,-6.68 0.03,-10.02 0.03,-1.15 0.21,-2.34 0.58,-3.42 0.88,-2.54 2.74,-3.93 5.47,-4.01 1.51,-0.04 3.01,-0.06 4.52,0 3.11,0.12 5.01,1.63 5.76,4.61 0.24,0.96 0.4,1.97 0.41,2.96 0.04,6.68 0.02,13.36 0.01,20.05 0,1.78 -0.29,3.5 -1.38,4.98 -1.1,1.49 -2.49,2.44 -4.44,2.39 -1.34,-0.04 -2.68,0 -4.02,0 C 91.64,52.21 89.08,49.76 89,45.47 88.93,41.88 88.99,38.29 88.98,34.7 Z m 9.12,9.45 c 0.61,-2.97 0.54,-17.77 -0.14,-18.5 -0.42,0.06 -0.95,0.14 -1.49,0.21 v 17.9 c 0.57,0.14 1.02,0.25 1.63,0.39 z" />
								<path
									d="m 162.08,34.68 c 0,3.42 0.03,6.85 -0.01,10.27 -0.02,1.95 -0.38,3.81 -1.73,5.36 -1.05,1.2 -2.29,1.92 -3.92,1.9 -1.76,-0.02 -3.52,0.04 -5.27,-0.01 -2.65,-0.09 -4.79,-1.81 -5.4,-4.38 -0.27,-1.13 -0.42,-2.31 -0.43,-3.46 -0.04,-6.43 -0.04,-12.86 0,-19.29 0,-1.15 0.16,-2.34 0.46,-3.45 0.72,-2.68 2.66,-4.19 5.46,-4.36 1.25,-0.07 2.51,0.03 3.77,-0.03 4.38,-0.23 6.8,2.22 7.03,6.94 0.17,3.5 0.03,7.01 0.04,10.52 z m -9.32,-8.97 v 18.12 c 0.68,0.04 1.25,0.08 1.81,0.12 0.49,-3.68 0.37,-17.63 -0.23,-18.24 z" />
								<path
									d="m 331.53,36.28 v 7.46 c 0.31,0.15 0.53,0.34 0.75,0.33 0.31,0 0.62,-0.15 1.15,-0.3 0.07,-1.57 0.15,-3.13 0.23,-4.97 2.21,-0.18 4.41,-0.14 6.78,0 0.25,2.99 0.38,5.9 -0.04,8.77 -0.42,2.82 -2.75,4.57 -5.68,4.65 -1.5,0.04 -3.01,0.04 -4.52,0 -3.34,-0.08 -5.96,-2.62 -6.09,-6.01 -0.1,-2.42 -0.03,-4.84 -0.03,-7.26 0,-4.84 -0.04,-9.69 0.03,-14.53 0.01,-1.14 0.19,-2.34 0.58,-3.41 0.77,-2.14 2.4,-3.55 4.66,-3.66 3.65,-0.18 7.32,-0.05 11.11,-0.05 v 8.16 h -8.73 c -0.12,0.81 -0.21,1.34 -0.33,2.16 3.01,0.37 5.92,0.01 9.08,0.25 0.04,1.31 0.09,2.61 0.11,3.9 0.02,1.33 0,2.66 0,4.24 -2.99,0.36 -5.9,-0.02 -9.07,0.27 z" />
								<path
									d="m 180.94,43.86 c 0.71,0.07 1.16,0.11 1.89,0.18 0.1,-1.77 0.18,-3.4 0.28,-5.24 2.34,-0.23 4.62,-0.08 7.12,-0.1 -0.08,3.15 0.36,6.05 -0.37,8.92 -0.76,3.01 -2.63,4.53 -5.69,4.59 -1.51,0.03 -3.01,0.04 -4.52,0 -3.24,-0.08 -5.47,-2.12 -5.85,-5.34 -0.07,-0.58 -0.07,-1.17 -0.07,-1.75 0,-6.93 -0.02,-13.86 0.01,-20.79 0,-1.07 0.07,-2.2 0.41,-3.2 0.74,-2.11 2.23,-3.69 4.54,-3.79 3.73,-0.17 7.48,-0.05 11.34,-0.05 0.42,2.74 0.13,5.3 0.24,8.15 h -9.13 c -0.12,0.8 -0.2,1.33 -0.32,2.14 3.11,0.41 6.11,0.03 9.32,0.27 0.26,2.64 0.04,5.27 0.13,8.02 -3.11,0.76 -6.24,-0.22 -9.32,0.63 v 7.35 z" />
								<path
									d="m 256.28,25.51 v 2.05 c 3.02,0.53 6.03,-0.04 9.13,0.35 v 8.07 c -2.99,0.52 -6.01,-0.2 -9.13,0.46 -0.25,2.43 -0.18,4.73 -0.03,7.18 0.54,0.17 1.04,0.32 1.86,0.58 0.1,-1.87 0.18,-3.5 0.28,-5.27 2.28,-0.55 4.59,-0.09 7.17,-0.28 0,2.91 0.3,5.66 -0.16,8.35 -0.51,3.06 -2.83,5.5 -6.28,5.23 -1.41,-0.11 -2.84,0 -4.26,-0.03 -3.1,-0.08 -5.32,-2.11 -5.7,-5.2 -0.07,-0.58 -0.08,-1.17 -0.08,-1.75 0,-7.01 0,-14.02 0,-21.03 0,-1.51 0.13,-2.96 0.99,-4.31 1.03,-1.62 2.46,-2.58 4.31,-2.63 3.59,-0.11 7.18,-0.03 11.06,-0.03 0.32,2.72 0.06,5.35 0.17,8.26 h -9.31 z" />
								<path
									d="m 78.05,44 c 0.5,-0.09 1.02,-0.17 1.75,-0.3 v -7.45 h 6.8 c 0.08,0.52 0.22,1.07 0.23,1.63 0.02,2.67 0.06,5.34 -0.02,8.01 -0.11,4.1 -2.36,6.29 -6.41,6.34 -1.25,0.02 -2.51,0.02 -3.76,0 -3.69,-0.06 -6.2,-2.53 -6.29,-6.28 -0.07,-3 -0.02,-6.01 -0.02,-9.01 0,-4.26 -0.03,-8.51 0,-12.77 0.04,-4.55 2.43,-6.9 6.99,-6.94 1.25,-0.01 2.51,-0.05 3.76,0.02 2.91,0.15 5.4,2.21 5.59,5.1 0.24,3.63 0.06,7.3 0.06,11.08 H 79.9 v -7.51 c -0.77,-0.13 -1.29,-0.22 -1.72,-0.3 -0.69,0.72 -0.74,15.7 -0.14,18.37 z" />
								<path
									d="m 277.32,38.83 h 6.88 c 0.09,1.67 0.16,3.23 0.25,4.93 0.6,0.1 1.11,0.19 1.77,0.31 0.37,-2.66 0.22,-5.1 0.14,-7.79 -1.27,-0.04 -2.33,-0.07 -3.4,-0.11 -3.1,-0.12 -5.41,-2.15 -5.62,-5.25 -0.18,-2.74 -0.17,-5.51 -0.01,-8.25 0.17,-3.01 2.54,-5.3 5.57,-5.4 3.5,-0.11 7.01,-0.03 10.77,-0.03 0.18,2.73 0.06,5.36 0.08,8.24 h -8.73 c -0.29,0.48 -0.52,0.74 -0.59,1.04 -0.07,0.29 0.04,0.63 0.06,0.86 0.26,0.16 0.39,0.3 0.54,0.31 0.75,0.05 1.5,0.07 2.25,0.1 3.53,0.13 6.36,2.81 6.46,6.33 0.11,3.92 0.1,7.84 0,11.76 -0.09,3.84 -2.7,6.3 -6.53,6.35 -1.42,0.02 -2.84,0.03 -4.26,0 -3,-0.09 -5.33,-2.04 -5.57,-5.01 -0.22,-2.72 -0.05,-5.46 -0.05,-8.37 z" />
								<path
									d="m 126.62,38.81 h 7.35 v 5.21 c 0.8,-0.08 1.32,-0.13 2.01,-0.2 0.15,-2.53 0.21,-4.89 -0.07,-7.5 -1.17,-0.06 -2.16,-0.24 -3.12,-0.14 -3.13,0.31 -6.16,-2.88 -6.17,-5.96 0,-2.34 -0.09,-4.68 0.03,-7.02 0.16,-3.19 2.36,-5.71 5.44,-5.89 3.57,-0.21 7.16,-0.05 10.8,-0.05 0.1,0.49 0.22,0.8 0.22,1.11 0.02,2.25 0,4.5 0,6.97 -2.95,0.49 -5.87,-0.05 -8.87,0.35 -0.09,0.56 -0.18,1.1 -0.26,1.64 0.32,0.16 0.53,0.35 0.75,0.37 0.83,0.06 1.67,0.03 2.5,0.09 3.14,0.25 5.67,2.49 5.78,5.55 0.16,4.5 0.17,9.02 0,13.53 -0.12,3.2 -2.56,5.26 -5.81,5.34 -1.51,0.03 -3.01,0.03 -4.52,0 -3.18,-0.07 -5.76,-2.37 -6.02,-5.51 -0.15,-1.83 -0.05,-3.67 -0.06,-5.51 0,-0.74 0,-1.48 0,-2.39 z" />
								<path
									d="m 164.39,17.3 h 6.76 c 0.05,0.9 0.13,1.78 0.13,2.65 0,10.51 0,21.03 0,31.54 v 2.95 c 4.87,0.59 9.52,0.04 14.26,0.36 v 7.97 c -0.5,0.09 -1.05,0.28 -1.6,0.28 -4.26,0.02 -8.53,0.06 -12.79,0 -3.67,-0.05 -5.65,-1.37 -6.58,-4.3 -0.25,-0.78 -0.35,-1.64 -0.35,-2.46 -0.02,-12.6 -0.02,-25.2 -0.01,-37.8 0,-0.32 0.09,-0.64 0.18,-1.18 z" />
								<path
									d="m 267.85,17.34 h 6.87 c 0.03,0.99 0.09,1.88 0.09,2.77 0,10.44 0,20.87 0.01,31.31 0,0.98 0.1,1.95 0.16,2.99 2.42,0.59 4.67,0.23 6.9,0.3 2.17,0.06 4.34,0.01 6.56,0.01 0.68,1.33 0.31,2.68 0.37,3.97 0.06,1.33 0.01,2.66 0.01,4.17 -0.76,0.08 -1.39,0.19 -2.02,0.2 -4.02,0.02 -8.03,0.03 -12.05,0 -4.63,-0.03 -6.99,-2.32 -7,-6.91 -0.03,-12.44 -0.01,-24.88 0,-37.32 0,-0.41 0.06,-0.83 0.11,-1.49 z" />
								<path d="m 303.1,52.11 h -7.03 V 41.42 h 7.03 z" />
							</g>
							<path style="opacity: 0.3;"
								d="M 6.54,97.17 V 60.32 h 99.63 V 97.17 Z M 70.15,94.68 C 70.63,90.71 70.47,84.39 69.89,82.79 65.86,82.4 44.18,82.56 42.37,82.99 41.86,85.4 41.93,92.8 42.51,94.68 H 70.14 Z M 16.97,84.85 c 0.06,1.36 0.04,2.44 0.18,3.5 0.27,2.08 1.21,2.93 3.32,2.99 2.01,0.06 4.02,0.05 6.03,0 2.54,-0.06 3.54,-1.12 3.63,-3.74 0.03,-0.88 0.06,-1.77 0.1,-2.76 0.86,0 1.44,0 2.02,0 0.59,0 1.18,0.04 1.76,-0.03 1.89,-0.21 2.71,-1.02 2.76,-2.89 0.06,-2.09 0.06,-4.18 0,-6.27 -0.06,-2.18 -0.87,-2.89 -3.1,-3.03 -1.14,-0.07 -2.33,0.29 -3.54,-0.35 0,-0.84 0.03,-1.68 0,-2.51 -0.09,-2.5 -1.05,-3.5 -3.51,-3.58 -1.92,-0.06 -3.85,-0.04 -5.78,0 -2.66,0.05 -3.55,0.93 -3.74,3.63 -0.06,0.88 -0.09,1.77 -0.14,2.82 -1.33,0 -2.41,-0.04 -3.48,0 -2.01,0.1 -2.95,0.95 -3.03,2.9 -0.09,2.09 -0.07,4.18 0,6.27 0.06,1.89 1.07,2.88 2.98,3 1.08,0.07 2.16,0.01 3.55,0.01 z M 42.19,73.23 c 2.23,0.58 17.19,0.81 26.06,0.45 0.64,-0.03 1.27,-0.19 1.95,-0.3 0.18,-1.8 0.48,-3.42 -0.24,-5.17 -8.4,0 -16.75,0 -25.1,0 -0.75,0 -1.49,0.09 -2.24,0.15 -0.07,0 -0.13,0.1 -0.19,0.15 -0.06,0.06 -0.11,0.12 -0.23,0.24 V 73.2 Z M 70.26,61.46 C 66.5,60.95 44.01,61.12 42.28,61.63 v 4.52 c 3.89,0.44 26.12,0.28 27.98,-0.2 v -4.5 z m 0,14.17 c -0.81,-0.12 -1.37,-0.28 -1.94,-0.28 -8.01,-0.02 -16.03,-0.02 -24.04,0 -0.7,0 -1.39,0.23 -2.07,0.35 v 4.67 c 3.2,0.16 6.27,0.06 9.33,0.08 3.17,0.02 6.35,0.03 9.52,0 3.05,-0.04 6.11,0.17 9.32,-0.16 0,-0.98 0.01,-1.72 0,-2.46 -0.02,-0.66 -0.07,-1.31 -0.11,-2.2 z m 26.54,0.49 c -3.16,-0.03 -5.4,2.02 -5.44,4.97 -0.04,2.71 2.53,5.07 5.49,5.04 2.76,-0.03 5.15,-2.4 5.15,-5.1 0,-2.84 -2.17,-4.88 -5.21,-4.91 z m -10.78,4.92 c 0,-2.94 -2.05,-4.9 -5.12,-4.92 -3.11,-0.02 -5.3,2.12 -5.24,5.11 0.05,2.63 2.6,5.06 5.32,4.87 3.37,-0.23 5.28,-2.5 5.04,-5.07 z" />
							<g>
								<path
									d="m 57.86,89.69 v -1.63 c 0.45,-0.2 0.88,-0.55 1.32,-0.56 2.23,-0.06 4.47,-0.06 6.71,-0.04 0.81,0 1.44,0.35 1.76,1.44 -0.34,0.26 -0.74,0.83 -1.17,0.86 -2.79,0.18 -5.59,0.24 -8.63,-0.06 z" />
								<path
									d="m 54.58,89.64 c -3.27,0.4 -6.21,0.2 -9.27,0.16 -0.05,-0.77 -0.07,-1.23 -0.11,-1.91 3.1,-0.79 6.1,-0.55 9.23,-0.17 0.05,0.64 0.09,1.1 0.15,1.92 z" />
								<path
									d="m 27.69,82.72 v 6.01 c -1.52,0.62 -2.86,0.31 -4.15,0.36 -1.23,0.05 -2.47,0.01 -3.95,0.01 v -6.36 c -2.27,-0.09 -4.31,-0.16 -6.48,-0.25 v -7.58 h 6.41 v -6.1 c 2.73,-0.24 5.2,-0.1 7.97,-0.12 v 5.79 c 2.36,0.79 4.56,0.09 6.81,0.56 v 7.41 c -2.1,0.09 -4.22,0.18 -6.61,0.27 z" />
							</g>
						</svg>
