<?xml version="1.0" encoding="UTF-8" standalone="no"?>
<svg
   width="100%"
   height="50"
   viewBox="0 0 235.84 103.17"
   fill="#ffffff"
   version="1.1"
   id="svg15"
   sodipodi:docname="enough.svg"
   inkscape:version="1.4.2 (ebf0e940d0, 2025-05-08)"
   xmlns:inkscape="http://www.inkscape.org/namespaces/inkscape"
   xmlns:sodipodi="http://sodipodi.sourceforge.net/DTD/sodipodi-0.dtd"
   xmlns="http://www.w3.org/2000/svg"
   xmlns:svg="http://www.w3.org/2000/svg">
  <defs
     id="defs15" />
  <sodipodi:namedview
     id="namedview15"
     pagecolor="#ffffff"
     bordercolor="#000000"
     borderopacity="0.25"
     inkscape:showpageshadow="2"
     inkscape:pageopacity="0.0"
     inkscape:pagecheckerboard="0"
     inkscape:deskcolor="#d1d1d1"
     inkscape:zoom="8.3785617"
     inkscape:cx="117.92"
     inkscape:cy="24.944615"
     inkscape:window-width="2560"
     inkscape:window-height="1371"
     inkscape:window-x="0"
     inkscape:window-y="0"
     inkscape:window-maximized="1"
     inkscape:current-layer="svg15" />
  <g
     id="g13">
    <path
       d="m 215.57,21.92 h 2.52 v 17.65 h -2.51 V 32.03 H 208 v 7.54 h -2.52 V 21.93 h 2.51 v 7.54 h 7.58 z"
       id="path1" />
    <path
       d="m 144.02,21.92 v 6.27 h -2.52 v -1.24 h -2.51 v 2.54 h 2.54 v 1.26 h 2.53 v 8.82 h 2.49 V 21.92 h -2.52 z m -5.04,5.03 v 0 c 0,0 0,0.01 0.01,0.01 v 0 c 0,0 0,-0.01 -0.01,-0.01 z m -2.54,-2.54 v -2.48 h -2.48 v 17.65 h 2.51 V 26.95 h 2.51 v -2.54 z"
       id="path2" />
    <path
       d="m 208.02,49.77 h 7.55 v -2.49 h -10.09 v 17.64 h 10.09 v -2.5 h -7.55 z m 7.55,12.65 h 0.01 c 0,0 0,-0.01 -0.01,-0.01 v 0 z m 0.01,-12.63 v 12.63 h 2.5 V 49.79 Z m 0,0 v 0 c 0,0 0,-0.01 -0.01,-0.01 v 0 c 0,0 0,0.01 0.01,0.01 z"
       id="path3" />
    <path
       d="m 134.46,49.79 v 12.63 h 2.5 V 57.35 H 142 v -2.52 h -5.04 v -5.04 z m 12.59,-2.51 h -10.08 v 2.5 h 10.08 z m -10.08,2.5 h -0.01 c 0,0 0,0.01 0.01,0.01 v 0 z m 0,12.64 v 0 c 0,0 0,-0.01 -0.01,-0.01 v 0 c 0,0 0,0.01 0.01,0.01 z m 10.08,2.5 v -2.5 h -10.08 v 2.5 z"
       id="path4" />
    <path
       d="m 117.37,24.43 v 12.63 h 2.5 v -5.07 h 5.04 v -2.52 h -5.04 v -5.04 z m 11.33,-2.51 h -8.82 v 2.5 h 8.82 z m -8.82,2.5 h -0.01 c 0,0 0,0.01 0.01,0.01 v 0 z m 8.82,15.14 v -2.5 h -8.82 v 2.5 z m -8.82,-2.5 v 0 c 0,0 0,-0.01 -0.01,-0.01 v 0 c 0,0 0,0.01 0.01,0.01 z"
       id="path5" />
    <path
       d="m 162.34,24.43 v 0 c 0,0 0,-0.01 -0.01,-0.01 v 0 c 0,0 0,0.01 0.01,0.01 z m 0,0 v 12.63 h 2.5 V 24.43 Z m -10.09,0 v 12.63 h 2.5 V 24.43 Z m 2.5,12.63 v 0 c 0,0 0,0.01 0.01,0.01 v 0 c 0,0 0,-0.01 -0.01,-0.01 z m 7.59,-15.14 h -7.58 v 2.5 h 7.58 z m -7.58,2.5 h -0.01 c 0,0 0,0.01 0.01,0.01 v 0 z m 0,15.14 h 7.58 v -2.5 h -7.58 z m 7.58,-2.5 h 0.01 c 0,0 0,-0.01 -0.01,-0.01 v 0 z"
       id="path6" />
    <path
       d="m 172.42,21.92 h -2.48 v 15.14 h 2.5 c 0,-5 0,-9.99 0,-14.99 0,-0.05 -0.01,-0.1 -0.02,-0.15 z m 0.02,15.14 v 0 c 0,0 0,0.01 0.01,0.01 v 0 c 0,0 0,-0.01 -0.01,-0.01 z m 10.09,-15.14 h -2.5 v 0.37 c 0,4.83 0,9.66 0,14.49 0,0.1 0.01,0.2 0.02,0.3 h 2.48 z m -10.08,17.66 h 7.59 v -2.49 c -2.53,0 -5.06,0 -7.59,-0.01 z m 7.59,-2.49 h 0.01 c 0,0 0,0 0,-0.01 h -0.01 z"
       id="path7" />
    <path
       d="m 187.62,37.05 h 2.5 c 0,-0.48 0,-0.97 0,-1.45 0,-3.72 0,-7.45 0,-11.17 h -2.49 v 12.62 z m 2.5,-12.63 h -0.01 c 0,0 0,0.01 0.01,0.01 v 0 z m 10.08,-2.51 h -10.08 v 2.5 h 10.08 z m -2.5,15.14 h -0.01 c 0,0 0,0.01 0.01,0.01 v 0 z m 2.49,-5.03 h -7.53 v 2.51 h 5.04 v 2.51 h 2.49 z m -2.5,7.53 v -2.5 c -2.52,0 -5.04,0 -7.56,-0.01 v 2.51 z m -7.56,-2.51 v 0 c 0,0 0,-0.01 -0.01,-0.01 0,0 0,0 0,0.01 z"
       id="path8" />
    <path
       d="m 169.97,49.78 v 12.63 h 2.5 V 49.78 Z m 2.5,12.63 v 0 c 0,0 0,0.01 0.01,0.01 v 0 c 0,0 0,-0.01 -0.01,-0.01 z m 7.6,-12.63 v 0 c 0,0 0,-0.01 -0.01,-0.01 v 0 c 0,0 0,0.01 0.01,0.01 z m 0,0 v 12.63 h 2.5 V 49.78 Z m -0.01,-2.51 h -7.57 v 2.5 h 7.57 z m -7.57,2.5 h -0.01 c 0,0 0,0.01 0.01,0.01 v 0 z m 0,15.14 h 7.57 v -2.5 h -7.57 z m 7.57,-2.5 h 0.01 c 0,0 0,-0.01 -0.01,-0.01 v 0 z"
       id="path9" />
    <path
       d="m 116.74,47.28 v 17.65 h 2.52 V 49.78 h 7.57 v -2.49 h -10.09 z m 10.09,2.49 v 0 c 0,0 0,0.01 0.01,0.01 v 0 c 0,0 0,-0.01 -0.01,-0.01 z m 2.5,15.15 v -7.54 h -2.5 v 7.54 z m -2.5,-7.54 v 0 c 0,0 0,-0.01 -0.01,-0.01 0,0 0,0 0,0.01 z m 2.51,-7.6 h -2.5 c 0,1.68 0,3.36 0,5.05 h 2.49 v -5.05 z m -2.49,5.05 h -0.01 c 0,0 0,0.01 0.01,0.01 v 0 z m -5.04,0 v 2.53 h 5.02 c 0,-0.84 0,-1.69 0.01,-2.53 z"
       id="path10" />
    <path
       d="m 197.81,49.77 v 0 c 0,0 0,0.01 0.01,0.01 0,0 0,0 0,-0.01 z m -10.09,-2.49 v 17.65 h 2.52 V 49.78 h 7.57 v -2.49 h -10.09 z m 10.1,10.09 v 7.55 h 2.49 v -7.55 z m 0.01,-2.53 h -0.01 c 0,0 0,0 0,0.01 h 0.01 z m 2.48,-5.07 h -2.5 c 0,1.69 0,3.37 0.01,5.06 h 2.48 v -5.06 z m -2.5,7.58 v 0 c 0,0 0,0.01 0.01,0.01 v 0 c 0,0 0,-0.01 -0.01,-0.01 z m -5.03,-2.51 v 2.51 h 5.03 c 0,-0.84 0,-1.67 0.01,-2.51 z"
       id="path11" />
    <path
       d="m 154.7,49.77 h -2.48 v 12.64 h 2.49 c 0,-4.17 0,-8.33 0,-12.5 0,-0.05 -0.01,-0.1 -0.02,-0.15 z m 0.01,12.64 v 0 c 0,0 0,0.01 0.01,0.01 v 0 c 0,0 0,-0.01 -0.01,-0.01 z m 7.59,-15.14 h -7.59 v 2.49 c 2.53,0 5.06,0 7.59,0 v -2.5 z m -7.59,2.49 h -0.01 c 0,0 0,0 0,0.01 h 0.01 z m 0.01,15.15 h 7.57 v -2.5 c -2.53,0 -5.05,0 -7.57,0 z m 7.57,-2.5 h 0.01 c 0,0 0,-0.01 -0.01,-0.01 v 0 z m 2.51,-10.14 v -2.5 h -2.5 v 2.5 z m -2.5,-2.5 v 0 c 0,0 0,-0.01 -0.01,-0.01 v 0 c 0,0 0,0.01 0.01,0.01 z m 0,10.14 v 2.5 h 2.5 v -2.5 z"
       id="path12" />
    <path
       d="m 225.77,49.78 h -0.01 c 0,0 0,0.01 0.01,0.01 v 0 z m 7.56,-2.51 h -7.56 v 2.5 c 2.52,0 5.04,0 7.56,-0.01 z m 0,10.08 v 0 c 0,0 0.01,0 0.01,0 z m -7.57,-2.52 v 2.52 h 7.57 v -2.52 z m 0,10.08 h 7.56 v -2.5 h -7.56 z m 7.56,-2.5 h 0.01 c 0,0 0,-0.01 -0.01,-0.01 v 0 z M 223.25,49.8 v 5.04 h 2.5 c 0,-1.68 0,-3.36 0.01,-5.04 z m 2.5,5.04 v 0 c 0,0 0,0.01 0.01,0.01 v 0 c 0,0 0,-0.01 -0.01,-0.01 z m 7.58,2.54 h 0.01 z m 0.01,0 c 0,1.68 0,3.36 -0.01,5.04 h 2.51 v -5.04 z m 0,-7.59 v 0 c 0,0 0,-0.01 -0.01,-0.01 v 0 c 0,0 0,0.01 0.01,0.01 z m 2.5,2.5 v -2.5 h -2.5 v 2.5 z m -12.59,7.64 v 2.5 h 2.5 v -2.5 z m 2.5,2.5 v 0 c 0,0 0,0.01 0.01,0.01 v 0 c 0,0 0,-0.01 -0.01,-0.01 z"
       id="path13" />
  </g>
  <path
     d="M 51.59,103.17 H 33.11 c -1.89,-0.49 -4.02,-1.46 -5.35,-2.06 C 16.76,96.14 7.63,88.99 1.32,78.53 0.98,77.97 0.39,76.98 0,76.21 0,59.24 0,44.52 0,27.56 0.68,25.8 1.14,24.77 1.54,23.99 4.92,17.4 9.34,11.64 15.18,7.06 18.3,4.61 21.72,1.65 25.28,0 34.22,0 42.64,0 51.59,0 51.56,7.3 51.52,14.61 51.49,21.91 39.75,21.4 28.24,30.22 26.45,37.97 h 25.01 c 0.04,4.46 0.12,8.92 0.12,13.38 0,4.53 0.05,9.87 0,14.77 -2.78,0.09 -18.87,-0.13 -24.46,0 3.08,8.69 12.29,13 24.44,13 0,8.02 0.01,16.04 0.02,24.06 z"
     id="path14" />
  <path
     style="opacity:0.6"
     d="M 96.1,17.89 C 92.14,11.95 87.07,7.06 81.1,3.12 79.68,2.18 78.14,0.9 76.29,0.01 H 51.6 c -0.03,7.3 -0.07,14.61 -0.1,21.91 18.09,0 24.09,16.06 24.09,16.06 H 51.47 c 0.04,4.46 0.13,28.15 0.13,28.15 0,0 33.87,-0.05 51.59,-0.09 V 30.52 C 101.37,26.18 98.64,21.67 96.12,17.89 Z M 51.57,79.11 c 0,8.02 0.01,16.04 0.02,24.06 h 51.59 V 79.11 c -17.2,0.23 -34.4,-0.23 -51.6,0 z"
     id="path15" />
</svg>
