<?xml version="1.0" encoding="UTF-8" standalone="no"?>
<!-- Created with Inkscape (http://www.inkscape.org/) -->

<svg
   version="1.1"
   id="svg1"
   width="1365.2"
   height="256.52002"
   viewBox="0 0 1365.1999 256.52002"
   sodipodi:docname="Gaming_HUB_LOGO_FINAL_RGB.svg"
   xml:space="preserve"
   xmlns:inkscape="http://www.inkscape.org/namespaces/inkscape"
   xmlns:sodipodi="http://sodipodi.sourceforge.net/DTD/sodipodi-0.dtd"
   xmlns="http://www.w3.org/2000/svg"
   xmlns:svg="http://www.w3.org/2000/svg"><defs
     id="defs1" /><sodipodi:namedview
     id="namedview1"
     pagecolor="#ffffff"
     bordercolor="#000000"
     borderopacity="0.25"
     inkscape:showpageshadow="2"
     inkscape:pageopacity="0.0"
     inkscape:pagecheckerboard="0"
     inkscape:deskcolor="#d1d1d1"
     showgrid="false"><inkscape:page
       x="0"
       y="0"
       width="1365.2"
       height="256.52002"
       id="page2"
       margin="0"
       bleed="0" /></sodipodi:namedview><g
     id="g1"
     inkscape:groupmode="layer"
     inkscape:label="1"
     transform="translate(-2666.5333,-2237.5066)"><path
       id="path122"
       d="m 3855.5999,2368.76 c 0,20.8267 13.7333,36.3333 33.88,36.3333 20.9467,0 34.0133,-16.2 34.0133,-36.3333 0,-20.1333 -13.0666,-36.32 -34.0133,-36.32 -20.1467,0 -33.88,15.5067 -33.88,36.32 z m 104.36,0 c 0,39.6 -27.4933,69.4 -63.8133,69.4 -18.24,0 -30.8934,-7.36 -39.4667,-17.9734 v 14.56 h -34.6933 v -195.9199 h 35.3733 v 77.8266 c 8.5733,-10.3466 20.96,-17.28 38.6533,-17.28 36.4534,0 63.9467,29.8 63.9467,69.3867"
       style="fill:#ffffff;fill-opacity:1;fill-rule:nonzero;stroke:none;stroke-width:0.133333" /><path
       id="path123"
       d="m 2703.4933,2367.3333 c 0,19.3067 13.0933,35.0134 33.6266,35.0134 20,0 33.5067,-15.16 33.5067,-35.0134 0,-19.9866 -13.5067,-35.16 -33.5067,-35.16 -20.5333,0 -33.6266,15.72 -33.6266,35.16 z m 65.8933,-49.7733 v -14.88 h 35.2933 v 122.56 c 0,42.8666 -27.9866,68.7866 -72.1066,68.7866 -21.0934,0 -43.4267,-5.5066 -58.4534,-16.12 l 12.8267,-29.3733 c 13.3733,8.8267 28.12,13.6533 44.1067,13.6533 22.3333,0 38.0533,-12.4133 38.0533,-35.44 v -9.3733 c -9.0933,11.1733 -22.6,18.0667 -41.08,18.0667 -32.5333,0 -61.4933,-27.16 -61.4933,-68.1067 0,-41.08 28.96,-68.24 61.4933,-68.24 18.6133,0 32.2533,7.16 41.36,18.4667"
       style="fill:#ffffff;fill-opacity:1;fill-rule:nonzero;stroke:none;stroke-width:0.133333" /><path
       id="path124"
       d="m 2857.0266,2369.4 c 0,20.4 13.3733,36.8133 34.4667,36.8133 20.5466,0 34.4666,-15.72 34.4666,-36.8133 0,-21.0933 -13.92,-36.8133 -34.4666,-36.8133 -21.0934,0 -34.4667,16.4133 -34.4667,36.8133 z m 102.9867,66.8666 h -35.1467 V 2421.52 c -8.6933,10.7466 -21.6533,18.1866 -39.9867,18.1866 -36.8133,0 -64.6533,-30.1866 -64.6533,-70.3066 0,-40.12 27.84,-70.3067 64.6533,-70.3067 18.3334,0 31.16,7.44 39.9867,18.3334 V 2302.68 h 35.1467 v 133.5866"
       style="fill:#ffffff;fill-opacity:1;fill-rule:nonzero;stroke:none;stroke-width:0.133333" /><path
       id="path125"
       d="m 3213.7466,2436.2666 h -35.9733 V 2302.52 h 35.9733 z m 4.8267,-175.5999 c 0,12.96 -10.0667,22.88 -23.0134,22.88 -12.96,0 -22.8933,-9.92 -22.8933,-22.88 0,-12.96 9.9333,-23.16 22.8933,-23.16 12.9467,0 23.0134,10.2 23.0134,23.16"
       style="fill:#ffffff;fill-opacity:1;fill-rule:nonzero;stroke:none;stroke-width:0.133333" /><path
       id="path126"
       d="m 3411.4399,2367.3333 c 0,19.3067 13.0933,35.0134 33.6267,35.0134 20,0 33.5066,-15.16 33.5066,-35.0134 0,-19.9866 -13.5066,-35.16 -33.5066,-35.16 -20.5334,0 -33.6267,15.72 -33.6267,35.16 z m 65.8933,-49.7733 v -14.88 h 35.2934 v 122.56 c 0,42.8666 -27.9867,68.7866 -72.1067,68.7866 -21.0933,0 -43.4267,-5.5066 -58.4533,-16.12 l 12.8266,-29.3733 c 13.3734,8.8267 28.12,13.6533 44.1067,13.6533 22.3333,0 38.0533,-12.4133 38.0533,-35.44 v -9.3733 c -9.0933,11.1733 -22.6,18.0667 -41.08,18.0667 -32.5333,0 -61.4933,-27.16 -61.4933,-68.1067 0,-41.08 28.96,-68.24 61.4933,-68.24 18.6134,0 32.2667,7.16 41.36,18.4667"
       style="fill:#ffffff;fill-opacity:1;fill-rule:nonzero;stroke:none;stroke-width:0.133333" /><path
       id="path127"
       d="m 3268.5066,2436.2666 v -73.0399 c 0,-15.0534 12.2133,-27.2534 27.2533,-27.2534 v 0 c 15.0534,0 27.2667,12.2 27.2667,27.2534 v 73.0399 h 35.92 V 2302.52 h -126.2267 v 133.7466 h 35.7867"
       style="fill:#ffffff;fill-opacity:1;fill-rule:nonzero;stroke:none;stroke-width:0.133333" /><path
       id="path128"
       d="m 3657.8266,2362.2 c 0,-34.8533 -28.2534,-63.1067 -63.1067,-63.1067 h -0.013 c -9.7867,0 -19.0534,2.2267 -27.32,6.2 V 2238.68 h -35.7867 v 197.5866 h 35.7867 v -104.0933 h 54.5066 v 104.0933 h 35.9334 V 2362.2"
       style="fill:#ffffff;fill-opacity:1;fill-rule:nonzero;stroke:none;stroke-width:0.133333" /><path
       id="path129"
       d="m 3767.2266,2302.52 v 104.0933 h -54.5067 V 2302.52 h -35.92 v 74.0667 c 0,34.8533 28.2533,63.1066 63.1067,63.1066 v 0 c 34.8533,0 63.1066,-28.2533 63.1066,-63.1066 V 2302.52 h -35.7866"
       style="fill:#ffffff;fill-opacity:1;fill-rule:nonzero;stroke:none;stroke-width:0.133333" /><path
       id="path130"
       d="m 4002.7999,2316.4 5.16,-8.3067 -12.1467,8.3067 h -4.3466 v 31.6 h 8.5333 v -23.6533 h 12.0667 V 2316.4 h -9.2667"
       style="fill:#ffffff;fill-opacity:1;fill-rule:nonzero;stroke:none;stroke-width:0.133333" /><path
       id="path131"
       d="m 4000.5866,2304.8933 c -14.1467,0 -25.6667,11.52 -25.6667,25.6667 0,14.16 11.52,25.68 25.6667,25.68 14.16,0 25.68,-11.52 25.68,-25.68 0,-14.1467 -11.52,-25.6667 -25.68,-25.6667 z m 0,56.8134 c -17.1734,0 -31.1467,-13.9734 -31.1467,-31.1467 0,-17.1733 13.9733,-31.1333 31.1467,-31.1333 17.1733,0 31.1466,13.96 31.1466,31.1333 0,17.1733 -13.9733,31.1467 -31.1466,31.1467"
       style="fill:#ffffff;fill-opacity:1;fill-rule:nonzero;stroke:none;stroke-width:0.133333" /><path
       id="path132"
       d="M 3122.9199,2338.5067 V 2302.52 h -107.9466 v 35.9867 h 35.9866 v 61.7066 h 35.9867 v -61.7066 h 35.9733"
       style="fill:#ffffff;fill-opacity:1;fill-rule:nonzero;stroke:none;stroke-width:0.133333" /><path
       id="path133"
       d="m 2978.9866,2436.2 h 35.9867 v -97.6933 h -35.9867 V 2436.2"
       style="fill:#ffffff;fill-opacity:1;fill-rule:nonzero;stroke:none;stroke-width:0.133333" /><path
       id="path134"
       d="M 3122.9199,2338.5067 V 2436.2 h 35.9867 v -97.6933 h -35.9867"
       style="fill:#ffffff;fill-opacity:1;fill-rule:nonzero;stroke:none;stroke-width:0.133333" /></g></svg>
