<?xml version="1.0" encoding="UTF-8"?><svg id="Layer_2" xmlns="http://www.w3.org/2000/svg" viewBox="0 0 97.74 131.06"><defs><style>.cls-1{opacity:.9;}.cls-1,.cls-2,.cls-3{fill:#fff;}.cls-2{opacity:.4;}.cls-3{opacity:.7;}</style></defs><g id="iDs"><path class="cls-1" d="M72.75,16.83c-3.06-2.28-6.26-4.38-9.6-6.25-4.46-2.5-9.17-4.57-14.06-6.13-4.88-1.56-9.94-2.66-15.06-3.23l-3.79-.38-.46-.06-.24-.02-.34-.02c-.44,0-.9.03-1.33.15-.87.23-1.68.74-2.26,1.43-.59.7-.96,1.58-1.05,2.5l-.02.34v.26s-.02.47-.02.47l-.02.95-.11,3.76v22.5c0,4.22-4.12,9.93-7.43,14.51-1.51,2.1-2.86,3.98-3.65,5.42l-6.77-10.18c-1.16-1.8-2.32-3.6-3.36-5.46-.52-.93-1.03-1.86-1.46-2.84-.41-.98-1.59-4.1-1.7-7.3,0-1.38.56-2.72,1.54-3.69L23.7,1.6l.02-.02s.06-.08.09-.11c.55-.65,1.32-1.13,2.14-1.33.32-.09.67-.14,1.04-.14.08,0,.15,0,.24,0l.98.1,1.1.09c.89.07,1.81.14,2.7.24,5.15.5,10.22,1.53,15.09,3.02,4.83,1.48,9.59,3.48,14.14,5.94,1.22.65,2.47,1.38,3.95,2.29,2.66,1.58,5.17,3.3,7.54,5.14Z"/><path class="cls-3" d="M59.02,122.86c-4.05,2.02-8.25,3.68-12.52,4.95-4.9,1.46-10.1,2.44-15.44,2.9l-3.94.34c-.06,0-.11,0-.17,0-1.26,0-2.5-.62-3.31-1.66L1.53,107.27c-.98-.98-1.52-2.29-1.52-3.67v-25.12c0-5.35,4.35-11.58,7.85-16.58,1.71-2.46,3.2-4.58,3.73-6.01l-.56-.86c-2.06-3.18-4.2-6.47-6.15-9.81-1.28-2.18-2.26-4.02-3.06-5.76-.48-1.07-.9-2.04-1.22-3.06-.31-.99-.64-2.14-.58-3.3v-4.95c.11,2.59,1.02,5.63,1.29,6.56.31,1.05.74,2.05,1.17,3.04.9,1.98,1.92,3.89,3,5.75,2.15,3.74,4.51,7.34,6.85,10.94,2.36,3.59,4.71,7.17,6.94,10.82,1.1,1.83,2.17,3.68,3.1,5.59.34.7.66,1.41.96,2.14.62,1.76,1.11,3.62,1.06,5.5v40.86l.07,3.89.06,1.94.03,1.01c0,.47.12.94.27,1.38.62,1.78,2.44,3.02,4.29,2.97l3.98-.39c2.61-.26,5.22-.66,7.79-1.16,1.29-.29,2.58-.54,3.84-.89l1.9-.5,1.88-.58c3.96-1.35,5.38-1.97,10.54-4.16Z"/><path class="cls-2" d="M74.48,18.23c-3.67-2.7-7.5-5.17-11.53-7.29-4.49-2.36-9.22-4.29-14.09-5.72-4.87-1.42-9.88-2.38-14.94-2.8l-3.8-.29c-.63-.05-1.27-.15-1.88.05-.6.17-1.16.53-1.55,1.02-.4.48-.64,1.1-.69,1.72-.03.63,0,1.27-.01,1.9v3.76s0,14.82,0,14.82c26.07.87,46.96,18.52,46.96,40.11s-20.89,39.24-46.96,40.11v17.6s0,1.94,0,1.94c0,.65-.05,1.31.17,1.92.4,1.23,1.64,2.12,2.94,2.1l3.88-.28c2.58-.2,5.16-.52,7.71-.95,1.27-.25,2.55-.46,3.81-.78l1.89-.44,1.87-.52c4.99-1.41,9.83-3.34,14.43-5.73,3.03-1.58,5.94-3.37,8.76-5.3,7.48-5.56,13.72-12.44,18.18-20.08,5.38-9.22,8.11-19.17,8.11-29.59,0-18.06-8.53-35.1-23.26-47.3Z"/></g></svg>