<?xml version="1.0" encoding="UTF-8"?><svg id="Layer_2" xmlns="http://www.w3.org/2000/svg" viewBox="0 0 97.87 130.56"><defs><style>.cls-1{fill:#fff;}</style></defs><g id="iDs"><path class="cls-1" d="M74.61,17.9c-3.16-2.55-6.48-4.93-9.98-6.98C54.73,5.02,43.67,1.2,32.15.11c-2.99-.11-6.68-.47-8.3,1.14C22.8,2.31,1.69,23.22,1.68,23.25-.22,25.23.03,28.16.06,30.7c-.37,3.65,1.02,6.81,2.62,9.97,2.21,5.12,5.55,10.17,8.97,15.06C8.44,62.08,0,70.84.13,78.16v25.12c0,1.38.54,2.7,1.52,3.67l22.12,22.13c1.55,1.75,4.47,1.55,6.81,1.36,8.88-.78,15.87-2.35,24.18-6.05-.18.07-.35.14-.53.21,1.02-.43,2.06-.9,3.06-1.38-.74.36-1.49.7-2.26,1.05,6.96-2.85,13.51-6.7,19.26-11.54-.03.02-.06.05-.09.06,6.31-5.16,11.62-11.28,15.55-18,5.38-9.22,8.1-19.18,8.1-29.59,0-18.06-8.53-35.1-23.26-47.3ZM10.98,47.58C6.63,40.9-2.42,29.15,2.25,23.8c.1-.1,1.39-1.38,3.27-3.25,1.87-1.86,4.33-4.3,6.74-6.69,5.7-5.65,11.59-11.5,12.14-12.05.38-.38.82-.66,1.3-.87-1.23,1.15-1.87,2.76-1.87,4.62,0,1.83-.05,10.53-.09,17.51-.01,3.07-.05,8.59-.05,9.7-.01,5.28-6.96,13.1-10.31,18.42-.7-1.06-1.54-2.31-2.42-3.62ZM24.34,128.51L2.22,106.38c-.83-.82-1.29-1.93-1.29-3.1v-25.12c-.05-7.02,7.91-15.44,11.25-21.67,4.72,7.39,11.14,13.49,11.52,21.67v40.88c.02,1.3.08,4.59.13,5.84-.06,1.62.36,3.46,1.63,4.62-.4-.23-1.12-.98-1.12-.98ZM24.5,105.28v-27.12c.57-10.26-5.34-18.13-10.61-26.22,3.41-5.54,10.62-13.5,10.62-19.16,0-1.12.02-4.07.04-7.66h2.08c25.83,1.08,46.44,18.64,46.44,40.08s-20.52,38.93-46.26,40.08h-2.3ZM89.08,94.39c-4.38,7.5-10.59,14.35-17.94,19.82-12.43,8.74-26.9,13.28-41.93,13.86-2.77-.11-2.28-3.22-2.29-5.17,0,0,0-3.89,0-3.89v-12.94h0c26.4-1.21,46.95-19.04,46.95-40.88S53.32,25.53,26.92,24.33h0v-14.06c0-5.89-.66-8.65,6.79-7.62,4.97.69,10.17,1.58,15.08,3.01,9.27,2.73,17.32,6.95,25.34,12.87,14.59,12.08,22.95,29.09,22.95,46.66,0,10.27-2.69,20.1-7.99,29.19Z"/></g></svg>