<?xml version="1.0" encoding="UTF-8"?><svg xmlns="http://www.w3.org/2000/svg" xmlns:xlink="http://www.w3.org/1999/xlink" viewBox="0 0 1024 256"><defs><style>.cls-1,.cls-2{fill:#2c9d80;}.cls-1,.cls-3,.cls-4{opacity:.7;}.cls-5{fill:url(#linear-gradient-2);opacity:.55;}.cls-6,.cls-7,.cls-8{fill:#fff;}.cls-9,.cls-10,.cls-11{fill:none;}.cls-12{fill:url(#linear-gradient-4);}.cls-13{fill:url(#linear-gradient-3);}.cls-14{fill:url(#linear-gradient-5);}.cls-15{isolation:isolate;}.cls-16{fill:url(#linear-gradient-8);}.cls-7{opacity:.3;}.cls-3,.cls-17{fill:#b3d16d;}.cls-18{filter:url(#outer-glow-1);}.cls-4,.cls-19{fill:#ee425f;}.cls-8{opacity:.4;}.cls-10{stroke:#daf985;stroke-miterlimit:10;stroke-width:2px;}.cls-20{fill:url(#linear-gradient-7);}.cls-21{fill:url(#linear-gradient-6);}.cls-22{fill:url(#Unnamed_Pattern_3);mix-blend-mode:screen;opacity:.6;}.cls-23{fill:url(#linear-gradient);}.cls-11{stroke:#231f20;stroke-width:3.6px;}</style><pattern id="Unnamed_Pattern_3" x="0" y="0" width="72" height="72" patternTransform="translate(607 -52)" patternUnits="userSpaceOnUse" viewBox="0 0 72 72"><rect class="cls-9" width="72" height="72"/><line class="cls-11" x1="71.75" y1="68.4" x2="144.25" y2="68.4"/><line class="cls-11" x1="71.75" y1="54" x2="144.25" y2="54"/><line class="cls-11" x1="71.75" y1="39.6" x2="144.25" y2="39.6"/><line class="cls-11" x1="71.75" y1="25.2" x2="144.25" y2="25.2"/><line class="cls-11" x1="71.75" y1="10.8" x2="144.25" y2="10.8"/><line class="cls-11" x1="71.75" y1="61.2" x2="144.25" y2="61.2"/><line class="cls-11" x1="71.75" y1="46.8" x2="144.25" y2="46.8"/><line class="cls-11" x1="71.75" y1="32.4" x2="144.25" y2="32.4"/><line class="cls-11" x1="71.75" y1="18" x2="144.25" y2="18"/><line class="cls-11" x1="71.75" y1="3.6" x2="144.25" y2="3.6"/><line class="cls-11" x1="-.25" y1="68.4" x2="72.25" y2="68.4"/><line class="cls-11" x1="-.25" y1="54" x2="72.25" y2="54"/><line class="cls-11" x1="-.25" y1="39.6" x2="72.25" y2="39.6"/><line class="cls-11" x1="-.25" y1="25.2" x2="72.25" y2="25.2"/><line class="cls-11" x1="-.25" y1="10.8" x2="72.25" y2="10.8"/><line class="cls-11" x1="-.25" y1="61.2" x2="72.25" y2="61.2"/><line class="cls-11" x1="-.25" y1="46.8" x2="72.25" y2="46.8"/><line class="cls-11" x1="-.25" y1="32.4" x2="72.25" y2="32.4"/><line class="cls-11" x1="-.25" y1="18" x2="72.25" y2="18"/><line class="cls-11" x1="-.25" y1="3.6" x2="72.25" y2="3.6"/><line class="cls-11" x1="-72.25" y1="68.4" x2=".25" y2="68.4"/><line class="cls-11" x1="-72.25" y1="54" x2=".25" y2="54"/><line class="cls-11" x1="-72.25" y1="39.6" x2=".25" y2="39.6"/><line class="cls-11" x1="-72.25" y1="25.2" x2=".25" y2="25.2"/><line class="cls-11" x1="-72.25" y1="10.8" x2=".25" y2="10.8"/><line class="cls-11" x1="-72.25" y1="61.2" x2=".25" y2="61.2"/><line class="cls-11" x1="-72.25" y1="46.8" x2=".25" y2="46.8"/><line class="cls-11" x1="-72.25" y1="32.4" x2=".25" y2="32.4"/><line class="cls-11" x1="-72.25" y1="18" x2=".25" y2="18"/><line class="cls-11" x1="-72.25" y1="3.6" x2=".25" y2="3.6"/></pattern><linearGradient id="linear-gradient" x1="-113.43" y1="119.12" x2="1048.64" y2="119.12" gradientUnits="userSpaceOnUse"><stop offset="0" stop-color="#2c9d80" stop-opacity="0"/><stop offset=".11" stop-color="#2c9d80"/><stop offset=".4" stop-color="#b3d16d" stop-opacity=".4"/><stop offset=".7" stop-color="#ee425f" stop-opacity=".4"/><stop offset=".89" stop-color="#962156"/><stop offset="1" stop-color="#962156" stop-opacity="0"/></linearGradient><linearGradient id="linear-gradient-2" x1="511.93" y1="256" x2="511.93" y2="139.84" gradientUnits="userSpaceOnUse"><stop offset="0" stop-color="#2c9d80"/><stop offset=".63" stop-color="#b3d16d" stop-opacity="0"/></linearGradient><linearGradient id="linear-gradient-3" x1="204.99" y1="236.22" x2="204.99" y2="54.78" gradientUnits="userSpaceOnUse"><stop offset="0" stop-color="#2c9d80" stop-opacity="0"/><stop offset="1" stop-color="#2c9d80" stop-opacity=".5"/></linearGradient><linearGradient id="linear-gradient-4" x1="204.99" y1="236.22" x2="204.99" y2="54.78" gradientUnits="userSpaceOnUse"><stop offset="0" stop-color="#2c9d80" stop-opacity=".5"/><stop offset="1" stop-color="#2c9d80"/></linearGradient><linearGradient id="linear-gradient-5" x1="217.08" y1="98.85" x2="217.08" y2="5.47" gradientUnits="userSpaceOnUse"><stop offset="0" stop-color="#b3d16d" stop-opacity="0"/><stop offset="1" stop-color="#b3d16d" stop-opacity=".5"/></linearGradient><linearGradient id="linear-gradient-6" x1="153.04" y1="52.16" x2="281.11" y2="52.16" gradientUnits="userSpaceOnUse"><stop offset="0" stop-color="#b4d26e" stop-opacity=".5"/><stop offset="1" stop-color="#b4d26e"/></linearGradient><linearGradient id="linear-gradient-7" x1="262.77" y1="233.25" x2="262.77" y2="9.41" gradientUnits="userSpaceOnUse"><stop offset="0" stop-color="#962156" stop-opacity="0"/><stop offset="1" stop-color="#ee425f" stop-opacity=".5"/></linearGradient><linearGradient id="linear-gradient-8" x1="262.77" y1="234.25" x2="262.77" y2="8.41" gradientUnits="userSpaceOnUse"><stop offset="0" stop-color="#962156" stop-opacity=".5"/><stop offset="1" stop-color="#ee425f"/></linearGradient><filter id="outer-glow-1" x="95.52" y="124.8" width="272.4" height="91.92" filterUnits="userSpaceOnUse"><feOffset dx="0" dy="0"/><feGaussianBlur result="blur" stdDeviation="8"/><feFlood flood-color="#fff" flood-opacity="1"/><feComposite in2="blur" operator="in"/><feComposite in="SourceGraphic"/></filter></defs><g class="cls-15"><g id="Layer_1"><rect y="-.72" width="1024" height="256.72"/><rect class="cls-22" y="-.72" width="1024" height="256.72"/><path class="cls-23" d="M1046.72,236.77c0-1.5-1.22-2.72-2.72-2.72h-1.38c0-2.79-2.09-5.08-4.79-5.4v-93.06c-2.71-3.18-5.42-5.46-8.13-6.84V-76.1c.56-.14.98-.64.98-1.24h0c0-.54-.33-1-.81-1.19l.81-5.66c-1.71-1.44-3.49-2.35-5.29-2.73v-.94c0-1.09-.88-1.97-1.97-1.97s-1.97.88-1.97,1.97v.94c-1.8.38-3.58,1.29-5.29,2.73l.81,5.66c-.47.19-.81.65-.81,1.19h0c0,.6.42,1.11.98,1.24v4.37c-.12.83-.26,1.65-.41,2.47-1.58,8.67-4.72,17.38-9.33,25.88-.38.71-.8,1.44-1.23,2.19-3.56,6.2-7.98,12.41-13.15,18.47-.4.46-.8.93-1.21,1.4-3.93,4.49-8.36,9-13.17,13.4-.4.36-.8.72-1.2,1.08-4.08,3.67-8.52,7.35-13.19,10.92-.39.3-.79.6-1.18.9-4.15,3.14-8.6,6.29-13.22,9.35-.39.26-.78.51-1.17.77-4.22,2.77-8.67,5.55-13.24,8.24-.38.22-.76.45-1.15.68-4.26,2.49-8.72,4.98-13.25,7.39-.38.2-.75.4-1.13.6-4.25,2.24-8.72,4.5-13.27,6.71-.35.17-.7.34-1.05.51l-.06.03c-4.25,2.04-8.72,4.11-13.29,6.14l-1.1.49c-4.41,1.94-8.89,3.85-13.31,5.66l-1.09.44c-4.32,1.76-8.81,3.52-13.33,5.24-.36.14-.71.27-1.07.4-4.32,1.63-8.81,3.27-13.34,4.87-.35.12-.7.25-1.05.37-4.41,1.55-8.9,3.07-13.36,4.53l-1.04.34c-4.34,1.42-8.84,2.84-13.38,4.23l-1.02.31c-4.34,1.32-8.84,2.65-13.39,3.95l-1,.29c-4.45,1.26-8.96,2.51-13.41,3.7l-.99.26c-4.38,1.17-8.9,2.33-13.43,3.46-4.81,1.2-9.66,2.37-14.41,3.48-4.7,1.1-9.55,2.19-14.41,3.25-4.7,1.02-9.55,2.04-14.42,3.03-4.7.95-9.55,1.9-14.41,2.82-4.78.9-9.63,1.79-14.42,2.63-4.7.83-9.55,1.64-14.42,2.43-4.73.77-9.58,1.53-14.42,2.25-4.69.7-9.54,1.4-14.42,2.08-4.7.65-9.55,1.29-14.42,1.91-4.85.61-9.7,1.2-14.42,1.74-4.79.55-9.64,1.08-14.41,1.58-4.65.49-9.5.96-14.42,1.42-4.77.45-9.62.87-14.42,1.27-4.85.4-9.7.78-14.42,1.12-4.75.35-9.6.67-14.42.97-4.8.3-9.65.58-14.42.83-4.75.25-9.6.48-14.42.69-4.66.2-9.51.38-14.42.54-4.87.16-9.72.3-14.42.4-4.66.11-9.51.2-14.42.27-4.76.07-9.61.11-14.42.13-2.14.01-4.33.01-6.51.01-2.73,0-5.39,0-7.91-.02-4.76-.02-9.61-.07-14.42-.14-4.68-.07-9.53-.16-14.42-.28-4.86-.12-9.71-.26-14.42-.42-4.8-.16-9.65-.35-14.42-.56-4.74-.21-9.59-.44-14.42-.7-4.75-.25-9.6-.54-14.42-.84-4.82-.31-9.67-.64-14.42-.99-4.87-.36-9.72-.74-14.42-1.13-4.74-.4-9.59-.83-14.42-1.28-4.87-.46-9.73-.95-14.42-1.44-4.73-.5-9.58-1.03-14.42-1.6-4.76-.55-9.61-1.14-14.42-1.76-4.86-.62-9.71-1.27-14.42-1.92-4.82-.67-9.67-1.38-14.41-2.1-4.86-.74-9.71-1.5-14.42-2.27-4.68-.76-9.53-1.59-14.42-2.45-4.92-.87-9.77-1.76-14.42-2.65-4.71-.89-9.56-1.85-14.42-2.84-4.9-1-9.75-2.03-14.42-3.05-4.88-1.07-9.72-2.17-14.41-3.27-4.84-1.14-9.69-2.31-14.41-3.5-4.84-1.22-9.69-2.48-14.41-3.75-4.84-1.3-9.69-2.65-14.41-4.01-4.84-1.39-9.69-2.84-14.41-4.29-4.93-1.52-9.78-3.07-14.41-4.6-4.89-1.62-9.74-3.28-14.41-4.94-4.87-1.73-9.72-3.51-14.41-5.31-4.9-1.87-9.75-3.8-14.41-5.72-4.89-2.02-9.74-4.1-14.41-6.19-4.94-2.21-9.79-4.48-14.41-6.74-4.92-2.41-9.77-4.89-14.41-7.37-4.96-2.66-9.8-5.4-14.4-8.15-4.99-2.98-9.84-6.04-14.4-9.12-5.05-3.39-9.89-6.89-14.4-10.39-5.15-4-10-8.11-14.39-12.21-5.33-4.97-10.17-10.07-14.38-15.17-5.85-7.08-10.69-14.37-14.37-21.66-4-7.93-6.72-16.04-8.1-24.12-.15-.89-.29-1.78-.41-2.68v-3.18c.56-.14.98-.64.98-1.25,0-.27-.08-.52-.23-.73-.14-.21-.34-.37-.58-.47l.81-5.7c-1.71-1.44-3.49-2.36-5.29-2.74v-.95c0-1.09-.88-1.98-1.97-1.98s-1.97.88-1.97,1.98v.95c-1.8.38-3.58,1.3-5.29,2.74l.81,5.7c-.47.19-.81.65-.81,1.19,0,.3.1.58.28.8.17.22.42.38.7.45v205.34c-2.71,1.16-5.42,3.08-8.13,5.76v93.56c-2.7.32-4.79,2.62-4.79,5.4h-1.38c-1.5,0-2.72,1.22-2.72,2.72h-1.92v91.29h50.45v-91.29h-1.92c0-1.5-1.22-2.72-2.72-2.72h-1.38c0-2.79-2.09-5.08-4.79-5.4v-1.62h.11c.85-9.95,5.45-19.49,13.68-28.35.6-.64,1.21-1.28,1.82-1.89,3.44-3.44,7.45-6.75,11.9-9.83.54-.38,1.14-.78,1.82-1.24,3.4-2.25,7.1-4.41,10.99-6.41.66-.34,1.26-.64,1.82-.92,3.48-1.73,7.18-3.37,10.99-4.88.6-.24,1.21-.48,1.82-.71,3.56-1.36,7.26-2.63,11-3.77.66-.2,1.26-.38,1.82-.55,3.54-1.04,7.24-2.01,11-2.88.61-.14,1.22-.28,1.82-.41,15.44-3.41,31.79-5.14,48.6-5.14v-.11h824.38v.11c16.88,0,33.29,1.74,48.77,5.18.58.13,1.19.27,1.83.42,3.72.86,7.42,1.83,11,2.89.58.17,1.2.36,1.82.55,3.75,1.15,7.45,2.42,10.99,3.78.59.22,1.2.46,1.82.71,3.8,1.51,7.5,3.16,10.99,4.9.6.3,1.21.61,1.82.93,3.89,2.01,7.59,4.18,10.99,6.44.62.41,1.24.83,1.82,1.24,4.08,2.84,7.77,5.86,10.99,8.99.59.57,1.19,1.17,1.82,1.84,8.69,9.07,13.54,18.87,14.42,29.13h.11s0,1.61,0,1.61c-2.7.32-4.79,2.62-4.79,5.4h-1.38c-1.5,0-2.72,1.22-2.72,2.72h-1.92v91.3h50.45v-91.3h-1.92ZM993.65-22.18c4.87-5.71,9.08-11.56,12.54-17.41v174.34h-13.74V-20.79c.4-.46.81-.93,1.2-1.39ZM890.11,144.53v10.57l-10.49-10.57h22.76l-10.44,10.52v-10.52h-1.83ZM864.45,144.53v10.57l-10.49-10.57h22.76l-10.44,10.52v-10.52h-1.83ZM838.8,144.53v10.57l-10.49-10.57h22.76l-10.44,10.52v-10.52h-1.83ZM813.14,144.53v10.57l-10.49-10.57h22.76l-10.45,10.53v-10.53h-1.83ZM787.48,144.53v10.57l-10.49-10.57h22.76l-10.45,10.53v-10.53h-1.83ZM761.83,144.53v10.57l-10.49-10.57h22.76l-10.45,10.53v-10.53h-1.83ZM736.17,144.53v10.56l-10.48-10.57h22.76l-10.45,10.53v-10.53h-1.83ZM710.52,144.53v10.56l-10.48-10.56h22.76l-10.45,10.53v-10.53h-1.83ZM684.86,144.53v10.56l-10.48-10.56h22.76l-10.45,10.53v-10.53h-1.83ZM659.2,144.53v10.56l-10.48-10.56h22.76l-10.45,10.53v-10.53h-1.83ZM633.55,144.53v10.56l-10.48-10.56h22.76l-10.45,10.53v-10.53h-1.83ZM607.89,144.53v10.56l-10.48-10.56h22.76l-10.45,10.53v-10.53h-1.83ZM582.23,144.53v10.56l-10.48-10.56h22.76l-10.45,10.53v-10.53h-1.83ZM556.58,144.53v10.56l-10.48-10.56h22.76l-10.45,10.53v-10.53h-1.83ZM530.92,144.53v10.56l-10.48-10.56h22.76l-10.45,10.53v-10.53h-1.83ZM505.27,144.53v10.56l-10.48-10.56h22.76l-10.45,10.53v-10.53h-1.83ZM479.61,144.53v10.56l-10.48-10.56h22.76l-10.45,10.53v-10.53h-1.83ZM453.95,144.53v10.56l-10.48-10.56h22.76l-10.46,10.54v-10.53h-1.83ZM428.3,144.53v10.56l-10.48-10.56h22.76l-10.46,10.54v-10.54h-1.83ZM402.64,144.53v10.56l-10.48-10.56h22.76l-10.46,10.54v-10.54h-1.83ZM376.98,144.53v10.56l-10.48-10.56h22.76l-10.46,10.54v-10.54h-1.83ZM351.33,144.53v10.55l-10.47-10.55h22.76l-10.46,10.54v-10.54h-1.83ZM325.67,144.53v10.55l-10.47-10.55h22.76l-10.46,10.54v-10.54h-1.83ZM300.02,144.53v10.55l-10.47-10.55h22.76l-10.46,10.54v-10.54h-1.83ZM274.36,144.53v10.55l-10.47-10.55h22.76l-10.46,10.54v-10.54h-1.83ZM248.7,144.53v10.55l-10.47-10.55h22.76l-10.46,10.54v-10.54h-1.83ZM223.05,144.53v10.55l-10.47-10.55h22.76l-10.46,10.54v-10.54h-1.83ZM197.39,144.53v10.55l-10.47-10.55h22.76l-10.46,10.54v-10.54h-1.83ZM171.73,144.53v10.55l-10.47-10.55h22.76l-10.46,10.54v-10.54h-1.83ZM146.08,144.53v10.55l-10.47-10.55h22.76l-10.46,10.54v-10.54h-1.83ZM120.42,144.53v10.55l-10.47-10.55h22.76l-10.46,10.54v-10.54h-1.83ZM94.76,144.53v10.55l-10.47-10.55h22.76l-10.46,10.54v-10.54h-1.83ZM69.11,144.53v10.55l-10.47-10.55h22.76l-10.47,10.55v-10.54h-1.83ZM43.45,144.53v10.55l-10.47-10.55h22.76l-10.47,10.55v-10.55h-1.83ZM979.91,160.04l-.18-.12h.18v.12ZM944,156.66l10.25-10.32v10.32h-10.25ZM943.25,155.05v-10.52h-1.83v10.57l-10.49-10.57h22.76l-10.44,10.52ZM915.77,144.53v10.57l-10.49-10.57h22.76l-10.44,10.52v-10.52h-1.83ZM914.96,156.66h-10.2v-10.28l10.2,10.28ZM928.59,146.33v10.32h-10.25l10.25-10.32ZM930.42,146.38l10.2,10.28h-10.2v-10.28ZM943.25,159.92h9.26l-9.26,5.01v-5.01ZM956.08,159.92h9.74l-9.74,9.17v-9.17ZM978.82,159.92l-9.92,14.46v-14.46h9.92ZM956.08,156.66v-10.28l10.2,10.28h-10.2ZM17.8,144.53v10.55l-10.47-10.55h22.76l-10.47,10.55v-10.55h-1.83ZM-7.86,165.03l-9.43-5.1H-7.86v5.1ZM-60.08,144.53v9.63l-9.55-9.63h22.76l-11.38,11.47h0v-11.47h-1.83ZM-46.34,146.36v10.3h-10.22l10.22-10.3ZM-30.91,156.66l10.22-10.3v10.3h-10.22ZM-18.86,156.66v-10.3l10.22,10.3h-10.22ZM-21.22,144.52l-10.47,10.55v-10.55h-1.82v10.55l-10.47-10.55h22.76ZM-34.29,156.66h-10.22v-10.3l10.22,10.3ZM-33.51,159.92v14.72l-10.1-14.72h10.1ZM-20.69,159.92v9.34l-9.91-9.34h9.91ZM-7.86,144.53v10.55l-10.47-10.55H4.43l-10.47,10.55v-10.55h-1.83ZM-60.08,156.52v.13h-13.57v-12.25h1.55l12.02,12.11ZM-46.34,159.92v21.76l-11.08-21.76h11.08ZM-47.02,183.64c-4.11,2.75-7.89,5.69-11.24,8.75v-30.82l11.24,22.07ZM-44.52,161.24l10.27,14.96c-3.59,1.82-7.04,3.77-10.27,5.81v-20.77ZM-31.69,160.95l10.14,9.56c-3.49,1.38-6.91,2.87-10.14,4.43v-13.99ZM-18.86,160.77l9.86,5.34c-3.35,1.03-6.67,2.17-9.86,3.36v-8.7ZM-6.03,160.69l9.12,2.11c-3.07.73-6.13,1.55-9.12,2.42v-4.53ZM4.97,146.36v10.3H-5.25l10.22-10.3ZM6.79,146.36l10.22,10.3H6.79v-10.3ZM30.62,146.36v10.3h-10.22l10.22-10.3ZM32.45,146.36l10.22,10.3h-10.22v-10.3ZM902.94,146.33v10.32h-10.24l10.24-10.32ZM941.42,165.27c-3.01-.88-6.13-1.71-9.3-2.47l9.3-2.15v4.62ZM954.25,160.67v8.86c-3.24-1.22-6.61-2.37-10.04-3.43l10.04-5.43ZM967.08,160.78v14.24c-3.28-1.59-6.75-3.11-10.32-4.52l10.32-9.73ZM979.91,160.98v21.14c-3.26-2.07-6.77-4.06-10.45-5.92l10.45-15.22ZM981.73,181.33v-21.41h10.9l-10.9,21.41ZM969.66,156.66l10.25-10.32v10.32h-10.25ZM968.9,155.05v-10.52h-1.83v10.57l-10.49-10.57h22.76l-10.44,10.52ZM4.97,161.71l-7.7-1.78h7.7v1.78ZM56.28,146.36v10.3h-10.22l10.22-10.3ZM58.11,146.36l10.22,10.3h-10.22v-10.3ZM81.94,146.36v10.3h-10.22l10.22-10.3ZM83.76,146.36l10.22,10.3h-10.22v-10.3ZM107.59,146.35v10.3h-10.22l10.22-10.3ZM109.42,146.36l10.22,10.3h-10.22v-10.3ZM133.25,146.35v10.3h-10.22l10.22-10.3ZM135.08,146.36l10.22,10.3h-10.22v-10.3ZM158.91,146.35v10.3h-10.23l10.23-10.3ZM160.73,146.36l10.22,10.3h-10.22v-10.3ZM184.56,146.35v10.3h-10.23l10.23-10.3ZM186.39,146.36l10.22,10.3h-10.22v-10.3ZM210.22,146.35v10.3h-10.23l10.23-10.3ZM212.04,146.36l10.22,10.3h-10.22v-10.3ZM235.87,146.35v10.31h-10.23l10.23-10.31ZM237.7,146.36l10.22,10.29h-10.22v-10.29ZM261.53,146.35v10.31h-10.23l10.23-10.31ZM263.36,146.36l10.22,10.29h-10.22v-10.29ZM287.19,146.35v10.31h-10.23l10.23-10.31ZM289.01,146.36l10.21,10.29h-10.21v-10.29ZM312.84,146.35v10.31h-10.23l10.23-10.31ZM314.67,146.36l10.21,10.29h-10.21v-10.29ZM338.5,146.35v10.31h-10.23l10.23-10.31ZM340.33,146.36l10.21,10.29h-10.21v-10.29ZM364.16,146.35v10.31h-10.23l10.23-10.31ZM365.98,146.37l10.21,10.29h-10.21v-10.29ZM389.81,146.35v10.31h-10.23l10.23-10.31ZM391.64,146.37l10.21,10.29h-10.21v-10.29ZM415.47,146.35v10.31h-10.23l10.23-10.31ZM417.29,146.37l10.21,10.29h-10.21v-10.29ZM441.12,146.35v10.31h-10.23l10.23-10.31ZM442.95,146.37l10.21,10.29h-10.21v-10.29ZM466.78,146.34v10.31h-10.23l10.23-10.31ZM468.61,146.37l10.21,10.29h-10.21v-10.29ZM492.44,146.34v10.31h-10.23l10.23-10.31ZM494.26,146.37l10.21,10.29h-10.21v-10.29ZM518.09,146.34v10.31h-10.23l10.23-10.31ZM519.92,146.37l10.21,10.29h-10.21v-10.29ZM543.75,146.34v10.31h-10.24l10.24-10.31ZM545.58,146.37l10.21,10.29h-10.21v-10.29ZM569.41,146.34v10.31h-10.24l10.24-10.31ZM571.23,146.37l10.21,10.29h-10.21v-10.29ZM595.06,146.34v10.32h-10.24l10.24-10.32ZM596.89,146.37l10.21,10.29h-10.21v-10.29ZM620.72,146.34v10.32h-10.24l10.24-10.32ZM622.55,146.37l10.21,10.28h-10.21v-10.28ZM646.37,146.34v10.32h-10.24l10.24-10.32ZM648.2,146.37l10.21,10.28h-10.21v-10.28ZM672.03,146.34v10.32h-10.24l10.24-10.32ZM673.86,146.37l10.2,10.28h-10.2v-10.28ZM697.69,146.34v10.32h-10.24l10.24-10.32ZM699.51,146.37l10.2,10.28h-10.2v-10.28ZM723.34,146.34v10.32h-10.24l10.24-10.32ZM725.17,146.38l10.2,10.28h-10.2v-10.28ZM749,146.34v10.32h-10.24l10.24-10.32ZM750.83,146.38l10.2,10.28h-10.2v-10.28ZM774.66,146.34v10.32h-10.24l10.24-10.32ZM776.48,146.38l10.2,10.28h-10.2v-10.28ZM800.31,146.34v10.32h-10.24l10.24-10.32ZM802.14,146.38l10.2,10.28h-10.2v-10.28ZM825.97,146.34v10.32h-10.24l10.24-10.32ZM827.8,146.38l10.2,10.28h-10.2v-10.28ZM851.63,146.33v10.32h-10.24l10.24-10.32ZM853.45,146.38l10.2,10.28h-10.2v-10.28ZM877.28,146.33v10.32h-10.24l10.24-10.32ZM879.11,146.38l10.2,10.28h-10.2v-10.28ZM937.94,159.92l-7.52,1.74v-1.74h7.52ZM982.23,183.64l10.51-20.64v28.72c-3.15-2.81-6.68-5.53-10.51-8.08ZM992.74,144.53v10.57l-10.49-10.57h22.76l-10.44,10.52v-10.52h-1.83ZM991.93,156.66h-10.2v-10.28l10.2,10.28ZM-60.08,159.92v32.33h0s-12.91-32.33-12.91-32.33h12.91ZM6.79,161.94v-2.02h10.45c-3.48.59-6.99,1.26-10.45,2.02ZM928.59,159.92v2.06c-3.46-.76-7.03-1.46-10.62-2.06h10.62ZM1007.47,144.41h1.39v12.25h-13.55l12.15-12.25ZM-73.8,161.93l13.09,32.78s-.02.02-.03.03c-5.88,5.84-10.27,12.09-13.06,18.58v-51.39ZM994.76,193.59s-.08-.08-.12-.12c-.03-.02-.05-.05-.08-.07v-33.48h13.64l-13.44,33.67ZM1009.01,140.5h0v3.62h0v-3.62ZM1009.01,139.84h-.62v-4.42h-.5v4.42h-1.33v-4.42h-.5v4.42h-1.33v-4.42h-.5v4.42h-1.33v-4.42h-.5v4.42h-1.33v-4.42h-.5v4.42h-1.33v-4.42h-.5v4.42h-1.33v-4.42h-.5v4.42h-1.33v-4.42h-.5v4.42h-1.33v-4.42h-.5v4.42h-1.33v-4.42h-.5v4.42h-1.33v-4.42h-.5v4.42h-1.33v-4.42h-.5v4.42h-1.33v-4.42h-.5v4.42h-1.33v-4.42h-.5v4.42h-1.33v-4.42h-.5v4.42h-1.33v-4.42h-.5v4.42h-1.33v-4.42h-.5v4.42h-1.33v-4.42h-.5v4.42h-1.33v-4.42h-.5v4.42h-1.33v-4.42h-.5v4.42h-1.33v-4.42h-.5v4.42h-1.33v-4.42h-.5v4.42h-1.33v-4.42h-.5v4.42h-1.33v-4.42h-.5v4.42h-1.33v-4.42h-.5v4.42h-1.33v-4.42h-.5v4.42h-1.33v-4.42h-.5v4.42h-1.33v-4.42h-.5v4.42h-1.33v-4.42h-.5v4.42h-1.33v-4.42h-.5v4.42h-1.33v-4.42h-.5v4.42h-1.33v-4.42h-.5v4.42h-1.33v-4.42h-.5v4.42h-1.33v-4.42h-.5v4.42h-1.33v-4.42h-.5v4.42h-1.33v-4.42h-.5v4.42h-1.33v-4.42h-.5v4.42h-1.33v-4.42h-.5v4.42h-1.33v-4.42h-.5v4.42h-1.33v-4.42h-.5v4.42h-1.33v-4.42h-.5v4.42h-1.33v-4.42h-.5v4.42h-1.33v-4.42h-.5v4.42h-1.33v-4.42h-.5v4.42h-1.33v-4.42h-.5v4.42h-1.33v-4.42h-.5v4.42h-1.33v-4.42h-.5v4.42h-1.33v-4.42h-.5v4.42h-1.33v-4.42h-.5v4.42h-1.33v-4.42h-.5v4.42h-1.33v-4.42h-.5v4.42h-1.33v-4.42h-.5v4.42h-1.33v-4.42h-.5v4.42h-1.33v-4.42h-.5v4.42h-1.33v-4.42h-.5v4.42h-1.33v-4.42h-.5v4.42h-1.33v-4.42h-.5v4.42h-1.33v-4.42h-.5v4.42h-1.33v-4.42h-.5v4.42h-1.33v-4.42h-.5v4.42h-1.33v-4.42h-.5v4.42h-1.33v-4.42h-.5v4.42h-1.33v-4.42h-.5v4.42h-1.33v-4.42h-.5v4.42h-1.33v-4.42h-.5v4.42h-1.33v-4.42h-.5v4.42h-1.33v-4.42h-.5v4.42h-1.33v-4.42h-.5v4.42h-1.33v-4.42h-.5v4.42h-1.33v-4.42h-.5v4.42h-1.33v-4.42h-.5v4.42h-1.33v-4.42h-.5v4.42h-1.33v-4.42h-.5v4.42h-1.33v-4.42h-.5v4.42h-1.33v-4.42h-.5v4.42h-1.33v-4.42h-.5v4.42h-1.33v-4.42h-.5v4.42h-1.33v-4.42h-.5v4.42h-1.33v-4.42h-.5v4.42h-1.33v-4.42h-.5v4.42h-1.33v-4.42h-.5v4.42h-1.33v-4.42h-.5v4.42h-1.33v-4.42h-.5v4.42h-1.33v-4.42h-.5v4.42h-1.33v-4.42h-.5v4.42h-1.33v-4.42h-.5v4.42h-1.33v-4.42h-.5v4.42h-1.33v-4.42h-.5v4.42h-1.33v-4.42h-.5v4.42h-1.33v-4.42h-.5v4.42h-1.33v-4.42h-.5v4.42h-1.33v-4.42h-.5v4.42h-1.33v-4.42h-.5v4.42h-1.33v-4.42h-.5v4.42h-1.33v-4.42h-.5v4.42h-1.33v-4.42h-.5v4.42h-1.33v-4.42h-.5v4.42h-1.33v-4.42h-.5v4.42h-1.33v-4.42h-.5v4.42h-1.33v-4.42h-.5v4.42h-1.33v-4.42h-.5v4.42h-1.33v-4.42h-.5v4.42h-1.33v-4.42h-.5v4.42h-1.33v-4.42h-.5v4.42h-1.33v-4.42h-.5v4.42h-1.33v-4.42h-.5v4.42h-1.33v-4.42h-.5v4.42h-1.33v-4.42h-.5v4.42h-1.33v-4.42h-.5v4.42h-1.33v-4.42h-.5v4.42h-1.33v-4.42h-.5v4.42h-1.33v-4.42h-.5v4.42h-1.33v-4.42h-.5v4.42h-1.33v-4.42h-.5v4.42h-1.33v-4.42h-.5v4.42h-1.33v-4.42h-.5v4.42h-1.33v-4.42h-.5v4.42h-1.33v-4.42h-.5v4.42h-1.33v-4.42h-.5v4.42h-1.33v-4.42h-.5v4.42h-1.33v-4.42h-.5v4.42h-1.33v-4.42h-.5v4.42h-1.33v-4.42h-.5v4.42h-1.33v-4.42h-.5v4.42h-1.33v-4.42h-.5v4.42h-1.33v-4.42h-.5v4.42h-1.33v-4.42h-.5v4.42h-1.33v-4.42h-.5v4.42h-1.33v-4.42h-.5v4.42h-1.33v-4.42h-.5v4.42h-1.33v-4.42h-.5v4.42h-1.33v-4.42h-.5v4.42h-1.33v-4.42h-.5v4.42h-1.33v-4.42h-.5v4.42h-1.33v-4.42h-.5v4.42h-1.33v-4.42h-.5v4.42h-1.33v-4.42h-.5v4.42h-1.33v-4.42h-.5v4.42h-1.33v-4.42h-.5v4.42h-1.33v-4.42h-.5v4.42h-1.33v-4.42h-.5v4.42h-1.33v-4.42h-.5v4.42h-1.33v-4.42h-.5v4.42h-1.33v-4.42h-.5v4.42h-1.33v-4.42h-.5v4.42h-1.33v-4.42h-.5v4.42h-1.33v-4.42h-.5v4.42h-1.33v-4.42h-.5v4.42h-1.33v-4.42h-.5v4.42h-1.33v-4.42h-.5v4.42h-1.33v-4.42h-.5v4.42h-1.33v-4.42h-.5v4.42h-1.33v-4.42h-.5v4.42h-1.33v-4.42h-.5v4.42h-1.33v-4.42h-.5v4.42h-1.33v-4.42h-.5v4.42h-1.33v-4.42h-.5v4.42h-1.33v-4.42h-.5v4.42h-1.33v-4.42h-.5v4.42h-1.33v-4.42h-.5v4.42h-1.33v-4.42h-.5v4.42h-1.33v-4.42h-.5v4.42h-1.33v-4.42h-.5v4.42h-1.33v-4.42h-.5v4.42h-1.33v-4.42h-.5v4.42h-1.33v-4.42h-.5v4.42h-1.33v-4.42h-.5v4.42h-1.33v-4.42h-.5v4.42h-1.33v-4.42h-.5v4.42h-1.33v-4.42h-.5v4.42h-1.33v-4.42h-.5v4.42h-1.33v-4.42h-.5v4.42h-1.33v-4.42h-.5v4.42h-1.33v-4.42h-.5v4.42h-1.33v-4.42h-.5v4.42h-1.33v-4.42h-.5v4.42h-1.33v-4.42h-.5v4.42h-1.33v-4.42h-.5v4.42h-1.33v-4.42h-.5v4.42h-1.33v-4.42h-.5v4.42h-1.33v-4.42h-.5v4.42h-1.33v-4.42h-.5v4.42h-1.33v-4.42h-.5v4.42h-1.33v-4.42h-.5v4.42h-1.33v-4.42h-.5v4.42h-1.33v-4.42h-.5v4.42h-1.33v-4.42h-.5v4.42h-1.33v-4.42h-.5v4.42h-1.33v-4.42h-.5v4.42h-1.33v-4.42h-.5v4.42h-1.33v-4.42h-.5v4.42h-1.33v-4.42h-.5v4.42h-1.33v-4.42h-.5v4.42h-1.33v-4.42h-.5v4.42h-1.33v-4.42h-.5v4.42h-1.33v-4.42h-.5v4.42h-1.33v-4.42h-.5v4.42h-1.33v-4.42h-.5v4.42h-1.33v-4.42h-.5v4.42h-1.33v-4.42h-.5v4.42h-1.33v-4.42h-.5v4.42h-1.33v-4.42h-.5v4.42h-1.33v-4.42h-.5v4.42h-1.33v-4.42h-.5v4.42h-1.33v-4.42h-.5v4.42h-1.33v-4.42h-.5v4.42h-1.33v-4.42h-.5v4.42h-1.33v-4.42h-.5v4.42h-1.33v-4.42h-.5v4.42h-1.33v-4.42h-.5v4.42h-1.33v-4.42h-.5v4.42h-1.33v-4.42h-.5v4.42h-1.33v-4.42h-.5v4.42h-1.33v-4.42h-.5v4.42h-1.33v-4.42h-.5v4.42h-1.33v-4.42h-.5v4.42h-1.33v-4.42h-.5v4.42h-1.33v-4.42h-.5v4.42h-1.33v-4.42h-.5v4.42h-1.33v-4.42h-.5v4.42h-1.33v-4.42h-.5v4.42h-1.33v-4.42h-.5v4.42h-1.33v-4.42h-.5v4.42h-1.33v-4.42h-.5v4.42h-1.33v-4.42h-.5v4.42h-1.33v-4.42h-.5v4.42h-1.33v-4.42h-.5v4.42h-1.33v-4.42h-.5v4.42h-1.33v-4.42h-.5v4.42h-1.33v-4.42h-.5v4.42h-1.33v-4.42h-.5v4.42h-1.33v-4.42h-.5v4.42h-1.33v-4.42h-.5v4.42h-1.33v-4.42h-.5v4.42h-1.33v-4.42h-.5v4.42h-1.33v-4.42h-.5v4.42h-1.33v-4.42h-.5v4.42h-1.33v-4.42h-.5v4.42h-1.33v-4.42h-.5v4.42h-1.33v-4.42h-.5v4.42h-1.33v-4.42h-.5v4.42h-1.33v-4.42h-.5v4.42h-1.33v-4.42h-.5v4.42h-1.33v-4.42h-.5v4.42h-1.33v-4.42h-.5v4.42h-1.33v-4.42h-.5v4.42h-1.33v-4.42h-.5v4.42h-1.33v-4.42h-.5v4.42h-1.33v-4.42h-.5v4.42h-1.33v-4.42h-.5v4.42h-1.33v-4.42h-.5v4.42h-1.33v-4.42h-.5v4.42h-1.33v-4.42h-.5v4.42h-1.33v-4.42h-.5v4.42h-1.33v-4.42h-.5v4.42h-1.33v-4.42h-.5v4.42h-1.33v-4.42h-.5v4.42h-1.33v-4.42h-.5v4.42h-1.33v-4.42h-.5v4.42h-1.33v-4.42h-.5v4.42h-1.33v-4.42h-.5v4.42h-1.33v-4.42h-.5v4.42h-1.33v-4.42h-.5v4.42h-1.33v-4.42h-.5v4.42h-1.33v-4.42h-.5v4.42h-1.33v-4.42h-.5v4.42h-1.33v-4.42h-.5v4.42h-1.33v-4.42h-.5v4.42h-1.33v-4.42h-.5v4.42h-1.33v-4.42h-.5v4.42h-1.33v-4.42h-.5v4.42h-1.33v-4.42h-.5v4.42h-1.33v-4.42h-.5v4.42h-1.33v-4.42h-.5v4.42h-1.33v-4.42h-.5v4.42h-1.33v-4.42h-.5v4.42h-1.33v-4.42h-.5v4.42h-1.33v-4.42h-.5v4.42h-1.33v-4.42h-.5v4.42h-1.33v-4.42h-.5v4.42h-1.33v-4.42h-.5v4.42h-1.33v-4.42h-.5v4.42h-1.33v-4.42h-.5v4.42h-1.33v-4.42h-.5v4.42h-1.33v-4.42h-.5v4.42h-1.33v-4.42h-.5v4.42h-1.33v-4.42h-.5v4.42h-1.33v-4.42h-.5v4.42h-1.33v-4.42h-.5v4.42h-1.33v-4.42h-.5v4.42h-1.33v-4.42h-.5v4.42h-1.33v-4.42h-.5v4.42h-1.33v-4.42h-.5v4.42h-1.33v-4.42h-.5v4.42h-1.33v-4.42h-.5v4.42h-1.33v-4.42h-.5v4.42h-1.33v-4.42h-.5v4.42h-1.33v-4.42h-.5v4.42h-1.33v-4.42h-.5v4.42h-1.33v-4.42h-.5v4.42h-1.33v-4.42h-.5v4.42h-1.33v-4.42h-.5v4.42h-1.33v-4.42h-.5v4.42h-1.33v-4.42h-.5v4.42h-1.33v-4.42h-.5v4.42h-1.33v-4.42h-.5v4.42h-1.33v-4.42h-.5v4.42h-1.33v-4.42h-.5v4.42h-1.33v-4.42h-.5v4.42h-1.33v-4.42h-.5v4.42h-1.33v-4.42h-.5v4.42h-1.33v-4.42h-.5v4.42h-1.33v-4.42h-.5v4.42h-1.33v-4.42h-.5v4.42h-1.33v-4.42h-.5v4.42h-1.33v-4.42h-.5v4.42h-1.33v-4.42h-.5v4.42h-1.33v-4.42h-.5v4.42h-1.33v-4.42h-.5v4.42h-1.33v-4.42h-.5v4.42h-1.33v-4.42h-.5v4.42h-1.33v-4.42h-.5v4.42h-1.33v-4.42h-.5v4.42h-1.33v-4.42h-.5v4.42h-1.33v-4.42h-.5v4.42h-1.33v-4.42h-.5v4.42h-1.33v-4.42h-.5v4.42h-1.33v-4.42h-.5v4.42h-1.33v-4.42h-.5v4.42h-1.33v-4.42h-.5v4.42h-1.33v-4.42h-.5v4.42h-1.33v-4.42h-.5v4.42h-1.33v-4.42h-.5v4.42h-1.33v-4.42h-.5v4.42h-1.33v-4.42h-.5v4.42h-1.33v-4.42h-.5v4.42h-1.33v-4.42h-.5v4.42h-1.33v-4.42h-.5v4.42h-1.33v-4.42h-.5v4.42h-1.33v-4.42h-.5v4.42h-1.33v-4.42h-.5v4.42h-1.33v-4.42h-.5v4.42h-1.33v-4.42h-.5v4.42h-1.33v-4.42h-.5v4.42h-1.33v-4.42h-.5v4.42h-1.33v-4.42h-.5v4.42h-1.33v-4.42h-.5v4.42h-1.33v-4.42h-.5v4.42h-1.33v-4.42h-.5v4.42h-1.33v-4.42h-.5v4.42h-1.33v-4.42h-.5v4.42h-1.33v-4.42h-.5v4.42h-1.33v-4.42h-.5v4.42h-1.33v-4.42h-.5v4.42h-1.33v-4.42h-.5v4.42h-1.33v-4.42h-.5v4.42h-1.33v-4.42h-.5v4.42h-1.33v-4.42h-.5v4.42h-1.33v-4.42h-.5v4.42h-1.33v-4.42h-.5v4.42h-1.33v-4.42h-.5v4.42h-1.33v-4.42h-.5v4.42h-1.33v-4.42h-.5v4.42h-1.33v-4.42h-.5v4.42h-1.33v-4.42h-.5v4.42h-1.33v-4.42h-.5v4.42h-1.33v-4.42h-.5v4.42h-1.33v-4.42h-.5v4.42h-1.33v-4.42h-.5v4.42h-1.33v-4.42h-.5v4.42h-1.33v-4.42h-.5v4.42h-1.33v-4.42h-.5v4.42h-1.33v-4.42h-.5v4.42h-1.33v-4.42h-.5v4.42h-1.33v-4.42h-.5v4.42h-1.33v-4.42h-.5v4.42h-1.33v-4.42h-.5v4.42h-1.33v-4.42h-.5v4.42h-1.33v-4.42h-.5v4.42h-1.33v-4.42h-.5v4.42h-1.33v-4.42h-.5v4.42h-1.33v-4.42h-.5v4.42h-1.33v-4.42h-.5v4.42h-1.33v-4.42h-.5v4.42h-1.33v-4.42h-.5v4.42h-1.33v-4.42h-.5v4.42h-1.33v-4.42h-.5v4.42h-1.33v-4.42h-.5v4.42h-1.33v-4.42h-.5v4.42h-1.33v-4.42h-.5v4.42h-1.33v-4.42h-.5v4.42h-1.33v-4.42h-.5v4.42h-1.33v-4.42h-.5v4.42h-1.33v-4.42h-.5v4.42h-1.33v-4.42h-.5v4.42h-1.33v-4.42h-.5v4.42h-1.33v-4.42h-.5v4.42h-1.33v-4.42h-.5v4.42h-1.33v-4.42h-.5v4.42h-1.33v-4.42h-.5v4.42h-1.33v-4.42h-.5v4.42h-1.33v-4.42h-.5v4.42h-1.33v-4.42h-.5v4.42h-1.33v-4.42h-.5v4.42h-1.33v-4.42h-.5v4.42h-1.33v-4.42h-.5v4.42h-1.33v-4.42h-.5v4.42h-1.33v-4.42h-.5v4.42h-1.33v-4.42h-.5v4.42h-1.33v-4.42h-.5v4.42h-1.33v-4.42h-.5v4.42h-1.33v-4.42h-.5v4.42h-1.33v-4.42h-.5v4.42h-1.33v-4.42h-.5v4.42h-1.33v-4.42h-.5v4.42h-1.33v-4.42h-.5v4.42h-1.33v-4.42h-.5v4.42h-1.33v-4.42h-.5v4.42h-1.33v-4.42h-.5v4.42h-1.33v-4.42h-.5v4.42h-1.33v-4.42h-.5v4.42h-1.33v-4.42h-.5v4.42h-1.33v-4.42h-.5v4.42h-1.33v-4.42h-.5v4.42h-1.33v-4.42h-.5v4.42h-1.33v-4.42h-.5v4.42h-1.33v-4.42h-.5v4.42h-1.33v-4.42h-.5v4.42h-1.33v-4.42h-.5v4.42h-1.33v-4.42h-.5v4.42h-1.33v-4.42h-.5v4.42h-1.33v-4.42h-.5v4.42h-1.33v-4.42h-.5v4.42h-1.33v-4.42h-.5v4.42h-1.33v-4.42h-.5v4.42h-1.33v-4.42h-.5v4.42h-1.33v-4.42h-.5v4.42h-1.33v-4.42h-.5v4.42h-1.33v-4.42h-.5v4.42h-1.33v-4.42h-.5v4.42h-1.33v-4.42h-.5v4.42h-1.33v-4.42h-.5v4.42h-1.33v-4.42h-.5v4.42h-1.33v-4.42h-.5v4.42h-1.33v-4.42h-.5v4.42h-1.33v-4.42h-.5v4.42h-1.33v-4.42h-.5v4.42h-1.33v-4.42h-.5v4.42h-1.33v-4.42h-.5v4.42h-1.33v-4.42h-.5v4.42h-1.33v-4.42h-.5v4.42h-1.33v-4.42h-.5v4.42h-1.33v-4.42h-.5v4.42h-1.33v-4.42h-.5v4.42h-1.33v-4.42h-.5v4.42h-1.33v-4.42h-.5v4.42h-1.33v-4.42h-.5v4.42h-1.33v-4.42h-.5v4.42h-1.33v-4.42h-.5v4.42h-1.33v-4.42h-.5v4.42h-1.33v-4.42h-.5v4.42h-1.33v-4.42h-.5v4.42h-1.33v-4.42h-.5v4.42h-1.33v-4.42h-.5v4.42h-1.33v-4.42h-.5v4.42h-1.33v-4.42h-.5v4.42h-1.33v-4.42h-.5v4.42h-1.33v-4.42h-.5v4.42h-1.33v-4.42h-.5v4.42h-1.33v-4.42h-.5v4.42h-1.33v-4.42h-.5v4.42h-1.33v-4.42h-.5v4.42h-1.33v-4.42h-.5v4.42h-1.33v-4.42h-.5v4.42h-1.33v-4.42h-.5v4.42h-1.33v-4.42h-.5v4.42h-1.33v-4.42h-.5v4.42h-1.33v-4.42h-.5v4.42h-1.33v-4.42h-.5v4.42h-1.33v-4.42h-.5v4.42h-1.33v-4.42h-.5v4.42h-1.33v-4.42h-.5v4.42h-1.33v-4.42h-.5v4.42h-1.33v-4.42h-.5v4.42h-1.33v-4.42h-.5v4.42h-1.33v-4.42h-.5v4.42h-1.33v-4.42h-.5v4.42h-1.33v-4.42h-.5v4.42h-1.33v-4.42h-.5v4.42h-1.33v-4.42h-.5v4.42h-1.33v-4.42h-.5v4.42h-1.33v-4.42h-.5v4.42h-1.33v-4.42h-.5v4.42h-1.33v-4.42h-.5v4.42h-1.33v-4.42h-.5v4.42h-1.33v-4.42h-.5v4.42h-1.33v-4.42h-.5v4.42h-1.33v-4.42h-.5v4.42h-1.33v-4.42h-.5v4.42h-1.33v-4.42h-.5v4.42h-1.33v-4.42h-.5v4.42h-1.33v-4.42h-.5v4.42h-1.33v-4.42h-.5v4.42h-1.33v-4.42h-.5v4.42h-1.33v-4.42h-.5v4.42h-1.33v-4.42h-.5v4.42h-1.33v-4.42h-.5v4.42h-1.33v-4.42h-.5v4.42h-1.33v-4.42h-.5v4.42h-1.33v-4.42h-.5v4.42h-1.33v-4.42h-.5v4.42h-1.33v-4.42h-.5v4.42h-1.33v-4.42h-.5v4.42h-1.33v-4.42h-.5v4.42h-1.33v-4.42h-.5v4.42h-1.33v-4.42h-.5v4.42h-1.33v-4.42h-.5v4.42h-1.33v-4.42h-.5v4.42h-1.33v-4.42h-.5v4.42h-1.33v-4.42h-.5v4.42h-1.33v-4.42h-.5v4.42h-1.33v-4.42h-.5v4.42h-1.33v-4.42h-.5v4.42h-1.33v-4.42h-.5v4.42h-1.33v-4.42h-.5v4.42h-1.33v-4.42h-.5v4.42h-1.33v-4.42h-.5v4.42h-1.33v-4.42h-.5v4.42h-1.33v-4.42h-.5v4.42h-1.33v-4.42h-.5v4.42h-1.33v-4.42h-.5v4.42h-1.33v-4.42h-.5v4.42h-1.33v-4.42h-.5v4.42h-1.33v-4.42h-.5v4.42h-1.33v-4.42h-.5v4.42h-1.33v-4.42h-.5v4.42h-1.33v-4.42h-.5v4.42h-1.33v-4.42h-.5v4.42h-1.33v-4.42h-.5v4.42h-1.33v-4.42h-.5v4.42h-1.33v-4.42h-.5v4.42h-1.33v-4.42h-.5v4.42h-1.33v-4.42h-.5v4.42h-1.33v-4.42h-.5v4.42h-1.33v-4.42h-.5v4.42h-1.33v-4.42h-.5v4.42h-1.33v-4.42h-.5v4.42h-1.33v-4.42h-.5v4.42h-1.33v-4.42h-.5v4.42h-1.33v-4.42h-.5v4.42h-1.33v-4.42h-.5v4.42h-1.33v-4.42h-.5v4.42H.03v-4.42h-.5v4.42h-1.33v-4.42h-.5v4.42h-1.33v-4.42h-.5v4.42h-1.33v-4.42h-.5v4.42h-1.33v-4.42h-.5v4.42h-1.33v-4.42h-.5v4.42h-1.33v-4.42h-.5v4.42h-1.33v-4.42h-.5v4.42h-1.33v-4.42h-.5v4.42h-1.33v-4.42h-.5v4.42h-1.33v-4.42h-.5v4.42h-1.33v-4.42h-.5v4.42h-1.33v-4.42h-.5v4.42h-1.33v-4.42h-.5v4.42h-1.33v-4.42h-.5v4.42h-1.33v-4.42h-.5v4.42h-1.33v-4.42h-.5v4.42h-1.33v-4.42h-.5v4.42h-1.33v-4.42h-.5v4.42h-1.33v-4.42h-.5v4.42h-1.33v-4.42h-.5v4.42h-1.33v-4.42h-.5v4.42h-1.33v-4.42h-.5v4.42h-1.33v-4.42h-.5v4.42h-1.33v-4.42h-.5v4.42h-1.33v-4.42h-.5v4.42h-1.33v-4.42h-.5v4.42h-1.33v-4.42h-.5v4.42h-1.33v-4.42h-.5v4.42h-1.33v-4.42h-.5v4.42h-1.33v-4.42h-.5v4.42h-1.33v-4.42h-.5v4.42h-1.33v-4.42h-.5v4.42h-1.33v-4.42h-.5v4.42h-1.33v-4.42h-.5v4.42h-1.33v-4.42h-.5v4.42h-1.33v-4.42h-.5v4.42h-1.33v-4.42h-.5v4.42h-1.33v-4.42h-.5v4.42h-1.33v-4.42h-.5v4.42h-1.35v-4.42h-.5v4.42h-.13v-4.42H1009.01v4.42ZM-44.66-8.07c4.22,3.91,8.84,7.82,13.74,11.63v131.19h-13.74V-8.07ZM98.72,134.75h-13.74V62.88c4.46,1.58,9.08,3.16,13.74,4.71v67.16ZM84.32,134.75h-13.74V57.58c4.48,1.71,9.1,3.41,13.74,5.06v72.11ZM69.92,134.75h-13.74V51.87c4.45,1.84,9.07,3.67,13.74,5.46v77.42ZM55.51,134.75h-13.74V45.69c4.46,1.99,9.08,3.98,13.74,5.91v83.15ZM41.11,134.75h-13.74V38.98c4.41,2.15,9.03,4.31,13.74,6.42v89.36ZM26.7,134.75h-13.74V31.62c4.43,2.37,9.05,4.73,13.74,7.03v96.1ZM12.3,134.75H-1.44V23.5c4.4,2.62,9.02,5.23,13.74,7.77v103.49ZM-2.11,134.75h-13.74V14.42c4.37,2.93,8.99,5.85,13.74,8.69v111.65ZM-16.51,134.75h-13.74V4.07c4.32,3.34,8.94,6.67,13.74,9.9v120.78ZM979.2-7.3c4.58-4.18,8.81-8.46,12.59-12.74v154.79h-13.74V-6.26c.38-.34.77-.69,1.15-1.04ZM964.75,4.75c4.46-3.41,8.7-6.91,12.64-10.42v140.42h-13.74V5.59c.37-.28.74-.56,1.1-.84ZM950.31,15.03c4.42-2.94,8.68-5.94,12.68-8.95v128.67h-13.74V15.74c.36-.23.71-.47,1.07-.7ZM935.87,24.06c4.37-2.58,8.65-5.23,12.71-7.89v118.58h-13.74V24.67c.34-.2.69-.4,1.03-.6ZM921.43,32.15c4.35-2.31,8.64-4.7,12.74-7.09v109.7h-13.74V32.67c.33-.18.67-.35,1-.53ZM906.99,39.47c4.38-2.12,8.67-4.29,12.78-6.45v101.73h-13.74V39.93c.32-.15.64-.31.97-.47ZM892.56,46.16c4.4-1.95,8.7-3.94,12.8-5.91v94.5h-13.74V46.57l.94-.41ZM878.13,52.31c4.26-1.74,8.57-3.58,12.83-5.45v87.89h-13.74V52.68l.91-.37ZM863.7,58c4.36-1.65,8.68-3.35,12.86-5.05v81.8h-13.74V58.33c.3-.11.59-.22.88-.33ZM849.27,63.28c4.37-1.54,8.7-3.12,12.88-4.69v76.17h-13.74V63.58c.29-.1.57-.2.86-.3ZM834.84,68.19c4.3-1.41,8.64-2.88,12.91-4.38v70.94h-13.74v-66.29l.83-.27ZM820.41,72.76c4.39-1.34,8.73-2.72,12.93-4.09v66.08h-13.74v-61.74l.81-.25ZM805.98,77.03c4.4-1.26,8.75-2.54,12.95-3.82v61.54h-13.74v-57.5l.79-.22ZM791.56,81.02c4.31-1.15,8.67-2.35,12.98-3.58v57.31h-13.74v-53.53l.76-.2ZM777.13,84.75c4.38-1.09,8.75-2.22,13-3.35v53.35h-13.74v-49.82c.25-.06.49-.12.74-.18ZM762.7,88.23c4.3-1,8.67-2.05,13.02-3.13v49.66h-13.74v-46.36c.24-.06.48-.11.72-.17ZM748.28,91.48c4.4-.96,8.78-1.94,13.05-2.93v46.21h-13.74v-43.13c.23-.05.46-.1.7-.15ZM733.85,94.51c4.41-.89,8.79-1.81,13.07-2.74v42.98h-13.74v-40.11c.22-.05.45-.09.67-.14ZM719.42,97.33c4.41-.83,8.81-1.69,13.09-2.55v39.97h-13.74v-37.3c.22-.04.44-.08.65-.12ZM705,99.96c4.35-.76,8.75-1.56,13.11-2.38v37.17h-13.74v-34.68c.21-.04.42-.07.63-.11ZM690.57,102.4c4.43-.72,8.84-1.46,13.13-2.21v34.57h-13.74v-32.26c.2-.03.41-.07.61-.1ZM676.15,104.65c4.41-.66,8.83-1.35,13.15-2.05v32.15h-13.74v-30.01c.2-.03.39-.06.59-.09ZM661.72,106.73c4.45-.62,8.87-1.25,13.18-1.89v29.91h-13.74v-27.94c.19-.03.38-.05.57-.08ZM647.29,108.64c4.45-.56,8.88-1.15,13.2-1.74v27.85h-13.74v-26.04c.18-.02.36-.05.55-.07ZM632.87,110.38c4.32-.5,8.76-1.03,13.22-1.59v25.96h-13.74v-24.31c.17-.02.35-.04.52-.06ZM618.45,111.97c4.39-.46,8.83-.94,13.24-1.45v24.23h-13.74v-22.73c.17-.02.34-.03.5-.05ZM604.02,113.39c4.51-.42,8.96-.86,13.26-1.3v22.67h-13.74v-21.32c.16-.01.32-.03.48-.04ZM589.6,114.66c4.42-.37,8.88-.76,13.28-1.17v21.26h-13.74v-20.05c.15-.01.31-.03.46-.04ZM575.17,115.78c4.35-.31,8.82-.66,13.3-1.03v20h-13.74v-18.94c.15-.01.3-.02.44-.03ZM560.75,116.76c4.45-.28,8.92-.58,13.32-.9v18.89h-13.74v-17.97c.14,0,.28-.02.42-.03ZM546.32,117.59c4.41-.23,8.89-.49,13.34-.76v17.93h-13.74v-17.15c.13,0,.27-.01.4-.02ZM531.9,118.27c4.46-.19,8.94-.4,13.36-.63v17.11h-13.74v-16.47c.13,0,.26-.01.38-.02ZM517.47,118.82c4.55-.15,9.04-.32,13.38-.5v16.44h-13.74v-15.93c.12,0,.24,0,.36-.01ZM503.05,119.22c4.37-.1,8.87-.23,13.4-.37v15.9h-13.74v-15.53c.11,0,.23,0,.34,0ZM488.62,119.49c4.56-.06,9.06-.14,13.42-.24v15.51h-13.74v-15.26c.11,0,.21,0,.32,0ZM474.2,119.62c4.48-.02,8.99-.06,13.44-.12v15.25h-13.74v-15.14c.1,0,.2,0,.3,0ZM467.69,119.63c1.85,0,3.71,0,5.55-.01v15.13h-13.74v-15.15c.09,0,.19,0,.28,0,2.52.01,5.18.02,7.91.02ZM458.83,119.6v15.15h-13.74v-15.29c.09,0,.17,0,.26,0,4.5.07,9.03.11,13.48.14ZM444.43,119.45v15.3h-13.74v-15.57c.08,0,.16,0,.24,0,4.57.11,9.11.2,13.5.27ZM430.02,119.17v15.59h-13.74v-15.99c.07,0,.15,0,.22,0,4.42.15,8.97.28,13.52.4ZM415.62,118.74v16.02h-13.74v-16.55c.07,0,.13,0,.2,0,4.48.2,9.03.37,13.54.53ZM401.21,118.17v16.58h-13.74v-17.25c.06,0,.12,0,.18,0,4.54.24,9.09.46,13.56.66ZM386.81,117.47v17.29h-13.74v-18.09c.05,0,.11,0,.16.01,4.53.29,9.1.55,13.58.8ZM372.41,116.62v18.14h-13.74v-19.08s.09,0,.14.01c4.48.33,9.05.64,13.6.94ZM358,115.62v19.13h-13.74v-20.22s.08,0,.12.01c4.45.37,9.03.74,13.62,1.08ZM343.6,114.48v20.27h-13.74v-21.5s.06,0,.1,0c4.57.43,9.15.84,13.64,1.22ZM329.19,113.19v21.56h-13.74v-22.94s.05,0,.08,0c4.45.47,9.04.93,13.67,1.37ZM314.79,111.74v23.01h-13.74v-24.54s.04,0,.05,0c4.58.53,9.18,1.04,13.69,1.52ZM300.38,110.14v24.62h-13.74v-26.29s.02,0,.03,0c4.56.58,9.17,1.14,13.71,1.67ZM285.98,108.37v26.38h-13.74v-28.22s0,0,.01,0c4.48.63,9.1,1.24,13.73,1.84ZM271.58,106.44v28.31h-13.74v-30.31c4.52.69,9.14,1.36,13.74,2ZM257.17,104.34v30.41h-13.74v-32.58c4.48.74,9.1,1.47,13.74,2.17ZM242.77,102.07v32.69h-13.74v-35.03c4.65.82,9.27,1.61,13.74,2.34ZM228.36,99.61v35.15h-13.74v-37.67c4.43.85,9.05,1.69,13.74,2.52ZM213.96,96.96v37.8h-13.74v-40.51c4.62.94,9.24,1.85,13.74,2.71ZM199.55,94.11v40.64h-13.74v-43.56c4.45.98,9.07,1.95,13.74,2.91ZM185.15,91.05v43.7h-13.74v-46.82c4.47,1.05,9.09,2.1,13.74,3.12ZM170.75,87.78v46.98h-13.74v-50.32c4.51,1.13,9.13,2.25,13.74,3.34ZM156.34,84.27v50.48h-13.74v-54.06c4.51,1.21,9.13,2.41,13.74,3.58ZM141.94,80.51v54.24h-13.74v-58.06c4.51,1.3,9.13,2.58,13.74,3.83ZM127.53,76.5v58.26h-13.74v-62.35c4.51,1.39,9.12,2.76,13.74,4.09ZM113.13,72.2v62.56h-13.74v-66.95c4.43,1.46,9.05,2.94,13.74,4.39ZM-45.32-8.68v143.43h-13.74V-23.1c4.07,4.85,8.69,9.7,13.74,14.42ZM-59.72-23.89v158.65h-13.74V-44.32c3.61,6.88,8.22,13.75,13.74,20.43ZM-81.92-67.83c1.48,7.44,4.09,14.88,7.77,22.17,0,.02.02.04.03.06v180.25h-.13c-2.56-2.44-5.11-4.22-7.67-5.32V-67.83ZM995.92,194.71l13.09-32.78v-2.01h0v-2.97h0v56.37c-2.8-6.51-7.2-12.76-13.09-18.6ZM1009.67,134.83v-.07h-2.81V-40.72s.02-.03.03-.05c.44-.76.85-1.5,1.24-2.21,4.29-7.9,7.32-15.99,9.01-24.07v195.79c-2.49,1.27-4.98,3.3-7.46,6.09Z"/><rect class="cls-5" x="-.14" y="139.84" width="1024.15" height="116.16"/></g><g id="Layer_3"><image width="966" height="964" transform="translate(115.44 12.24) scale(.24)" xlink:href="Artboard 1-1.png"/><path class="cls-13" d="M256.95,221.78c-7.12,3.55-14.52,6.49-22.04,8.72-8.63,2.58-17.78,4.3-27.18,5.11l-6.94.6c-.1,0-.19,0-.29,0-2.23,0-4.4-1.09-5.83-2.92l-38.95-38.95c-1.73-1.73-2.68-4.03-2.68-6.47v-44.23c0-9.43,7.66-20.39,13.82-29.2,3.02-4.32,5.63-8.07,6.57-10.58l-.99-1.52c-3.64-5.6-7.39-11.39-10.84-17.28-2.26-3.85-3.97-7.06-5.4-10.13-.84-1.89-1.58-3.6-2.14-5.39-.55-1.74-1.13-3.77-1.03-5.82v-8.96c.15,4.61,1.79,10.12,2.28,11.79.54,1.85,1.3,3.6,2.05,5.36,1.58,3.48,3.38,6.84,5.29,10.13,3.79,6.59,7.95,12.93,12.05,19.27,4.16,6.31,8.29,12.62,12.21,19.04,1.93,3.22,3.82,6.48,5.46,9.84.61,1.23,1.18,2.48,1.69,3.76,1.09,3.11,1.97,6.38,1.87,9.68v47.89h0v24.06l.13,6.85.09,3.42.05,1.78c.02.82.21,1.64.48,2.42,1.1,3.15,4.31,5.32,7.56,5.22l7-.68c4.59-.47,9.19-1.17,13.72-2.05,2.26-.5,4.53-.94,6.76-1.56l3.35-.88,3.31-1.01c6.36-1.98,12.56-4.44,18.54-7.33Z"/><path class="cls-12" d="M154.32,66.72s0,.01,0,.02l.03.11c.54,1.86,1.31,3.63,2.04,5.35l.06.14c1.43,3.15,3.12,6.4,5.33,10.21,3.45,6.01,7.27,11.89,10.95,17.57l1.13,1.75c4.41,6.69,8.36,12.74,12.19,19,2.13,3.57,3.87,6.6,5.42,9.77.68,1.39,1.21,2.56,1.65,3.65.9,2.55,1.91,5.92,1.82,9.35v48.89h0v23.07s.13,6.86.13,6.86l.09,3.43.05,1.78c.03.85.21,1.76.54,2.72.72,2.06,2.22,3.75,4.08,4.79-1.69-.19-3.29-1.09-4.38-2.5l-.04-.05-.04-.04-38.95-38.95c-1.54-1.54-2.39-3.59-2.39-5.77v-44.23c0-9.11,7.56-19.93,13.64-28.63,3.06-4.38,5.71-8.17,6.69-10.8l.18-.47-.27-.42-.99-1.52c-3.62-5.58-7.37-11.34-10.81-17.24-2.23-3.8-3.93-6.99-5.35-10.03-.82-1.85-1.55-3.53-2.1-5.28-.25-.79-.51-1.65-.7-2.53M153.04,54.78v8.96c-.11,2.04.47,4.07,1.03,5.82.56,1.79,1.3,3.5,2.14,5.39,1.43,3.07,3.14,6.28,5.4,10.13,3.44,5.89,7.2,11.68,10.84,17.28l.99,1.52c-.94,2.51-3.55,6.26-6.57,10.58-6.16,8.81-13.82,19.78-13.82,29.2v44.23c0,2.44.95,4.75,2.68,6.47l38.95,38.95c1.43,1.83,3.6,2.92,5.83,2.92.1,0,.19,0,.29,0l6.94-.6c9.4-.82,18.55-2.54,27.18-5.11,7.53-2.24,14.92-5.17,22.04-8.72-5.98,2.89-12.18,5.35-18.54,7.33l-3.31,1.01-3.35.88c-2.23.62-4.5,1.06-6.76,1.56-4.54.89-9.13,1.58-13.72,2.05l-7,.68c-.07,0-.14,0-.21,0-3.18,0-6.27-2.15-7.35-5.23-.27-.78-.46-1.6-.48-2.42l-.05-1.78-.09-3.42-.13-6.85v-24.06h0v-47.89c.09-3.31-.78-6.58-1.87-9.68-.51-1.28-1.09-2.53-1.69-3.76-1.64-3.37-3.53-6.62-5.46-9.84-3.92-6.42-8.06-12.73-12.21-19.04-4.11-6.34-8.26-12.68-12.05-19.27-1.9-3.29-3.71-6.65-5.29-10.13-.75-1.76-1.52-3.51-2.06-5.36-.49-1.67-2.12-7.18-2.28-11.79h0Z"/><path class="cls-14" d="M281.11,35.09c-5.39-4.01-11.02-7.71-16.9-11-7.84-4.39-16.13-8.04-24.74-10.79-8.6-2.75-17.51-4.69-26.53-5.69l-6.69-.68-.8-.09-.42-.04-.58-.04c-.78-.02-1.58.05-2.35.27-1.53.41-2.95,1.3-3.98,2.53-1.05,1.21-1.7,2.78-1.86,4.38l-.04.6v.44s-.03.84-.03.84l-.04,1.68-.19,6.62v26.02h0v13.6c0,7.42-7.26,17.48-13.08,25.56-2.67,3.7-5.04,6.99-6.42,9.55l-11.92-17.95c-2.05-3.16-4.09-6.33-5.92-9.6-.92-1.63-1.82-3.29-2.56-5-.72-1.72-2.81-7.21-3.01-12.84,0-2.43.99-4.8,2.71-6.5l39-38.68.05-.05c.05-.07.1-.13.15-.19.99-1.15,2.33-1.98,3.78-2.34.56-.15,1.18-.23,1.84-.23.13,0,.26,0,.42,0l1.73.16,1.93.16c1.56.13,3.18.26,4.77.42,9.07.89,18,2.68,26.56,5.33,8.51,2.61,16.89,6.13,24.91,10.47,2.14,1.15,4.35,2.43,6.95,4.02,4.68,2.79,9.11,5.82,13.28,9.06Z"/><path class="cls-21" d="M200.56,6.47s.06,0,.09,0c-1.27.54-2.41,1.38-3.29,2.43-1.17,1.36-1.92,3.11-2.1,4.97l-.05.65v.44s-.03.84-.03.84l-.04,1.67-.19,6.65v25.02h0v14.6c0,7.1-7.15,17-12.9,24.97-2.16,2.99-4.22,5.84-5.67,8.24l-11.02-16.59c-2.26-3.5-4.14-6.42-5.89-9.55-.87-1.54-1.78-3.21-2.51-4.9-.64-1.52-2.74-6.9-2.93-12.45,0-2.16.88-4.27,2.41-5.79l39-38.68.05-.05.06-.06.05-.06s.06-.08.1-.13c.85-1,2.01-1.71,3.29-2.03.48-.13,1.01-.2,1.57-.2M200.56,5.47c-.66,0-1.28.08-1.84.23-1.45.36-2.8,1.19-3.78,2.34-.05.06-.1.12-.15.19l-.05.05-39,38.68c-1.72,1.71-2.71,4.08-2.71,6.5.2,5.63,2.29,11.12,3.01,12.84.74,1.72,1.64,3.37,2.56,5,1.84,3.27,3.88,6.44,5.92,9.6l11.92,17.95c1.38-2.56,3.75-5.86,6.42-9.55,5.83-8.08,13.08-18.13,13.08-25.56v-13.6h0v-26.02l.19-6.62.04-1.68.02-.84v-.44s.06-.6.06-.6c.16-1.6.81-3.17,1.86-4.38,1.03-1.23,2.44-2.12,3.98-2.53.68-.19,1.38-.27,2.07-.27.09,0,.18,0,.27,0l.58.04.42.04.8.09,6.69.68c9.01.99,17.92,2.94,26.53,5.69,8.61,2.76,16.9,6.4,24.74,10.79,5.88,3.29,11.51,6.99,16.9,11-4.17-3.24-8.6-6.27-13.28-9.06-2.6-1.6-4.81-2.88-6.95-4.02-8.02-4.33-16.4-7.86-24.91-10.47-8.56-2.64-17.49-4.43-26.56-5.33-1.59-.16-3.21-.3-4.77-.42l-1.93-.16-1.73-.16c-.16,0-.29,0-.42,0h0Z"/><path class="cls-20" d="M285,37.87c-6.45-4.75-13.2-9.11-20.3-12.84-7.91-4.16-16.23-7.56-24.81-10.07-8.58-2.5-17.4-4.18-26.31-4.93l-6.69-.5c-1.11-.09-2.24-.26-3.31.1-1.06.3-2.04.94-2.73,1.8-.71.85-1.13,1.93-1.22,3.03-.05,1.11-.01,2.23-.02,3.35l-.02,6.62v26.1c45.91,1.53,82.69,32.61,82.69,70.62s-36.78,69.1-82.69,70.62v24.13l.02,6.85v3.42c.01,1.14-.09,2.3.3,3.37.71,2.17,2.89,3.72,5.18,3.7l6.83-.49c4.55-.35,9.08-.91,13.58-1.67,2.24-.44,4.49-.81,6.71-1.37l3.33-.78,3.3-.91c8.78-2.48,17.31-5.88,25.4-10.1,5.34-2.77,10.46-5.93,15.42-9.32,13.17-9.79,24.16-21.9,32.01-35.36,9.47-16.23,14.27-33.76,14.27-52.1,0-31.8-15.02-61.81-40.95-83.28Z"/><path class="cls-16" d="M205.08,9.41c.6,0,1.2.07,1.8.12l6.69.5c8.91.75,17.73,2.44,26.31,4.93,8.58,2.51,16.9,5.9,24.81,10.07,7.1,3.73,13.84,8.08,20.3,12.84,25.94,21.47,40.95,51.48,40.95,83.28,0,18.34-4.8,35.87-14.27,52.1-7.85,13.46-18.84,25.57-32.01,35.36-4.96,3.4-10.09,6.55-15.42,9.32-8.09,4.22-16.62,7.62-25.4,10.1l-3.3.91-3.33.78c-2.21.55-4.47.93-6.71,1.37-4.5.76-9.03,1.33-13.58,1.67l-6.83.49s-.03,0-.05,0c-2.26,0-4.42-1.55-5.13-3.7-.39-1.07-.29-2.23-.31-3.37v-3.42s-.02-6.85-.02-6.85v-24.13c45.91-1.53,82.69-32.61,82.69-70.62s-36.78-69.1-82.69-70.62v-26.1l.02-6.62c.01-1.12-.03-2.24.02-3.35.09-1.1.51-2.18,1.22-3.03.69-.86,1.66-1.5,2.73-1.8.49-.16,1-.21,1.51-.21M205.08,8.41c-.68,0-1.28.09-1.82.26-1.23.35-2.38,1.11-3.2,2.13-.81.97-1.33,2.25-1.44,3.58-.04.78-.03,1.52-.03,2.25,0,.39,0,.78,0,1.17l-.02,6.63v27.07l.97.03c45.83,1.52,81.73,32.11,81.73,69.62s-35.9,68.1-81.73,69.63l-.97.03v25.1l.02,6.85v3.42c0,.22,0,.43,0,.64,0,1-.02,2.04.37,3.08.83,2.51,3.38,4.36,6.06,4.36h.06s.03,0,.03,0h.03s6.83-.49,6.83-.49c4.49-.34,9.09-.91,13.68-1.68.61-.12,1.2-.23,1.79-.34,1.64-.31,3.34-.63,5-1.04l3.32-.78,3.34-.92c8.79-2.48,17.4-5.9,25.6-10.17,5.1-2.65,10.18-5.72,15.53-9.39,13.29-9.87,24.45-22.21,32.31-35.68,9.56-16.39,14.41-34.09,14.41-52.6,0-15.92-3.65-31.38-10.85-45.96-7.14-14.46-17.39-27.27-30.46-38.09l-.02-.02-.02-.02c-6.98-5.14-13.66-9.36-20.42-12.92-8.05-4.24-16.46-7.65-25-10.14-8.78-2.55-17.7-4.23-26.51-4.97l-6.7-.51-.45-.04c-.46-.04-.94-.08-1.43-.08h0Z"/><polygon class="cls-8" points="234.17 140.61 239.03 143.88 79.02 143.88 79.02 140.61 234.17 140.61"/><polygon class="cls-8" points="377.78 140.61 377.78 143.88 272.89 143.88 268.04 140.61 377.78 140.61"/><path class="cls-6" d="M270.67,113.96v14.96h34.59v8.41h-42.07l-7.48-5.04v-18.36c0-2.31.94-4.41,2.45-5.93,1.51-1.51,3.61-2.45,5.93-2.45h41.17v8.41h-34.59Z"/><rect class="cls-6" x="79.02" y="105.55" width="14.96" height="8.41"/><path class="cls-6" d="M165.03,125.65v3.27h34.59v8.41h-41.17c-2.32,0-4.41-.94-5.93-2.46-1.51-1.52-2.45-3.61-2.45-5.93v-11.71h49.55v8.41h-34.59Z"/><polygon class="cls-6" points="146.8 105.55 146.8 137.33 131.84 137.33 112.21 124.1 112.21 137.33 97.25 137.33 97.25 99 131.84 122.34 131.84 105.55 146.8 105.55"/><path class="cls-6" d="M93.98,117.23v20.1h-6.58c-2.32,0-4.41-.94-5.93-2.45-1.51-1.52-2.45-3.62-2.45-5.93v-11.72h14.96Z"/><rect class="cls-6" x="308.54" y="105.55" width="14.96" height="8.41"/><path class="cls-6" d="M323.49,117.23v11.72c0,2.31-.94,4.41-2.45,5.93-1.51,1.51-3.61,2.45-5.93,2.45h-6.58v-20.1h14.96Z"/><rect class="cls-6" x="150.07" y="105.55" width="14.96" height="8.41"/><path class="cls-6" d="M267.04,143.88h-22.16l-27.03-18.23v11.69h-14.96v-11.72c0-2.32.94-4.41,2.45-5.93,1.52-1.51,3.62-2.45,5.93-2.45h26.21v-3.27h-72.45l12.47-8.41h66.56c2.32,0,4.41.94,5.93,2.45,1.51,1.52,2.45,3.62,2.45,5.93v3.34c0,2.31-.94,4.41-2.45,5.93-1.51,1.51-3.61,2.45-5.93,2.45h-4.04l27.02,18.23Z"/><polygon class="cls-4" points="373.87 105.55 373.87 108.82 341.99 108.82 337.14 105.55 373.87 105.55"/><polygon class="cls-4" points="373.87 112.56 373.87 115.83 352.38 115.83 347.53 112.56 373.87 112.56"/><polygon class="cls-3" points="373.87 120.04 373.87 123.31 363.47 123.31 358.62 120.04 373.87 120.04"/><polygon class="cls-1" points="373.87 127.05 373.87 130.32 369.02 127.05 373.87 127.05"/><rect class="cls-19" x="373.87" y="105.55" width="10.4" height="3.27"/><rect class="cls-19" x="373.87" y="112.56" width="10.4" height="3.27"/><rect class="cls-17" x="373.87" y="120.04" width="10.4" height="3.27"/><rect class="cls-2" x="373.87" y="127.05" width="10.4" height="3.27"/><polygon class="cls-2" points="384.26 134.06 384.26 137.33 384.26 137.33 379.41 134.06 384.26 134.06"/><polygon class="cls-6" points="378.46 137.33 356.22 137.33 341.73 127.56 341.73 137.33 326.77 137.33 326.77 102.47 378.46 137.33"/><rect class="cls-7" x="377.78" y="140.61" width="6.49" height="3.27" transform="translate(762.04 284.48) rotate(180)"/><polygon class="cls-6" points="168.3 107.92 168.3 99 181.78 99 168.3 107.92"/><g class="cls-18"><path class="cls-10" d="M120.79,188.27c-.17-4.51,0-14.14.27-15.35.34-1.55.96-2.71,2.01-3.81,1.11-1.16,2.23-1.86,3.84-2.4,2.68-.89,2.98-.91,15.64-1.03,11.11-.1,11.91-.13,12.36-.42.93-.61,1.26-2.34.7-3.74-.5-1.23-.59-1.25-9.35-1.19-7.61.05-7.62.05-8.45.46-.72.35-.86.51-1.03,1.17l-.2.76-3.82.03c-2.1.02-5.63.04-7.85.04h-4.03s0-2.69,0-2.69c0-4.01.65-6.09,2.36-7.59.74-.64,2.31-1.44,3.36-1.69.43-.1.97-.24,1.21-.29.24-.06,1.6-.22,3.03-.35,3.8-.36,28.35-.36,31.46,0,4.49.53,6.75,1.55,8.13,3.7.62.96.78,1.43,1.15,3.31.34,1.74.35,10.36.01,11.76-.81,3.35-3.02,5.27-7.12,6.19-2.97.66-4.25.73-15.17.74-11.47.01-11.53.02-12.2.92-.3.4-.37.79-.42,2.36l-.06,1.89,17.56.04,17.56.04.05,5.23.05,5.23h-50.92l-.12-3.33ZM187.78,191.42c-1.92-.14-4.01-.52-5.23-.95-1.21-.42-2.12-1.04-3.06-2.06-1.31-1.43-1.75-3.13-1.81-5.03-.13-4.17-.04-8.35-.04-12.52,0-15.37-.03-14.89,1.23-16.98,1.36-2.24,3.56-3.2,8.47-3.69,3.59-.36,29.22-.35,32.41,0,4.61.52,7.02,1.66,8.2,3.86,1.19,2.23,1.16,1.76,1.16,16.72,0,3.86.06,7.71.03,11.57-.01,2.44-.56,4.67-2.27,6.47-1.56,1.65-4.2,2.4-9.29,2.63-3.8.18-27.35.16-29.81-.02ZM211.97,180.72c.21-.08.41-.19.6-.33.25-.18.47-.4.6-.68.47-.92.24-2.54.25-3.58.01-1.73,0-3.46,0-5.2,0-2.79.04-5.6-.1-8.38-.02-.45-.12-.92-.4-1.27-.3-.37-.78-.56-1.25-.65-1.77-.34-3.67-.24-5.46-.24-2.21,0-4.42,0-6.64.04-1.65.03-4.46-.17-5.37.74-.17.17-.35.34-.45.55-.34.69-.19,1.65-.22,2.4-.03.57-.02,1.14-.03,1.71-.02,1.65-.02,3.3-.02,4.94,0,2.7-.02,5.4.09,8.09.02.5.13,1.03.46,1.4.82.9,2.73.7,3.87.72,1.85.04,3.69.03,5.54.03,1.78,0,3.57.01,5.35-.01,1.01-.01,2.19.08,3.15-.31ZM235.04,191.49c-.2-.2-.13-16.61.07-17.85.52-3.14,1.93-5.1,4.55-6.34,3.03-1.44,5.08-1.61,18.48-1.63,5.19,0,9.76-.08,10.14-.17.41-.1.89-.37,1.17-.69.43-.48.48-.66.47-1.78,0-1.51-.23-2.02-1.1-2.43-.61-.29-1.25-.31-8.4-.26l-2.89.02-2.4.02c-1.01,0-1.99-.19-2.95.26-.39.18-.73.46-.99.8-.3.4-.38.84-.54,1.3-2.25-.06-4.5-.03-6.75-.04-.36,0-.72,0-1.07,0,0,0-7.83-.04-7.83-.04l-.05-1.84c-.06-2.34.3-4.82.9-6.14.56-1.22,1.79-2.53,2.93-3.11,1.24-.63,3.18-1.08,5.92-1.36,1.89-.19,5.45-.25,16.03-.25,14.09,0,16.34.09,18.91.76,3.35.88,5.27,2.79,5.99,5.96.35,1.56.52,9.23.25,11.35-.56,4.38-3.41,6.7-9.29,7.56-.67.1-6.4.23-12.74.29-10.55.1-11.57.13-12.08.41-.31.17-.63.44-.72.61-.26.49-.41,2.22-.28,3.24l.12.95,17.53.04,17.53.04.05,5.23.05,5.23h-25.45c-14,0-25.5-.05-25.57-.12ZM301.91,191.42c-9.53-.76-10.33-4.99-10.14-12.78h15.94c-.12.82.49,1.81,1.3,2.17.49.2,2.04.25,8.68.25,7.91,0,8.1,0,8.68-.36,1.51-.9,1.64-5.25-.57-5.17-8.45-.02-33.95-.09-33.95-.09l-.09-25.51h50.79v10.46l-34.67-.06v4.93s17.39-.11,20.34-.11,5.6.54,7.87,1.29c3.41,1.13,5.6,3.27,6.39,6.22.35,1.3.33,11.24-.02,12.59-1.07,4.11-3.86,5.75-10.47,6.17-3.13.2-27.77.19-30.09-.01Z"/></g></g></g></svg>