<svg width="100%" height="34" viewBox="0 0 4601.53 1016.09" fill="#ffffff">
							<g>
								<path d="M4463.59,500.33c5.23,1.92,9.86,3.54,14.43,5.32c27.83,10.8,47.11,29.62,54.75,59.05c4.69,18.06,4.05,36.36,0.52,54.44
										c-4.61,23.65-13.05,45.98-24.59,67.22c-16.32,30.04-41.19,51.07-70.28,67.71c-28.94,16.55-60.41,25.85-93.05,31.69
										c-26.93,4.82-54.1,6.57-81.42,6.57c-77.64,0.01-155.28,0.05-232.92,0.07c-2.33,0-4.68-0.02-6.99-0.28
										c-9.56-1.06-14.98-6.95-14.92-16.63c0.02-3.61,0.7-7.28,1.54-10.81c15.8-66.3,31.64-132.58,47.52-198.86
										c25.64-107.01,51.3-214.01,76.96-321.01c0.62-2.59,1.19-5.19,1.97-7.73c2.94-9.48,7.38-12.91,17.31-13.46
										c1.33-0.07,2.66-0.08,4-0.08c80.3,0.17,160.63-0.6,240.91,0.92c39.27,0.74,78.17,7.24,114.64,23.43
										c18.81,8.35,35.64,19.49,47.9,36.5c14.52,20.15,18.86,42.87,16.84,67.16c-1.52,18.29-4.35,36.35-10.89,53.59
										c-15.35,40.53-43.13,68.95-83.53,84.92c-6.18,2.44-12.38,4.8-18.55,7.28C4465.25,497.54,4464.99,498.35,4463.59,500.33z
										 M4248.72,677.65c0-0.03,0-0.07,0-0.1c11.32,0,22.66,0.53,33.94-0.12c20.06-1.14,39.54-5.14,57.42-14.86
										c15.04-8.18,26.89-19.55,33.71-35.49c10.73-25.07,1.68-51.65-21.93-64.03c-10.39-5.45-21.6-8.73-33.4-9.03
										c-24.93-0.63-49.87-0.96-74.81-1.35c-3.65-0.06-7.34-0.03-10.96,0.39c-13.45,1.54-18.75,5.9-22.05,19.15
										c-6.57,26.42-12.97,52.89-19.1,79.42c-3.47,15,5.05,25.73,20.24,25.98C4224.09,677.81,4236.4,677.65,4248.72,677.65z
										 M4283.36,461.7c0,0.03,0,0.06,0,0.1c7.99,0,15.98,0.26,23.95-0.05c24.22-0.92,47.44-6.14,68.75-17.96
										c19.98-11.08,34.81-26.83,40.09-49.69c6.55-28.32-2.71-47.68-29.93-57.86c-13.8-5.16-28.22-7.67-42.88-7.97
										c-20.29-0.41-40.59-0.21-60.89-0.21c-12.83,0.01-15.04,1.58-18.08,13.63c-8.52,33.8-16.96,67.62-25.34,101.46
										c-3.11,12.55,1.2,18.14,14.37,18.48C4263.39,461.91,4273.38,461.7,4283.36,461.7z" />
								<path
									d="M3158.22,620.4c-21.32,0-42.65-0.05-63.97,0.02c-10.98,0.04-11.45,0.45-14.07,11.2c-11.36,46.5-22.67,93.01-34.01,139.51
										c-0.47,1.94-0.95,3.87-1.48,5.79c-3.27,11.79-7.4,15.12-19.84,15.4c-9.66,0.22-19.32,0.08-28.99,0.08
										c-26.99,0-53.98,0.15-80.96-0.18c-4.75-0.06-10.25-1.04-14.03-3.62c-6.17-4.21-7.82-10.76-5.93-18.55
										c11.91-49.1,23.48-98.29,35.24-147.42c26.08-108.94,52.22-217.86,78.33-326.79c4.34-18.1,8.6-36.22,12.97-54.31
										c3.4-14.06,7.96-17.97,22.04-17.95c88.96,0.09,177.92-0.49,266.86,0.83c36.48,0.54,71.96,8.98,104.21,27.31
										c37.78,21.47,59.88,53.59,65.8,96.93c2.56,18.75,1.59,37.12-2.26,55.48c-5.19,24.76-11.17,49.28-20.85,72.76
										c-24.4,59.17-67.75,98.54-127.06,120.93c-30.01,11.33-61.16,18.24-93.21,20.17c-26.23,1.58-52.51,2.26-78.77,3.34
										C3158.24,621.03,3158.23,620.71,3158.22,620.4z M3203.44,342.16c0-0.01,0-0.02,0-0.03c-16.31,0-32.62-0.05-48.93,0.02
										c-9.56,0.04-9.6,0.15-11.93,9.54c-0.24,0.97-0.36,1.96-0.57,2.94c-6,27.92-12.02,55.84-18.02,83.76
										c-3.49,16.23-7.08,32.44-10.4,48.71c-1.3,6.38-0.15,7.58,6.24,8.2c1.32,0.13,2.66,0.09,3.99,0.09
										c27.63-0.01,55.27,0.37,82.89-0.16c18.97-0.37,37.87-2.45,55.62-9.93c30.41-12.82,51.56-34.13,58.15-67.22
										c7.13-35.79-9.27-60.92-39.85-70.37c-10.33-3.19-21.42-4.69-32.26-5.33C3233.44,341.5,3218.42,342.16,3203.44,342.16z" />
								<path
									d="M2855.66,412.16c-19.33,0-38.66,0.07-57.98-0.03c-10.84-0.05-16.15-3.42-19.26-13.82c-5.78-19.34-18.95-31.92-36.46-40.08
										c-21.85-10.19-44.88-13.66-69.03-10.3c-45.61,6.35-81.1,28.78-106.27,66.94c-6.87,10.42-12.69,22.19-15.98,34.17
										c-9.97,36.2-18.98,72.69-27.31,109.3c-4.45,19.55-4.85,39.5,0.27,59.33c7.34,28.42,25.91,45.16,53.84,51.56
										c17.88,4.1,36.16,5.49,54.54,2.79c8.54-1.26,17.29-1.46,25.66-3.35c29.59-6.7,52.09-23.53,66.3-50.22
										c6.19-11.62,14.2-15.72,27.12-15.45c33.98,0.72,67.98,0.24,101.97,0.25c2.67,0,5.34-0.06,7.99,0.14
										c11.75,0.86,18.68,9.98,15.87,21.34c-4.77,19.22-13.07,37.02-23.12,53.97c-25.75,43.44-63.48,73.04-109.22,92.97
										c-33.48,14.58-68.61,23.11-104.99,26.25c-16.23,1.4-32.51,3.55-48.75,3.4c-49.56-0.47-98.49-5.09-143.04-29.73
										c-44.05-24.36-73.04-60.36-83.12-110.27c-4.79-23.73-5.22-47.9,0.06-71.4c12.32-54.8,24.28-109.77,39.47-163.81
										c15.55-55.33,48.44-100.34,93.01-136.62c45.94-37.39,98.17-60.62,156.8-69.85c18.83-2.97,37.7-4.1,56.66-4.34
										c38.72-0.48,77.3,1.44,114.61,12.75c15.52,4.71,30.82,10.76,45.37,17.95c34.93,17.25,54.93,46.45,63.25,83.91
										c4.73,21.27,6.66,42.7,0.74,64.19c-4.02,14.59-8.2,18.04-23.01,18.07C2892.98,412.19,2874.32,412.16,2855.66,412.16z" />
								<path d="M3973.6,412.16c-19.33,0-38.66,0.06-57.98-0.02c-10.69-0.05-15.88-3.15-18.91-12.81c-9.05-28.85-31.25-42.09-58.34-48.78
										c-75.13-18.55-153.26,32.61-171.78,104.05c-8.01,30.89-15.88,61.83-23.27,92.88c-4.95,20.81-7.22,41.85-3.45,63.31
										c5.42,30.87,25.63,52.46,56.36,58.68c17.68,3.58,35.53,5.2,53.57,2.57c8.54-1.24,17.3-1.41,25.67-3.32
										c29.92-6.85,52.51-23.99,66.92-51c5.57-10.43,12.68-14.83,24.55-14.65c35.32,0.53,70.64,0.19,105.97,0.2c2,0,4-0.02,6,0.11
										c12.03,0.8,19.02,10.45,15.8,22.28c-5.46,20.06-14.14,38.76-25.04,56.4c-25.77,41.69-62.73,70.21-107.13,89.6
										c-33.47,14.62-68.61,23.09-104.99,26.26c-16.23,1.41-32.51,3.55-48.75,3.4c-49.21-0.45-97.8-4.98-142.16-29.22
										c-44.52-24.33-73.81-60.46-84.07-110.7c-4.84-23.71-4.97-47.81,0-71.4c7.94-37.72,17.26-75.16,25.93-112.73
										c5.46-23.66,10.86-47.33,19.8-70c20.07-50.91,52.7-92.23,96.13-125.15c43.82-33.21,92.99-53.8,147.38-62.44
										c30.47-4.84,61-4.71,91.63-3.73c29.72,0.95,59.03,4.97,87.29,14.28c13.53,4.46,26.81,10.14,39.47,16.68
										c26.84,13.86,45.64,35.16,55.81,63.84c8.94,25.21,12.67,50.9,7.89,77.47c-0.64,3.59-1.5,7.17-2.67,10.62
										c-3.18,9.39-8.49,13.25-18.65,13.31C4012.93,412.23,3993.26,412.15,3973.6,412.16z" />
								<path d="M57.32,658.89c7.08,13.16,13.51,26.72,21.36,39.41c40.91,66.05,97,114.32,169.63,142.83
										c33.58,13.18,68.4,21.31,104.09,26.65c42.06,6.29,84.33,7.31,126.52,5.06c75.63-4.03,150.04-16,221.8-41.34
										c47.8-16.88,94.8-35.8,137.83-62.89c55.26-34.78,102.81-78.06,139.79-132.31c1.31-1.93,2.87-3.7,4.04-5.7
										c3.59-6.13,8.86-8.08,15.88-8.06c82.97,0.32,165.95,0.43,248.92,0.62c2.29,0.01,4.57,0.34,8.36,0.64c-2.34,4.85-4,9.04-6.26,12.88
										c-16.95,28.79-36.99,55.38-58.91,80.51c-59.9,68.69-129.76,125.11-209.69,169.03c-76.64,42.12-158.04,71.75-243.11,91.25
										c-33.97,7.79-68.33,14.11-102.75,19.64c-46.16,7.42-92.83,8.59-139.42,6.06c-32.5-1.76-64.72-6.96-96.66-13.59
										c-51.05-10.59-100.35-26.28-146.95-49.86c-59.16-29.94-108.51-71.22-143.97-127.66c-26.32-41.91-43.06-87.63-49.94-136.78
										c-0.77-5.5-1.4-11.03-2.09-16.54C56.32,658.79,56.82,658.84,57.32,658.89z" />
								<path d="M2074.09,792.41c-62.98,0-125.97,0-188.95,0c-3.67,0-7.34,0.08-10.99-0.11c-13.18-0.7-19.97-9.27-17.02-22.09
										c6.27-27.21,12.8-54.37,19.3-81.52c30.13-125.77,60.29-251.53,90.43-377.3c5.66-23.6,11.2-47.23,16.94-70.8
										c3.23-13.25,7.92-16.96,21.76-17c35.99-0.11,71.99,0.38,107.97-0.22c17.72-0.29,23.33,11.15,19.64,26.03
										c-12.9,51.95-25.09,104.07-37.61,156.12c-18.26,75.97-36.56,151.92-54.84,227.88c-0.54,2.26-1.08,4.54-1.44,6.83
										c-1.88,12.02,6.59,22.78,18.78,23.3c9.31,0.4,18.66,0.14,27.99,0.14c67.65,0.01,135.3,0,202.94,0.01c3.33,0,6.71-0.2,9.98,0.28
										c11.75,1.74,18.14,10.33,15.66,22.06c-3.99,18.86-8.56,37.6-12.94,56.37c-2.42,10.36-4.91,20.7-7.41,31.04
										c-3.83,15.83-7.66,18.93-24.24,18.95C2204.72,792.44,2139.41,792.4,2074.09,792.41z" />
								<path
									d="M1802.24,223.53c25.99,0,51.98-0.08,77.98,0.08c4.24,0.03,8.84,0.27,12.64,1.89c7.62,3.25,10.45,11.44,8.23,21.21
										c-8.91,39.22-17.54,78.52-26.86,117.64c-17.74,74.39-35.65,148.74-53.97,222.99c-7.84,31.76-19.23,62.29-35.88,90.66
										c-26.8,45.68-66.26,76.7-114.04,97.89c-33.17,14.71-68.01,21.94-104.26,24.52c-21.44,1.52-42.66,0.15-63.82-1.11
										c-27.49-1.64-54.78-6.23-81.55-13.17c-14.49-3.75-19.21-11.21-15.79-25.68c5.2-22,10.58-43.96,15.9-65.92
										c2.35-9.69,4.74-19.38,7.15-29.06c3.89-15.64,10.05-20.01,25.74-17.71c14.13,2.07,28.15,4.98,42.31,6.69
										c33.41,4.03,66.84,6.54,100.28-0.37c25.8-5.33,44.43-20.22,57.89-42.25c12.47-20.39,19.99-42.82,25.6-65.8
										c13.4-54.89,26.29-109.91,39.21-164.93c4.06-17.27-3.22-27.62-20.76-30.53c-14.52-2.4-20.08-10.22-16.94-24.39
										c6.26-28.23,12.62-56.45,19.12-84.63c3.39-14.72,7.58-17.95,22.88-18C1749.59,223.46,1775.92,223.53,1802.24,223.53z" />
								<path d="M366.32,152.22c21.58-10.31,43.04-20.85,64.75-30.88c52.01-24.03,105.16-45.19,159.9-62.24
										c49.25-15.35,99.21-27.44,150.27-35.34c51.9-8.03,104.1-10.75,156.27-7.15c116.52,8.04,221.48,46.34,310.32,124.07
										c25.42,22.24,47.68,47.41,67.14,75.01c2.4,3.4,4.23,7.18,7.36,12.56c-5.28,0-8.47,0-11.67,0c-82.3,0-164.6-0.13-246.9,0.17
										c-8.4,0.03-12.88-2.93-17.49-9.81c-32.61-48.72-76.36-83.82-131.19-104.97c-34.31-13.23-69.76-21.43-106.33-25.41
										c-25.86-2.82-51.73-4.47-77.7-3.6c-28.58,0.96-57.01,3.57-85.38,7.43c-66.45,9.04-131,25.78-194.6,46.52
										c-14.78,4.82-29.28,10.51-43.91,15.81C366.88,153.67,366.6,152.94,366.32,152.22z" />
								<path d="M549.59,477.75c-4.8,3.18-9.48,6.18-14.06,9.32c-16.09,11.04-33.83,17.03-53.37,16.81c-10.08-0.11-19.79-2.56-28.42-8.12
										c-10.79-6.95-16.56-16.88-17.83-29.66c-2.34-23.53,6.08-43.96,18.87-62.73c18.96-27.82,43.66-48.41,77.19-56.36
										c11.29-2.68,22.74-4.36,34.58-1.76c7.83,1.72,14.56,4.38,19.55,10.8c0.76,0.97,1.91,1.64,2.66,2.28c1.11-0.35,2.12-0.37,2.29-0.76
										c3.83-8.61,10.66-10.62,19.47-9.85c7.23,0.63,14.56,0.13,23.55,0.13c-1.58,4.15-2.55,7.1-3.8,9.93
										c-10.46,23.75-21.11,47.41-31.38,71.24c-3.15,7.31-5.85,14.9-7.84,22.6c-4.13,16,3.44,25.3,20.07,24.8
										c15.36-0.46,29.46-5.08,41.69-14.59c24.16-18.8,36.62-44.15,41.33-73.89c2.34-14.75,1.21-29.22-2.96-43.42
										c-7.46-25.41-24.52-42.06-48.53-52.3c-19.04-8.12-39.03-10.87-59.47-10.49c-53.55,0.97-100.91,19.15-142.17,52.93
										c-35.9,29.39-58.77,66.78-65.62,113.02c-3.85,26-1.63,51.23,14.84,73.29c14.14,18.93,33.45,30.38,55.85,36.43
										c37.21,10.05,74.29,9.3,111-3.08c5.81-1.96,11.35-5.76,19.01-3.84c1.98,7.73,4.02,15.68,6.39,24.92
										c-5.8,2.37-11.09,4.9-16.62,6.75c-32.32,10.79-65.59,13.71-99.46,11.98c-25.61-1.31-50.04-6.97-72.85-18.78
										c-47.4-24.54-67.5-72.17-59.92-119.18c12.66-78.53,56.87-134.77,126.4-171.71c31.71-16.85,65.63-27.24,101.48-31.05
										c33.09-3.51,65.8-2.78,97.53,8.58c27.92,10,50.77,26.24,64.16,53.67c6.53,13.38,9.38,27.54,10.02,42.39
										c2.04,47.83-15.62,87.14-51.51,118.22c-23.99,20.78-52.34,31.3-84.15,31.67c-20.09,0.24-36.74-6-44.84-26.44
										C552.27,480.35,551.1,479.51,549.59,477.75z M507.01,472.3c15.39-1.46,31.86-7.7,40.79-23.92c9.08-16.49,15.37-34.54,22.45-52.07
										c2.64-6.52,0.91-10.61-4.92-14.41c-6.34-4.13-13.45-5.49-20.94-4.6c-31.82,3.75-61,40.02-63.07,71.04
										C480.34,463.05,489.62,472.25,507.01,472.3z" />
								<path d="M1328.81,483.04c-1.83,4.86-3.06,9.27-5.07,13.29c-20.39,40.8-52.11,69.34-94.43,86.06
										c-28.62,11.3-58.58,15.39-89.09,13.26c-26.22-1.83-51.13-8.64-72.07-25.9c-21.03-17.34-33.71-40.04-37.49-66.38
										c-10.74-74.72,7.1-141.45,60.67-196.39c26.86-27.56,60.5-43.09,98.4-49c28.86-4.5,57.79-4.76,85.93,4.3
										c36.79,11.86,62.03,35.47,71.54,73.84c1.75,7.05,2.12,14.45,2.93,21.71c0.46,4.07-1.5,6.29-5.74,6.26
										c-21.31-0.17-42.62-0.33-63.94-0.49c-5.69-0.04-8.74-2.94-11.09-8.17c-10.8-24.09-29.61-35.12-56.12-35.46
										c-41.85-0.53-71.03,19.01-90.27,54.75c-11.33,21.05-16.83,43.87-18.79,67.75c-1.27,15.5-0.19,30.51,4.36,45.29
										c9.66,31.34,37.21,46.42,70.1,42.78c30.73-3.4,54.27-18.72,71.85-43.65c2.76-3.92,5.86-5.98,10.68-5.93
										c20.32,0.19,40.64,0.19,60.96,0.39C1323.97,481.35,1325.8,482.24,1328.81,483.04z" />
								<path d="M821.18,517.08c14.12,0.99,26.68,0.45,39.19,0.56c12.99,0.11,25.99,0.05,38.99,0.07c12.66,0.01,25.33,0.02,37.99,0.03
										c12.57,0,25.15,0,37.97,0c0.4,2.84,1.07,4.5,0.78,5.97c-4.24,21.18-8.54,42.35-12.99,63.49c-1.86,8.84-2.04,8.97-11.12,9
										c-37.65,0.12-75.31,0.15-112.96,0.2c-33.32,0.05-66.65,0.1-99.97,0.09c-3.89,0-7.77-0.44-12.61-0.73c0.29-3.5,0.24-6.06,0.74-8.52
										c15.33-75.91,30.72-151.81,46.09-227.71c6.27-30.95,12.54-61.9,18.82-92.85c0.4-1.95,1.06-3.88,1.24-5.85
										c0.52-5.46,3.58-7.15,8.79-7.07c13.99,0.22,27.99,0.08,41.99,0.08c9.57,0,19.14,0,30.1,0c-8.21,45.16-18.03,88.49-26.77,132.03
										C838.77,429.06,828.86,472.04,821.18,517.08z" />
								<path d="M341.32,252.94c-1.85,9.9-3.34,18.64-5.13,27.31c-13.87,67.36-27.74,134.72-41.73,202.05
										c-4.72,22.71-12.94,43.98-27.24,62.58c-20.89,27.17-48.79,42.83-82.11,48.82c-23.42,4.21-47.07,4.58-70.23-1.83
										c-32.72-9.06-53.97-29.55-59.81-63.72c-2.59-15.17-1.31-30.53,1.96-45.6c4.22-19.42,1.4-17.56,21.45-17.64
										c15.32-0.07,30.64-0.01,45.96-0.01c2.33,0,4.67-0.1,6.99,0.08c6.6,0.51,7.57,1.72,6.43,8.08c-0.7,3.92-2.05,7.77-2.36,11.71
										c-0.49,6.27-1.29,12.74-0.3,18.86c2.45,15.15,12.92,22.4,32.05,21.26c22.99-1.37,38.7-14.08,45.54-35.82
										c4.97-15.79,7.94-32.23,11.34-48.47c12.35-59.19,24.51-118.43,36.74-177.64c0.27-1.3,0.86-2.56,0.95-3.87
										c0.39-5.48,3.44-7.27,8.66-7.18c11.65,0.2,23.31,0.05,34.97,0.05c9.33,0,18.65-0.03,27.98,0.04
										C335.39,252.02,337.32,252.45,341.32,252.94z" />

							</g>
						</svg>
