<?xml version="1.0" encoding="UTF-8" standalone="no"?>
<svg
   width="118.14159"
   height="50"
   viewBox="0 0 118.14161 113"
   fill="#ffffff"
   version="1.1"
   id="svg26"
   sodipodi:docname="loadzx.svg"
   inkscape:export-filename="load_zx_spectrum.svg"
   inkscape:export-xdpi="96"
   inkscape:export-ydpi="96"
   xmlns:inkscape="http://www.inkscape.org/namespaces/inkscape"
   xmlns:sodipodi="http://sodipodi.sourceforge.net/DTD/sodipodi-0.dtd"
   xmlns="http://www.w3.org/2000/svg"
   xmlns:svg="http://www.w3.org/2000/svg">
  <defs
     id="defs26" />
  <sodipodi:namedview
     id="namedview26"
     pagecolor="#ffffff"
     bordercolor="#000000"
     borderopacity="0.25"
     inkscape:showpageshadow="2"
     inkscape:pageopacity="0.0"
     inkscape:pagecheckerboard="true"
     inkscape:deskcolor="#d1d1d1">
    <inkscape:page
       x="0"
       y="0"
       width="118.14161"
       height="113"
       id="page2"
       margin="0"
       bleed="0" />
  </sodipodi:namedview>
  <g
     style="opacity:0.8"
     id="g3"
     inkscape:export-filename="load_zx.svg"
     inkscape:export-xdpi="96"
     inkscape:export-ydpi="96"
     transform="translate(-74.429192)">
    <path
       d="m 154.16003,58.595175 4.10146,1.893181 -0.90032,1.893181 3.90138,1.79354 0.90032,-1.893181 14.50513,6.576312 2.20078,-4.782772 -17.40616,-7.871647 z"
       id="path1" />
    <path
       d="M 188.47218,0.00621118 163.56337,54.50989 l 10.80382,4.882414 c 2.60092,-2.590668 5.70201,-4.58349 9.3033,-5.779183 L 208.17916,0.00621118 Z"
       id="path2" />
    <path
       d="m 168.76521,67.861797 -5.50195,-2.491027 c -0.60021,0.996411 -1.90067,1.494616 -3.00106,0.996411 l -2.60092,-1.195694 c -1.30047,3.686721 -2.00071,7.772006 -2.00071,11.857291 0,8.17057 2.70096,15.643652 7.30258,21.721759 l 5.80206,-12.65442 c -0.80029,-1.992822 -1.30047,-3.985643 -1.60057,-6.177748 h 4.50159 l 2.60092,-5.5799 h -7.00247 c 0.20006,-2.391387 0.70024,-4.48385 1.50053,-6.476672 z"
       id="path3" />
  </g>
  <g
     style="opacity:0.8"
     id="g8"
     transform="translate(-74.429192)">
    <path
       d="m 197.87551,79.619446 c 1.40049,-3.088873 0.20007,-6.675953 -2.70096,-8.270211 l -1.80064,3.886003 c 0.50018,0.398565 0.80029,0.996411 0.80029,1.693899 0,1.195693 -1.00036,2.092463 -2.10074,2.092463 h -0.40014 l -1.80064,3.886002 16.30576,7.373441 2.20078,-4.782772 -11.00389,-4.982054 c 0.20007,-0.199283 0.40014,-0.498207 0.50018,-0.896771 z"
       id="path4" />
    <path
       d="M 227.78609,0.00621118 202.77725,54.410249 c 6.10216,2.889592 10.90385,8.369852 13.00459,14.846523 L 247.49307,0.00621118 Z"
       id="path5" />
    <path
       d="m 200.32018,79.830364 10.65996,-0.01164 2.60092,-5.579902 h -13.10463 c 0.50018,1.693898 0.34393,3.797998 -0.15625,5.591537 z"
       id="path6" />
    <path
       d="m 199.276,72.046723 v -9.864468 l -3.20113,6.974876 c 1.30046,0.697488 2.40085,1.693899 3.20113,2.889592 z"
       id="path7" />
    <path
       d="m 199.276,89.982121 -10.40368,-4.782773 -4.20149,8.868058 V 100.843 c -0.90032,-0.29892 -1.80064,-0.59784 -2.70096,-0.99641 l -4.70165,10.36267 C 181.76981,112.20209 186.64944,113 191.85128,113 h 3.74551 l 5.98002,-12.95413 -2.40085,0.89677 V 89.982121 Z"
       id="path8" />
  </g>
  <g
     id="g13"
     transform="translate(-74.429192)">
    <path
       d="m 178.86878,64.075436 -2.20078,4.782772 10.10358,4.483849 c -0.20008,0.298924 -0.40014,0.597847 -0.60022,0.996412 -1.50053,3.188514 -0.0117,6.932173 3.18942,8.42679 0.13834,0.0553 0.34758,0.10495 0.5119,0.142343 l 1.80064,-3.886002 c 0,0 -1.86314,-0.344238 -1.80064,-1.992822 0.0453,-1.194845 1.00034,-2.092463 2.10074,-2.092463 0.50018,0 1.00035,0.09964 1.40049,0.298923 l 1.80064,-3.886003 z"
       id="path9" />
    <path
       d="M 208.17916,0.00621118 183.67049,53.613121 c 0,0 0.75882,-0.371391 1.10038,-0.498206 v 10.860879 l 11.304,5.181337 3.20113,-6.974876 v -9.166981 c 1.20043,0.398565 2.40085,0.797128 3.50125,1.394975 L 227.78609,0.00621118 Z"
       id="path10" />
    <path
       d="m 183.65883,74.384031 -9.39168,-0.04557 -2.60092,5.5799 12.00426,-0.09964 c -0.60022,-1.693899 -0.51184,-3.740799 -0.0117,-5.434698 z"
       id="path11" />
    <path
       d="m 168.76521,86.096117 -5.80206,12.65442 c 3.70132,4.982053 8.60304,8.967693 14.30507,11.458723 l 4.70165,-10.36267 c -6.00212,-2.491032 -10.80381,-7.572725 -13.20466,-13.750473 z"
       id="path12" />
    <path
       d="m 188.37214,85.000066 c -1.50053,-0.697488 -2.80098,-1.776249 -3.7013,-3.171223 l -1e-5,12.238563 4.20149,-8.868058 z"
       id="path13" />
  </g>
  <g
     style="opacity:0.5"
     id="g16"
     transform="translate(-74.429192)">
    <path
       d="m 226.6857,91.676019 -3.90138,-1.793539 -0.90031,1.89318 -13.50479,-6.277389 -2.20078,4.782772 16.4058,7.572724 7.3026,-2.491027 -4.10146,-1.893182 z"
       id="path14" />
    <path
       d="m 215.28167,86.195759 5.50194,2.491027 c 0.3001,-0.498206 0.70026,-0.797128 1.20043,-0.996411 0.6002,-0.199282 1.20042,-0.199282 1.80063,0.09964 l 2.70096,1.096052 L 267,0 247.49307,0.006211 215.78184,69.256772 c 0.50017,1.594258 0.90032,3.288156 1.10039,4.982055 h -3.30117 l -2.60092,5.579902 h 5.80205 c -0.10003,2.192103 -0.70024,4.384208 -1.50052,6.37703 z"
       id="path15" />
    <path
       d="M 201.57681,100.04587 195.59679,113 c 10.00354,-0.99641 18.98463,-6.0789 24.98675,-13.45233 l -10.80382,-4.882418 c -2.40085,2.291745 -5.20185,4.184932 -8.20291,5.380618 z"
       id="path16" />
  </g>
  <g
     id="g26"
     transform="translate(-74.429192)">
    <path
       d="M 4.9930982,35.957708 H 15.078768 V 50.965354 H 4.9930982 Z"
       id="path17" />
    <path
       d="m 125.62171,35.957708 h 10.08566 v 15.007646 h -10.08566 z"
       id="path18" />
    <path
       d="m 20.071675,35.957708 h 10.08567 v 15.007646 h -10.08567 z"
       id="path19" />
    <path
       d="m 140.70028,35.957708 h 10.08568 v 15.007646 h -10.08568 z"
       id="path20" />
    <path
       d="m 55.221732,50.965355 h -4.992906 v 5.068807 h -5.092764 v 4.96942 H 40.143156 V 65.973 H 75.293214 V 61.003582 H 55.221732 v -4.96942 h 4.992906 v -5.068807 h 5.092764 v -4.969419 h 4.992906 v -4.969419 h 4.992906 V 35.95771 H 40.143156 v 5.068807 h 20.071482 v 4.969419 h -4.992906 z"
       id="path21" />
    <path
       d="m 90.37179,56.034162 h -4.992906 v 4.96942 H 80.385978 V 65.973 h 9.985812 v -4.969418 h 5.092764 v -4.96942 h 4.992906 v 4.96942 h 4.99291 V 65.973 h 10.08566 v -4.969418 h -4.99291 v -4.96942 h -5.09275 V 45.995936 h 5.09275 v -4.969419 h 4.99291 V 35.95771 h -10.08566 v 5.068807 h -4.99291 v 4.969419 H 95.464554 V 41.026517 H 90.37179 V 35.95771 h -9.985812 v 5.068807 h 4.992906 v 4.969419 h 4.992906 z"
       id="path22" />
    <path
       d="M -2.34284e-8,30.01529 H 35.150058 V 25.045872 H 9.9858119 V 0 H -2.34284e-8 Z"
       id="path23" />
    <path
       d="M 45.234947,3.8823e-4 V 4.9698072 H 40.242042 V 25.045483 h 4.893437 v 4.969419 h 25.165417 v -4.969419 h 4.992906 V 4.9698072 H 70.300896 V 3.8823e-4 Z M 50.227854,4.9698072 H 65.30799 V 24.946483 H 50.227854 Z"
       id="path24" />
    <path
       d="M 85.379082,3.8823e-4 V 4.9698072 H 80.386177 V 30.014902 H 90.471456 V 19.977064 h 15.078184 v 10.037838 h 10.08528 V 4.9698072 h -4.9929 V 3.8823e-4 Z M 90.471456,4.9698072 H 105.54964 V 15.007645 H 90.471456 Z"
       id="path25" />
    <path
       d="M 120.62783,0.0993884 V 30.014902 h 25.16542 v -4.969419 h 4.9929 v -4.969419 h 4.99291 V 10.038226 h -4.99291 V 5.0688074 h -4.9929 v -4.969419 z m 9.98582,4.8704188 h 10.08722 v 5.0684188 h 4.99291 v 10.037838 h -4.99291 v 4.969419 h -10.08722 z"
       id="path26" />
  </g>
</svg>
