<?xml version="1.0" encoding="UTF-8" standalone="no"?>
<svg
   width="100%"
   height="54"
   viewBox="0 0 482.1 250.5"
   fill="#ffffff"
   version="1.1"
   id="svg10"
   sodipodi:docname="mrprint.svg"
   inkscape:version="1.4.2 (ebf0e940d0, 2025-05-08)"
   xmlns:inkscape="http://www.inkscape.org/namespaces/inkscape"
   xmlns:sodipodi="http://sodipodi.sourceforge.net/DTD/sodipodi-0.dtd"
   xmlns="http://www.w3.org/2000/svg"
   xmlns:svg="http://www.w3.org/2000/svg">
  <defs
     id="defs10" />
  <sodipodi:namedview
     id="namedview10"
     pagecolor="#ffffff"
     bordercolor="#000000"
     borderopacity="0.25"
     inkscape:showpageshadow="2"
     inkscape:pageopacity="0.0"
     inkscape:pagecheckerboard="0"
     inkscape:deskcolor="#d1d1d1"
     inkscape:zoom="4.0987347"
     inkscape:cx="241.05"
     inkscape:cy="27.081528"
     inkscape:window-width="2560"
     inkscape:window-height="1371"
     inkscape:window-x="0"
     inkscape:window-y="0"
     inkscape:window-maximized="1"
     inkscape:current-layer="svg10" />
  <g
     id="g10">
    <path
       d="M211.4,238.3c0-0.3,0-0.5,0-0.8c0-17.1,0-34.2,0-51.3c0-6.9,2.5-12.9,7.2-18c4.3-4.6,9.6-7.5,15.8-8.5        c9.3-1.5,17.6,0.8,24.6,7.3c4.5,4.2,7.1,9.4,8,15.5c0.2,1.4,0.3,2.8,0.3,4.3c0.1,1.9,0,3.8,0,5.7c-0.1,7.1-2.5,13.4-7.5,18.6        c-4.1,4.4-9.2,7-15.1,8.2c-6.2,1.2-12,0.2-17.5-2.8c-0.3-0.1-0.6-0.3-0.9-0.5c0,0.3,0,0.5,0,0.7c0,7,0,14,0,21.1c0,0.2,0,0.4,0,0.6        C221.3,238.3,216.3,238.3,211.4,238.3z M252.5,189.4c-0.1-1.9,0-3.7-0.3-5.6c-0.6-2.8-1.8-5.2-4-7.2c-3.1-2.8-6.8-3.7-10.9-3.2        c-6.2,0.8-10.8,5.7-11.1,12.2c-0.1,2.1-0.1,4.2,0,6.2c0,0.9,0,1.8,0.2,2.7c0.7,4.2,2.9,7.5,6.8,9.5c2.6,1.3,5.3,1.6,8.2,1.2        c5.8-0.8,10.2-5.3,11-11.3C252.5,192.5,252.4,190.9,252.5,189.4z"
       id="path1" />
    <path
       d="M452,173.2c-3.9,0-7.8,0-11.7,0c0,0.3,0,0.5,0,0.7c0,8.7,0,17.3,0,26c0,0.5,0.1,1,0.2,1.4c0.4,1.5,1.3,2.3,2.8,2.6        c0.5,0.1,1.1,0.1,1.6,0.2c1.6,0,3.3,0,4.9,0c0.2,0,0.5,0,0.8,0c0,4.6,0,9.2,0,13.8c-0.1,0-0.2,0.1-0.3,0.1c-4.3,0-8.6,0.1-12.9,0        c-5.4-0.2-9.6-3.5-11.2-8.6c-0.5-1.7-0.7-3.3-0.7-5.1c0-10,0-20.1,0-30.1c0-0.3,0-0.6,0-0.9c-2.9,0-5.8,0-8.7,0        c-0.2-0.6-0.2-11.4-0.1-12.4c2.9,0,5.8,0,8.7,0c0-5.4,0-10.7,0-16.1c5,0,9.9,0,14.8,0c0,5.3,0,10.7,0,16.1c0.3,0,0.6,0,0.9,0        c3.4,0,6.7,0,10.1,0c0.3,0,0.5,0,0.8,0C452,165,452,169.1,452,173.2z"
       id="path2" />
    <path
       class="st0"
       d="M199.8,137.5c-5.5,0-10.8,0-16.3,0c0-0.3,0-0.6,0-0.8c0-7.7,0-15.4,0-23.2c0-4.6,0-9.1,0-13.7        c0-3.2-0.9-6-3-8.4c-1.4-1.7-3.3-2.8-5.5-3.2c-3.1-0.6-6-0.3-8.6,1.5c-2.2,1.4-3.5,3.5-4.2,5.9c-0.4,1.5-0.6,3.1-0.6,4.7        c0,16.5,0,33,0,49.5c0,0.3,0,0.6,0,1c-0.3-0.1-0.5-0.2-0.7-0.3c-3.4-1.9-6.7-4-9.7-6.5c-1.8-1.5-3.6-3-5.2-4.7        c-4.1-4.1-7.6-8.7-10.5-13.8c-3-5.2-5.1-10.7-6.6-16.5c-0.6-2.6-1.1-5.3-1.4-8c-0.5-3.7-0.5-7.4-0.4-11.1c0.1-2.1,0.4-4.3,0.7-6.4        c0.5-4,1.5-7.8,2.8-11.6c2.5-7.1,6.1-13.5,10.8-19.4c1.8-2.2,3.7-4.4,5.8-6.4c4-3.7,8.3-7,13-9.6c5.1-2.8,10.4-5,16-6.4        c2.5-0.6,5-1.1,7.5-1.4c1.9-0.2,3.7-0.4,5.6-0.4c1.4,0,2.9-0.1,4.3-0.1c1.7,0.1,3.5,0.2,5.2,0.4c3.5,0.3,7,1,10.4,1.9        c5.9,1.6,11.4,4,16.6,7.2c3.8,2.4,7.4,5.1,10.7,8.2c3.6,3.4,6.8,7.2,9.5,11.3c3.8,5.7,6.6,11.8,8.4,18.3c0.8,2.8,1.4,5.6,1.8,8.5        c0.2,1.7,0.4,3.5,0.5,5.2c0.1,1.6,0.1,3.3,0.1,4.9c0,2.5-0.2,4.9-0.5,7.4c-0.4,3.1-1.1,6.1-1.9,9.1c-1.2,4.1-2.8,8-4.8,11.8        c-2.4,4.6-5.3,8.8-8.7,12.7c-4.3,5-9.3,9.3-14.9,12.9c-1.1,0.7-2.2,1.3-3.3,2c-0.2,0.1-0.5,0.3-0.9,0.5c0-0.4,0-0.7,0-1        c0-9.5,0-18.9,0-28.4c0-6.9,0-13.9,0-20.8c0-2.4-0.4-4.7-1.5-6.8c-1.6-3-4-4.7-7.4-5.2c-2.3-0.4-4.5-0.2-6.7,0.8        c-2.7,1.2-4.6,3.3-5.6,6.1c-0.6,1.6-0.9,3.3-0.9,5c0,12.2,0,24.5,0,36.7C199.8,136.9,199.8,137.2,199.8,137.5z M238.2,115.3        c0.1,0,0.2,0,0.2,0c0.1-0.2,0.2-0.3,0.3-0.5c0.5-1,1-2,1.4-3c1.4-3.4,2.5-6.9,3.2-10.5c0.4-2.4,0.7-4.8,0.7-7.2        c0-1.2-0.1-2.3-0.1-3.5c0-2.3-0.3-4.5-0.7-6.7c-0.8-4.6-2.2-9-4.2-13.2c-3.1-6.4-7.2-11.9-12.5-16.6c-3.8-3.3-7.9-6-12.4-8.2        c-5.9-2.8-12.1-4.4-18.6-4.8c-3.3-0.2-6.6-0.2-9.9,0.3c-2.4,0.3-4.7,0.8-7,1.4c-5.3,1.4-10.2,3.6-14.8,6.6        c-4.7,3.1-8.8,6.8-12.4,11.2c-4.5,5.6-7.7,11.9-9.6,18.8c-1,3.8-1.6,7.7-1.8,11.6c-0.1,1.8,0.1,3.5,0.1,5.3c0,2.5,0.4,5,0.9,7.5        c0.8,3.9,2,7.7,3.6,11.3c0.1,0.2,0.2,0.3,0.3,0.5c0.1,0,0.1,0,0.2,0c0-0.3,0-0.5,0-0.8c0-4.8,0-9.5,0-14.3c0-2.4,0.2-4.8,0.7-7.2        c1.2-5.6,3.8-10.5,8.2-14.3c2.5-2.2,5.2-3.8,8.3-4.9c3.8-1.3,7.6-1.9,11.6-1.7c1.9,0.1,3.8,0.3,5.7,0.8c4.4,1.1,8.4,3.1,11.6,6.4        c0.2,0.2,0.3,0.3,0.5,0.4c0.2-0.1,0.3-0.2,0.4-0.3c0.7-0.6,1.4-1.3,2.2-1.9c4.8-3.7,10.4-5.3,16.4-5.5c0.6,0,1.3,0.1,1.9,0.1        c1.2,0.1,2.3,0.1,3.5,0.3c4.9,0.9,9.4,2.8,13.2,6.2c2.6,2.3,4.7,5.1,6.2,8.3c1.9,4,2.8,8.3,2.7,12.7c0,4.8,0,9.7,0,14.5        C238.2,114.7,238.2,115,238.2,115.3z"
       id="path3" />
    <path
       d="M66.7,217.9c-5,0-10,0-14.9,0c0-0.2,0-0.4,0-0.7c0-11.4-0.1-22.8,0-34.1c0.1-6.5,2.3-12.3,6.9-17c2.9-3,6.4-4.9,10.4-6        c2.1-0.6,4.2-0.9,6.3-0.9c4.1-0.1,8.1,0.5,11.9,2.2c2.4,1.1,4.4,2.5,6.3,4.4c0.1,0.1,0.1,0.1,0.2,0.2c0.8-0.7,1.6-1.4,2.5-2        c3.5-2.6,7.4-4.1,11.7-4.6c5.1-0.6,10.1,0.1,14.7,2.4c6.3,3.2,10.3,8.4,12.1,15.2c0.6,2.3,0.9,4.6,0.9,7c0,11,0,22.1,0,33.1        c0,0.3,0,0.6,0,0.9c-5,0-9.8,0-14.8,0c0-0.3,0-0.6,0-0.9c0-10.8,0-21.6,0-32.4c0-1.7-0.2-3.4-0.7-5c-1.3-3.9-4.5-6.2-8.6-6.3        c-2.4,0-4.6,0.5-6.4,2c-2.1,1.6-3.2,3.9-3.6,6.4c-0.2,1.1-0.3,2.2-0.3,3.2c0,10.6,0,21.3,0,31.9c0,0.3,0,0.6,0,1        c-4.9,0-9.8,0-14.8,0c0-0.3,0-0.6,0-0.9c0-10.9,0-21.7,0-32.6c0-1.5-0.2-2.9-0.6-4.3c-1-2.9-2.8-5.2-5.8-6.2        c-3.5-1.2-6.8-0.7-9.7,1.7c-1.7,1.4-2.6,3.3-3,5.4c-0.2,1-0.3,2.1-0.3,3.1c0,10.9,0,21.8,0,32.7C66.7,217.2,66.7,217.5,66.7,217.9z        "
       id="path4" />
    <path
       d="M410.2,217.9c-5,0-9.9,0-14.8,0c0-0.3,0-0.6,0-0.9c0-10.2,0-20.4,0-30.6c0-3.3-1.1-6.3-3.3-8.8c-2-2.2-4.4-3.6-7.3-4.1        c-3.3-0.6-6.4-0.1-9.3,1.6c-3.6,2.2-5.6,5.4-6.2,9.6c-0.1,0.7-0.1,1.5-0.1,2.2c0,10,0,20,0,30.1c0,0.3,0,0.6,0,0.9        c-5,0-9.8,0-14.8,0c0-0.2-0.1-0.4-0.1-0.5c0-10.7-0.1-21.4,0.1-32.1c0.1-6.1,1.9-11.7,5.8-16.5c3.3-4.1,7.5-6.7,12.5-8.2        c2.8-0.9,5.6-1.3,8.5-1.4c4.4-0.1,8.7,0.4,12.9,2.1c8.4,3.3,13.5,9.5,15.5,18.2c0.5,2.3,0.8,4.7,0.8,7c0,10.2,0,20.4,0,30.6        C410.2,217.3,410.2,217.6,410.2,217.9z"
       id="path5" />
    <path
       d="M316.9,163.7c-1.6,4.3-3.1,8.5-4.6,12.8c-0.5-0.3-1-0.5-1.4-0.8c-2.7-1.4-5.6-2.2-8.7-2.2c-4.1,0-8.4,2.3-9.9,7.5        c-0.4,1.4-0.5,2.8-0.5,4.2c0,10.6,0,21.2,0,31.9c0,0.3,0,0.6,0,1c-5,0-9.9,0-14.9,0c0-0.2,0-0.5,0-0.7c0-11.2,0-22.4,0-33.5        c0-5,1.2-9.7,3.9-13.9c3.3-5.1,8-8.3,13.8-9.8c2.1-0.5,4.2-0.8,6.3-0.8c5.4,0.1,10.6,1.3,15.3,4        C316.4,163.3,316.6,163.5,316.9,163.7z"
       id="path6" />
    <path
       d="M186.7,163.7c-1.5,4.3-3.1,8.5-4.6,12.8c-0.3-0.1-0.5-0.3-0.7-0.4c-3-1.6-6.1-2.6-9.5-2.6c-4.7,0-8.6,2.9-9.8,7.5        c-0.4,1.3-0.5,2.7-0.5,4c0,10.6,0,21.3,0,31.9c0,0.3,0,0.6,0,1c-5,0-9.9,0-14.9,0c0-0.3,0-0.5,0-0.7c0-11.2,0-22.4,0-33.6        c0-4.9,1.2-9.6,3.9-13.8c3-4.6,7.1-7.7,12.3-9.4c2.3-0.7,4.6-1.1,7.1-1.2c5.7-0.1,11.1,1.2,16.1,4        C186.2,163.3,186.4,163.5,186.7,163.7z"
       id="path7" />
    <path
       d="M342.2,217.9c-4.9,0-9.8,0-14.7,0c0-19,0-38,0-57.1c4.9,0,9.8,0,14.7,0C342.2,179.9,342.2,198.9,342.2,217.9z"
       id="path8" />
    <path
       class="st0"
       d="M181.3,209.8c-0.1-5.2,4.2-9.9,9.9-9.9c5.4,0,10,4.2,10,10c0,5.9-4.7,10-10.1,9.9        C185.5,219.7,181.2,215,181.3,209.8z"
       id="path9" />
    <path
       d="M327.4,135.8c4.9,0,9.8,0,14.6,0c0.2,0.5,0.2,15.5,0.1,16.9c-4.9,0-9.8,0-14.7,0C327.4,147.1,327.4,141.5,327.4,135.8z"
       id="path10" />
  </g>
</svg>
