<?xml version="1.0" encoding="UTF-8" standalone="no"?>
<svg
   width="100%"
   height="38"
   viewBox="0 0 2048.0 820.0"
   fill="#fff"
   version="1.1"
   id="svg1"
   sodipodi:docname="pombalceramics.svg"
   inkscape:version="1.4.2 (ebf0e940d0, 2025-05-08)"
   xmlns:inkscape="http://www.inkscape.org/namespaces/inkscape"
   xmlns:sodipodi="http://sodipodi.sourceforge.net/DTD/sodipodi-0.dtd"
   xmlns="http://www.w3.org/2000/svg"
   xmlns:svg="http://www.w3.org/2000/svg">
  <defs
     id="defs1" />
  <sodipodi:namedview
     id="namedview1"
     pagecolor="#ffffff"
     bordercolor="#000000"
     borderopacity="0.25"
     inkscape:showpageshadow="2"
     inkscape:pageopacity="0.0"
     inkscape:pagecheckerboard="0"
     inkscape:deskcolor="#d1d1d1"
     inkscape:zoom="0.96484375"
     inkscape:cx="1024"
     inkscape:cy="18.65587"
     inkscape:window-width="2560"
     inkscape:window-height="1371"
     inkscape:window-x="0"
     inkscape:window-y="0"
     inkscape:window-maximized="1"
     inkscape:current-layer="svg1" />
  <g
     transform="translate(0.0,410.0) scale(0.1,-0.1)"
     stroke="none"
     id="g1">
    <path
       d="m1488 3598 l-3 -343 -182 -3 -183 -2 -2 -313 -3 -312 -468 0 -467 0 0          653 c0 358 0 654 0 657 0 3 295 5 655 5 l655 0 -2 -342z m773 297 c150 -52          254 -113 350 -203 82 -77 126 -136 184 -248 l35 -67 -2 -376 -3 -376 -492 -3          c-281 -1 -493 2 -493 7 0 5 11 28 24 52 78 142 43 367 -74 473 -42 38 -127 73          -203 84 l-52 7 -3 348 -2 348 307 -3 308 -3 116 -40z m3219 29 l40 -16 -2          -642 -3 -641 -25 0 c-22 0 -26 7 -43 70 -30 118 -90 227 -167 308 -78 82 -143          125 -250 164 -70 25 -86 27 -230 27 -146 0 -160 -2 -230 -28 -41 -16 -106 -49          -143 -73 -65 -43 -157 -140 -180 -190 -5 -13 -14 -23 -19 -23 -4 0 -8 239 -8          530 l0 530 610 0 c537 0 614 -2 650 -16z m1380 -639 c0 -430 -3 -655 -10 -655          -11 0 -15 1292 -3 1303 3 4 8 7 10 7 2 0 3 -295 3 -655z m1340 -5 l1 -655          -187 -3 c-124 -2 -191 1 -200 8 -7 6 -16 26 -19 43 -6 31 -58 255 -76 330 -21          81 -29 33 -29 -167 0 -177 -2 -205 -16 -210 -9 -3 -184 -6 -390 -6 l-374 0 0          660 0 660 645 -2 645 -3 0 -655z m1348 3 l-3 -658 -309 -3 c-170 -1 -314 2          -318 6 -5 5 -2 28 6 53 8 24 31 114 50 199 20 85 45 189 56 230 11 41 47 188          80 325 33 138 75 307 93 377 l32 128 158 0 157 0 -2 -657z m1037 -3 l0 -655          -415 0 -415 0 -3 218 c-2 159 -6 217 -14 215 -6 -2 -26 -65 -43 -139 -68 -283          -76 -306 -96 -293 -10 6 -12 1297 -2 1307 3 4 227 6 497 5 l491 -3 0 -655z          m1645 315 l0 -344 -87 -3 -88 -3 -2 -304 c-1 -167 -6 -308 -11 -313 -4 -4          -235 -7 -513 -6 l-504 3 -3 658 -2 657 605 0 605 0 0 -345z m1032 332 c78 -21          205 -72 258 -103 l60 -35 -2 -582 -3 -582 -380 -3 c-209 -1 -386 0 -394 3 -9          4 1 18 31 45 70 61 92 122 93 250 0 116 -19 176 -73 233 -65 69 -139 88 -382          96 l-185 6 -3 343 -2 342 477 -3 c263 -1 490 -6 505 -10z m2998 -641 c0 -356          -3 -652 -6 -657 -9 -15 -330 -11 -341 4 -14 17 -113 343 -113 371 0 9 -6 16          -14 16 -9 0 -23 -32 -40 -87 -15 -49 -41 -135 -58 -193 -18 -58 -37 -108 -43          -112 -5 -4 -160 -8 -342 -8 l-333 0 0 304 0 304 94 264 c104 292 154 426 162          439 3 5 234 8 520 7 l515 -3 -1 -649z m105 642 c2 -7 85 -238 184 -513 98          -275 201 -563 229 -640 28 -77 48 -143 45 -147 -2 -5 -116 -8 -254 -8 l-249 0          0 660 c0 657 0 660 20 660 11 0 23 -6 25 -12z m2360 -648 l0 -655 -510 0 -510          0 -3 658 -2 657 512 -2 513 -3 0 -655z m-14555 43 c0 -602 -4 -676 -34 -695          -17 -12 -1014 -10 -1021 2 -3 5 4 55 15 112 96 477 380 874 771 1078 85 45          234 108 257 109 9 1 12 -127 12 -606z m1580 480 c320 -174 574 -497 680 -863          12 -41 26 -84 30 -95 15 -31 42 -195 36 -211 -5 -12 -74 -14 -463 -12 l-458 3          -3 632 -2 633 57 -26 c32 -14 87 -41 123 -61z m7956 -125 c141 -153 209 -310          229 -528 14 -151 -29 -355 -99 -471 l-32 -54 -85 0 -84 0 -3 558 c-1 325 2          557 7 557 5 0 35 -28 67 -62z m-5428 -50 c6 -18 22 -85 37 -148 15 -63 49          -205 77 -315 27 -110 60 -247 74 -305 13 -58 31 -129 40 -159 24 -82 24 -82          -123 -79 l-128 3 -3 518 c-1 314 1 517 7 517 5 0 14 -15 19 -32z m-5374 -633          c7 -117 -2 -315 -15 -315 -5 0 -9 95 -9 210 0 116 4 210 9 210 4 0 11 -47 15          -105z m12014 -157 l-3 -213 -77 -3 c-59 -2 -78 0 -78 10 0 7 27 90 61 183 34          94 66 185 72 203 6 17 14 32 19 32 5 0 7 -96 6 -212z m-13800 -311 l3 -48 182          2 182 2 0 -354 0 -354 -182 -3 -183 -2 -2 -238 -3 -237 -467 -3 -468 -2 0 645          0 645 468 -2 467 -3 3 -48z m1712 -30 c0 -75 -4 -91 -34 -153 -115 -236 -312          -409 -551 -485 -38 -12 -74 -25 -80 -29 -5 -4 -17 -8 -25 -8 -8 -1 -55 -8          -105 -17 -102 -17 -448 -39 -482 -30 l-23 5 0 350 c0 192 4 351 9 354 5 3 26          8 47 12 50 8 131 39 169 64 29 19 47 20 553 20 l522 0 0 -83z m1296 46 c-3          -21 -9 -137 -12 -258 -7 -239 2 -367 36 -500 16 -67 20 -113 20 -287 l0 -208          -456 0 -455 0 -20 46 c-57 127 -108 309 -140 499 -11 69 -23 269 -22 390 1          120 12 325 18 343 3 9 117 12 521 12 l516 0 -6 -37z m1392 -605 l-3 -643 -185          -2 -185 -2 30 22 c17 12 62 53 101 92 122 122 170 252 206 560 14 124 14 436          0 530 -11 78 -10 85 19 85 19 0 19 -11 17 -642z m1001 545 c23 -192 24 -271 2          -483 -23 -218 -48 -389 -61 -405 -4 -5 -15 -41 -24 -80 -10 -38 -31 -104 -48          -147 l-31 -78 -393 0 -394 0 0 645 0 645 468 0 469 0 12 -97z m341 -543 c0          -420 -3 -640 -10 -640 -7 0 -10 220 -10 640 0 420 3 640 10 640 7 0 10 -220          10 -640z m825 -5 l0 -640 -387 -3 -388 -2 0 645 0 645 388 -2 387 -3 0 -640z          m515 0 l0 -640 -33 -3 c-32 -3 -33 -1 -44 45 -6 26 -24 104 -41 173 -16 69          -34 141 -40 160 -6 19 -30 116 -52 215 -23 99 -45 194 -51 210 -5 17 -32 125          -60 240 -28 116 -53 218 -55 228 -5 16 7 17 185 15 l191 -3 0 -640z m368 510          c55 -216 102 -406 121 -484 18 -79 36 -101 46 -54 3 15 11 46 16 68 5 22 12          54 15 70 3 17 11 50 19 75 8 25 35 133 61 240 26 107 52 201 57 208 8 9 80 12          326 10 l316 -3 3 -152 c1 -88 -1 -153 -7 -153 -5 0 -12 -17 -16 -37 -5 -21          -10 -45 -12 -53 -2 -8 -6 -24 -8 -35 -2 -11 -6 -29 -9 -40 -3 -11 -22 -85 -41          -165 -32 -129 -54 -219 -137 -558 l-22 -92 -521 2 -520 3 -3 630 c-1 347 0          636 3 643 3 9 38 12 142 10 l138 -3 33 -130z m1042 119 c0 -8 -5 -12 -10 -9          -6 4 -8 11 -5 16 9 14 15 11 15 -7z m975 -629 l0 -640 -417 -3 -418 -2 0 645          0 645 418 -2 417 -3 0 -640z m1645 315 l0 -329 -87 -3 -88 -3 -2 -310 -2 -310          -516 -3 -515 -2 0 645 0 645 605 0 605 0 0 -330z m1345 240 l0 -85 -70 -37          c-38 -20 -71 -41 -73 -46 -2 -6 30 -21 70 -34 l73 -25 0 -484 0 -484 -317 -3          c-175 -1 -318 1 -318 6 0 5 14 21 31 38 114 108 120 345 11 466 -79 88 -159          108 -462 116 l-235 7 -3 328 -2 327 647 -2 648 -3 0 -85z m185 79 c0 -13 -107          -119 -120 -119 -6 0 -10 29 -10 65 l0 65 65 0 c40 0 65 -4 65 -11z m1160 -634          l0 -645 -320 0 c-249 0 -320 3 -320 13 0 11 71 216 91 262 5 11 43 117 85 235          43 118 104 289 136 380 33 91 78 218 101 283 l42 117 92 0 93 0 0 -645z m716          628 c-3 -10 -10 -38 -16 -63 -6 -25 -24 -88 -40 -140 -16 -52 -48 -158 -70          -235 -23 -77 -53 -177 -67 -222 -13 -45 -22 -87 -18 -93 4 -6 126 -10 356 -10          293 0 351 2 355 14 6 15 -4 56 -54 221 -67 219 -145 492 -150 518 l-4 27 168          -2 c93 -2 168 -6 167 -10 -2 -5 -3 -294 -3 -643 l0 -635 -645 0 -645 0 0 645          0 645 336 0 c315 0 335 -1 330 -17z m1211 5 c6 -7 20 -40 31 -73 11 -33 62          -172 112 -310 50 -137 106 -293 124 -345 19 -52 70 -195 114 -317 43 -122 77          -225 74 -228 -3 -3 -225 -5 -494 -5 l-488 0 0 645 0 645 259 0 c195 0 261 -3          268 -12z m1881 -610 l2 -617 108 -3 c102 -3 107 -4 110 -25 l3 -23 -625 0          -626 0 0 638 c0 351 3 642 7 645 3 4 234 6 512 5 l506 -3 3 -617z m-4997 223          c87 -57 199 -172 248 -254 41 -69 86 -199 100 -287 12 -72 15 -270 5 -319 l-6          -31 -224 0 -224 0 0 470 c0 378 3 470 13 470 7 0 47 -22 88 -49z m-9420 -750          c25 -31 69 -72 97 -91 28 -19 52 -38 52 -42 0 -5 -54 -8 -120 -8 l-120 0 1          128 0 127 22 -29 c12 -16 43 -55 68 -85z m16007 -118 l3 -23 -655 0 c-446 0          -657 3 -661 10 -4 6 -4 18 -1 26 5 12 94 14 658 12 l653 -3 3 -22z m-19200          -322 c2 -197 5 -242 16 -238 31 12 207 28 276 25 l75 -3 3 -391 2 -391 -66 -7          c-37 -4 -85 -16 -107 -26 -39 -19 -65 -20 -555 -20 l-514 0 6 25 c24 96 165          330 262 434 30 32 54 61 54 65 0 3 -88 6 -195 6 l-195 0 0 385 0 385 468 -2          467 -3 3 -244z m3052 -381 l0 -630 -225 0 c-214 0 -225 -1 -235 -20 -10 -20          -21 -20 -420 -20 l-410 0 2 388 3 387 395 3 c217 1 398 6 403 11 4 4 -22 34          -60 67 -108 95 -295 337 -329 427 -6 16 19 17 435 17 l441 0 0 -630z m635 619          c55 0 238 3 408 6 l307 7 -2 -649 -3 -648 -60 0 -60 0 -2 239 c-1 136 2 247 8          257 14 27 -4 32 -69 18 -31 -6 -97 -17 -147 -23 l-90 -11 -3 -222 -2 -223          -431 -2 c-237 -2 -433 -1 -435 1 -2 2 -4 287 -4 634 l0 629 243 -7 c133 -3          287 -6 342 -6z m1525 6 c0 -12 -98 -168 -144 -230 -59 -78 -147 -172 -215          -228 -30 -25 -41 -41 -35 -47 7 -7 168 -9 455 -8 l444 3 3 250 c1 146 6 253          12 259 7 7 10 -212 10 -632 l0 -643 -22 12 c-58 31 -129 40 -365 46 l-242 6          -3 -39 -3 -39 -327 -3 -328 -2 0 650 0 650 380 0 c209 0 380 -2 380 -5z m1355          -380 l0 -380 -53 -5 -53 -5 29 -40 c47 -64 100 -166 128 -246 28 -83 56 -217          48 -230 -3 -5 -201 -9 -440 -9 l-434 0 0 650 0 650 388 -2 387 -3 0 -380z          m520 301 c0 -83 -8 -116 -19 -79 -6 21 -36 152 -36 159 0 2 12 4 28 4 l27 0 0          -84z m1070 42 c-4 -24 -13 -61 -21 -83 -7 -22 -25 -92 -39 -155 -15 -63 -33          -136 -42 -162 -26 -80 -29 -78 187 -78 l190 0 -2 -387 -3 -388 -472 -3 c-463          -2 -473 -2 -473 17 0 11 5 32 11 48 10 25 28 85 104 353 14 47 25 91 25 97 0          10 -50 13 -202 15 l-203 3 -18 80 c-11 44 -28 109 -40 145 -18 56 -21 97 -25          288 -2 123 -1 230 2 238 5 12 81 14 517 14 l511 0 -7 -42z m1313 -340 l-3          -383 -399 -3 -398 -2 6 -28 c3 -15 17 -63 31 -107 43 -140 105 -365 105 -381          0 -12 -25 -14 -167 -12 l-168 3 -3 388 -2 388 62 -3 c57 -3 63 -5 66 -25 2          -13 10 -23 18 -23 12 0 14 44 14 285 l0 285 420 0 420 0 -2 -382z m1467 372          c3 -5 44 -10 91 -10 l84 0 0 -375 0 -375 -160 0 c-88 0 -160 -1 -160 -2 0 -7          62 -334 79 -418 11 -52 16 -98 12 -103 -4 -4 -243 -6 -532 -5 l-524 3 -3 387          -2 387 37 3 38 3 3 258 2 257 515 0 c332 0 516 -4 520 -10z m1523 -637 l-3          -648 -517 -3 c-489 -2 -518 -1 -518 15 0 10 7 50 16 88 8 39 28 138 44 220 15          83 31 162 35 177 l7 28 -178 2 -179 3 -3 373 -2 372 197 1 c109 0 218 4 243 8          25 5 228 9 453 10 l407 1 -2 -647z m492 639 c0 -18 -58 -179 -80 -222 -36 -72          -96 -155 -160 -224 l-60 -63 -2 -389 -3 -389 -67 -3 -68 -3 0 651 0 650 220 0          c121 0 220 -4 220 -8z m850 -642 l0 -650 -391 0 -390 0 3 265 3 265 -76 0          c-42 0 -78 2 -81 5 -3 3 7 41 23 83 15 42 62 174 104 292 41 118 80 224 85          235 5 11 19 50 31 88 l23 67 333 0 333 0 0 -650z m1342 559 c2 -50 1 -93 -1          -95 -2 -2 -243 -4 -536 -4 l-531 0 -17 -57 c-9 -32 -25 -92 -37 -133 -11 -41          -27 -97 -36 -125 -8 -27 -28 -97 -43 -155 -27 -104 -27 -105 -59 -108 l-32 -3          0 385 0 386 644 0 645 0 3 -91z m1110 -24 c21 -60 54 -153 73 -205 19 -52 40          -113 49 -135 8 -22 33 -91 55 -154 22 -62 46 -120 52 -127 20 -24 -1 -34 -72          -34 -70 0 -82 -7 -53 -31 9 -8 43 -48 76 -91 l58 -77 -2 -163 -3 -163 -395 -3          c-378 -2 -397 -1 -442 18 -70 30 -151 36 -228 16 -36 -9 -69 -21 -74 -26 -6          -6 -41 -10 -78 -10 l-68 0 0 409 0 409 58 9 c41 6 57 12 55 23 -1 8 -16 69          -35 135 -29 105 -36 120 -55 123 -22 3 -23 8 -23 98 l0 94 506 -2 507 -3 39          -110z m1578 -448 l0 -563 -28 -16 c-45 -27 -83 -70 -104 -115 l-19 -43 -374 0          -375 0 0 25 c0 36 57 209 97 293 19 40 56 102 84 138 27 36 49 67 49 69 0 3          -129 6 -287 7 l-288 3 -3 383 -2 382 625 0 625 0 0 -563z m1368 181 l-3 -383          -152 -3 c-84 -1 -153 -5 -153 -7 0 -3 17 -31 39 -63 48 -71 92 -158 119 -237          39 -114 63 -205 57 -215 -4 -6 -144 -10 -409 -10 l-402 0 -34 53 c-61 91 -164          137 -310 137 l-70 0 0 555 0 555 660 0 660 0 -2 -382z m-18558 -110 c47 -10          96 -22 110 -25 44 -10 185 -79 251 -123 136 -92 284 -269 374 -450 33 -65 85          -191 85 -205 0 -3 -213 -5 -473 -5 -414 0 -478 2 -506 16 -17 9 -40 17 -49 18          -16 3 -17 35 -20 405 l-2 403 72 -7 c40 -4 111 -16 158 -27z m14500 -408 l0          -400 -414 0 c-228 0 -417 4 -420 8 -9 15 101 229 166 324 105 153 231 268 413          374 47 27 215 92 243 93 9 1 12 -85 12 -399z m-5370 -10 l0 -390 -55 0 -55 0          0 390 0 390 55 0 55 0 0 -390z m6862 -367 c3 -15 -5 -18 -47 -18 l-50 0 -3 94          c-4 137 3 142 54 34 24 -51 44 -100 46 -110z m-16578 -72 c3 -5 0 -11 -8 -14          -19 -8 -104 -124 -136 -187 -31 -62 -49 -119 -81 -265 -21 -93 -23 -125 -24          -455 l-2 -355 -369 0 -369 0 -3 569 c-2 559 -2 571 19 638 l22 68 466 3 c256          1 469 3 473 5 4 1 9 -2 12 -7z m1453 -81 c30 -97 29 -108 -4 -116 -32 -7 -287          -80 -448 -129 -177 -53 -237 -67 -245 -58 -4 4 -15 40 -25 78 -23 89 -72 183          -130 251 -25 28 -45 54 -45 56 0 1 197 1 437 -2 l436 -5 24 -75z m1083 -155          l0 -235 230 0 230 0 -2 -352 -3 -353 -227 -3 -227 -2 -3 -48 -3 -47 -410 0          -410 0 -3 630 c-1 347 0 635 2 640 2 7 147 9 415 7 l411 -2 0 -235z m1808          -406 l-3 -634 -48 -3 c-27 -2 -55 2 -62 8 -12 10 -14 116 -15 640 l0 629 57 3          c32 2 61 0 66 -3 4 -3 6 -291 5 -640z m2282 508 c0 -315 -85 -562 -258 -747          -79 -86 -176 -156 -261 -190 -79 -31 -91 -39 -85 -55 4 -8 11 -15 16 -15 17 0          124 -70 153 -100 22 -23 25 -31 14 -35 -8 -3 -116 -4 -239 -3 l-225 3 0 420 0          420 29 65 c26 57 29 76 29 160 0 72 -6 108 -22 150 -11 30 -21 57 -21 60 0 3          196 4 435 2 l435 -2 0 -133z m1748 -479 c1 -336 -2 -616 -6 -620 -5 -5 -23 53          -41 129 -18 76 -46 192 -61 258 -16 66 -43 181 -60 255 -17 74 -39 169 -50          210 -10 41 -28 119 -40 173 -12 55 -27 97 -33 97 -7 0 -25 -59 -43 -143 -18          -78 -55 -243 -84 -367 -28 -124 -64 -283 -80 -353 -16 -71 -34 -143 -40 -160          -5 -18 -16 -57 -23 -87 l-12 -55 -340 -3 c-187 -1 -350 0 -362 3 -21 5 -23 11          -23 63 0 59 13 132 30 167 8 18 20 60 96 330 49 176 74 262 108 380 19 66 48          165 63 220 16 55 32 105 35 110 4 6 178 9 485 8 l478 -3 3 -612z m412 594 c0          -9 9 -46 21 -82 24 -78 73 -247 123 -425 52 -186 105 -370 127 -441 24 -75 79          -274 82 -294 2 -13 -43 -15 -338 -18 -187 -1 -350 0 -362 3 l-23 5 0 634 c0          348 2 635 4 637 2 2 86 3 185 1 163 -3 181 -5 181 -20z m2069 -30 c5 -26 15          -78 21 -117 6 -38 15 -79 20 -90 4 -11 22 -96 40 -190 42 -228 97 -501 109          -550 6 -22 11 -92 11 -156 0 -98 -3 -118 -16 -123 -9 -3 -125 -6 -259 -6 -182          0 -245 3 -252 13 -6 6 -16 48 -23 92 -7 44 -15 84 -18 89 -3 6 -7 19 -8 30 -2          12 -19 102 -39 201 -19 99 -58 297 -86 440 -27 143 -53 272 -56 288 -18 88          -23 -31 -25 -560 l-3 -588 -250 0 -250 0 -3 630 c-1 347 0 635 2 640 2 7 189          9 539 7 l535 -2 11 -48z m4308 31 c-15 -16 -17 -16 -17 -1 0 9 6 18 13 21 20          7 22 -2 4 -20z m1271 -109 l-3 -126 -135 -40 c-74 -21 -184 -53 -245 -69 -127          -34 -126 -34 -145 58 -16 76 -81 200 -134 254 -25 26 -43 49 -41 50 2 2 161 3          354 1 l352 -3 -3 -125z m196 39 c15 -48 23 -90 18 -95 -8 -8 -142 -48 -162          -48 -10 0 -15 221 -6 231 2 2 31 3 63 1 l60 -4 27 -85z m986 49 c0 -39 26          -103 57 -138 10 -12 37 -34 61 -48 l42 -26 0 -470 c0 -317 -3 -470 -10 -470          -27 0 -256 95 -340 141 -126 68 -182 106 -261 178 -150 136 -255 329 -290 531          -13 78 -19 304 -8 330 6 13 55 15 378 12 l371 -2 0 -38z m1460 -33 c4 -35 5          -67 1 -71 -3 -3 -40 -9 -81 -11 -41 -3 -100 -7 -130 -10 -30 -3 -134 -12 -230          -20 -96 -9 -209 -16 -250 -17 l-76 0 -18 79 c-10 44 -20 89 -23 100 -5 21 -2          21 388 23 217 2 398 0 402 -3 5 -4 12 -36 17 -70z m-14020 -215 l0 -286 223 4          c225 5 239 7 390 55 16 5 17 -16 15 -378 l-3 -384 -204 -3 c-187 -2 -207 -1          -246 18 -28 14 -62 20 -107 20 -57 0 -66 -3 -71 -20 -5 -19 -14 -20 -315 -20          -171 0 -317 3 -326 6 -14 6 -16 71 -16 640 l0 634 330 0 330 0 0 -286z m4658          -351 l-3 -638 -50 0 -50 0 -3 638 -2 637 55 0 55 0 -2 -637z m2690 0 l-3 -638          -229 -3 c-164 -2 -232 1 -243 9 -12 10 -13 100 -11 591 2 414 0 578 -8 578 -6          0 -20 -52 -32 -117 -27 -145 -65 -341 -97 -493 -13 -63 -36 -178 -51 -255 -48          -257 -55 -288 -66 -302 -8 -10 -75 -13 -272 -13 -143 0 -267 4 -273 8 -16 10          -8 62 72 452 25 124 50 250 56 280 5 30 20 109 34 175 13 66 33 170 45 230 11          61 23 116 25 123 3 9 118 12 530 12 l525 0 -2 -637z m192 2 l0 -635 -23 -5          c-13 -4 -43 -5 -68 -3 l-44 3 -3 638 -2 637 70 0 70 0 0 -635z m1148 -2 l-3          -638 -385 0 -385 0 -3 638 -2 637 390 0 390 0 -2 -637z m1346 584 c-1 -40 -9          -65 -29 -97 -35 -55 -51 -95 -81 -192 -42 -141 -48 -214 -49 -583 l-1 -350          -401 -3 c-360 -2 -402 -1 -414 14 -11 13 -13 83 -13 348 1 289 4 349 23 476          25 166 41 241 77 358 l25 82 432 0 432 0 -1 -53z m2861 -256 c55 -17 146 -44          202 -60 193 -56 445 -165 568 -246 33 -21 105 -84 161 -139 111 -112 161 -188          215 -332 18 -49 37 -92 42 -95 4 -3 7 -26 5 -50 l-3 -44 -565 -3 c-512 -2          -568 -1 -600 15 -19 9 -60 24 -90 34 l-55 17 -3 458 c-1 253 0 465 3 472 3 7          8 11 12 9 5 -3 53 -18 108 -36z m-14140 -516 l0 -350 -380 0 -380 0 -3 353 -2          352 382 -2 383 -3 0 -350z m-2970 -425 c40 -18 40 -18 13 -25 -40 -10 -63 -2          -66 23 -4 26 0 26 53 2z m15169 5 c45 -19 46 -35 4 -35 -42 0 -63 13 -55 34 8          19 6 19 51 1z m-16231 -125 c38 -208 81 -311 167 -399 84 -87 193 -131 327          -131 l42 0 1 -376 0 -375 -252 3 -253 3 -83 37 c-137 60 -191 98 -303 208          -161 160 -277 348 -374 611 l-45 120 0 175 0 174 382 -2 383 -3 8 -45z m1398          -11 c85 -34 190 -74 234 -91 44 -16 83 -32 87 -36 4 -4 -4 -56 -17 -117 -49          -228 -140 -453 -245 -611 -97 -143 -251 -287 -385 -357 -98 -52 -125 -57 -316          -57 l-179 0 0 374 c0 287 3 376 13 383 6 5 31 15 54 21 58 17 131 70 176 128          51 67 109 192 137 294 38 144 21 130 164 130 l124 0 153 -61z m1359 -209 l5          -265 228 -3 227 -2 0 -390 0 -390 -642 2 -643 3 -3 645 c-1 355 0 651 3 658 3          10 91 12 412 10 l408 -3 5 -265z m1808 -392 l2 -658 -53 0 c-29 0 -58 5 -65          12 -9 9 -12 168 -12 653 0 353 3 645 7 649 4 4 32 6 63 4 l55 -3 3 -657z m710          0 l2 -658 -330 0 -330 0 0 660 0 660 328 -2 327 -3 3 -657z m632 292 c0 -203          -3 -370 -7 -370 -5 0 -36 69 -70 153 -124 304 -192 460 -227 517 -20 32 -36          61 -36 64 0 3 77 6 170 6 l170 0 0 -370z m605 323 c70 -96 146 -252 241 -492          155 -393 182 -456 195 -456 7 0 19 20 27 45 19 64 109 378 138 485 13 50 33          115 43 145 10 30 31 102 46 160 15 58 29 111 31 118 15 55 19 -71 16 -630 l-2          -643 -557 0 -557 0 -88 210 -88 210 0 448 0 447 260 0 260 0 35 -47z m2080          -328 l0 -370 -377 -3 -378 -2 -6 -28 c-3 -15 -8 -34 -11 -42 -3 -8 -7 -24 -9          -35 -2 -11 -10 -47 -18 -80 -8 -33 -26 -118 -41 -190 -14 -71 -31 -145 -38          -163 l-11 -32 -201 2 -200 3 -3 645 c-1 355 0 651 3 658 3 10 138 12 647 10          l643 -3 0 -370z m789 366 c3 -5 17 -49 30 -97 13 -49 86 -303 161 -564 75          -261 143 -497 150 -525 8 -27 18 -63 24 -78 6 -16 11 -33 11 -38 0 -12 -847          -12 -855 1 -5 8 -37 140 -104 435 l-27 120 -64 5 -65 5 -3 360 c-1 198 0 366          3 372 3 10 86 13 369 13 201 0 367 -4 370 -9z m556 -651 l0 -660 -55 0 -55 0          0 660 0 660 55 0 55 0 0 -660z m558 -2 l2 -658 -255 0 -255 0 0 653 c0 360 3          657 7 661 4 3 117 5 252 4 l246 -3 3 -657z m782 2 l0 -661 -132 3 -132 3 -17          90 c-10 50 -25 119 -33 155 -9 36 -18 81 -21 100 -5 39 -87 455 -165 839 -12          57 -19 110 -16 117 4 11 53 14 261 14 l255 0 0 -660z m596 646 c3 -8 -6 -72          -21 -143 -14 -70 -37 -189 -51 -263 -13 -74 -29 -148 -34 -165 -5 -16 -23          -106 -40 -199 -17 -94 -33 -173 -36 -177 -2 -4 -9 -38 -14 -76 -5 -37 -20          -115 -32 -173 l-23 -105 -147 -3 -148 -3 0 654 c0 360 3 657 7 660 3 4 125 7          270 7 220 0 265 -2 269 -14z m752 -649 l2 -657 -242 2 -243 3 -3 645 c-1 355          0 651 3 658 3 10 57 12 242 10 l238 -3 3 -658z m187 3 l0 -655 -67 -3 -68 -3          0 661 0 661 68 -3 67 -3 0 -655z m1153 -2 l2 -658 -390 0 -390 0 0 660 0 660          388 -2 387 -3 3 -657z m1197 653 c3 -6 10 -36 16 -68 18 -100 58 -217 94 -277          l35 -58 0 -456 1 -457 -27 -3 c-72 -9 -260 77 -384 175 -187 147 -368 434          -463 731 -45 139 -94 379 -83 407 5 13 58 15 405 15 239 0 402 -4 406 -9z          m1365 -34 c58 -23 111 -46 118 -50 9 -6 12 -97 12 -398 l0 -390 -41 -60 c-94          -139 -240 -268 -388 -342 l-84 -42 -391 -3 -391 -3 3 425 2 424 58 -34 c31          -19 72 -39 92 -44 111 -30 252 -19 345 26 99 49 188 164 237 306 43 125 58          175 58 190 0 32 23 38 145 38 119 0 122 -1 225 -43z m2838 -222 c2 -215 0          -265 -13 -291 -8 -18 -15 -39 -15 -47 0 -9 -4 -19 -10 -22 -5 -3 -10 -13 -10          -21 0 -7 -19 -56 -41 -106 -112 -251 -272 -418 -507 -531 l-87 -42 -317 -3          -318 -3 0 325 c0 232 3 326 11 326 6 0 39 -7 73 -16 122 -32 273 3 352 81 24          24 55 67 71 97 26 49 28 61 28 168 0 112 -1 117 -35 179 -32 59 -69 97 -150          153 -24 16 1 17 470 15 l495 -2 3 -260z m-2503 93 c17 -6 33 -13 37 -17 7 -6          -17 -143 -32 -176 -5 -11 -23 -69 -40 -130 -33 -117 -107 -288 -121 -279 -10          6 -13 647 -3 656 3 3 33 -5 67 -19 34 -13 76 -29 92 -35z m917 -59 c28 -175          92 -311 179 -381 l39 -31 0 -345 0 -344 -157 4 c-153 4 -160 5 -231 36 -165          75 -258 146 -350 271 -151 203 -258 511 -274 781 l-3 55 55 8 c70 10 655 55          695 53 l29 -1 18 -106z m-13602 -699 l0 -390 -455 0 -455 0 0 390 0 390 455 0          455 0 0 -390z m-4598 -578 c38 -42 92 -163 103 -228 6 -39 -1 -55 -25 -60 -13          -2 -46 -18 -50 -24 -3 -4 -15 -10 -27 -14 -19 -6 -23 -2 -33 36 -19 70 -35 88          -80 88 -36 0 -41 -3 -62 -42 -22 -41 -23 -54 -23 -253 0 -233 6 -261 64 -284          45 -19 75 5 95 78 9 31 16 67 16 79 0 27 14 36 30 17 6 -8 32 -26 57 -41 l46          -26 -6 -55 c-7 -72 -33 -143 -77 -218 l-35 -60 -98 -3 c-95 -3 -98 -2 -123 25          -33 36 -49 67 -87 172 l-32 86 0 235 c1 230 1 237 29 320 30 92 64 153 105          187 22 19 38 22 102 23 76 0 77 0 111 -38z m737 24 c14 -17 14 -191 -1 -218          -7 -16 -24 -18 -127 -18 l-118 0 -1 -55 0 -55 108 0 c89 0 109 -3 114 -16 3          -9 6 -65 6 -125 l0 -109 -114 0 -114 0 4 -97 4 -98 121 -5 122 -5 -1 -110 c-1          -60 -2 -113 -2 -117 0 -5 -90 -8 -200 -8 l-200 0 0 518 c0 285 3 522 7 525 3          4 91 7 193 7 150 0 190 -3 199 -14z m587 -30 c27 -29 44 -58 53 -92 7 -27 17          -65 23 -84 28 -98 -19 -307 -83 -371 l-21 -21 25 -36 c14 -20 35 -77 48 -127          12 -49 25 -99 30 -110 14 -32 38 -149 33 -157 -3 -5 -40 -8 -83 -8 l-78 0 -11          42 c-6 24 -26 105 -46 181 -37 146 -47 167 -77 167 -18 0 -19 -11 -19 -195 l0          -196 -72 3 -73 3 -3 510 c-1 281 0 516 3 523 4 10 41 13 157 11 l153 -1 41          -42z m613 22 c4 -13 14 -61 20 -108 7 -47 16 -94 21 -105 4 -11 16 -74 25          -140 10 -66 24 -156 32 -200 15 -87 21 -123 28 -170 2 -16 11 -70 20 -120 8          -49 18 -111 22 -137 l6 -48 -76 0 c-87 0 -80 -7 -92 103 l-6 57 -84 0 -83 0          -7 -67 c-3 -38 -8 -74 -10 -80 -5 -14 -155 -19 -155 -5 1 10 56 339 74 442 9          47 27 159 42 250 28 177 35 219 39 235 1 6 5 28 9 50 13 67 9 65 91 65 69 0          76 -2 84 -22z m569 5 c5 -10 15 -79 22 -153 7 -74 18 -166 26 -203 8 -38 14          -88 14 -113 0 -32 4 -44 15 -44 17 0 19 11 45 255 11 105 24 208 28 230 l7 40          90 0 90 0 3 -523 2 -523 -57 3 -58 3 -2 295 c-1 183 -6 296 -12 298 -5 2 -12          -12 -15 -30 -5 -31 -42 -383 -52 -493 -3 -27 -7 -56 -9 -63 -5 -13 -115 -18          -115 -4 0 4 -4 43 -10 87 -5 44 -17 145 -26 225 -25 235 -28 253 -41 258 -10          3 -13 -59 -13 -287 l0 -291 -60 0 -60 0 0 518 c0 285 3 522 7 525 3 4 44 7 89          7 69 0 85 -3 92 -17z m741 3 c8 -9 10 -155 9 -522 l-3 -509 -75 0 -75 0 -3          514 c-2 405 0 516 10 523 22 13 124 9 137 -6z m596 -17 c41 -49 71 -117 90          -202 9 -43 16 -79 14 -80 -22 -12 -118 -57 -122 -57 -4 0 -7 9 -7 20 0 55 -42          110 -85 110 -68 0 -85 -57 -85 -295 0 -203 7 -240 51 -276 l33 -27 28 21 c28          21 58 90 58 136 0 49 12 50 75 6 68 -46 67 -45 40 -160 -18 -79 -46 -143 -82          -186 -24 -28 -27 -29 -117 -29 -88 0 -93 1 -118 28 -69 75 -107 197 -124 397          -8 98 -8 81 0 195 15 201 50 307 129 397 29 32 31 33 112 33 81 0 84 -1 110          -31z m620 25 c46 -18 105 -157 105 -249 0 -47 -17 -62 -76 -66 -52 -4 -60 3          -67 52 -6 48 -31 79 -62 79 -34 0 -47 -23 -43 -77 3 -47 4 -49 56 -75 86 -43          138 -92 173 -163 28 -57 32 -77 37 -173 7 -164 -25 -281 -97 -348 -23 -22 -34          -24 -119 -24 -92 0 -95 1 -122 30 -16 17 -39 57 -50 88 -26 68 -48 218 -34          231 5 5 35 11 67 13 66 5 69 2 82 -75 4 -27 13 -40 29 -47 13 -5 26 -14 28          -21 3 -9 13 -7 36 10 30 21 32 26 32 88 0 59 -3 67 -30 93 -16 15 -42 31 -56          34 -41 11 -120 92 -144 149 -60 140 -33 349 56 432 24 22 36 25 105 25 42 0          85 -3 94 -6z m1150 -119 l0 -120 -72 -3 -73 -3 -2 -397 -3 -397 -72 -3 -73 -3          0 400 0 400 -72 3 -73 3 -3 109 c-1 61 0 116 2 123 4 11 49 13 223 11 l218 -3          0 -120z m183 -403 l2 -523 -72 3 -73 3 -3 514 c-2 405 0 516 10 523 7 4 40 7          73 6 l60 -3 3 -523z m210 516 c9 -9 12 -110 12 -393 l0 -381 84 4 c47 2 96 2          110 -2 l26 -6 0 -130 0 -130 -185 0 -185 0 -2 516 c-2 316 1 519 7 525 13 13          119 11 133 -3z m661 -2 c8 -9 11 -51 9 -122 l-3 -109 -125 -5 -125 -5 0 -50 0          -50 113 -5 113 -5 0 -120 0 -120 -113 -5 -113 -5 0 -95 0 -95 125 -5 125 -5 3          -117 3 -118 -201 0 -200 0 0 518 c0 285 3 522 7 525 3 4 88 7 188 7 144 0 185          -3 194 -14z m355 -11 c35 -33 73 -117 81 -180 3 -27 8 -60 11 -72 3 -17 0 -23          -14 -23 -10 0 -22 -4 -27 -9 -12 -12 -77 -17 -91 -8 -6 3 -14 26 -18 49 -8 50          -30 78 -61 78 -34 0 -47 -23 -43 -76 3 -47 5 -49 53 -74 28 -14 52 -28 53 -32          2 -5 9 -8 15 -8 21 0 88 -80 113 -135 64 -139 31 -419 -60 -510 -23 -23 -32          -25 -122 -25 -95 0 -96 0 -126 32 -37 40 -56 85 -74 176 -15 81 -18 138 -6          145 4 3 34 7 67 8 l60 4 15 -59 c8 -33 22 -62 30 -64 8 -3 21 -12 28 -21 11          -15 13 -14 26 2 7 9 18 17 24 17 15 0 22 26 22 85 0 46 -4 58 -30 83 -16 17          -43 33 -60 37 -39 8 -136 113 -150 163 -47 158 -22 324 60 412 27 29 32 30          113 30 76 0 87 -2 111 -25z m854 -157 l2 -178 80 0 80 0 2 178 3 177 49 3 c27          2 60 1 73 -3 l23 -5 -2 -518 -3 -517 -72 -3 -73 -3 -2 208 -3 208 -75 0 -75 0          -3 -208 -2 -208 -78 3 -77 3 -3 510 c-3 585 -11 538 93 533 l60 -3 3 -177z          m670 170 c5 -7 17 -58 26 -113 9 -55 30 -183 47 -285 16 -102 42 -261 57 -355          23 -139 31 -170 45 -173 16 -3 17 29 19 465 l3 468 62 3 c62 3 62 3 76 -30 8          -18 26 -78 42 -133 15 -55 32 -104 36 -110 5 -5 9 -17 9 -26 0 -28 58 -193 69          -197 8 -3 11 69 11 236 0 195 3 242 14 251 8 7 37 11 68 9 l53 -3 3 -522 2          -523 -65 0 c-76 0 -71 -7 -115 145 -17 61 -35 114 -41 120 -5 5 -9 21 -9 35 0          14 -4 30 -8 36 -5 5 -14 35 -21 67 -7 31 -14 57 -16 57 -2 0 -10 3 -19 6 -14          5 -16 -19 -16 -229 l0 -236 -155 0 c-162 0 -159 -1 -156 46 1 11 -3 24 -8 28          -6 3 -11 24 -11 46 l0 39 -84 0 -84 0 -6 -40 c-3 -22 -9 -58 -12 -80 l-6 -40          -68 0 c-38 0 -71 4 -74 9 -3 5 -1 31 4 57 6 27 13 72 15 99 3 28 10 73 16 100          6 28 25 140 43 250 18 110 36 207 39 215 3 8 16 80 27 160 12 80 27 148 33          152 20 13 144 9 155 -4z m996 -2 c40 -17 90 -85 115 -159 28 -80 41 -203 41          -376 0 -229 -34 -371 -109 -461 l-30 -35 -148 0 -148 0 -3 510 c-1 281 0 516          3 523 7 18 235 17 279 -2z m575 0 c7 -8 24 -127 38 -265 30 -276 45 -319 58          -159 4 50 10 101 15 113 4 11 13 81 20 155 7 74 17 143 22 153 7 14 23 17 88          17 43 0 85 -3 94 -6 14 -5 16 -57 16 -476 0 -371 3 -469 13 -466 7 3 21 59 35          144 13 76 25 150 28 164 2 14 23 142 45 285 22 143 44 269 49 280 5 11 10 31          12 45 3 24 6 25 81 28 93 3 89 10 112 -163 9 -66 19 -127 23 -135 7 -19 82          -478 82 -505 0 -11 4 -29 9 -40 9 -18 31 -156 31 -191 0 -12 -14 -14 -77 -12          l-78 3 -9 77 -8 78 -83 0 -83 0 -7 -62 c-11 -106 3 -97 -161 -97 l-144 0 0          260 c0 211 -2 259 -14 259 -10 0 -15 -26 -20 -101 -4 -56 -11 -108 -16 -117          -5 -10 -14 -80 -22 -157 l-13 -140 -57 -3 c-32 -2 -59 1 -59 5 -1 4 -3 17 -5          28 -4 25 -52 468 -56 515 -2 23 -8 35 -18 35 -8 0 -13 -7 -11 -15 7 -28 14          -518 7 -544 -6 -24 -10 -26 -66 -26 l-60 0 0 518 c0 285 3 522 7 525 13 14          170 8 182 -7z m1183 -2 c44 -21 92 -96 112 -175 9 -35 21 -77 27 -94 15 -43          23 -349 11 -425 -21 -140 -59 -242 -112 -300 l-32 -35 -144 -3 -144 -4 0 519          c0 286 3 523 7 526 3 4 59 7 124 7 87 0 127 -4 151 -16z m586 4 c15 -15 16          -191 2 -219 -10 -17 -22 -19 -128 -19 l-118 0 0 -55 0 -55 108 0 c131 0 130 2          126 -142 l-3 -103 -115 -5 c-111 -5 -115 -6 -114 -27 0 -13 1 -57 2 -98 l2          -74 123 -3 122 -3 0 -115 0 -115 -198 0 -197 0 0 513 c-1 282 2 517 5 522 9          15 368 13 383 -2z m391 -2 c8 -9 10 -155 9 -522 l-3 -509 -77 -3 -78 -3 0 519          c0 285 3 522 7 525 13 13 130 8 142 -7z m220 -21 c9 -17 18 -37 19 -45 8 -34          13 -50 48 -160 19 -63 46 -149 59 -190 39 -128 45 -107 45 169 l0 251 23 5          c13 4 43 5 68 3 l44 -3 3 -522 2 -523 -69 0 -69 0 -45 143 c-73 231 -97 314          -97 331 0 10 -8 16 -21 16 -19 0 -21 -4 -16 -37 11 -66 10 -434 0 -444 -6 -6          -39 -9 -74 -7 l-64 3 -3 509 c-2 377 1 512 10 523 8 10 28 13 66 11 50 -3 57          -6 71 -33z m855 24 c83 -38 131 -235 107 -441 -12 -102 -40 -173 -84 -216 -28          -27 -40 -31 -97 -34 l-65 -3 -3 -173 -2 -173 -73 3 -72 3 -3 510 c-1 281 0          516 3 523 6 16 253 17 289 1z m501 -26 c45 -46 78 -113 102 -208 22 -91 25          -443 4 -550 -16 -83 -60 -181 -100 -224 -28 -30 -31 -31 -119 -31 -110 0 -127          11 -177 114 -55 115 -78 257 -72 441 9 231 46 369 122 451 l41 44 81 0 c80 0          81 0 118 -37z m511 11 c34 -25 64 -81 71 -134 4 -25 11 -40 19 -40 11 0 14 21          14 95 0 90 1 95 23 100 12 3 112 4 222 3 l200 -3 3 -113 c3 -122 15 -141 38          -63 17 60 72 145 104 165 19 11 52 16 103 16 71 0 77 -2 107 -31 61 -62 110          -191 130 -349 5 -36 9 -145 9 -242 1 -161 -1 -178 -17 -187 -10 -5 -26 -36          -36 -68 -18 -59 -56 -124 -90 -156 -15 -14 -37 -17 -112 -17 l-92 0 -36 41          c-32 37 -62 104 -95 209 -32 103 -33 460 -1 519 5 11 10 22 10 25 0 3 -38 6          -85 6 l-85 0 -2 -397 -3 -398 -72 -3 -73 -3 0 401 0 400 -84 0 -84 0 -1 -82          c-1 -96 -21 -181 -51 -218 -44 -54 -45 -66 -16 -121 22 -40 106 -335 106 -372          0 -4 -37 -7 -82 -5 l-83 3 -23 90 c-57 229 -75 286 -93 296 -14 7 -21 6 -24          -3 -3 -7 -6 -96 -7 -198 l-3 -185 -72 -3 -73 -3 0 519 c0 285 3 522 7 526 4 4          74 6 155 4 129 -3 150 -5 174 -24z m1944 13 c33 -17 67 -70 87 -136 21 -71 24          -301 4 -381 -16 -64 -61 -142 -93 -158 -13 -6 -50 -13 -83 -14 l-60 -3 -3          -173 -2 -173 -73 3 -72 3 -3 510 c-1 281 0 516 3 523 6 17 260 17 295 -1z          m498 -24 c41 -44 74 -111 99 -203 14 -53 18 -105 18 -285 0 -254 -13 -334 -71          -431 -53 -90 -61 -94 -169 -94 -93 0 -93 0 -121 33 -39 46 -82 142 -101 228          -21 90 -23 427 -4 499 7 25 12 52 13 60 1 30 69 160 102 194 33 36 34 36 116          36 83 0 83 0 118 -37z m507 20 c25 -12 42 -31 58 -65 31 -66 45 -62 49 15 l3          62 310 0 310 0 5 -375 c6 -391 8 -412 51 -438 29 -18 89 9 89 40 0 13 4 28 10          34 6 6 11 151 12 374 l3 365 49 3 c27 2 60 1 73 -3 l23 -5 0 -369 c0 -334 -2          -376 -20 -448 -24 -98 -44 -147 -77 -190 l-25 -33 -102 0 c-72 0 -108 4 -122          14 -11 8 -36 50 -56 93 -47 101 -58 190 -58 485 0 158 -3 229 -11 234 -7 4          -16 -1 -21 -10 -7 -12 -24 -16 -78 -16 l-70 0 0 -400 0 -400 -75 0 -75 0 0          400 0 400 -75 0 -75 0 0 -47 c0 -114 -40 -252 -87 -299 -14 -14 -13 -20 11          -64 23 -42 80 -243 100 -353 l7 -37 -79 0 -78 0 -12 33 c-6 17 -21 72 -32 122          -34 148 -60 224 -81 236 -14 7 -21 6 -24 -3 -3 -7 -6 -96 -7 -198 l-3 -185          -72 -3 -73 -3 0 519 c0 285 3 522 7 525 3 4 68 7 144 7 109 0 146 -4 174 -17z          m1465 0 c40 -23 89 -136 105 -240 6 -41 6 -43 -19 -43 -13 0 -28 -4 -31 -10          -3 -5 -17 -10 -30 -10 -13 0 -27 -5 -30 -10 -10 -16 -23 -3 -44 44 -16 38 -23          44 -55 48 -48 5 -70 -11 -93 -69 -15 -40 -18 -77 -18 -228 0 -161 2 -185 21          -225 25 -54 65 -80 94 -62 11 7 26 12 33 12 23 0 44 32 52 77 l7 42 -54 3 -53          3 0 120 0 120 111 3 c84 2 113 -1 115 -10 2 -7 2 -113 -1 -235 l-5 -222 -39          -55 c-57 -77 -76 -86 -189 -86 l-96 0 -29 36 c-33 40 -85 141 -85 164 0 8 -3          20 -8 25 -41 53 -39 542 3 592 6 7 8 13 5 13 -14 0 50 129 86 173 l39 47 90 0          c66 0 97 -4 118 -17z m477 -113 c13 -69 34 -192 48 -275 13 -82 42 -258 64          -390 23 -132 41 -243 41 -247 0 -11 -148 -10 -154 1 -3 5 -9 41 -12 80 l-7 71          -84 0 c-58 0 -85 -4 -88 -12 -2 -7 -7 -43 -10 -80 l-7 -68 -72 0 c-40 0 -75 2          -78 5 -3 3 -1 29 4 58 6 28 16 88 24 132 7 44 22 134 34 200 11 66 27 169 35          228 8 60 18 114 22 120 4 6 6 24 5 40 -2 16 3 36 9 43 6 8 8 25 5 38 -3 14 -2          27 3 31 5 3 13 31 17 63 11 91 13 93 102 90 l77 -3 22 -125z m322 116 c8 -10          11 -120 11 -387 l-1 -374 101 -3 100 -3 0 -134 0 -135 -175 0 -175 0 -2 516          c-2 316 1 519 7 525 15 15 121 11 134 -5z m-14635 -402 c14 -5 16 -28 16 -155          l0 -149 -70 0 -70 0 0 149 c0 110 3 151 13 154 18 8 93 8 111 1z m2544 -6 c8          -8 12 -57 12 -155 l0 -143 -70 0 -70 0 0 149 c0 110 3 151 13 154 24 10 103 7          115 -5z m8266 6 c14 -5 16 -29 16 -156 l0 -149 -72 3 -73 3 -3 137 c-3 158 1          168 73 168 24 0 50 -3 59 -6z"
       id="path1" />
  </g>
</svg>
