<?xml version="1.0" encoding="UTF-8" standalone="no"?>
<svg
   width="100%"
   height="50"
   viewBox="0 0 513.568 169.347"
   fill="#ffffff"
   version="1.1"
   id="svg38"
   sodipodi:docname="realiza_som.svg"
   inkscape:version="1.4 (86a8ad7, 2024-10-11)"
   xmlns:inkscape="http://www.inkscape.org/namespaces/inkscape"
   xmlns:sodipodi="http://sodipodi.sourceforge.net/DTD/sodipodi-0.dtd"
   xmlns="http://www.w3.org/2000/svg"
   xmlns:svg="http://www.w3.org/2000/svg">
  <defs
     id="defs38" />
  <sodipodi:namedview
     id="namedview38"
     pagecolor="#ffffff"
     bordercolor="#000000"
     borderopacity="0.25"
     inkscape:showpageshadow="2"
     inkscape:pageopacity="0.0"
     inkscape:pagecheckerboard="0"
     inkscape:deskcolor="#d1d1d1"
     inkscape:zoom="3.4523179"
     inkscape:cx="256.784"
     inkscape:cy="25.05563"
     inkscape:window-width="1920"
     inkscape:window-height="991"
     inkscape:window-x="-9"
     inkscape:window-y="1071"
     inkscape:window-maximized="1"
     inkscape:current-layer="svg38" />
  <g
     id="g25">
    <path
       d="M166.902,160.958c0,1.034,0.396,1.43,1.452,1.43h1.629l0.22,1.431c-0.704,0.198-1.893,0.286-2.42,0.286      c-1.805,0-2.751-1.034-2.751-2.904v-6.535h-1.937v-1.364l1.937-0.088v-3.19h1.87v3.168h3.411v1.475h-3.411V160.958z"
       id="path1" />
    <path
       d="M182.82,163.906h-1.496l-0.132-1.54c-1.606,1.21-3.08,1.826-4.62,1.826      c-1.937,0-2.927-1.013-2.927-2.948v-8.054h1.87v7.525c-0.022,1.364,0.462,1.849,1.694,1.849c1.145,0,2.179-0.528,3.74-1.541      v-7.833h1.87V163.906z"
       id="path2" />
    <path
       d="M193.573,154.687h-0.616c-1.188,0-2.311,0.507-4.004,1.364v7.855h-1.871V153.19h1.453l0.197,1.694      c1.562-1.232,3.125-1.958,4.577-1.958h0.483L193.573,154.687z"
       id="path3" />
    <path
       d="M198.48,148.636c0.396,0,0.572,0.221,0.572,0.572v1.254c0,0.396-0.176,0.572-0.572,0.572h-0.88      c-0.374,0-0.572-0.176-0.572-0.572v-1.254c0-0.352,0.198-0.572,0.572-0.572H198.48z M197.117,163.906V153.19h1.848v10.716      H197.117z"
       id="path4" />
    <path
       d="M205.042,158.867c-1.738-0.418-2.42-1.231-2.42-2.992c0-2.486,1.254-2.992,4.18-2.948      c1.408,0.021,3.191,0.132,4.511,0.33l-0.153,1.364c-1.343-0.044-2.729-0.11-4.071-0.11c-1.979-0.021-2.64,0.022-2.64,1.364      c0,1.122,0.527,1.298,1.562,1.54l3.125,0.704c1.694,0.418,2.486,1.122,2.486,2.948c0,2.641-1.475,3.081-4.577,3.081      c-0.77,0-2.376-0.022-4.202-0.309l0.132-1.364c1.057,0.066,2.311,0.11,3.696,0.089c2.398,0,3.146-0.221,3.146-1.497      c0-1.056-0.66-1.254-1.694-1.496L205.042,158.867z"
       id="path5" />
    <path
       d="M216.896,154.885c1.475-1.276,2.883-1.958,4.379-1.958c1.452,0,2.398,0.638,2.706,1.893      c1.475-1.276,2.86-1.893,4.312-1.893c1.849,0,2.861,1.012,2.861,2.948v8.031h-1.849v-7.503c-0.022-1.32-0.484-1.893-1.672-1.893      c-1.101,0-1.893,0.484-3.521,1.673v7.723h-1.805v-7.503c0-1.387-0.55-1.893-1.672-1.893c-1.078,0-1.871,0.462-3.521,1.65v7.745      h-1.871V153.19h1.541L216.896,154.885z"
       id="path6" />
    <path
       d="M245.044,158.56c0,4.114-1.343,5.633-5.039,5.633c-3.675,0-5.039-1.519-5.039-5.633      c0-4.093,1.364-5.633,5.039-5.633C243.702,152.927,245.044,154.467,245.044,158.56z M236.925,158.56      c0,3.124,0.748,4.049,3.08,4.049s3.103-0.925,3.103-4.049c0-3.125-0.771-4.049-3.103-4.049S236.925,155.435,236.925,158.56z"
       id="path7" />
    <path
       d="M256.262,156.932c0.506,0,0.704,0.197,0.704,0.704v1.21c0,0.506-0.198,0.682-0.704,0.682h-0.616      c-0.506,0-0.704-0.176-0.704-0.682v-1.21c0-0.507,0.198-0.704,0.704-0.704H256.262z"
       id="path8" />
    <path
       d="M269.022,154.885c1.475-1.276,2.883-1.958,4.379-1.958c1.452,0,2.398,0.638,2.706,1.893      c1.475-1.276,2.86-1.893,4.313-1.893c1.848,0,2.861,1.012,2.861,2.948v8.031h-1.85v-7.503c-0.021-1.32-0.484-1.893-1.672-1.893      c-1.1,0-1.893,0.484-3.52,1.673v7.723h-1.805v-7.503c0-1.387-0.55-1.893-1.672-1.893c-1.078,0-1.871,0.462-3.521,1.65v7.745      h-1.871V153.19h1.541L269.022,154.885z"
       id="path9" />
    <path
       d="M296.656,163.906h-1.496l-0.131-1.54c-1.607,1.21-3.08,1.826-4.621,1.826      c-1.936,0-2.926-1.013-2.926-2.948v-8.054h1.869v7.525c-0.021,1.364,0.463,1.849,1.695,1.849c1.145,0,2.178-0.528,3.74-1.541      v-7.833h1.869V163.906z"
       id="path10" />
    <path
       d="M302.713,158.867c-1.738-0.418-2.42-1.231-2.42-2.992c0-2.486,1.254-2.992,4.18-2.948      c1.408,0.021,3.191,0.132,4.51,0.33l-0.152,1.364c-1.344-0.044-2.729-0.11-4.072-0.11c-1.979-0.021-2.639,0.022-2.639,1.364      c0,1.122,0.527,1.298,1.561,1.54l3.125,0.704c1.695,0.418,2.486,1.122,2.486,2.948c0,2.641-1.475,3.081-4.576,3.081      c-0.77,0-2.377-0.022-4.203-0.309l0.133-1.364c1.057,0.066,2.311,0.11,3.695,0.089c2.398,0,3.146-0.221,3.146-1.497      c0-1.056-0.66-1.254-1.693-1.496L302.713,158.867z"
       id="path11" />
    <path
       d="M314.582,159.462c0.197,2.552,1.188,3.124,3.387,3.124c1.145,0,2.619-0.11,3.719-0.264l0.199,1.254      c-1.014,0.418-2.928,0.594-4.16,0.594c-3.695,0-5.125-1.54-5.125-5.654c0-4.203,1.473-5.589,4.928-5.589      c3.234,0,4.6,1.188,4.6,3.498c0.021,1.915-0.771,3.037-2.553,3.037H314.582z M319.092,158.01c0.969,0,1.166-0.792,1.166-1.585      c-0.021-1.364-0.727-1.914-2.641-1.914c-2.244,0-2.992,0.792-3.059,3.499H319.092z"
       id="path12" />
    <path
       d="M334.908,163.906h-1.496l-0.133-1.54c-1.605,1.21-3.08,1.826-4.619,1.826      c-1.938,0-2.928-1.013-2.928-2.948v-8.054h1.871v7.525c-0.023,1.364,0.461,1.849,1.693,1.849c1.145,0,2.18-0.528,3.74-1.541      v-7.833h1.871V163.906z"
       id="path13" />
    <path
       d="M340.963,158.867c-1.738-0.418-2.42-1.231-2.42-2.992c0-2.486,1.254-2.992,4.182-2.948      c1.408,0.021,3.189,0.132,4.51,0.33l-0.154,1.364c-1.342-0.044-2.729-0.11-4.07-0.11c-1.98-0.021-2.641,0.022-2.641,1.364      c0,1.122,0.527,1.298,1.562,1.54l3.125,0.704c1.693,0.418,2.486,1.122,2.486,2.948c0,2.641-1.475,3.081-4.578,3.081      c-0.77,0-2.375-0.022-4.201-0.309l0.131-1.364c1.057,0.066,2.311,0.11,3.697,0.089c2.398,0,3.146-0.221,3.146-1.497      c0-1.056-0.66-1.254-1.695-1.496L340.963,158.867z"
       id="path14" />
    <path
       d="M358.629,156.932c0.506,0,0.703,0.197,0.703,0.704v1.21c0,0.506-0.197,0.682-0.703,0.682h-0.617      c-0.506,0-0.703-0.176-0.703-0.682v-1.21c0-0.507,0.197-0.704,0.703-0.704H358.629z"
       id="path15" />
    <path
       d="M371.432,154.907c1.168-1.232,2.904-1.98,4.445-1.98c2.619,0,3.674,1.958,3.674,5.677      c0,4.137-1.297,5.566-4.047,5.566c-1.365,0-2.707-0.352-3.961-1.1c0.066,0.748,0.066,1.408,0.066,2.156v3.103h-1.871V153.19      h1.541L371.432,154.907z M371.609,161.882c1.342,0.396,2.287,0.66,3.432,0.66c1.871,0,2.596-0.792,2.596-3.938      c0-3.036-0.682-4.049-2.375-4.049c-1.166,0-2.18,0.55-3.652,1.65V161.882z"
       id="path16" />
    <path
       d="M383.443,153.411c1.475-0.242,3.564-0.484,5.172-0.484c2.375,0,3.674,0.836,3.674,3.433v7.547h-1.475      l-0.221-1.761c-0.836,0.858-2.463,1.959-4.422,1.959c-1.914,0-3.213-1.057-3.213-2.992v-1.167c0-1.672,1.102-2.64,2.971-2.64      h4.467v-0.946c0-1.32-0.484-1.849-2.178-1.849c-1.123,0-2.971,0.132-4.6,0.286L383.443,153.411z M384.873,160.892      c0,1.122,0.508,1.606,1.674,1.606c1.055,0.022,2.617-0.506,3.85-1.606v-2.156h-4.137c-1.033,0.044-1.387,0.572-1.387,1.475      V160.892z"
       id="path17" />
    <path
       d="M399.35,160.958c0,1.034,0.396,1.43,1.453,1.43h1.629l0.219,1.431c-0.703,0.198-1.893,0.286-2.42,0.286      c-1.805,0-2.75-1.034-2.75-2.904v-6.535h-1.938v-1.364l1.938-0.088v-3.19h1.869v3.168h3.412v1.475h-3.412V160.958z"
       id="path18" />
    <path
       d="M412.617,154.687H412c-1.188,0-2.309,0.507-4.004,1.364v7.855h-1.871V153.19h1.453l0.197,1.694      c1.562-1.232,3.125-1.958,4.578-1.958h0.482L412.617,154.687z"
       id="path19" />
    <path
       d="M417.525,148.636c0.395,0,0.57,0.221,0.57,0.572v1.254c0,0.396-0.176,0.572-0.57,0.572h-0.881      c-0.375,0-0.572-0.176-0.572-0.572v-1.254c0-0.352,0.197-0.572,0.572-0.572H417.525z M416.16,163.906V153.19h1.848v10.716      H416.16z"
       id="path20" />
    <path
       d="M423.947,154.885c1.475-1.276,2.883-1.958,4.379-1.958c1.453,0,2.398,0.638,2.707,1.893      c1.475-1.276,2.859-1.893,4.312-1.893c1.848,0,2.861,1.012,2.861,2.948v8.031h-1.85v-7.503c-0.021-1.32-0.484-1.893-1.672-1.893      c-1.1,0-1.893,0.484-3.52,1.673v7.723h-1.805v-7.503c0-1.387-0.551-1.893-1.672-1.893c-1.078,0-1.871,0.462-3.521,1.65v7.745      h-1.871V153.19h1.541L423.947,154.885z"
       id="path21" />
    <path
       d="M452.096,158.56c0,4.114-1.342,5.633-5.039,5.633c-3.674,0-5.039-1.519-5.039-5.633      c0-4.093,1.365-5.633,5.039-5.633C450.754,152.927,452.096,154.467,452.096,158.56z M443.977,158.56      c0,3.124,0.748,4.049,3.08,4.049s3.104-0.925,3.104-4.049c0-3.125-0.771-4.049-3.104-4.049S443.977,155.435,443.977,158.56z       M446.242,151.849l-0.637-0.858l3.783-3.234l1.078,1.431L446.242,151.849z"
       id="path22" />
    <path
       d="M457.664,154.885c1.629-1.232,3.213-1.958,4.797-1.958c1.893,0,2.904,1.012,2.904,2.948v8.031h-1.869      v-7.503c0-1.431-0.441-1.893-1.541-1.893c-1.275,0-2.42,0.639-4.137,1.694v7.701h-1.871V153.19h1.586L457.664,154.885z"
       id="path23" />
    <path
       d="M470.992,148.636c0.396,0,0.572,0.221,0.572,0.572v1.254c0,0.396-0.176,0.572-0.572,0.572h-0.881      c-0.373,0-0.572-0.176-0.572-0.572v-1.254c0-0.352,0.199-0.572,0.572-0.572H470.992z M469.629,163.906V153.19h1.848v10.716      H469.629z"
       id="path24" />
    <path
       d="M485.414,158.56c0,4.114-1.342,5.633-5.039,5.633c-3.674,0-5.039-1.519-5.039-5.633      c0-4.093,1.365-5.633,5.039-5.633C484.072,152.927,485.414,154.467,485.414,158.56z M477.295,158.56      c0,3.124,0.748,4.049,3.08,4.049s3.104-0.925,3.104-4.049c0-3.125-0.771-4.049-3.104-4.049S477.295,155.435,477.295,158.56z"
       id="path25" />
  </g>
  <g
     id="g35">
    <path
       d="M178.897,130.81l-1.882-7.637c-0.471-1.593-1.194-2.1-2.679-2.1l-3.872-0.036v9.772h-5.43v-24.974      c3.005-0.29,5.031-0.326,9.52-0.326c6.515,0,9.229,1.665,9.229,7.384c0,3.511-1.23,5.755-4.778,6.189v0.181      c1.268,0.29,2.969,1.194,3.548,3.765l2.171,7.781H178.897z M174.446,116.803c2.896,0,3.764-0.797,3.764-3.547      c0-2.787-0.868-3.511-3.764-3.511l-3.981,0.036v7.021H174.446z"
       id="path26" />
    <path
       d="M219.144,130.557c-3.401,0.361-7.709,0.361-11.582,0.361c-3.329,0-5.465-1.954-5.501-5.03v-15.13      c0.036-3.076,2.172-5.03,5.501-5.03c3.873,0,8.181,0,11.582,0.361l-0.253,4.09H209.3c-1.195,0-1.701,0.543-1.701,1.847v3.8      h9.953v3.981h-9.953v4.813c0,1.34,0.506,1.883,1.701,1.883h9.591L219.144,130.557z"
       id="path27" />
    <path
       d="M243.247,124.259l-1.81,6.551h-5.646l7.203-23.526c0.217-0.904,1.013-1.447,1.918-1.447h5.212      c0.94,0,1.701,0.543,1.918,1.447l7.203,23.526h-5.61l-1.81-6.551H243.247z M248.531,112.351      c-0.181-0.76-0.398-1.593-0.507-2.353h-0.978c-0.181,0.76-0.361,1.593-0.542,2.353l-2.1,7.637h6.226L248.531,112.351z"
       id="path28" />
    <path
       d="M281.352,124.476c0,1.303,0.543,1.846,1.955,1.846h8.578l0.252,4.199      c-3.328,0.361-7.021,0.397-10.568,0.397c-4.018,0-5.718-2.244-5.718-5.32v-19.762h5.501V124.476z"
       id="path29" />
    <path
       d="M309.527,130.81v-24.974h5.502v24.974H309.527z"
       id="path30" />
    <path
       d="M351.076,130.81h-18.242v-4.234l11.871-16.505h-11.582v-4.234h17.664v4.234l-11.873,16.505h12.162      V130.81z"
       id="path31" />
    <path
       d="M375.16,124.259l-1.811,6.551h-5.646l7.203-23.526c0.217-0.904,1.014-1.447,1.918-1.447h5.213      c0.939,0,1.701,0.543,1.918,1.447l7.203,23.526h-5.611l-1.809-6.551H375.16z M380.443,112.351      c-0.18-0.76-0.398-1.593-0.506-2.353h-0.977c-0.182,0.76-0.363,1.593-0.543,2.353l-2.1,7.637h6.225L380.443,112.351z"
       id="path32" />
    <path
       d="M412.9,119.59c-3.801-1.376-5.176-3.62-5.176-7.312c0-5.719,2.641-6.913,9.084-6.913      c2.461,0,5.43,0.181,8.217,0.978l-0.363,3.764c-2.1-0.072-5.176-0.108-7.818-0.108c-2.678,0-3.619,0.145-3.619,2.28      c0,1.737,0.725,2.208,2.607,2.823l4.74,1.629c3.982,1.411,5.285,3.691,5.285,7.347c0,5.683-2.461,7.203-9.266,7.203      c-1.594,0-4.742-0.108-8.578-0.941l0.326-3.981c4.633,0.108,6.658,0.182,8.252,0.182c2.895,0,3.691-0.398,3.691-2.426      c0-1.773-0.688-2.207-2.354-2.75L412.9,119.59z"
       id="path33" />
    <path
       d="M464.543,118.322c0,10.026-2.822,12.958-10.713,12.958s-10.678-2.932-10.678-12.958      c0-10.025,2.787-12.957,10.678-12.957S464.543,108.297,464.543,118.322z M448.943,118.322c0,6.624,1.123,8.506,4.887,8.506      s4.887-1.882,4.887-8.506c0-6.623-1.123-8.505-4.887-8.505S448.943,111.699,448.943,118.322z"
       id="path34" />
    <path
       d="M508.129,105.836c1.34,0,2.027,0.724,2.062,2.062l0.977,22.911h-5.211l-0.832-20.667h-0.615      l-3.766,15.455c-0.252,1.194-1.012,1.773-2.242,1.773h-3.621c-1.23,0-1.99-0.579-2.244-1.773l-3.799-15.455h-0.615      l-0.725,20.667h-5.211l0.904-22.911c0.072-1.339,0.723-2.062,2.062-2.062h5.32c1.195,0,1.918,0.615,2.172,1.773l3.041,12.45      c0.289,1.195,0.471,2.354,0.65,3.512h0.471c0.217-1.158,0.398-2.316,0.652-3.512l3.004-12.45      c0.289-1.158,1.014-1.773,2.244-1.773H508.129z"
       id="path35" />
  </g>
  <g
     id="g38">
    <path
       d="M66.342,85.067c-0.066-11.092-0.975-17.541-2.703-19.168c-1.158-1.09-5.424-2.389-19.174-2.389      c-14.527,0-18.996,1.424-20.189,2.617c-1.73,1.734-2.625,9.227-2.518,21.096c0.148,16.184,2.035,18.004,2.656,18.602      c1.176,1.137,5.543,2.492,19.676,2.492c14.104,0,18.461-1.35,19.635-2.48C64.967,104.64,66.428,100.065,66.342,85.067z       M60.816,102.556l-0.076,0.193l-0.197,0.066c-1.777,0.6-7.684,1.246-16.453,1.246c-10.113,0-15.213-0.82-16.498-1.254      l-0.197-0.066l-0.076-0.193c-1.723-4.305-1.779-28.816-0.078-33.197l0.074-0.195l0.197-0.066      c1.311-0.457,6.539-1.322,16.953-1.322c8.504,0,14.27,0.615,16.025,1.189l0.199,0.064l0.078,0.195      C62.512,73.556,62.549,98.173,60.816,102.556z"
       id="path36" />
    <path
       d="M44.777,116.938c-1.58,0-2.865,1.285-2.865,2.867c0,1.586,1.285,2.875,2.865,2.875      c1.584,0,2.875-1.289,2.875-2.875C47.652,118.224,46.361,116.938,44.777,116.938z"
       id="path37" />
    <path
       d="M144.344,85.716c0-33.594-16.713-64.791-44.705-83.455c-1.111-0.74-2.725-0.414-3.461,0.693      c-0.371,0.555-0.502,1.221-0.371,1.873c0.131,0.654,0.508,1.217,1.062,1.586c26.602,17.736,42.482,47.383,42.482,79.303      c0,0.799-0.008,1.594-0.029,2.457c0,2.641-2.15,4.799-4.795,4.799c-2.658,0-4.822-2.121-4.822-4.727      c0.023-0.846,0.039-1.686,0.039-2.529c0-28.586-14.211-55.193-38.012-71.18c-1.588-1.01-3.426-1.545-5.309-1.545      c-3.371,0-6.453,1.678-8.242,4.49c-2.91,4.576-1.588,10.65,2.951,13.539C99.307,43.354,110.15,63.8,110.15,85.718      c0,0.789-0.016,1.574-0.045,2.363l-0.002,0.094c0,2.639-2.162,4.797-4.82,4.797c-2.625,0-4.779-2.121-4.803-4.729      c0.043-0.982,0.062-1.777,0.062-2.525c0-18.553-9.137-35.932-24.438-46.486l-0.086-0.057c-2.158-1.371-4.838-1.857-7.342-1.324      c-2.559,0.547-4.74,2.062-6.145,4.268c-2.873,4.514-1.555,10.543,2.939,13.439c9.775,6.949,15.602,18.219,15.602,30.16      c0,31.445-28.072,63.33-36.674,72.354l-0.33,0.346l-0.324-0.35C35.131,148.806,7.02,116.222,7.02,85.833      c0-1.375-1.119-2.494-2.496-2.494s-2.496,1.119-2.496,2.494c0,37.455,38.617,76.297,40.26,77.934      c0.93,0.92,2.541,0.938,3.49,0.025c1.645-1.582,40.289-39.195,40.289-78.074c0-13.578-6.629-26.381-17.729-34.248l0.135-0.451      l-0.242,0.379c-2.23-1.418-2.898-4.379-1.484-6.6c0.678-1.066,1.734-1.801,2.975-2.066c1.213-0.258,2.523-0.027,3.566,0.621      c13.947,9.637,22.264,25.469,22.264,42.365c0,0.684-0.018,1.426-0.059,2.334l-0.004,0.125c0,5.391,4.395,9.787,9.795,9.787      c5.389,0,9.789-4.367,9.812-9.736c0.029-0.842,0.049-1.674,0.049-2.51c0-23.574-11.689-45.582-31.27-58.869      c-2.209-1.404-2.893-4.471-1.484-6.689c0.875-1.369,2.385-2.188,4.037-2.188c0.922,0,1.812,0.258,2.574,0.742      c22.391,15.039,35.752,40.086,35.752,67.002c0,0.795-0.016,1.586-0.039,2.459c0,5.393,4.402,9.789,9.812,9.789      c2.609,0,5.064-1.02,6.916-2.867c1.854-1.848,2.871-4.283,2.869-6.861C144.334,87.39,144.344,86.556,144.344,85.716z"
       id="path38" />
  </g>
</svg>
